<?xml version="1.0" encoding="UTF-8" standalone="no"?>
<!-- Created with Inkscape (http://www.inkscape.org/) -->

<svg
   xmlns:dc="http://purl.org/dc/elements/1.1/"
   xmlns:cc="http://creativecommons.org/ns#"
   xmlns:rdf="http://www.w3.org/1999/02/22-rdf-syntax-ns#"
   xmlns:svg="http://www.w3.org/2000/svg"
   xmlns="http://www.w3.org/2000/svg"
   xmlns:sodipodi="http://sodipodi.sourceforge.net/DTD/sodipodi-0.dtd"
   xmlns:inkscape="http://www.inkscape.org/namespaces/inkscape"
   width="128"
   height="128"
   viewBox="0 0 128 128"
   id="svg2"
   version="1.1"
   inkscape:version="0.92.2 5c3e80d, 2017-08-06"
   sodipodi:docname="azw2.svg">
  <defs
     id="defs4">
    <linearGradient
       id="linearGradient4561"
       x1="24"
       x2="44"
       y1="24"
       y2="24"
       gradientTransform="matrix(2.6,0,0,2.66668,1.6,922.36212)"
       gradientUnits="userSpaceOnUse">
      <stop
         offset="0"
         id="stop2" />
      <stop
         offset="1"
         stop-opacity="0"
         id="stop4" />
    </linearGradient>
  </defs>
  <sodipodi:namedview
     id="base"
     pagecolor="#ffffff"
     bordercolor="#666666"
     borderopacity="1.0"
     inkscape:pageopacity="0.0"
     inkscape:pageshadow="2"
     inkscape:zoom="2.52183"
     inkscape:cx="1.7868586"
     inkscape:cy="34.444409"
     inkscape:document-units="px"
     inkscape:current-layer="layer1"
     showgrid="false"
     units="px"
     showguides="true"
     inkscape:guide-bbox="true"
     inkscape:window-width="1366"
     inkscape:window-height="694"
     inkscape:window-x="0"
     inkscape:window-y="48"
     inkscape:window-maximized="1">
    <inkscape:grid
       type="xygrid"
       id="grid4136"
       empspacing="4" />
    <sodipodi:guide
       position="8,140"
       orientation="1,0"
       id="guide4138"
       inkscape:label="Margin Left"
       inkscape:color="rgb(0,0,255)"
       inkscape:locked="false" />
    <sodipodi:guide
       position="120,140"
       orientation="1,0"
       id="guide4140"
       inkscape:label="Margin Right"
       inkscape:color="rgb(0,0,255)"
       inkscape:locked="false" />
    <sodipodi:guide
       position="-20,120"
       orientation="0,1"
       id="guide4142"
       inkscape:label="Margin Top"
       inkscape:color="rgb(0,0,255)"
       inkscape:locked="false" />
    <sodipodi:guide
       position="-16,8"
       orientation="0,1"
       id="guide4144"
       inkscape:label="Margin Bottom"
       inkscape:color="rgb(0,0,255)"
       inkscape:locked="false" />
    <sodipodi:guide
       position="8,8"
       orientation="-0.70710678,0.70710678"
       id="guide4146"
       inkscape:locked="false" />
    <sodipodi:guide
       position="72,56"
       orientation="0.70710678,0.70710678"
       id="guide4148"
       inkscape:locked="false" />
    <sodipodi:guide
       position="20,140"
       orientation="1,0"
       id="guide4150"
       inkscape:label="Rectangle Left"
       inkscape:color="rgb(0,0,255)"
       inkscape:locked="false" />
    <sodipodi:guide
       position="108,140"
       orientation="1,0"
       id="guide4152"
       inkscape:label="Rectangle Right"
       inkscape:color="rgb(0,0,255)"
       inkscape:locked="false" />
    <sodipodi:guide
       position="-20,116"
       orientation="0,1"
       id="guide4154"
       inkscape:label="Shadow Top"
       inkscape:color="rgb(0,0,255)"
       inkscape:locked="false" />
    <sodipodi:guide
       position="-16,12"
       orientation="0,1"
       id="guide4156"
       inkscape:label="Shadow Bottom"
       inkscape:color="rgb(0,0,255)"
       inkscape:locked="false" />
    <sodipodi:guide
       position="-20,104"
       orientation="0,1"
       id="guide4158"
       inkscape:label="Rectangle Top"
       inkscape:color="rgb(0,0,255)"
       inkscape:locked="false" />
    <sodipodi:guide
       position="-16,24"
       orientation="0,1"
       id="guide4160"
       inkscape:label="Rectangle Bottom"
       inkscape:color="rgb(0,0,255)"
       inkscape:locked="false" />
  </sodipodi:namedview>
  <metadata
     id="metadata7">
    <rdf:RDF>
      <cc:Work
         rdf:about="">
        <dc:format>image/svg+xml</dc:format>
        <dc:type
           rdf:resource="http://purl.org/dc/dcmitype/StillImage" />
        <dc:title />
      </cc:Work>
    </rdf:RDF>
  </metadata>
  <g
     inkscape:label="Layer 1"
     inkscape:groupmode="layer"
     id="layer1"
     transform="translate(0,-924.36216)">
    <path
       style="opacity:0.2;stroke-width:4"
       d="m 116,1033.029 v -85.33608 c 0,-2.9532 -2.32,-5.332 -5.2,-5.332 H 17.2 c -2.8808,0 -5.2,2.37868 -5.2,5.3332 v 85.33608 c 0,2.952 2.3192,5.332 5.2,5.332 h 93.6 c 2.88,0 5.2,-2.38 5.2,-5.332 z"
       id="path9"
       inkscape:connector-curvature="0" />
    <path
       d="m 116,1029.0302 v -85.33608 c 0,-2.9532 -2.32,-5.332 -5.2,-5.332 H 17.2 c -2.8808,0 -5.2,2.37868 -5.2,5.3332 v 85.33608 c 0,2.952 2.3192,5.332 5.2,5.332 h 93.6 c 2.88,0 5.2,-2.38 5.2,-5.332 z"
       id="path11"
       inkscape:connector-curvature="0"
       style="fill:#ddd6a7;stroke-width:4" />
    <g
       transform="matrix(2,0,0,2,-2,924.36212)"
       id="g25">
      <rect
         width="20"
         height="2"
         x="35"
         y="-33"
         transform="scale(1,-1)"
         id="rect13"
         style="opacity:0.5" />
      <rect
         width="20"
         height="2"
         x="35"
         y="-29"
         transform="scale(1,-1)"
         id="rect15"
         style="opacity:0.5" />
      <rect
         width="18"
         height="2"
         x="35"
         y="-25"
         transform="scale(1,-1)"
         id="rect17"
         style="opacity:0.5" />
      <rect
         width="14"
         height="2"
         x="35"
         y="-21"
         transform="scale(1,-1)"
         id="rect19"
         style="opacity:0.5" />
      <rect
         width="20"
         height="2"
         x="35"
         y="-17"
         transform="scale(1,-1)"
         id="rect21"
         style="opacity:0.5" />
      <rect
         width="16"
         height="2"
         x="35"
         y="-13"
         transform="scale(1,-1)"
         id="rect23"
         style="opacity:0.5" />
    </g>
    <g
       transform="matrix(2,0,0,2,-2,920.36212)"
       id="g49">
      <rect
         width="20"
         height="2"
         x="9"
         y="13"
         id="rect27"
         style="opacity:0.5" />
      <rect
         width="18"
         height="2"
         x="9"
         y="17"
         id="rect29"
         style="opacity:0.5" />
      <rect
         width="16"
         height="2"
         x="9"
         y="21"
         id="rect31"
         style="opacity:0.5" />
      <rect
         width="14"
         height="2"
         x="9"
         y="25"
         id="rect33"
         style="opacity:0.5" />
      <rect
         width="12"
         height="2"
         x="9"
         y="29"
         id="rect35"
         style="opacity:0.5" />
      <rect
         width="20"
         height="2"
         x="9"
         y="33"
         id="rect37"
         style="opacity:0.5" />
      <rect
         width="20"
         height="2"
         x="9"
         y="37"
         id="rect39"
         style="opacity:0.5" />
      <rect
         width="18"
         height="2"
         x="9"
         y="41"
         id="rect41"
         style="opacity:0.5" />
      <rect
         width="14"
         height="2"
         x="9"
         y="45"
         id="rect43"
         style="opacity:0.5" />
      <rect
         width="20"
         height="2"
         x="9"
         y="49"
         id="rect45"
         style="opacity:0.5" />
      <rect
         width="16"
         height="2"
         x="9"
         y="53"
         id="rect47"
         style="opacity:0.5" />
    </g>
    <path
       d="m 44,938.36212 h 16 v 44 l -8,-12 -8,12 z"
       id="path51"
       inkscape:connector-curvature="0"
       style="fill:#ff5959;stroke-width:4" />
    <path
       d="m 17.1992,938.36212 c -2.8808,0 -5.1992,2.3772 -5.1992,5.332 v 4 c 0,-2.9548 2.3184,-5.332 5.1992,-5.332 h 93.6 c 2.88,0 5.2,2.3772 5.2,5.332 v -4 c 0,-2.9548 -2.32,-5.332 -5.2,-5.332 z"
       id="path53"
       inkscape:connector-curvature="0"
       style="opacity:0.2;fill:#ffffff;stroke-width:4" />
    <path
       d="m 116,1029.0302 v -85.33608 c 0,-2.9532 -2.32,-5.332 -5.2,-5.332 H 64 v 96.00008 h 46.8 c 2.88,0 5.2,-2.38 5.2,-5.332 z"
       id="path55"
       style="opacity:0.1;fill:url(#linearGradient4561);stroke-width:4"
       inkscape:connector-curvature="0" />
    <g
       id="g75"
       transform="matrix(0.5,0,0,0.5,38.30508,508.24106)">
      <path
         style="opacity:0.2;fill-rule:evenodd;stroke-width:4"
         inkscape:connector-curvature="0"
         id="path4"
         d="m 102.12574,1003.8636 c 0,3.3649 0.0862,6.1636 -1.53848,9.1448 -1.307083,2.4221 -3.384643,3.9139 -5.700803,3.9139 -3.16312,0 -4.9996,-2.5182 -4.9996,-6.24 0,-7.3452 6.2892,-8.682 12.241203,-8.682 v 1.8658 m 8.3076,20.9996 c -0.53908,0.5096 -1.3268,0.549 -1.94216,0.2117 -2.72988,-2.3754 -3.2222,-3.4806 -4.7312,-5.7504 -4.519603,4.8272 -7.712003,6.2696 -13.578003,6.2696 -6.9316,0 -12.3324,-4.47 -12.3324,-13.4228 0,-6.9908 3.62588,-11.7588 8.778,-14.08758 4.4628,-2.05788 10.7128,-2.42216 15.490403,-2.9908 v -1.11508 c 0,-2.048 0.15508,-4.47 -0.98956,-6.24 -1.00924,-1.58772 -2.931723,-2.24 -4.625203,-2.24 -3.1434,0 -5.9424,1.68372 -6.624,5.1744 -0.14524,0.77784 -0.68184,1.53848 -1.43264,1.57784 l -7.9904,-0.89356 c -0.672,-0.16248 -1.41292,-0.73108 -1.2308,-1.8068 1.84616,-10.1144 10.5972,-13.1744 18.4224,-13.1744 4.010003,0 9.250403,1.11508 12.406403,4.288 4.01,3.91388 3.62588,9.1348 3.62588,14.8184 v 13.42278 c 0,4.0396 1.59508,5.8068 3.10648,7.9904 0.52924,0.7705 0.64492,1.7108 -0.0196,2.2893 -1.68372,1.4818 -4.672,4.192 -6.3164,5.7208 l -0.0296,-0.03" />
      <path
         style="opacity:0.2;fill-rule:evenodd;stroke-width:4"
         inkscape:connector-curvature="0"
         id="path6"
         d="m 124.84974,1025.5836 c -2.23908,0.032 -4.8848,0.5479 -6.8848,1.9904 -0.62524,0.4431 -0.51864,1.0573 0.17308,0.9711 2.24988,-0.2806 7.2796,-0.8953 8.1732,0.2789 0.9034,1.1717 -0.9996,6.0192 -1.83656,8.1828 -0.25848,0.6547 0.2894,0.9228 0.8654,0.4231 3.76864,-3.2198 4.732,-9.97 3.96164,-10.9424 -0.37908,-0.4862 -2.21288,-0.9362 -4.452,-0.9039 z m -58.836003,1.2981 c -0.46708,0.063 -0.67376,0.642 -0.182696,1.0961 8.3508,7.736 19.3948,12.38 31.6508,12.38 8.748399,0 18.897199,-2.8283 25.907999,-8.1156 l 0.005,-0.01 c 1.16432,-0.8861 0.17216,-2.1922 -1.01924,-1.6827 -7.8476,3.4241 -16.3952,5.0672 -24.153999,5.0672 -11.5104,0 -22.664,-3.2298 -31.6728,-8.606 -0.196924,-0.1175 -0.382772,-0.1507 -0.53848,-0.1298 z" />
      <path
         style="fill:#ffffff;fill-rule:evenodd;stroke-width:4"
         inkscape:connector-curvature="0"
         id="path8"
         d="m 102.12574,999.85558 c 0,3.36492 0.0862,6.16362 -1.53848,9.14482 -1.307083,2.4221 -3.384643,3.9139 -5.700803,3.9139 -3.16312,0 -4.9996,-2.5182 -4.9996,-6.24 0,-7.34524 6.2892,-8.68204 12.241203,-8.68204 v 1.86588 m 8.3076,20.99956 c -0.53908,0.5096 -1.3268,0.549 -1.94216,0.2117 -2.72988,-2.3754 -3.2222,-3.4806 -4.7312,-5.7504 -4.519603,4.8272 -7.712003,6.2696 -13.578003,6.2696 -6.9316,0 -12.3324,-4.47 -12.3324,-13.4228 0,-6.9908 3.62588,-11.75878 8.778,-14.08758 4.4628,-2.05788 10.7128,-2.42216 15.490403,-2.9908 v -1.11508 c 0,-2.048 0.15508,-4.47 -0.98956,-6.24 -1.00924,-1.58772 -2.931723,-2.24 -4.625203,-2.24 -3.1434,0 -5.9424,1.68372 -6.624,5.1744 -0.14524,0.77784 -0.68184,1.53848 -1.43264,1.57784 l -7.9904,-0.89356 c -0.672,-0.16248 -1.41292,-0.73108 -1.2308,-1.8068 1.84616,-10.1144 10.5972,-13.1744 18.4224,-13.1744 4.010003,0 9.250403,1.11508 12.406403,4.288 4.01,3.91388 3.62588,9.1348 3.62588,14.8184 v 13.42278 c 0,4.0396 1.59508,5.8068 3.10648,7.9904 0.52924,0.7705 0.64492,1.7108 -0.0196,2.2893 -1.68372,1.4818 -4.672,4.192 -6.3164,5.7208 l -0.0296,-0.03" />
      <path
         style="fill:#ff9900;fill-rule:evenodd;stroke-width:4"
         inkscape:connector-curvature="0"
         id="path10"
         d="m 124.84974,1021.5756 c -2.23908,0.032 -4.8848,0.5479 -6.8848,1.9904 -0.62524,0.4431 -0.51864,1.0573 0.17308,0.9711 2.24988,-0.2806 7.2796,-0.8953 8.1732,0.2789 0.9034,1.1717 -0.9996,6.0192 -1.83656,8.1828 -0.25848,0.6547 0.2894,0.9228 0.8654,0.4231 3.76864,-3.2198 4.732,-9.97 3.96164,-10.9424 -0.37908,-0.4862 -2.21288,-0.9362 -4.452,-0.9039 z m -58.836003,1.2981 c -0.46708,0.063 -0.67376,0.642 -0.182696,1.0961 8.352,7.7392 19.3948,12.3816 31.6532,12.3816 8.748399,0 18.897199,-2.8283 25.907999,-8.1156 l 0.005,-0.01 c 1.16432,-0.8861 0.17216,-2.1922 -1.01924,-1.6827 -7.8476,3.4241 -16.3952,5.0672 -24.153999,5.0672 -11.5104,0 -22.664,-3.2298 -31.6728,-8.606 -0.196924,-0.1175 -0.382772,-0.1507 -0.53848,-0.1298 z" />
    </g>
  </g>
</svg>
