<svg xmlns="http://www.w3.org/2000/svg" width="32" height="32" version="1.1">
 <path style="opacity:0.2" d="M 7.25,5 C 6.5575,5 6,5.5575 6,6.25 V 28.75 C 6,29.442 6.5575,30 7.25,30 H 24.75 C 25.442,30 26,29.442 26,28.75 V 13 L 18,5 Z"/>
 <path style="fill:#3f5979" d="M 7.25,4 C 6.5575,4 6,4.5575 6,5.25 V 27.75 C 6,28.442 6.5575,29 7.25,29 H 24.75 C 25.442,29 26,28.442 26,27.75 V 12 L 18,4 Z"/>
 <path style="opacity:0.2" d="M 26,13 18,5 V 11.75 C 18,12.443 18.558,13 19.25,13 Z"/>
 <path style="fill:#8ca5c9" d="M 26,12 18,4 V 10.75 C 18,11.443 18.558,12 19.25,12 Z"/>
 <path style="opacity:0.1;fill:#ffffff" d="M 7.25 4 C 6.5575 4 6 4.5575 6 5.25 L 6 6.25 C 6 5.5575 6.5575 5 7.25 5 L 18 5 L 18 4 L 7.25 4 z"/>
 <path style="fill-rule:evenodd;opacity:0.2" d="M 16.932,19.584 C 16.932,20.268 16.95,20.837 16.619,21.442 16.354,21.934 15.932,22.237 15.461,22.237 14.819,22.237 14.445,21.726 14.445,20.97 14.445,19.477 15.723,19.206 16.933,19.206 V 19.585 M 18.62,23.851 C 18.511,23.955 18.351,23.963 18.226,23.894 17.671,23.412 17.571,23.187 17.265,22.726 16.347,23.707 15.698,24 14.506,24 13.098,24 12.001,23.092 12.001,21.273 12.001,19.853 12.737,18.884 13.784,18.411 14.691,17.992 15.961,17.918 16.932,17.803 V 17.576 C 16.932,17.16 16.963,16.668 16.731,16.309 16.525,15.986 16.135,15.853 15.791,15.853 15.152,15.853 14.584,16.195 14.445,16.905 14.415,17.063 14.306,17.217 14.154,17.225 L 12.53,17.044 C 12.394,17.011 12.243,16.895 12.28,16.677 12.655,14.622 14.433,14 16.023,14 16.837,14 17.902,14.227 18.543,14.871 19.358,15.666 19.28,16.727 19.28,17.882 V 20.609 C 19.28,21.43 19.604,21.789 19.911,22.233 20.019,22.389 20.042,22.58 19.907,22.698 19.565,22.999 18.958,23.55 18.624,23.86 L 18.618,23.854"/>
 <path style="fill:#ffffff;fill-rule:evenodd" d="M 16.932,18.584 C 16.932,19.268 16.95,19.837 16.619,20.442 16.354,20.934 15.932,21.237 15.461,21.237 14.819,21.237 14.445,20.726 14.445,19.97 14.445,18.477 15.723,18.206 16.933,18.206 V 18.585 M 18.62,22.851 C 18.511,22.955 18.351,22.963 18.226,22.894 17.671,22.412 17.571,22.187 17.265,21.726 16.347,22.707 15.698,23 14.506,23 13.098,23 12.001,22.092 12.001,20.273 12.001,18.853 12.737,17.884 13.784,17.411 14.691,16.992 15.961,16.918 16.932,16.803 V 16.576 C 16.932,16.16 16.963,15.668 16.731,15.309 16.525,14.986 16.135,14.853 15.791,14.853 15.152,14.853 14.584,15.195 14.445,15.905 14.415,16.063 14.306,16.217 14.154,16.225 L 12.53,16.044 C 12.394,16.011 12.243,15.895 12.28,15.677 12.655,13.622 14.433,13 16.023,13 16.837,13 17.902,13.227 18.543,13.871 19.358,14.666 19.28,15.727 19.28,16.882 V 19.609 C 19.28,20.43 19.604,20.789 19.911,21.233 20.019,21.389 20.042,21.58 19.907,21.698 19.565,21.999 18.958,22.55 18.624,22.86 L 18.618,22.854"/>
 <path style="fill-rule:evenodd;opacity:0.2" d="M 21.046,24.999 C 20.591,25.006 20.054,25.111 19.647,25.404 19.52,25.494 19.542,25.618 19.682,25.601 20.14,25.544 21.161,25.419 21.343,25.657 21.526,25.895 21.14,26.88 20.97,27.32 20.917,27.452 21.028,27.507 21.145,27.405 21.911,26.751 22.106,25.38 21.95,25.183 21.873,25.084 21.5,24.993 21.046,24.999 Z M 9.0942,25.262 C 8.9997,25.275 8.9577,25.393 9.0572,25.485 10.754,27.056 12.997,28 15.487,28 17.264,28 19.325,27.425 20.749,26.351 L 20.75,26.349 C 20.987,26.169 20.785,25.904 20.543,26.008 18.949,26.703 17.213,27.037 15.637,27.037 13.299,27.037 11.034,26.381 9.2037,25.289 9.1637,25.265 9.1262,25.258 9.0942,25.262 Z"/>
 <path style="fill:#ff9900;fill-rule:evenodd" d="M 21.046,23.999 C 20.591,24.006 20.054,24.111 19.647,24.404 19.52,24.494 19.542,24.618 19.682,24.601 20.14,24.544 21.161,24.419 21.343,24.657 21.526,24.895 21.14,25.88 20.97,26.32 20.917,26.452 21.028,26.507 21.145,26.405 21.911,25.751 22.106,24.38 21.95,24.183 21.873,24.084 21.5,23.993 21.046,23.999 Z M 9.0942,24.262 C 8.9997,24.275 8.9577,24.393 9.0572,24.485 10.754,26.056 12.997,27 15.487,27 17.264,27 19.325,26.425 20.749,25.351 L 20.75,25.349 C 20.987,25.169 20.785,24.904 20.543,25.008 18.949,25.703 17.213,26.037 15.637,26.037 13.299,26.037 11.034,25.381 9.2037,24.289 9.1637,24.265 9.1262,24.258 9.0942,24.262 Z"/>
</svg>
