<?xml version="1.0" encoding="UTF-8" standalone="no"?>
<!-- Created with Inkscape (http://www.inkscape.org/) -->

<svg
   xmlns:dc="http://purl.org/dc/elements/1.1/"
   xmlns:cc="http://creativecommons.org/ns#"
   xmlns:rdf="http://www.w3.org/1999/02/22-rdf-syntax-ns#"
   xmlns:svg="http://www.w3.org/2000/svg"
   xmlns="http://www.w3.org/2000/svg"
   xmlns:sodipodi="http://sodipodi.sourceforge.net/DTD/sodipodi-0.dtd"
   xmlns:inkscape="http://www.inkscape.org/namespaces/inkscape"
   width="128"
   height="128"
   viewBox="0 0 128 128"
   id="svg2"
   version="1.1"
   inkscape:version="0.92.2 5c3e80d, 2017-08-06"
   sodipodi:docname="cbr.svg">
  <defs
     id="defs4">
    <linearGradient
       id="linearGradient4561"
       x1="24"
       x2="44"
       y1="24"
       y2="24"
       gradientTransform="matrix(2.6,0,0,2.66668,1.6,922.36212)"
       gradientUnits="userSpaceOnUse">
      <stop
         offset="0"
         id="stop2" />
      <stop
         offset="1"
         stop-opacity="0"
         id="stop4" />
    </linearGradient>
  </defs>
  <sodipodi:namedview
     id="base"
     pagecolor="#ffffff"
     bordercolor="#666666"
     borderopacity="1.0"
     inkscape:pageopacity="0.0"
     inkscape:pageshadow="2"
     inkscape:zoom="2.52183"
     inkscape:cx="71.265085"
     inkscape:cy="65.860304"
     inkscape:document-units="px"
     inkscape:current-layer="layer1"
     showgrid="false"
     units="px"
     showguides="true"
     inkscape:guide-bbox="true"
     inkscape:window-width="1366"
     inkscape:window-height="717"
     inkscape:window-x="0"
     inkscape:window-y="25"
     inkscape:window-maximized="1">
    <inkscape:grid
       type="xygrid"
       id="grid4136"
       empspacing="4" />
    <sodipodi:guide
       position="8,140"
       orientation="1,0"
       id="guide4138"
       inkscape:label="Margin Left"
       inkscape:color="rgb(0,0,255)"
       inkscape:locked="false" />
    <sodipodi:guide
       position="120,140"
       orientation="1,0"
       id="guide4140"
       inkscape:label="Margin Right"
       inkscape:color="rgb(0,0,255)"
       inkscape:locked="false" />
    <sodipodi:guide
       position="-20,120"
       orientation="0,1"
       id="guide4142"
       inkscape:label="Margin Top"
       inkscape:color="rgb(0,0,255)"
       inkscape:locked="false" />
    <sodipodi:guide
       position="-16,8"
       orientation="0,1"
       id="guide4144"
       inkscape:label="Margin Bottom"
       inkscape:color="rgb(0,0,255)"
       inkscape:locked="false" />
    <sodipodi:guide
       position="8,8"
       orientation="-0.70710678,0.70710678"
       id="guide4146"
       inkscape:locked="false" />
    <sodipodi:guide
       position="72,56"
       orientation="0.70710678,0.70710678"
       id="guide4148"
       inkscape:locked="false" />
    <sodipodi:guide
       position="20,140"
       orientation="1,0"
       id="guide4150"
       inkscape:label="Rectangle Left"
       inkscape:color="rgb(0,0,255)"
       inkscape:locked="false" />
    <sodipodi:guide
       position="108,140"
       orientation="1,0"
       id="guide4152"
       inkscape:label="Rectangle Right"
       inkscape:color="rgb(0,0,255)"
       inkscape:locked="false" />
    <sodipodi:guide
       position="-20,116"
       orientation="0,1"
       id="guide4154"
       inkscape:label="Shadow Top"
       inkscape:color="rgb(0,0,255)"
       inkscape:locked="false" />
    <sodipodi:guide
       position="-16,12"
       orientation="0,1"
       id="guide4156"
       inkscape:label="Shadow Bottom"
       inkscape:color="rgb(0,0,255)"
       inkscape:locked="false" />
    <sodipodi:guide
       position="-20,104"
       orientation="0,1"
       id="guide4158"
       inkscape:label="Rectangle Top"
       inkscape:color="rgb(0,0,255)"
       inkscape:locked="false" />
    <sodipodi:guide
       position="-16,24"
       orientation="0,1"
       id="guide4160"
       inkscape:label="Rectangle Bottom"
       inkscape:color="rgb(0,0,255)"
       inkscape:locked="false" />
  </sodipodi:namedview>
  <metadata
     id="metadata7">
    <rdf:RDF>
      <cc:Work
         rdf:about="">
        <dc:format>image/svg+xml</dc:format>
        <dc:type
           rdf:resource="http://purl.org/dc/dcmitype/StillImage" />
        <dc:title></dc:title>
      </cc:Work>
    </rdf:RDF>
  </metadata>
  <g
     inkscape:label="Layer 1"
     inkscape:groupmode="layer"
     id="layer1"
     transform="translate(0,-924.36216)">
    <path
       style="opacity:0.2;stroke-width:4"
       d="m 29,940.36212 c -2.77,0 -5,2.23 -5,5 v 90.00008 c 0,2.768 2.23,5 5,5 h 70 c 2.768,0 5,-2.232 5,-5 v -63.00008 l -32,-32 z"
       id="path2"
       inkscape:connector-curvature="0" />
    <path
       style="fill:#ffba3a;stroke-width:4"
       d="m 29,936.36212 c -2.77,0 -5,2.23 -5,5 v 90.00008 c 0,2.768 2.23,5 5,5 h 70 c 2.768,0 5,-2.232 5,-5 v -63.00008 l -32,-32 z"
       id="path4"
       inkscape:connector-curvature="0" />
    <path
       style="opacity:0.2;stroke-width:4"
       d="m 104,972.36212 -32,-32 v 27 c 0,2.772 2.232,5 5,5 z"
       id="path6"
       inkscape:connector-curvature="0" />
    <path
       style="fill:#ffdea2;stroke-width:4"
       d="m 104,968.36212 -32,-32 v 27 c 0,2.772 2.232,5 5,5 z"
       id="path8"
       inkscape:connector-curvature="0" />
    <path
       style="opacity:0.2;fill:#ffffff;stroke-width:4"
       d="m 29,936.36212 c -2.77,0 -5,2.23 -5,5 v 4 c 0,-2.77 2.23,-5 5,-5 h 43 v -4 z"
       id="path10"
       inkscape:connector-curvature="0" />
    <path
       style="fill:#3f3f3f;stroke-width:4"
       d="m 56,984.36212 v 11.40137 c 0,0 0,4.59861 -4.259488,4.59861 -2.057844,0 -5.703236,-1.4706 -7.160512,-3.9492 -1.987484,-3.37987 1.42,-8.05078 1.42,-8.05078 -10,0 -18,8 -18,17.90428 1e-6,14.0958 8,18.0958 14,18.0958 0,0 -3.635563,-10.2447 1.358256,-11.7 2.707172,-0.4183 7.114664,1.1433 8.641744,3.7 0,0 -1.406592,-3.6238 2.52288,-3.7 3.929472,-0.076 8.811972,5.9088 9.47712,11.7 0.665148,-5.7912 5.547648,-11.7763 9.47712,-11.7 3.929472,0.076 2.52288,3.7 2.52288,3.7 1.52708,-2.5567 5.934572,-4.1183 8.641744,-3.7 4.99382,1.4553 1.358256,11.7 1.358256,11.7 6,0 14,-8 14,-18.0958 0,-9.90428 -8,-17.90428 -18,-17.90428 0,0 3.407484,4.67091 1.42,8.05078 -1.457276,2.4786 -5.102668,3.9492 -7.160512,3.9492 C 72,1000.3621 72,995.76349 72,995.76349 v -11.40137 l -4,4 h -4 -4 z"
       id="path12"
       inkscape:connector-curvature="0" />
  </g>
</svg>
