<svg xmlns="http://www.w3.org/2000/svg" width="32" height="32" version="1">
 <path fill="#ccc" d="m28.6 4h-25.2c-0.7756 0-1.4 0.669-1.4 1.5v21c0 0.831 0.6244 1.5 1.4 1.5h25.2c0.7756 0 1.4-0.669 1.4-1.5v-21c0-0.831-0.624-1.5-1.4-1.5z"/>
 <path opacity=".15" d="m2 5.5c0-0.831 0.6244-1.5 1.4-1.5h12.6v24h-12.6c-0.7756 0-1.4-0.669-1.4-1.5z"/>
 <rect opacity=".6" width="6" height="1" x="4" y="6"/>
 <rect opacity=".6" width="9" height="1" x="4" y="9"/>
 <rect opacity=".6" width="10" height="1" x="4" y="12"/>
 <rect opacity=".6" width="7" height="1" x="4" y="15"/>
 <rect opacity=".6" width="9" height="1" x="4" y="18"/>
 <path fill="#fff" opacity=".2" d="m3.4004 4c-0.7756 0-1.4004 0.669-1.4004 1.5v1c0-0.831 0.6248-1.5 1.4004-1.5h25.2c0.775 0 1.4 0.669 1.4 1.5v-1c0-0.831-0.625-1.5-1.4-1.5h-25.2z"/>
 <path opacity=".2" d="m2 26.5v1c0 0.831 0.6248 1.5 1.4004 1.5h25.2c0.775 0 1.4-0.669 1.4-1.5v-1c0 0.831-0.625 1.5-1.4 1.5h-25.2c-0.7752 0-1.4-0.669-1.4-1.5z"/>
 <path style="fill:#c2352a" d="M 23,11 C 21.34,11 20,12.3 20,14 V 15 H 19.5 C 19.223,15 19,15.223 19,15.5 V 20.5 C 19,20.777 19.223,21 19.5,21 H 26.5 C 26.777,21 27,20.777 27,20.5 V 15.5 C 27,15.223 26.777,15 26.5,15 H 26 V 14 C 26,12.3 24.66,11 23,11 Z M 23,12 C 24.11,12 25,12.9 25,14 V 15 H 21 V 14 C 21,12.9 21.89,12 23,12 Z"/>
</svg>
