<?xml version="1.0" encoding="UTF-8" standalone="no"?>
<!-- Created with Inkscape (http://www.inkscape.org/) -->

<svg
   xmlns:dc="http://purl.org/dc/elements/1.1/"
   xmlns:cc="http://creativecommons.org/ns#"
   xmlns:rdf="http://www.w3.org/1999/02/22-rdf-syntax-ns#"
   xmlns:svg="http://www.w3.org/2000/svg"
   xmlns="http://www.w3.org/2000/svg"
   xmlns:sodipodi="http://sodipodi.sourceforge.net/DTD/sodipodi-0.dtd"
   xmlns:inkscape="http://www.inkscape.org/namespaces/inkscape"
   width="128"
   height="128"
   viewBox="0 0 128 128"
   id="svg2"
   version="1.1"
   inkscape:version="0.92.2 5c3e80d, 2017-08-06"
   sodipodi:docname="svg.svg">
  <defs
     id="defs4">
    <linearGradient
       id="linearGradient4561"
       x1="24"
       x2="44"
       y1="24"
       y2="24"
       gradientTransform="matrix(2.6,0,0,2.66668,1.6,922.36212)"
       gradientUnits="userSpaceOnUse">
      <stop
         offset="0"
         id="stop2" />
      <stop
         offset="1"
         stop-opacity="0"
         id="stop4" />
    </linearGradient>
  </defs>
  <sodipodi:namedview
     id="base"
     pagecolor="#ffffff"
     bordercolor="#666666"
     borderopacity="1.0"
     inkscape:pageopacity="0.0"
     inkscape:pageshadow="2"
     inkscape:zoom="2.52183"
     inkscape:cx="71.265085"
     inkscape:cy="65.860304"
     inkscape:document-units="px"
     inkscape:current-layer="layer1"
     showgrid="false"
     units="px"
     showguides="true"
     inkscape:guide-bbox="true"
     inkscape:window-width="1366"
     inkscape:window-height="717"
     inkscape:window-x="0"
     inkscape:window-y="25"
     inkscape:window-maximized="1">
    <inkscape:grid
       type="xygrid"
       id="grid4136"
       empspacing="4" />
    <sodipodi:guide
       position="8,140"
       orientation="1,0"
       id="guide4138"
       inkscape:label="Margin Left"
       inkscape:color="rgb(0,0,255)"
       inkscape:locked="false" />
    <sodipodi:guide
       position="120,140"
       orientation="1,0"
       id="guide4140"
       inkscape:label="Margin Right"
       inkscape:color="rgb(0,0,255)"
       inkscape:locked="false" />
    <sodipodi:guide
       position="-20,120"
       orientation="0,1"
       id="guide4142"
       inkscape:label="Margin Top"
       inkscape:color="rgb(0,0,255)"
       inkscape:locked="false" />
    <sodipodi:guide
       position="-16,8"
       orientation="0,1"
       id="guide4144"
       inkscape:label="Margin Bottom"
       inkscape:color="rgb(0,0,255)"
       inkscape:locked="false" />
    <sodipodi:guide
       position="8,8"
       orientation="-0.70710678,0.70710678"
       id="guide4146"
       inkscape:locked="false" />
    <sodipodi:guide
       position="72,56"
       orientation="0.70710678,0.70710678"
       id="guide4148"
       inkscape:locked="false" />
    <sodipodi:guide
       position="20,140"
       orientation="1,0"
       id="guide4150"
       inkscape:label="Rectangle Left"
       inkscape:color="rgb(0,0,255)"
       inkscape:locked="false" />
    <sodipodi:guide
       position="108,140"
       orientation="1,0"
       id="guide4152"
       inkscape:label="Rectangle Right"
       inkscape:color="rgb(0,0,255)"
       inkscape:locked="false" />
    <sodipodi:guide
       position="-20,116"
       orientation="0,1"
       id="guide4154"
       inkscape:label="Shadow Top"
       inkscape:color="rgb(0,0,255)"
       inkscape:locked="false" />
    <sodipodi:guide
       position="-16,12"
       orientation="0,1"
       id="guide4156"
       inkscape:label="Shadow Bottom"
       inkscape:color="rgb(0,0,255)"
       inkscape:locked="false" />
    <sodipodi:guide
       position="-20,104"
       orientation="0,1"
       id="guide4158"
       inkscape:label="Rectangle Top"
       inkscape:color="rgb(0,0,255)"
       inkscape:locked="false" />
    <sodipodi:guide
       position="-16,24"
       orientation="0,1"
       id="guide4160"
       inkscape:label="Rectangle Bottom"
       inkscape:color="rgb(0,0,255)"
       inkscape:locked="false" />
  </sodipodi:namedview>
  <metadata
     id="metadata7">
    <rdf:RDF>
      <cc:Work
         rdf:about="">
        <dc:format>image/svg+xml</dc:format>
        <dc:type
           rdf:resource="http://purl.org/dc/dcmitype/StillImage" />
        <dc:title></dc:title>
      </cc:Work>
    </rdf:RDF>
  </metadata>
  <g
     inkscape:label="Layer 1"
     inkscape:groupmode="layer"
     id="layer1"
     transform="translate(0,-924.36216)">
    <path
       style="opacity:0.2;stroke-width:4"
       d="m 116,1033.029 v -85.33607 c 0,-2.9532 -2.32,-5.332 -5.2,-5.332 H 17.2 c -2.8808,0 -5.2,2.37868 -5.2,5.3332 v 85.33607 c 0,2.952 2.3192,5.332 5.2,5.332 h 93.6 c 2.88,0 5.2,-2.38 5.2,-5.332 z"
       id="path2"
       inkscape:connector-curvature="0" />
    <path
       d="m 116,1029.0302 v -85.33607 c 0,-2.9532 -2.32,-5.332 -5.2,-5.332 H 17.2 c -2.8808,0 -5.2,2.37868 -5.2,5.3332 v 85.33607 c 0,2.952 2.3192,5.332 5.2,5.332 h 93.6 c 2.88,0 5.2,-2.38 5.2,-5.332 z"
       id="path4"
       inkscape:connector-curvature="0"
       style="fill:#bf9a66;stroke-width:4" />
    <path
       style="opacity:0.2;stroke-width:4"
       d="m 34,978.36213 a 10,10 0 0 0 -10,10 10,10 0 0 0 10,9.99996 10,10 0 0 0 4.664062,-1.1562 l 9.984374,11.64841 A 10,10 0 0 0 48,1012.3621 a 10,10 0 0 0 10,10.0001 10,10 0 0 0 9.843752,-8.336 l 16.460936,-3.2891 A 10,10 0 0 0 94,1018.3622 a 10,10 0 0 0 10,-10.0001 10,10 0 0 0 -10,-10.00001 10,10 0 0 0 -9.843752,8.32821 l -16.453124,3.2968 A 10,10 0 0 0 58,1002.3621 a 10,10 0 0 0 -7.101564,2.9766 L 41.75,994.66679 a 10,10 0 0 0 2.25,-6.30466 10,10 0 0 0 -10,-10 z"
       id="path6"
       inkscape:connector-curvature="0" />
    <path
       style="fill:#ffffff;stroke-width:4"
       d="m 34,974.36213 a 10,10 0 0 0 -10,10 10,10 0 0 0 10,9.99996 10,10 0 0 0 4.664062,-1.15621 l 9.984374,11.64842 A 10,10 0 0 0 48,1008.3621 a 10,10 0 0 0 10,10.0001 10,10 0 0 0 9.843752,-8.336 l 16.460936,-3.2891 A 10,10 0 0 0 94,1014.3622 a 10,10 0 0 0 10,-10.0001 10,10 0 0 0 -10,-10.00001 10,10 0 0 0 -9.843752,8.32821 l -16.453124,3.2968 A 10,10 0 0 0 58,998.36209 10,10 0 0 0 50.898436,1001.3387 L 41.75,990.66682 a 10,10 0 0 0 2.25,-6.30469 10,10 0 0 0 -10,-10 z"
       id="path8"
       inkscape:connector-curvature="0" />
    <path
       style="opacity:0.2;fill:#ffffff;stroke-width:4"
       d="m 17.1992,938.36213 c -2.8808,0 -5.1992,2.3772 -5.1992,5.332 v 4 c 0,-2.9548 2.3184,-5.332 5.1992,-5.332 h 93.6 c 2.88,0 5.2,2.3772 5.2,5.332 v -4 c 0,-2.9548 -2.32,-5.332 -5.2,-5.332 z"
       id="path10"
       inkscape:connector-curvature="0" />
  </g>
</svg>
