<?xml version="1.0" encoding="UTF-8" standalone="no"?>
<!-- Created with Inkscape (http://www.inkscape.org/) -->

<svg
   xmlns:dc="http://purl.org/dc/elements/1.1/"
   xmlns:cc="http://creativecommons.org/ns#"
   xmlns:rdf="http://www.w3.org/1999/02/22-rdf-syntax-ns#"
   xmlns:svg="http://www.w3.org/2000/svg"
   xmlns="http://www.w3.org/2000/svg"
   xmlns:sodipodi="http://sodipodi.sourceforge.net/DTD/sodipodi-0.dtd"
   xmlns:inkscape="http://www.inkscape.org/namespaces/inkscape"
   width="128"
   height="128"
   viewBox="0 0 128 128"
   id="svg2"
   version="1.1"
   inkscape:version="0.92.2 5c3e80d, 2017-08-06"
   sodipodi:docname="unknown.svg">
  <defs
     id="defs4">
    <linearGradient
       id="linearGradient4561"
       x1="24"
       x2="44"
       y1="24"
       y2="24"
       gradientTransform="matrix(2.6,0,0,2.66668,1.6,922.36212)"
       gradientUnits="userSpaceOnUse">
      <stop
         offset="0"
         id="stop2" />
      <stop
         offset="1"
         stop-opacity="0"
         id="stop4" />
    </linearGradient>
  </defs>
  <sodipodi:namedview
     id="base"
     pagecolor="#ffffff"
     bordercolor="#666666"
     borderopacity="1.0"
     inkscape:pageopacity="0.0"
     inkscape:pageshadow="2"
     inkscape:zoom="2.52183"
     inkscape:cx="71.265085"
     inkscape:cy="65.860304"
     inkscape:document-units="px"
     inkscape:current-layer="layer1"
     showgrid="false"
     units="px"
     showguides="true"
     inkscape:guide-bbox="true"
     inkscape:window-width="1366"
     inkscape:window-height="717"
     inkscape:window-x="0"
     inkscape:window-y="25"
     inkscape:window-maximized="1">
    <inkscape:grid
       type="xygrid"
       id="grid4136"
       empspacing="4" />
    <sodipodi:guide
       position="8,140"
       orientation="1,0"
       id="guide4138"
       inkscape:label="Margin Left"
       inkscape:color="rgb(0,0,255)"
       inkscape:locked="false" />
    <sodipodi:guide
       position="120,140"
       orientation="1,0"
       id="guide4140"
       inkscape:label="Margin Right"
       inkscape:color="rgb(0,0,255)"
       inkscape:locked="false" />
    <sodipodi:guide
       position="-20,120"
       orientation="0,1"
       id="guide4142"
       inkscape:label="Margin Top"
       inkscape:color="rgb(0,0,255)"
       inkscape:locked="false" />
    <sodipodi:guide
       position="-16,8"
       orientation="0,1"
       id="guide4144"
       inkscape:label="Margin Bottom"
       inkscape:color="rgb(0,0,255)"
       inkscape:locked="false" />
    <sodipodi:guide
       position="8,8"
       orientation="-0.70710678,0.70710678"
       id="guide4146"
       inkscape:locked="false" />
    <sodipodi:guide
       position="72,56"
       orientation="0.70710678,0.70710678"
       id="guide4148"
       inkscape:locked="false" />
    <sodipodi:guide
       position="20,140"
       orientation="1,0"
       id="guide4150"
       inkscape:label="Rectangle Left"
       inkscape:color="rgb(0,0,255)"
       inkscape:locked="false" />
    <sodipodi:guide
       position="108,140"
       orientation="1,0"
       id="guide4152"
       inkscape:label="Rectangle Right"
       inkscape:color="rgb(0,0,255)"
       inkscape:locked="false" />
    <sodipodi:guide
       position="-20,116"
       orientation="0,1"
       id="guide4154"
       inkscape:label="Shadow Top"
       inkscape:color="rgb(0,0,255)"
       inkscape:locked="false" />
    <sodipodi:guide
       position="-16,12"
       orientation="0,1"
       id="guide4156"
       inkscape:label="Shadow Bottom"
       inkscape:color="rgb(0,0,255)"
       inkscape:locked="false" />
    <sodipodi:guide
       position="-20,104"
       orientation="0,1"
       id="guide4158"
       inkscape:label="Rectangle Top"
       inkscape:color="rgb(0,0,255)"
       inkscape:locked="false" />
    <sodipodi:guide
       position="-16,24"
       orientation="0,1"
       id="guide4160"
       inkscape:label="Rectangle Bottom"
       inkscape:color="rgb(0,0,255)"
       inkscape:locked="false" />
  </sodipodi:namedview>
  <metadata
     id="metadata7">
    <rdf:RDF>
      <cc:Work
         rdf:about="">
        <dc:format>image/svg+xml</dc:format>
        <dc:type
           rdf:resource="http://purl.org/dc/dcmitype/StillImage" />
        <dc:title></dc:title>
      </cc:Work>
    </rdf:RDF>
  </metadata>
  <g
     inkscape:label="Layer 1"
     inkscape:groupmode="layer"
     id="layer1"
     transform="translate(0,-924.36216)">
    <path
       style="opacity:0.2;stroke-width:4"
       d="m 29,940.36274 c -2.77,0 -5,2.23 -5,5 v 90.00006 c 0,2.768 2.23,5 5,5 h 70 c 2.768,0 5,-2.232 5,-5 v -63.00006 l -27.5,-4.5 -4.5,-27.5 z"
       id="path2"
       inkscape:connector-curvature="0" />
    <path
       d="m 29,936.36274 c -2.77,0 -5,2.23 -5,5 v 90.00006 c 0,2.768 2.23,5 5,5 h 70 c 2.768,0 5,-2.232 5,-5 v -63.00006 l -27.5,-4.5 -4.5,-27.5 z"
       id="path4"
       inkscape:connector-curvature="0"
       style="fill:#cccccc;stroke-width:4" />
    <path
       style="opacity:0.2;stroke-width:4"
       d="m 72,940.36274 v 26.6668 c 0,2.944 2.388,5.332 5.332,5.332 H 104 l -32,-32 z"
       id="path6"
       inkscape:connector-curvature="0" />
    <path
       d="m 72,936.36274 v 26.6668 c 0,2.944 2.388,5.332 5.332,5.332 H 104 l -32,-32 z"
       id="path8"
       inkscape:connector-curvature="0"
       style="fill:#ebebeb;stroke-width:4" />
    <path
       d="m 62,980.36274 c -6.664,0 -10,6.476 -10,12 h 6 c 0.0994,-0.70576 0.006,-1.35176 0,-2 0,-2.20912 1.79088,-4 4,-4 2.20912,0 4,1.79088 4,4 -0.001,0.22 -0.0212,0.43948 -0.0586,0.65624 -0.007,0.0458 -0.0112,0.0908 -0.0196,0.13672 -0.68,3.788 -5.864,7.992 -5.92,13.96 v 1.25 h 6 c 0,-3.75 -0.3742,-5.2492 1.42576,-7.0744 l 2.25,-2.3008 c 1.428,-1.424 2.328,-3.424 2.328,-5.624 0,-5.524 -3.336,-11 -10,-11 z m -2,29.99996 v 6.0001 h 6 v -6.0001 z"
       id="path10"
       inkscape:connector-curvature="0"
       style="opacity:0.5;stroke-width:4" />
    <path
       d="m 29,936.36274 c -2.77,0 -5,2.23 -5,5 v 4 c 0,-2.77 2.23,-5 5,-5 h 43 v -4 z"
       id="path12"
       inkscape:connector-curvature="0"
       style="opacity:0.2;fill:#ffffff;stroke-width:4" />
  </g>
</svg>
