<?xml version="1.0" encoding="UTF-8" standalone="no"?>
<!-- Created with Inkscape (http://www.inkscape.org/) -->

<svg
   xmlns:dc="http://purl.org/dc/elements/1.1/"
   xmlns:cc="http://creativecommons.org/ns#"
   xmlns:rdf="http://www.w3.org/1999/02/22-rdf-syntax-ns#"
   xmlns:svg="http://www.w3.org/2000/svg"
   xmlns="http://www.w3.org/2000/svg"
   xmlns:sodipodi="http://sodipodi.sourceforge.net/DTD/sodipodi-0.dtd"
   xmlns:inkscape="http://www.inkscape.org/namespaces/inkscape"
   width="128"
   height="128"
   viewBox="0 0 128 128"
   id="svg2"
   version="1.1"
   inkscape:version="0.92.2 5c3e80d, 2017-08-06"
   sodipodi:docname="plugin_upgrade_ok.svg">
  <defs
     id="defs4">
    <linearGradient
       id="linearGradient4561"
       x1="24"
       x2="44"
       y1="24"
       y2="24"
       gradientTransform="matrix(2.6,0,0,2.66668,1.6,922.36212)"
       gradientUnits="userSpaceOnUse">
      <stop
         offset="0"
         id="stop2" />
      <stop
         offset="1"
         stop-opacity="0"
         id="stop4" />
    </linearGradient>
  </defs>
  <sodipodi:namedview
     id="base"
     pagecolor="#ffffff"
     bordercolor="#666666"
     borderopacity="1.0"
     inkscape:pageopacity="0.0"
     inkscape:pageshadow="2"
     inkscape:zoom="2.52183"
     inkscape:cx="-42.271038"
     inkscape:cy="32.794972"
     inkscape:document-units="px"
     inkscape:current-layer="layer1"
     showgrid="true"
     units="px"
     showguides="true"
     inkscape:guide-bbox="true"
     inkscape:window-width="1366"
     inkscape:window-height="694"
     inkscape:window-x="0"
     inkscape:window-y="48"
     inkscape:window-maximized="1">
    <inkscape:grid
       type="xygrid"
       id="grid4136"
       empspacing="4" />
    <sodipodi:guide
       position="8,140"
       orientation="1,0"
       id="guide4138"
       inkscape:label="Margin Left"
       inkscape:color="rgb(0,0,255)"
       inkscape:locked="false" />
    <sodipodi:guide
       position="120,140"
       orientation="1,0"
       id="guide4140"
       inkscape:label="Margin Right"
       inkscape:color="rgb(0,0,255)"
       inkscape:locked="false" />
    <sodipodi:guide
       position="-20,120"
       orientation="0,1"
       id="guide4142"
       inkscape:label="Margin Top"
       inkscape:color="rgb(0,0,255)"
       inkscape:locked="false" />
    <sodipodi:guide
       position="-16,8"
       orientation="0,1"
       id="guide4144"
       inkscape:label="Margin Bottom"
       inkscape:color="rgb(0,0,255)"
       inkscape:locked="false" />
    <sodipodi:guide
       position="8,8"
       orientation="-0.70710678,0.70710678"
       id="guide4146"
       inkscape:locked="false" />
    <sodipodi:guide
       position="72,56"
       orientation="0.70710678,0.70710678"
       id="guide4148"
       inkscape:locked="false" />
    <sodipodi:guide
       position="20,140"
       orientation="1,0"
       id="guide4150"
       inkscape:label="Rectangle Left"
       inkscape:color="rgb(0,0,255)"
       inkscape:locked="false" />
    <sodipodi:guide
       position="108,140"
       orientation="1,0"
       id="guide4152"
       inkscape:label="Rectangle Right"
       inkscape:color="rgb(0,0,255)"
       inkscape:locked="false" />
    <sodipodi:guide
       position="-20,116"
       orientation="0,1"
       id="guide4154"
       inkscape:label="Shadow Top"
       inkscape:color="rgb(0,0,255)"
       inkscape:locked="false" />
    <sodipodi:guide
       position="-16,12"
       orientation="0,1"
       id="guide4156"
       inkscape:label="Shadow Bottom"
       inkscape:color="rgb(0,0,255)"
       inkscape:locked="false" />
    <sodipodi:guide
       position="-20,104"
       orientation="0,1"
       id="guide4158"
       inkscape:label="Rectangle Top"
       inkscape:color="rgb(0,0,255)"
       inkscape:locked="false" />
    <sodipodi:guide
       position="-16,24"
       orientation="0,1"
       id="guide4160"
       inkscape:label="Rectangle Bottom"
       inkscape:color="rgb(0,0,255)"
       inkscape:locked="false" />
  </sodipodi:namedview>
  <metadata
     id="metadata7">
    <rdf:RDF>
      <cc:Work
         rdf:about="">
        <dc:format>image/svg+xml</dc:format>
        <dc:type
           rdf:resource="http://purl.org/dc/dcmitype/StillImage" />
        <dc:title />
      </cc:Work>
    </rdf:RDF>
  </metadata>
  <g
     inkscape:label="Layer 1"
     inkscape:groupmode="layer"
     id="layer1"
     transform="translate(0,-924.36216)">
    <path
       d="m 53.999625,932.36215 c -6.64805,0 -12.00005,5.352 -12.00005,12 v 12 h -28 c -4.432,0 -8,3.568 -8,8 v 24 h 12 c 6.648,0 12,5.352 12,11.99995 0,6.6481 -5.352,12.0001 -12,12.0001 h -12 v 28 c 0,4.432 3.568,8 8,8 h 28 v -8 c 0,-6.648 5.352,-12 12.00005,-12 6.648,0 12,5.352 12,12 v 8 h 24 c 4.432,0 8,-3.568 8,-8 v -28 h 11.999995 c 6.648,0 12,-5.352 12,-12.0001 0,-6.64795 -5.352,-11.99995 -12,-11.99995 H 97.999625 v -24 c 0,-4.432 -3.568,-8 -8,-8 h -24 v -12 c 0,-6.648 -5.352,-12 -12,-12 z"
       id="path2"
       inkscape:connector-curvature="0"
       style="opacity:0.2;stroke-width:4" />
    <path
       d="m 53.999625,928.36215 c -6.64805,0 -12.00005,5.352 -12.00005,12 v 12 h -28 c -4.432,0 -8,3.568 -8,8 v 24 h 12 c 6.648,0 12,5.352 12,12 0,6.64795 -5.352,12.00005 -12,12.00005 h -12 v 28 c 0,4.432 3.568,8 8,8 h 28 v -8 c 0,-6.648 5.352,-12 12.00005,-12 6.648,0 12,5.352 12,12 v 8 h 24 c 4.432,0 8,-3.568 8,-8 v -28 h 11.999995 c 6.648,0 12,-5.3521 12,-12.00005 0,-6.648 -5.352,-12 -12,-12 H 97.999625 v -24 c 0,-4.432 -3.568,-8 -8,-8 h -24 v -12 c 0,-6.648 -5.352,-12 -12,-12 z"
       id="path4"
       inkscape:connector-curvature="0"
       style="fill:#009587;stroke-width:4;fill-opacity:1" />
    <path
       d="m 53.999625,928.36215 c -6.64805,0 -12.00005,5.352 -12.00005,12 v 4 c 0,-6.648 5.352,-12 12.00005,-12 6.648,0 12,5.352 12,12 v -4 c 0,-6.648 -5.352,-12 -12,-12 z m -40.00005,24 c -4.432,0 -8,3.568 -8,8 v 4 c 0,-4.432 3.568,-8 8,-8 h 28 v -4 z m 52.00005,0 v 4 h 24 c 4.432,0 8,3.568 8,8 v -4 c 0,-4.432 -3.568,-8 -8,-8 z m 32,32 v 4 h 11.999995 c 5.96161,0 10.84481,4.3172 11.79681,10 0.112,-0.656 0.20399,-1.312 0.20399,-2 0,-6.648 -5.352,-12 -12,-12 H 98.000425 Z m -68.20405,14 c -0.952,5.68005 -5.836,10.00005 -11.796,10.00005 h -12 v 4 h 12 c 6.648,0 12,-5.352 12,-12.0001 0,-0.68795 -0.094,-1.34395 -0.2032,-1.99995 z"
       id="path6"
       inkscape:connector-curvature="0"
       style="opacity:0.1;fill:#ffffff;stroke-width:4" />
  </g>
</svg>
