<?xml version="1.0" encoding="UTF-8" standalone="no"?>
<svg
   xmlns:dc="http://purl.org/dc/elements/1.1/"
   xmlns:cc="http://creativecommons.org/ns#"
   xmlns:rdf="http://www.w3.org/1999/02/22-rdf-syntax-ns#"
   xmlns:svg="http://www.w3.org/2000/svg"
   xmlns="http://www.w3.org/2000/svg"
   xmlns:sodipodi="http://sodipodi.sourceforge.net/DTD/sodipodi-0.dtd"
   xmlns:inkscape="http://www.inkscape.org/namespaces/inkscape"
   width="32"
   height="32"
   version="1"
   id="svg2"
   inkscape:version="0.91 r13725"
   sodipodi:docname="add_book.svg">
  <metadata
     id="metadata22">
    <rdf:RDF>
      <cc:Work
         rdf:about="">
        <dc:format>image/svg+xml</dc:format>
        <dc:type
           rdf:resource="http://purl.org/dc/dcmitype/StillImage" />
        <dc:title></dc:title>
      </cc:Work>
    </rdf:RDF>
  </metadata>
  <defs
     id="defs20" />
  <sodipodi:namedview
     pagecolor="#ffffff"
     bordercolor="#666666"
     borderopacity="1"
     objecttolerance="10"
     gridtolerance="10"
     guidetolerance="10"
     inkscape:pageopacity="0"
     inkscape:pageshadow="2"
     inkscape:window-width="1920"
     inkscape:window-height="1022"
     id="namedview18"
     showgrid="true"
     inkscape:zoom="15.81"
     inkscape:cx="16"
     inkscape:cy="16"
     inkscape:window-x="0"
     inkscape:window-y="28"
     inkscape:window-maximized="1"
     inkscape:current-layer="svg2">
    <inkscape:grid
       type="xygrid"
       id="grid4150" />
  </sodipodi:namedview>
  <path
     sodipodi:nodetypes="ccccccccccccccccccccc"
     inkscape:connector-curvature="0"
     id="path4216"
     d="M 13,3 C 10.790952,3.0002209 9.0002209,4.7909525 9,7 l 0,3 -3,0 c -2.2090475,2.21e-4 -3.9997791,1.790952 -4,4 l 0,6 c 2.209e-4,2.209048 1.7909525,3.999779 4,4 l 3,0 0,3 c 2.209e-4,2.209048 1.790952,3.999779 4,4 l 6,0 c 2.209048,-2.21e-4 3.999779,-1.790952 4,-4 l 0,-3 3,0 c 2.209048,-2.21e-4 3.999779,-1.790952 4,-4 l 0,-6 c -2.21e-4,-2.209048 -1.790952,-3.999779 -4,-4 l -3,0 0,-3 C 22.999779,4.7909525 21.209048,3.0002209 19,3 Z"
     style="color:#000000;font-style:normal;font-variant:normal;font-weight:normal;font-stretch:normal;font-size:medium;line-height:normal;font-family:sans-serif;text-indent:0;text-align:start;text-decoration:none;text-decoration-line:none;text-decoration-style:solid;text-decoration-color:#000000;letter-spacing:normal;word-spacing:normal;text-transform:none;direction:ltr;block-progression:tb;writing-mode:lr-tb;baseline-shift:baseline;text-anchor:start;white-space:normal;clip-rule:nonzero;display:inline;overflow:visible;visibility:visible;opacity:0.2;isolation:auto;mix-blend-mode:normal;color-interpolation:sRGB;color-interpolation-filters:linearRGB;solid-color:#000000;solid-opacity:1;fill:#000000;fill-opacity:1;fill-rule:nonzero;stroke:none;stroke-width:8;stroke-linecap:round;stroke-linejoin:round;stroke-miterlimit:4;stroke-dasharray:none;stroke-dashoffset:0;stroke-opacity:1;color-rendering:auto;image-rendering:auto;shape-rendering:auto;text-rendering:auto;enable-background:accumulate" />
  <path
     style="color:#000000;font-style:normal;font-variant:normal;font-weight:normal;font-stretch:normal;font-size:medium;line-height:normal;font-family:sans-serif;text-indent:0;text-align:start;text-decoration:none;text-decoration-line:none;text-decoration-style:solid;text-decoration-color:#000000;letter-spacing:normal;word-spacing:normal;text-transform:none;direction:ltr;block-progression:tb;writing-mode:lr-tb;baseline-shift:baseline;text-anchor:start;white-space:normal;clip-rule:nonzero;display:inline;overflow:visible;visibility:visible;opacity:1;isolation:auto;mix-blend-mode:normal;color-interpolation:sRGB;color-interpolation-filters:linearRGB;solid-color:#000000;solid-opacity:1;fill:#4caf50;fill-opacity:1;fill-rule:nonzero;stroke:none;stroke-width:8;stroke-linecap:round;stroke-linejoin:round;stroke-miterlimit:4;stroke-dasharray:none;stroke-dashoffset:0;stroke-opacity:1;color-rendering:auto;image-rendering:auto;shape-rendering:auto;text-rendering:auto;enable-background:accumulate"
     d="M 13,2 C 10.790952,2.0002209 9.0002209,3.7909525 9,6 L 9,9 6,9 c -2.2090475,2.209e-4 -3.9997791,1.790952 -4,4 l 0,6 c 2.209e-4,2.209048 1.7909525,3.999779 4,4 l 3,0 0,3 c 2.209e-4,2.209048 1.790952,3.999779 4,4 l 6,0 c 2.209048,-2.21e-4 3.999779,-1.790952 4,-4 l 0,-3 3,0 c 2.209048,-2.21e-4 3.999779,-1.790952 4,-4 l 0,-6 C 29.999779,10.790952 28.209048,9.0002209 26,9 L 23,9 23,6 C 22.999779,3.7909525 21.209048,2.0002209 19,2 Z"
     id="path4212"
     inkscape:connector-curvature="0"
     sodipodi:nodetypes="ccccccccccccccccccccc" />
  <path
     id="path4218"
     d="m 13,7 0,7 -7,0 0,6 7,0 0,7 6,0 0,-7 7,0 0,-6 -7,0 0,-7 -6,0 z"
     style="opacity:0.2;fill:#000000;fill-opacity:1"
     inkscape:connector-curvature="0" />
  <path
     style="opacity:1;fill:#ffffff;fill-opacity:1"
     d="M 13 6 L 13 13 L 6 13 L 6 19 L 13 19 L 13 26 L 19 26 L 19 19 L 26 19 L 26 13 L 19 13 L 19 6 L 13 6 z "
     id="rect4152" />
  <path
     style="color:#000000;font-style:normal;font-variant:normal;font-weight:normal;font-stretch:normal;font-size:medium;line-height:normal;font-family:sans-serif;text-indent:0;text-align:start;text-decoration:none;text-decoration-line:none;text-decoration-style:solid;text-decoration-color:#000000;letter-spacing:normal;word-spacing:normal;text-transform:none;direction:ltr;block-progression:tb;writing-mode:lr-tb;baseline-shift:baseline;text-anchor:start;white-space:normal;clip-rule:nonzero;display:inline;overflow:visible;visibility:visible;opacity:0.2;isolation:auto;mix-blend-mode:normal;color-interpolation:sRGB;color-interpolation-filters:linearRGB;solid-color:#000000;solid-opacity:1;fill:#ffffff;fill-opacity:1;fill-rule:nonzero;stroke:none;stroke-width:8;stroke-linecap:round;stroke-linejoin:round;stroke-miterlimit:4;stroke-dasharray:none;stroke-dashoffset:0;stroke-opacity:1;color-rendering:auto;image-rendering:auto;shape-rendering:auto;text-rendering:auto;enable-background:accumulate"
     d="M 13 2 C 10.790952 2.0002209 9.0002209 3.7909525 9 6 L 9 7 C 9.0002209 4.7909525 10.790952 3.0002209 13 3 L 19 3 C 21.209048 3.0002209 22.999779 4.7909525 23 7 L 23 6 C 22.999779 3.7909525 21.209048 2.0002209 19 2 L 13 2 z M 6 9 C 3.7909525 9.0002209 2.0002209 10.790952 2 13 L 2 14 C 2.0002209 11.790952 3.7909525 10.000221 6 10 L 9 10 L 9 9 L 6 9 z M 23 9 L 23 10 L 26 10 C 28.209048 10.000221 29.999779 11.790952 30 14 L 30 13 C 29.999779 10.790952 28.209048 9.0002209 26 9 L 23 9 z "
     id="path4220" />
</svg>
