<svg xmlns="http://www.w3.org/2000/svg" width="32" height="32" version="1">
 <path fill="#009587" d="m6.5 2c-0.831 0-1.5 0.669-1.5 1.5v25c0 0.831 0.669 1.5 1.5 1.5h19c0.831 0 1.5-0.669 1.5-1.5v-25c0-0.831-0.669-1.5-1.5-1.5h-19z"/>
 <path opacity=".2" d="m6.5 2c-0.831 0-1.5 0.669-1.5 1.5v25c0 0.831 0.669 1.5 1.5 1.5h2.5v-28z"/>
 <path opacity=".2" d="m19 3v14l2-2 2 2v-14h-4z"/>
 <path fill="#d8d8d8" d="m19 2v14l2-2 2 2v-14h-4z"/>
 <path fill="#fff" opacity=".2" d="m6.5 2c-0.831 0-1.5 0.669-1.5 1.5v1c0-0.831 0.669-1.5 1.5-1.5h19c0.831 0 1.5 0.669 1.5 1.5v-1c0-0.831-0.669-1.5-1.5-1.5h-19z"/>
 <path opacity=".2" d="m5 28.5v1c0 0.831 0.669 1.5 1.5 1.5h19c0.831 0 1.5-0.669 1.5-1.5v-1c0 0.831-0.669 1.5-1.5 1.5h-19c-0.831 0-1.5-0.669-1.5-1.5z"/>
 <circle fill-rule="evenodd" style="fill:#4caf50" cx="24" cy="23" r="8"/>
 <path fill-rule="evenodd" opacity=".2" d="m31.979 23.424a8 8 0 0 1 -7.979 7.576 8 8 0 0 1 -7.979 -7.424 8 8 0 0 0 -0.021 0.424 8 8 0 0 0 8 8 8 8 0 0 0 8 -8 8 8 0 0 0 -0.021 -0.576z"/>
 <g>
  <rect style="fill:#ffffff" width="2" height="10" x="23" y="18"/>
  <rect style="fill:#ffffff" width="10" height="2" x="19" y="22"/>
 </g>
</svg>
