<svg xmlns="http://www.w3.org/2000/svg" width="32" height="32" version="1.1" viewBox="0 0 32 32">
 <g transform="translate(0,-1020.4)">
  <rect style="fill:#4f4f4f" width="28" height="28" x="-1049.9" y="-30" rx="14" ry="14" transform="matrix(0,-1,-1,0,0,0)"/>
  <path style="opacity:0.1;fill:#ffffff" d="M 16,1021.8 C 8.2437,1021.8 1.9998,1028.1 1.9998,1035.8 1.9998,1036 2.0192,1036.2 2.0251,1036.3 2.2888,1028.8 8.4124,1022.8 16,1022.8 23.587,1022.8 29.71,1028.8 29.975,1036.3 29.98,1036.2 30,1036 30,1035.8 30,1028.1 23.756,1021.8 16,1021.8 Z"/>
  <path style="opacity:0.2" d="M 2.0251,1036.3 C 2.0192,1036.5 1.9998,1036.7 1.9998,1036.8 1.9998,1044.6 8.2437,1050.9 16,1050.9 23.756,1050.9 30,1044.6 30,1036.8 30,1036.7 29.98,1036.5 29.975,1036.3 29.71,1043.9 23.586,1049.9 15.999,1049.9 8.4122,1049.9 2.2884,1043.9 2.0243,1036.3 Z"/>
  <path style="opacity:0.2" d="M 8,1037.6 H 11.428 L 16,1042.7 20.571,1037.6 H 24 L 16.152,1046.7 Z"/>
  <path style="fill:#ff9b2a" d="M 8,1036.5 H 11.428 L 16,1041.6 20.571,1036.5 H 24 L 16.152,1045.6 Z"/>
  <path style="opacity:0.2" d="M 8,1035.1 H 11.428 L 16,1030 20.571,1035.1 H 24 L 16.152,1026 Z"/>
 </g>
</svg>
