<svg xmlns="http://www.w3.org/2000/svg" id="svg2" width="22" height="22" version="1.1" viewBox="0 0 22 22">
 <rect style="opacity:0.2;fill:#000000" id="rect4172" width="20" height="20" x="-21.5" y="-21" rx="10" ry="10" transform="matrix(0,-1,-1,0,0,0)"/>
 <rect id="rect6" width="20" height="20" x="-21" y="-21" rx="10" ry="10" transform="matrix(0,-1,-1,0,0,0)" style="fill:#4f4f4f"/>
 <path id="path4193" d="m 11.109375,4.5 -5.3769531,6 2.4511719,0 L 11,7.3574219 13.816406,10.5 l 2.466797,0 -5.173828,-6 z" style="opacity:0.2;fill:#000000"/>
 <path style="fill:#ff9b2a" id="path14" d="M 11.109375 4 L 5.7324219 10 L 8.1835938 10 L 11 6.8574219 L 13.816406 10 L 16.283203 10 L 11.109375 4 z"/>
 <path style="opacity:0.2" id="path16" d="M 5.7929688 12 L 11.109375 18 L 16.226562 12 L 13.761719 12 L 11 15.142578 L 8.2382812 12 L 5.7929688 12 z"/>
 <path style="fill:#ffffff;opacity:0.1" id="rect4174" d="M 11 1 C 5.46 1 1 5.46 1 11 C 1 11.084408 1.00966 11.166105 1.0117188 11.25 C 1.1447814 5.8275892 5.544408 1.5 11 1.5 C 16.455592 1.5 20.855219 5.8275892 20.988281 11.25 C 20.99034 11.166105 21 11.084408 21 11 C 21 5.46 16.54 1 11 1 z"/>
</svg>
