<?xml version="1.0" encoding="UTF-8" standalone="no"?>
<svg
   xmlns:dc="http://purl.org/dc/elements/1.1/"
   xmlns:cc="http://creativecommons.org/ns#"
   xmlns:rdf="http://www.w3.org/1999/02/22-rdf-syntax-ns#"
   xmlns:svg="http://www.w3.org/2000/svg"
   xmlns="http://www.w3.org/2000/svg"
   xmlns:sodipodi="http://sodipodi.sourceforge.net/DTD/sodipodi-0.dtd"
   xmlns:inkscape="http://www.inkscape.org/namespaces/inkscape"
   width="22"
   height="22"
   version="1.1"
   viewBox="0 0 22 22"
   id="svg2"
   inkscape:version="0.91 r13725"
   sodipodi:docname="arrow-down.svg">
  <metadata
     id="metadata22">
    <rdf:RDF>
      <cc:Work
         rdf:about="">
        <dc:format>image/svg+xml</dc:format>
        <dc:type
           rdf:resource="http://purl.org/dc/dcmitype/StillImage" />
        <dc:title></dc:title>
      </cc:Work>
    </rdf:RDF>
  </metadata>
  <defs
     id="defs20" />
  <sodipodi:namedview
     pagecolor="#ffffff"
     bordercolor="#666666"
     borderopacity="1"
     objecttolerance="10"
     gridtolerance="10"
     guidetolerance="10"
     inkscape:pageopacity="0"
     inkscape:pageshadow="2"
     inkscape:window-width="1920"
     inkscape:window-height="1022"
     id="namedview18"
     showgrid="true"
     inkscape:object-nodes="true"
     inkscape:zoom="27.52"
     inkscape:cx="16"
     inkscape:cy="12.617439"
     inkscape:window-x="0"
     inkscape:window-y="28"
     inkscape:window-maximized="1"
     inkscape:current-layer="svg2">
    <inkscape:grid
       type="xygrid"
       id="grid4185" />
  </sodipodi:namedview>
  <rect
     style="opacity:0.2;fill:#000000"
     width="20"
     height="20"
     x="-21.5"
     y="-21"
     rx="10"
     ry="10"
     transform="matrix(0,-1,-1,0,0,0)"
     id="rect4172" />
  <rect
     id="rect6"
     transform="matrix(0,-1,-1,0,0,0)"
     ry="10"
     rx="10"
     y="-21"
     x="-21"
     height="20"
     width="20"
     style="fill:#4f4f4f" />
  <path
     style="fill:#000000;opacity:0.2"
     d="M 11.109375 4 L 5.7324219 10 L 8.1835938 10 L 11 6.8574219 L 13.816406 10 L 16.283203 10 L 11.109375 4 z "
     id="path14" />
  <path
     id="path4236"
     d="m 5.7929688,12.5 5.3164062,6 5.117187,-6 -2.464843,0 L 11,15.642578 8.2382812,12.5 l -2.4453124,0 z"
     style="opacity:0.2;fill:#000000;fill-opacity:1"
     inkscape:connector-curvature="0" />
  <path
     style="opacity:1;fill:#ff9b2a;fill-opacity:1"
     d="M 5.7929688 12 L 11.109375 18 L 16.226562 12 L 13.761719 12 L 11 15.142578 L 8.2382812 12 L 5.7929688 12 z "
     id="path16" />
  <path
     style="fill:#ffffff;opacity:0.1"
     d="M 11 1 C 5.46 1 1 5.46 1 11 C 1 11.084408 1.00966 11.166105 1.0117188 11.25 C 1.1447814 5.8275892 5.544408 1.5 11 1.5 C 16.455592 1.5 20.855219 5.8275892 20.988281 11.25 C 20.99034 11.166105 21 11.084408 21 11 C 21 5.46 16.54 1 11 1 z "
     id="rect4174" />
</svg>
