<?xml version="1.0" encoding="UTF-8" standalone="no"?>
<!-- Created with Inkscape (http://www.inkscape.org/) -->

<svg
   xmlns:dc="http://purl.org/dc/elements/1.1/"
   xmlns:cc="http://creativecommons.org/ns#"
   xmlns:rdf="http://www.w3.org/1999/02/22-rdf-syntax-ns#"
   xmlns:svg="http://www.w3.org/2000/svg"
   xmlns="http://www.w3.org/2000/svg"
   xmlns:sodipodi="http://sodipodi.sourceforge.net/DTD/sodipodi-0.dtd"
   xmlns:inkscape="http://www.inkscape.org/namespaces/inkscape"
   width="128"
   height="128"
   viewBox="0 0 128 128"
   id="svg2"
   version="1.1"
   inkscape:version="0.92.2 5c3e80d, 2017-08-06"
   sodipodi:docname="character-set.svg">
  <defs
     id="defs4" />
  <sodipodi:namedview
     id="base"
     pagecolor="#ffffff"
     bordercolor="#666666"
     borderopacity="1.0"
     inkscape:pageopacity="0.0"
     inkscape:pageshadow="2"
     inkscape:zoom="2.52183"
     inkscape:cx="40.048691"
     inkscape:cy="57.675339"
     inkscape:document-units="px"
     inkscape:current-layer="layer1"
     showgrid="false"
     units="px"
     showguides="true"
     inkscape:guide-bbox="true"
     inkscape:window-width="1366"
     inkscape:window-height="694"
     inkscape:window-x="0"
     inkscape:window-y="48"
     inkscape:window-maximized="1">
    <inkscape:grid
       type="xygrid"
       id="grid4136"
       empspacing="4" />
    <sodipodi:guide
       position="8,140"
       orientation="1,0"
       id="guide4138"
       inkscape:label="Margin Left"
       inkscape:color="rgb(0,0,255)"
       inkscape:locked="false" />
    <sodipodi:guide
       position="120,140"
       orientation="1,0"
       id="guide4140"
       inkscape:label="Margin Right"
       inkscape:color="rgb(0,0,255)"
       inkscape:locked="false" />
    <sodipodi:guide
       position="-20,120"
       orientation="0,1"
       id="guide4142"
       inkscape:label="Margin Top"
       inkscape:color="rgb(0,0,255)"
       inkscape:locked="false" />
    <sodipodi:guide
       position="-16,8"
       orientation="0,1"
       id="guide4144"
       inkscape:label="Margin Bottom"
       inkscape:color="rgb(0,0,255)"
       inkscape:locked="false" />
    <sodipodi:guide
       position="8,8"
       orientation="-0.70710678,0.70710678"
       id="guide4146"
       inkscape:locked="false" />
    <sodipodi:guide
       position="72,56"
       orientation="0.70710678,0.70710678"
       id="guide4148"
       inkscape:locked="false" />
    <sodipodi:guide
       position="20,140"
       orientation="1,0"
       id="guide4150"
       inkscape:label="Rectangle Left"
       inkscape:color="rgb(0,0,255)"
       inkscape:locked="false" />
    <sodipodi:guide
       position="108,140"
       orientation="1,0"
       id="guide4152"
       inkscape:label="Rectangle Right"
       inkscape:color="rgb(0,0,255)"
       inkscape:locked="false" />
    <sodipodi:guide
       position="-20,116"
       orientation="0,1"
       id="guide4154"
       inkscape:label="Shadow Top"
       inkscape:color="rgb(0,0,255)"
       inkscape:locked="false" />
    <sodipodi:guide
       position="-16,12"
       orientation="0,1"
       id="guide4156"
       inkscape:label="Shadow Bottom"
       inkscape:color="rgb(0,0,255)"
       inkscape:locked="false" />
    <sodipodi:guide
       position="-20,104"
       orientation="0,1"
       id="guide4158"
       inkscape:label="Rectangle Top"
       inkscape:color="rgb(0,0,255)"
       inkscape:locked="false" />
    <sodipodi:guide
       position="-16,24"
       orientation="0,1"
       id="guide4160"
       inkscape:label="Rectangle Bottom"
       inkscape:color="rgb(0,0,255)"
       inkscape:locked="false" />
  </sodipodi:namedview>
  <metadata
     id="metadata7">
    <rdf:RDF>
      <cc:Work
         rdf:about="">
        <dc:format>image/svg+xml</dc:format>
        <dc:type
           rdf:resource="http://purl.org/dc/dcmitype/StillImage" />
        <dc:title></dc:title>
      </cc:Work>
    </rdf:RDF>
  </metadata>
  <g
     inkscape:label="Layer 1"
     inkscape:groupmode="layer"
     id="layer1"
     transform="translate(0,-924.36216)">
    <g
       id="g48"
       transform="translate(27.915093,27.600165)">
      <rect
         style="fill:#c2c2c2;stroke-width:4"
         id="rect2"
         transform="rotate(90)"
         ry="6"
         rx="6"
         y="-92.084908"
         x="902.76202"
         height="76"
         width="76" />
      <path
         style="fill:#9d9d9d;stroke-width:4"
         inkscape:connector-curvature="0"
         id="path4"
         d="m 75.436906,954.64599 v 2.55028 h -23.9728 c 0.2268,3.58928 1.30344,6.3284 3.23036,8.2176 1.94576,1.87024 4.6472,2.80532 8.1044,2.80532 2.0024,0 3.93876,-0.24556 5.8088,-0.73672 1.88904,-0.49116 3.75928,-1.22792 5.6108,-2.21028 v 4.9304 c -1.87024,0.79344 -3.78768,1.39792 -5.7524,1.81352 -1.96472,0.4156 -3.95768,0.62344 -5.9792,0.62344 -5.0628,0 -9.0772,-1.47352 -12.0432,-4.4204 -2.947,-2.947 -4.4204,-6.9328 -4.4204,-11.958 -2.8e-5,-5.1952 1.39792,-9.3132 4.1936,-12.3548 2.81476,-3.06032 6.6024,-4.5904 11.3628,-4.5904 4.2692,3e-5 7.6412,1.37908 10.116,4.1372 2.49356,2.7392 3.7404,6.47 3.7404,11.1928 m -5.214,-1.53016 c -0.038,-2.85252 -0.84072,-5.1288 -2.4086,-6.8292 -1.54908,-1.70016 -3.6082,-2.55024 -6.1772,-2.55028 -2.90924,3e-5 -5.2424,0.82176 -6.9992,2.46528 -1.738,1.64356 -2.7392,3.95768 -3.00368,6.9424 l 18.5888,-0.0284 m -6.2908,-25.276 h 5.7524 v 5.724 h -5.7524 v -5.724 m -11.0796,0 h 5.7524 v 5.724 h -5.7524 v -5.724" />
      <path
         style="opacity:0.2;stroke-width:4"
         inkscape:connector-curvature="0"
         id="path6"
         d="m 16.084906,972.76199 v 4 c 0,3.32404 2.676,6.00004 6,6.00004 h 64 c 3.324,0 6,-2.676 6,-6.00004 v -4 c 0,3.324 -2.676,6.00004 -6,6.00004 h -64 c -3.324,0 -6,-2.67604 -6,-6.00004 z" />
      <rect
         style="fill:#d3d3d3;stroke-width:4"
         id="rect8"
         transform="rotate(90)"
         ry="6"
         rx="6"
         y="-56.084908"
         x="938.76202"
         height="76"
         width="76" />
      <path
         style="opacity:0.1;fill:#ffffff;stroke-width:4"
         inkscape:connector-curvature="0"
         id="path10"
         d="m 22.084906,902.76199 c -3.324,0 -6,2.676 -6,6 v 4 c 0,-3.324 2.676,-6 6,-6 h 64 c 3.324,0 6,2.676 6,6 v -4 c 0,-3.324 -2.676,-6 -6,-6 z" />
      <path
         style="opacity:0.1;fill:#ffffff;stroke-width:4"
         inkscape:connector-curvature="0"
         id="path12"
         d="m -13.915094,938.76199 c -3.324,0 -6,2.676 -6,6 v 4 c 0,-3.324 2.676,-6 6,-6 h 64 c 3.324,0 6,2.676 6,6 v -4 c 0,-3.324 -2.676,-6 -6,-6 z" />
      <path
         style="fill:#7e7e7e;stroke-width:4"
         inkscape:connector-curvature="0"
         id="path14"
         d="m 29.220906,989.71403 c -4.4004,0 -7.4488,0.4895 -9.146,1.4685 -1.697,0.979 -2.54548,2.6491 -2.54548,5.0104 0,1.8812 0.63144,3.3785 1.89432,4.49197 1.28256,1.0942 3.019,1.6413 5.2092,1.6413 3.019,0 5.436,-1.0366 7.2516,-3.10977 1.83504,-2.0924 2.7526,-4.8664 2.75264,-8.3216 v -1.1806 h -5.4164 m 10.864,-2.188 v 18.39957 h -5.446 v -4.8952 c -1.24,1.96 -2.792,3.408 -4.644,4.348 -1.856,0.924 -4.124,1.384 -6.808,1.384 -3.396,0 -6.096,-0.92 -8.112,-2.764 -1.992,-1.864 -2.988,-4.34797 -2.988,-7.45597 0,-3.628 1.24312,-6.3636 3.7294,-8.2064 2.506,-1.8428 6.2352,-2.7642 11.188,-2.7642 h 7.6364 v -0.5183 c -4.4e-5,-2.4379 -0.82876,-4.3192 -2.48624,-5.6436 -1.6378,-1.3437 -3.94644,-2.01562 -6.926,-2.01562 -1.89428,4e-5 -3.73924,0.2208 -5.5348,0.66228 -1.79564,0.44154 -3.5222,1.10384 -5.1796,1.98684 v -4.89524 c 1.99296,-0.74864 3.92668,-1.30528 5.8012,-1.67008 1.87456,-0.38388 3.6998,-0.57584 5.4756,-0.57588 4.7948,4e-5 8.3764,1.2094 10.744,3.62808 2.36784,2.41872 3.55176,6.08522 3.5518,10.99962 m -18.348,-28.76402 8.3468,10.7692 h -4.5284 l -9.648,-10.768 h 5.8308" />
      <path
         style="opacity:0.2;stroke-width:4"
         inkscape:connector-curvature="0"
         id="path16"
         d="m -19.915094,1008.762 v 4 c 0,3.324 2.676,6 6,6 h 64 c 3.324,0 6,-2.676 6,-6 v -4 c 0,3.324 -2.676,6 -6,6 h -64 c -3.324,0 -6,-2.676 -6,-6 z" />
    </g>
  </g>
</svg>
