<?xml version="1.0" encoding="UTF-8" standalone="no"?>
<svg
   xmlns:dc="http://purl.org/dc/elements/1.1/"
   xmlns:cc="http://creativecommons.org/ns#"
   xmlns:rdf="http://www.w3.org/1999/02/22-rdf-syntax-ns#"
   xmlns:svg="http://www.w3.org/2000/svg"
   xmlns="http://www.w3.org/2000/svg"
   xmlns:sodipodi="http://sodipodi.sourceforge.net/DTD/sodipodi-0.dtd"
   xmlns:inkscape="http://www.inkscape.org/namespaces/inkscape"
   width="32"
   height="32"
   version="1.1"
   viewBox="0 0 32 32"
   id="svg2"
   inkscape:version="0.91 r13725"
   sodipodi:docname="column.svg">
  <metadata
     id="metadata20">
    <rdf:RDF>
      <cc:Work
         rdf:about="">
        <dc:format>image/svg+xml</dc:format>
        <dc:type
           rdf:resource="http://purl.org/dc/dcmitype/StillImage" />
        <dc:title />
      </cc:Work>
    </rdf:RDF>
  </metadata>
  <defs
     id="defs18" />
  <sodipodi:namedview
     pagecolor="#ffffff"
     bordercolor="#666666"
     borderopacity="1"
     objecttolerance="10"
     gridtolerance="10"
     guidetolerance="10"
     inkscape:pageopacity="0"
     inkscape:pageshadow="2"
     inkscape:window-width="1920"
     inkscape:window-height="1022"
     id="namedview16"
     showgrid="true"
     inkscape:zoom="12.839846"
     inkscape:cx="-0.31639507"
     inkscape:cy="16"
     inkscape:window-x="0"
     inkscape:window-y="28"
     inkscape:window-maximized="1"
     inkscape:current-layer="svg2">
    <inkscape:grid
       type="xygrid"
       id="grid4148" />
  </sodipodi:namedview>
  <rect
     ry="1"
     rx="1"
     y="28"
     x="3"
     height="3"
     width="26"
     id="rect4171"
     style="opacity:0.2;fill:#000000;fill-opacity:1;stroke:none;stroke-width:3;stroke-miterlimit:4;stroke-dasharray:none;stroke-opacity:1" />
  <path
     d="M 7.3636364,2 C 6.6081818,2 6,2.669 6,3.5 l 0,25 C 6,29.331 6.6081818,30 7.3636364,30 L 24.636364,30 C 25.391818,30 26,29.331 26,28.5 l 0,-25 C 26,2.669 25.391818,2 24.636364,2 L 7.3636364,2 Z"
     id="path4"
     style="fill:#cccccc;fill-opacity:1"
     inkscape:connector-curvature="0" />
  <path
     id="path4157"
     d="M 5.5,3 A 3.5,3.5 0 0 0 2,6.5 3.5,3.5 0 0 0 5.5,10 3.5,3.5 0 0 0 7.9492188,9 L 24.054688,9 A 3.5,3.5 0 0 0 26.5,10 3.5,3.5 0 0 0 30,6.5 3.5,3.5 0 0 0 26.5,3 3.5,3.5 0 0 0 26.121094,3.0234375 C 26.079663,3.01825 26.042882,3 26,3 L 6,3 c -0.040884,0 -0.075662,0.018715 -0.1152344,0.023437 A 3.5,3.5 0 0 0 5.5,3 Z"
     style="opacity:0.2;fill:#000000;fill-opacity:1;stroke:none;stroke-width:3;stroke-miterlimit:4;stroke-dasharray:none;stroke-opacity:1"
     inkscape:connector-curvature="0" />
  <path
     style="opacity:1;fill:#cccccc;fill-opacity:1;stroke:none;stroke-width:3;stroke-miterlimit:4;stroke-dasharray:none;stroke-opacity:1"
     d="M 5.5 2 A 3.5 3.5 0 0 0 2 5.5 A 3.5 3.5 0 0 0 5.5 9 A 3.5 3.5 0 0 0 7.9492188 8 L 24.054688 8 A 3.5 3.5 0 0 0 26.5 9 A 3.5 3.5 0 0 0 30 5.5 A 3.5 3.5 0 0 0 26.5 2 A 3.5 3.5 0 0 0 26.121094 2.0234375 C 26.079663 2.01825 26.042882 2 26 2 L 6 2 C 5.9591159 2 5.9243375 2.0187154 5.8847656 2.0234375 A 3.5 3.5 0 0 0 5.5 2 z "
     id="path4150" />
  <rect
     style="opacity:1;fill:#cccccc;fill-opacity:1;stroke:none;stroke-width:3;stroke-miterlimit:4;stroke-dasharray:none;stroke-opacity:1"
     id="rect4159"
     width="26"
     height="3"
     x="3"
     y="27"
     rx="1"
     ry="1" />
  <path
     style="opacity:0.2;fill:#ffffff;fill-opacity:1;stroke:none;stroke-width:3;stroke-miterlimit:4;stroke-dasharray:none;stroke-opacity:1"
     d="M 5.5 2 A 3.5 3.5 0 0 0 2 5.5 A 3.5 3.5 0 0 0 2.0390625 5.9941406 A 3.5 3.5 0 0 1 5.5 3 A 3.5 3.5 0 0 1 5.8847656 3.0234375 C 5.924338 3.0187155 5.959116 3 6 3 L 26 3 C 26.042882 3 26.079663 3.01825 26.121094 3.0234375 A 3.5 3.5 0 0 1 26.5 3 A 3.5 3.5 0 0 1 29.960938 6.0058594 A 3.5 3.5 0 0 0 30 5.5 A 3.5 3.5 0 0 0 26.5 2 A 3.5 3.5 0 0 0 26.121094 2.0234375 C 26.079663 2.01825 26.042882 2 26 2 L 6 2 C 5.9591159 2 5.9243375 2.0187154 5.8847656 2.0234375 A 3.5 3.5 0 0 0 5.5 2 z "
     id="path4161" />
  <path
     style="opacity:0.2;fill:#ffffff;fill-opacity:1;stroke:none;stroke-width:3;stroke-miterlimit:4;stroke-dasharray:none;stroke-opacity:1"
     d="M 4 27 C 3.446 27 3 27.446 3 28 L 3 29 C 3 28.446 3.446 28 4 28 L 28 28 C 28.554 28 29 28.446 29 29 L 29 28 C 29 27.446 28.554 27 28 27 L 4 27 z "
     id="rect4163" />
  <rect
     style="opacity:0.4;fill:#000000;fill-opacity:1;stroke:none;stroke-width:3;stroke-miterlimit:4;stroke-dasharray:none;stroke-opacity:1"
     id="rect4173"
     width="4"
     height="14"
     x="14"
     y="11"
     rx="1"
     ry="1" />
  <rect
     ry="1"
     rx="1"
     y="11"
     x="20"
     height="14"
     width="4"
     id="rect4175"
     style="opacity:0.4;fill:#000000;fill-opacity:1;stroke:none;stroke-width:3;stroke-miterlimit:4;stroke-dasharray:none;stroke-opacity:1" />
  <rect
     ry="1"
     rx="1"
     y="11"
     x="7.9999981"
     height="14"
     width="4"
     id="rect4177"
     style="opacity:0.4;fill:#000000;fill-opacity:1;stroke:none;stroke-width:3;stroke-miterlimit:4;stroke-dasharray:none;stroke-opacity:1" />
</svg>
