<svg xmlns="http://www.w3.org/2000/svg" id="svg2" width="32" height="32" version="1.1" viewBox="0 0 32 32">
 <rect id="rect4171" width="26" height="3" x="3" y="28" rx="1" ry="1" style="opacity:0.2;fill:#000000;fill-opacity:1;stroke:none;stroke-width:3;stroke-miterlimit:4;stroke-dasharray:none;stroke-opacity:1"/>
 <path id="path4" d="M 7.3636364,2 C 6.6081818,2 6,2.669 6,3.5 l 0,25 C 6,29.331 6.6081818,30 7.3636364,30 L 24.636364,30 C 25.391818,30 26,29.331 26,28.5 l 0,-25 C 26,2.669 25.391818,2 24.636364,2 L 7.3636364,2 Z" style="fill:#cccccc;fill-opacity:1"/>
 <path id="path4157" d="M 5.5,3 A 3.5,3.5 0 0 0 2,6.5 3.5,3.5 0 0 0 5.5,10 3.5,3.5 0 0 0 7.9492188,9 L 24.054688,9 A 3.5,3.5 0 0 0 26.5,10 3.5,3.5 0 0 0 30,6.5 3.5,3.5 0 0 0 26.5,3 3.5,3.5 0 0 0 26.121094,3.0234375 C 26.079663,3.01825 26.042882,3 26,3 L 6,3 c -0.040884,0 -0.075662,0.018715 -0.1152344,0.023437 A 3.5,3.5 0 0 0 5.5,3 Z" style="opacity:0.2;fill:#000000;fill-opacity:1;stroke:none;stroke-width:3;stroke-miterlimit:4;stroke-dasharray:none;stroke-opacity:1"/>
 <path style="opacity:1;fill:#cccccc;fill-opacity:1;stroke:none;stroke-width:3;stroke-miterlimit:4;stroke-dasharray:none;stroke-opacity:1" id="path4150" d="M 5.5 2 A 3.5 3.5 0 0 0 2 5.5 A 3.5 3.5 0 0 0 5.5 9 A 3.5 3.5 0 0 0 7.9492188 8 L 24.054688 8 A 3.5 3.5 0 0 0 26.5 9 A 3.5 3.5 0 0 0 30 5.5 A 3.5 3.5 0 0 0 26.5 2 A 3.5 3.5 0 0 0 26.121094 2.0234375 C 26.079663 2.01825 26.042882 2 26 2 L 6 2 C 5.9591159 2 5.9243375 2.0187154 5.8847656 2.0234375 A 3.5 3.5 0 0 0 5.5 2 z"/>
 <rect style="opacity:1;fill:#cccccc;fill-opacity:1;stroke:none;stroke-width:3;stroke-miterlimit:4;stroke-dasharray:none;stroke-opacity:1" id="rect4159" width="26" height="3" x="3" y="27" rx="1" ry="1"/>
 <path style="opacity:0.2;fill:#ffffff;fill-opacity:1;stroke:none;stroke-width:3;stroke-miterlimit:4;stroke-dasharray:none;stroke-opacity:1" id="path4161" d="M 5.5 2 A 3.5 3.5 0 0 0 2 5.5 A 3.5 3.5 0 0 0 2.0390625 5.9941406 A 3.5 3.5 0 0 1 5.5 3 A 3.5 3.5 0 0 1 5.8847656 3.0234375 C 5.924338 3.0187155 5.959116 3 6 3 L 26 3 C 26.042882 3 26.079663 3.01825 26.121094 3.0234375 A 3.5 3.5 0 0 1 26.5 3 A 3.5 3.5 0 0 1 29.960938 6.0058594 A 3.5 3.5 0 0 0 30 5.5 A 3.5 3.5 0 0 0 26.5 2 A 3.5 3.5 0 0 0 26.121094 2.0234375 C 26.079663 2.01825 26.042882 2 26 2 L 6 2 C 5.9591159 2 5.9243375 2.0187154 5.8847656 2.0234375 A 3.5 3.5 0 0 0 5.5 2 z"/>
 <path style="opacity:0.2;fill:#ffffff;fill-opacity:1;stroke:none;stroke-width:3;stroke-miterlimit:4;stroke-dasharray:none;stroke-opacity:1" id="rect4163" d="M 4 27 C 3.446 27 3 27.446 3 28 L 3 29 C 3 28.446 3.446 28 4 28 L 28 28 C 28.554 28 29 28.446 29 29 L 29 28 C 29 27.446 28.554 27 28 27 L 4 27 z"/>
 <rect style="opacity:0.4;fill:#000000;fill-opacity:1;stroke:none;stroke-width:3;stroke-miterlimit:4;stroke-dasharray:none;stroke-opacity:1" id="rect4173" width="4" height="14" x="14" y="11" rx="1" ry="1"/>
 <rect id="rect4175" width="4" height="14" x="20" y="11" rx="1" ry="1" style="opacity:0.4;fill:#000000;fill-opacity:1;stroke:none;stroke-width:3;stroke-miterlimit:4;stroke-dasharray:none;stroke-opacity:1"/>
 <rect id="rect4177" width="4" height="14" x="8" y="11" rx="1" ry="1" style="opacity:0.4;fill:#000000;fill-opacity:1;stroke:none;stroke-width:3;stroke-miterlimit:4;stroke-dasharray:none;stroke-opacity:1"/>
</svg>
