<?xml version="1.0" encoding="UTF-8" standalone="no"?>
<svg
   xmlns:dc="http://purl.org/dc/elements/1.1/"
   xmlns:cc="http://creativecommons.org/ns#"
   xmlns:rdf="http://www.w3.org/1999/02/22-rdf-syntax-ns#"
   xmlns:svg="http://www.w3.org/2000/svg"
   xmlns="http://www.w3.org/2000/svg"
   xmlns:sodipodi="http://sodipodi.sourceforge.net/DTD/sodipodi-0.dtd"
   xmlns:inkscape="http://www.inkscape.org/namespaces/inkscape"
   width="32"
   height="32"
   version="1"
   id="svg2"
   inkscape:version="0.91 r13725"
   sodipodi:docname="config.svg">
  <metadata
     id="metadata32">
    <rdf:RDF>
      <cc:Work
         rdf:about="">
        <dc:format>image/svg+xml</dc:format>
        <dc:type
           rdf:resource="http://purl.org/dc/dcmitype/StillImage" />
      </cc:Work>
    </rdf:RDF>
  </metadata>
  <defs
     id="defs30" />
  <sodipodi:namedview
     pagecolor="#ffffff"
     bordercolor="#666666"
     borderopacity="1"
     objecttolerance="10"
     gridtolerance="10"
     guidetolerance="10"
     inkscape:pageopacity="0"
     inkscape:pageshadow="2"
     inkscape:window-width="1920"
     inkscape:window-height="1022"
     id="namedview28"
     showgrid="true"
     inkscape:zoom="18.16"
     inkscape:cx="16"
     inkscape:cy="16"
     inkscape:window-x="0"
     inkscape:window-y="28"
     inkscape:window-maximized="1"
     inkscape:current-layer="svg2">
    <inkscape:grid
       type="xygrid"
       id="grid4162" />
  </sodipodi:namedview>
  <rect
     rx="4"
     ry="4"
     y="15"
     x="11"
     height="16"
     width="10"
     id="rect4174"
     style="opacity:0.2;fill:#000000;fill-opacity:1;stroke:none;stroke-width:2;stroke-linecap:round;stroke-linejoin:round;stroke-miterlimit:4;stroke-dasharray:none;stroke-opacity:1" />
  <rect
     style="opacity:1;fill:#4f4f4f;fill-opacity:1;stroke:none;stroke-width:2;stroke-linecap:round;stroke-linejoin:round;stroke-miterlimit:4;stroke-dasharray:none;stroke-opacity:1"
     id="rect4168"
     width="10"
     height="16"
     x="11"
     y="14"
     ry="4"
     rx="4" />
  <rect
     style="opacity:0.3;fill:#000000;fill-opacity:1;stroke:none;stroke-width:4;stroke-linecap:round;stroke-linejoin:round;stroke-miterlimit:4;stroke-dasharray:none;stroke-opacity:1"
     id="rect4201"
     width="4"
     height="12"
     x="14"
     y="16"
     rx="2"
     ry="2" />
  <path
     id="path4170"
     d="M 20,1.8398438 20,11 16,13 12,11 12,1.8476562 A 10,10 0 0 0 6,11 10,10 0 0 0 16,21 10,10 0 0 0 26,11 10,10 0 0 0 20,1.8398438 Z"
     style="opacity:0.2;fill:#000000;fill-opacity:1;stroke:none;stroke-width:2;stroke-linecap:round;stroke-linejoin:round;stroke-miterlimit:4;stroke-dasharray:none;stroke-opacity:1"
     inkscape:connector-curvature="0" />
  <path
     style="opacity:1;fill:#8e8e8e;fill-opacity:1;stroke:none;stroke-width:2;stroke-linecap:round;stroke-linejoin:round;stroke-miterlimit:4;stroke-dasharray:none;stroke-opacity:1"
     d="M 20,0.8398438 20,8 16,11 12,8 12,0.8476562 C 8.3599898,2.436283 6.0050881,6.028428 6,10 6,15.522847 10.477153,20 16,20 21.522847,20 26,15.522847 26,10 25.998,6.0255916 23.642606,2.4296069 20,0.8398438 Z"
     id="path4160"
     inkscape:connector-curvature="0"
     sodipodi:nodetypes="ccccccscc" />
  <path
     style="opacity:0.1;fill:#ffffff;fill-opacity:1;stroke:none;stroke-width:2;stroke-linecap:round;stroke-linejoin:round;stroke-miterlimit:4;stroke-dasharray:none;stroke-opacity:1"
     d="m 20,0.8398438 0,1 c 3.465999,1.5126855 5.761859,4.8427796 5.978516,8.5859372 C 25.984533,10.283377 26,10.143884 26,10 25.998,6.0255916 23.642606,2.4296069 20,0.8398438 Z m -8,0.007812 C 8.3599898,2.4362831 6.0050881,6.028428 6,10 6,10.143884 6.015467,10.283377 6.021484,10.425781 6.2407524,6.6854066 8.536471,3.3592605 12,1.8476562 l 0,-1 z M 12,8 l 0,1 4,3 4,-3 0,-1 -4,3 -4,-3 z"
     id="path4196"
     inkscape:connector-curvature="0" />
</svg>
