<?xml version="1.0" encoding="UTF-8" standalone="no"?>
<!-- Created with Inkscape (http://www.inkscape.org/) -->

<svg
   xmlns:dc="http://purl.org/dc/elements/1.1/"
   xmlns:cc="http://creativecommons.org/ns#"
   xmlns:rdf="http://www.w3.org/1999/02/22-rdf-syntax-ns#"
   xmlns:svg="http://www.w3.org/2000/svg"
   xmlns="http://www.w3.org/2000/svg"
   xmlns:sodipodi="http://sodipodi.sourceforge.net/DTD/sodipodi-0.dtd"
   xmlns:inkscape="http://www.inkscape.org/namespaces/inkscape"
   width="128"
   height="128"
   viewBox="0 0 128 128"
   id="svg2"
   version="1.1"
   inkscape:version="0.92.2 5c3e80d, 2017-08-06"
   sodipodi:docname="convert.svg">
  <defs
     id="defs4">
    <linearGradient
       id="linearGradient4561"
       x1="24"
       x2="44"
       y1="24"
       y2="24"
       gradientTransform="matrix(2.6,0,0,2.66668,1.6,922.36212)"
       gradientUnits="userSpaceOnUse">
      <stop
         offset="0"
         id="stop2" />
      <stop
         offset="1"
         stop-opacity="0"
         id="stop4" />
    </linearGradient>
  </defs>
  <sodipodi:namedview
     id="base"
     pagecolor="#ffffff"
     bordercolor="#666666"
     borderopacity="1.0"
     inkscape:pageopacity="0.0"
     inkscape:pageshadow="2"
     inkscape:zoom="3.5664062"
     inkscape:cx="92.286336"
     inkscape:cy="60.591476"
     inkscape:document-units="px"
     inkscape:current-layer="layer1"
     showgrid="true"
     units="px"
     showguides="true"
     inkscape:guide-bbox="true"
     inkscape:window-width="1366"
     inkscape:window-height="694"
     inkscape:window-x="0"
     inkscape:window-y="48"
     inkscape:window-maximized="1">
    <inkscape:grid
       type="xygrid"
       id="grid4136"
       empspacing="4" />
    <sodipodi:guide
       position="8,140"
       orientation="1,0"
       id="guide4138"
       inkscape:label="Margin Left"
       inkscape:color="rgb(0,0,255)"
       inkscape:locked="false" />
    <sodipodi:guide
       position="120,140"
       orientation="1,0"
       id="guide4140"
       inkscape:label="Margin Right"
       inkscape:color="rgb(0,0,255)"
       inkscape:locked="false" />
    <sodipodi:guide
       position="-20,120"
       orientation="0,1"
       id="guide4142"
       inkscape:label="Margin Top"
       inkscape:color="rgb(0,0,255)"
       inkscape:locked="false" />
    <sodipodi:guide
       position="-16,8"
       orientation="0,1"
       id="guide4144"
       inkscape:label="Margin Bottom"
       inkscape:color="rgb(0,0,255)"
       inkscape:locked="false" />
    <sodipodi:guide
       position="8,8"
       orientation="-0.70710678,0.70710678"
       id="guide4146"
       inkscape:locked="false" />
    <sodipodi:guide
       position="72,56"
       orientation="0.70710678,0.70710678"
       id="guide4148"
       inkscape:locked="false" />
    <sodipodi:guide
       position="20,140"
       orientation="1,0"
       id="guide4150"
       inkscape:label="Rectangle Left"
       inkscape:color="rgb(0,0,255)"
       inkscape:locked="false" />
    <sodipodi:guide
       position="108,140"
       orientation="1,0"
       id="guide4152"
       inkscape:label="Rectangle Right"
       inkscape:color="rgb(0,0,255)"
       inkscape:locked="false" />
    <sodipodi:guide
       position="-20,116"
       orientation="0,1"
       id="guide4154"
       inkscape:label="Shadow Top"
       inkscape:color="rgb(0,0,255)"
       inkscape:locked="false" />
    <sodipodi:guide
       position="-16,12"
       orientation="0,1"
       id="guide4156"
       inkscape:label="Shadow Bottom"
       inkscape:color="rgb(0,0,255)"
       inkscape:locked="false" />
    <sodipodi:guide
       position="-20,104"
       orientation="0,1"
       id="guide4158"
       inkscape:label="Rectangle Top"
       inkscape:color="rgb(0,0,255)"
       inkscape:locked="false" />
    <sodipodi:guide
       position="-16,24"
       orientation="0,1"
       id="guide4160"
       inkscape:label="Rectangle Bottom"
       inkscape:color="rgb(0,0,255)"
       inkscape:locked="false" />
  </sodipodi:namedview>
  <metadata
     id="metadata7">
    <rdf:RDF>
      <cc:Work
         rdf:about="">
        <dc:format>image/svg+xml</dc:format>
        <dc:type
           rdf:resource="http://purl.org/dc/dcmitype/StillImage" />
        <dc:title />
      </cc:Work>
    </rdf:RDF>
  </metadata>
  <g
     inkscape:label="Layer 1"
     inkscape:groupmode="layer"
     id="layer1"
     transform="translate(0,-924.36216)">
    <g
       id="g82"
       transform="translate(-120,20)">
      <g
         transform="matrix(0.57141245,0,0,0.57141245,415.34644,479.67309)"
         id="g106">
        <path
           d="m -471.36956,753.72714 c -5.81717,0 -10.5003,4.68313 -10.5003,10.5003 v 175.00492 c 0,5.8172 4.68313,10.5003 10.5003,10.5003 h 133.00375 c 5.81716,0 10.50029,-4.6831 10.50029,-10.5003 V 764.22744 c 0,-5.81717 -4.68313,-10.5003 -10.50029,-10.5003 z"
           id="path2-2"
           inkscape:connector-curvature="0"
           style="fill:#009587;stroke-width:7.00019741" />
        <path
           d="m -471.36956,753.72714 c -5.81717,0 -10.5003,4.68313 -10.5003,10.5003 v 175.00492 c 0,5.8172 4.68313,10.5003 10.5003,10.5003 h 17.50049 V 753.72714 Z"
           id="path4-9"
           inkscape:connector-curvature="0"
           style="opacity:0.2;stroke-width:7.00019741" />
        <path
           d="m -383.8671,760.72734 v 98.00276 l 14.0004,-14.00039 14.00039,14.00039 v -98.00276 z"
           id="path6-1"
           inkscape:connector-curvature="0"
           style="opacity:0.2;stroke-width:7.00019741" />
        <path
           d="m -383.8671,753.72714 v 98.00277 l 14.0004,-14.0004 14.00039,14.0004 v -98.00277 z"
           id="path8-2"
           inkscape:connector-curvature="0"
           style="fill:#d8d8d8;stroke-width:7.00019741" />
        <path
           d="m -471.36956,753.72714 c -5.81717,0 -10.5003,4.68313 -10.5003,10.5003 v 7.00019 c 0,-5.81716 4.68313,-10.50029 10.5003,-10.50029 h 133.00375 c 5.81716,0 10.50029,4.68313 10.50029,10.50029 v -7.00019 c 0,-5.81717 -4.68313,-10.5003 -10.50029,-10.5003 z"
           id="path10-7"
           inkscape:connector-curvature="0"
           style="opacity:0.2;fill:#ffffff;stroke-width:7.00019741" />
        <path
           d="m -481.86986,939.23236 v 7.0002 c 0,5.8172 4.68313,10.5003 10.5003,10.5003 h 133.00375 c 5.81716,0 10.50029,-4.6831 10.50029,-10.5003 v -7.0002 c 0,5.8172 -4.68313,10.5003 -10.50029,10.5003 h -133.00375 c -5.81717,0 -10.5003,-4.6831 -10.5003,-10.5003 z"
           id="path12-0"
           inkscape:connector-curvature="0"
           style="opacity:0.2;stroke-width:7.00019741" />
      </g>
    </g>
    <g
       id="g847"
       transform="translate(75.8368,-4.03624)">
      <g
         transform="translate(0.14356,-1.00154)"
         id="g1545" />
      <g
         id="g855"
         transform="translate(-73.98036,5.03774)">
        <g
           id="g867"
           transform="matrix(0.57141245,0,0,0.57141245,97.49,447.17159)">
          <rect
             style="fill:#771b85;fill-opacity:1;stroke-width:4"
             id="rect2"
             transform="matrix(0,-1,-1,0,0,0)"
             ry="56"
             rx="56"
             y="-50.141983"
             x="-1053.3607"
             height="112"
             width="112" />
          <path
             style="opacity:0.1;fill:#ffffff;stroke-width:4"
             inkscape:connector-curvature="0"
             id="path12-5"
             d="m -5.8580194,941.36063 c -31.0239996,0 -55.9999996,24.976 -55.9999996,56 0,0.67536 0.07808,1.33056 0.10156,2 1.0564,-30.0824 25.5512,-54 55.8999996,-54 30.3488004,0 54.8440004,23.9176 55.9000004,54 0.024,-0.66944 0.1016,-1.32464 0.1016,-2 0,-31.024 -24.976,-56 -56.0000004,-56 z" />
          <path
             style="opacity:0.2;stroke-width:4"
             inkscape:connector-curvature="0"
             id="path14"
             d="m -61.756419,999.36063 c -0.0236,0.66797 -0.1016,1.32397 -0.1016,1.99997 0,31.0241 24.976,56.0001 55.9999996,56.0001 31.0240004,0 56.0000004,-24.976 56.0000004,-56.0001 0,-0.6753 -0.0781,-1.3305 -0.10156,-1.99997 -1.056,30.08407 -25.552,54.00007 -55.9000004,54.00007 -30.3487996,0 -54.8439996,-23.916 -55.8999996,-54.00007 z" />
          <path
             id="path884"
             d="m -5.795367,972.86082 c 6.62849003,0 13.34973,2.08046 18.59988,6.1693 3.69085,4.25192 -3.34176,8.80554 -6.50914,4.65933 -9.53497,-5.76922 -22.98235,-3.73811 -30.15615,4.88754 -3.81686,4.28062 -5.96732,9.99243 -5.94212,15.72661 h 6.30123 c -3.36009,5.0437 -6.72089,10.0838 -10.08133,15.1239 -3.3608,-5.0401 -6.72124,-10.0802 -10.08204,-15.1204 h 6.30123 c -0.20056,-13.69236 9.64627,-26.71657 22.86439,-30.26254 2.83859,-0.77737 5.76117,-1.21279 8.70475,-1.18234 z m 27.66233,16.38328 c 3.36066,5.04085 6.72124,10.08204 10.08204,15.1229 h -6.30123 c 0.1785,13.8551 -9.91963,27.0253 -23.37086,30.3843 -9.07681,2.5348 -19.34015,0.685 -26.80026,-5.114 -3.80601,-4.3226 3.32426,-8.8325 6.52104,-4.6488 9.23816,5.6051 22.17522,3.8274 29.46733,-4.1781 4.22322,-4.3513 6.65369,-10.3788 6.62113,-16.4434 h -6.30122 c 3.36065,-5.04086 6.72124,-10.08205 10.08203,-15.1229 z"
             style="opacity:0.2;stroke-width:3.50009871"
             inkscape:connector-curvature="0" />
          <path
             inkscape:connector-curvature="0"
             style="fill:#ffffff;stroke-width:3.50009871"
             d="m -5.795367,965.86062 c 6.62849003,0 13.34973,2.08046 18.59988,6.1693 3.69085,4.25192 -3.34176,8.80554 -6.50914,4.65933 -9.53497,-5.76922 -22.98235,-3.73811 -30.15615,4.88754 -3.81686,4.28062 -5.96732,9.99243 -5.94212,15.72664 h 6.30123 c -3.36009,5.04367 -6.72089,10.08377 -10.08133,15.12387 -3.3608,-5.0401 -6.72124,-10.0802 -10.08204,-15.12037 h 6.30123 c -0.20056,-13.69239 9.64627,-26.7166 22.86439,-30.26257 2.83859,-0.77737 5.76117,-1.21279 8.70475,-1.18234 z m 27.66233,16.38328 c 3.36066,5.04085 6.72124,10.08204 10.08204,15.12288 h -6.30123 c 0.1785,13.85512 -9.91963,27.02532 -23.37086,30.38432 -9.07681,2.5348 -19.34015,0.685 -26.80026,-5.114 -3.80601,-4.3226 3.32426,-8.8325 6.52104,-4.6488 9.23816,5.6051 22.17522,3.8274 29.46733,-4.1781 4.22322,-4.3513 6.65369,-10.3788 6.62113,-16.44342 h -6.30122 c 3.36065,-5.04084 6.72124,-10.08203 10.08203,-15.12288 z"
             id="path4-3-3" />
        </g>
      </g>
    </g>
  </g>
</svg>
