<svg xmlns="http://www.w3.org/2000/svg" width="32" height="32" version="1">
 <path fill="#009587" d="m6.5 2c-0.831 0-1.5 0.669-1.5 1.5v25c0 0.831 0.669 1.5 1.5 1.5h19c0.831 0 1.5-0.669 1.5-1.5v-25c0-0.831-0.669-1.5-1.5-1.5h-19z"/>
 <path opacity=".2" d="m6.5 2c-0.831 0-1.5 0.669-1.5 1.5v25c0 0.831 0.669 1.5 1.5 1.5h2.5v-28z"/>
 <path opacity=".2" d="m19 3v14l2-2 2 2v-14h-4z"/>
 <path fill="#d8d8d8" d="m19 2v14l2-2 2 2v-14h-4z"/>
 <path fill="#fff" opacity=".2" d="m6.5 2c-0.831 0-1.5 0.669-1.5 1.5v1c0-0.831 0.669-1.5 1.5-1.5h19c0.831 0 1.5 0.669 1.5 1.5v-1c0-0.831-0.669-1.5-1.5-1.5h-19z"/>
 <path opacity=".2" d="m5 28.5v1c0 0.831 0.669 1.5 1.5 1.5h19c0.831 0 1.5-0.669 1.5-1.5v-1c0 0.831-0.669 1.5-1.5 1.5h-19c-0.831 0-1.5-0.669-1.5-1.5z"/>
 <circle fill-rule="evenodd" style="fill:#4269cd" cx="24" cy="23" r="8"/>
 <path fill-rule="evenodd" opacity=".2" d="m31.979 23.424a8 8 0 0 1 -7.979 7.576 8 8 0 0 1 -7.979 -7.424 8 8 0 0 0 -0.021 0.424 8 8 0 0 0 8 8 8 8 0 0 0 8 -8 8 8 0 0 0 -0.021 -0.576z"/>
 <path style="fill:#ffffff" d="M 24,18.999 C 21.791,18.999 20,20.79 20,22.999 20,25.208 21.791,26.999 24,26.999 25.814,26.999 27.349,25.797 27.839,24.142 H 26.607 C 26.165,25.147 25.169,25.856 24,25.856 22.422,25.856 21.143,24.577 21.143,22.999 21.143,21.421 22.422,20.142 24,20.142 24.79,20.142 25.495,20.471 26.009,20.99 L 24.572,22.428 H 28 V 19 L 26.827,20.173 C 26.102,19.45 25.105,19 24,19 Z"/>
</svg>
