<?xml version="1.0" encoding="UTF-8" standalone="no"?>
<!-- Created with Inkscape (http://www.inkscape.org/) -->

<svg
   xmlns:dc="http://purl.org/dc/elements/1.1/"
   xmlns:cc="http://creativecommons.org/ns#"
   xmlns:rdf="http://www.w3.org/1999/02/22-rdf-syntax-ns#"
   xmlns:svg="http://www.w3.org/2000/svg"
   xmlns="http://www.w3.org/2000/svg"
   xmlns:sodipodi="http://sodipodi.sourceforge.net/DTD/sodipodi-0.dtd"
   xmlns:inkscape="http://www.inkscape.org/namespaces/inkscape"
   width="128"
   height="128"
   viewBox="0 0 128 128"
   id="svg2"
   version="1.1"
   inkscape:version="0.92.2 5c3e80d, 2017-08-06"
   sodipodi:docname="convert.svg">
  <defs
     id="defs4">
    <linearGradient
       id="linearGradient4561"
       x1="24"
       x2="44"
       y1="24"
       y2="24"
       gradientTransform="matrix(2.6,0,0,2.66668,1.6,922.36212)"
       gradientUnits="userSpaceOnUse">
      <stop
         offset="0"
         id="stop2" />
      <stop
         offset="1"
         stop-opacity="0"
         id="stop4" />
    </linearGradient>
  </defs>
  <sodipodi:namedview
     id="base"
     pagecolor="#ffffff"
     bordercolor="#666666"
     borderopacity="1.0"
     inkscape:pageopacity="0.0"
     inkscape:pageshadow="2"
     inkscape:zoom="2.52183"
     inkscape:cx="25.419429"
     inkscape:cy="75.100939"
     inkscape:document-units="px"
     inkscape:current-layer="g847"
     showgrid="true"
     units="px"
     showguides="true"
     inkscape:guide-bbox="true"
     inkscape:window-width="1366"
     inkscape:window-height="694"
     inkscape:window-x="0"
     inkscape:window-y="48"
     inkscape:window-maximized="1">
    <inkscape:grid
       type="xygrid"
       id="grid4136"
       empspacing="4" />
    <sodipodi:guide
       position="8,140"
       orientation="1,0"
       id="guide4138"
       inkscape:label="Margin Left"
       inkscape:color="rgb(0,0,255)"
       inkscape:locked="false" />
    <sodipodi:guide
       position="120,140"
       orientation="1,0"
       id="guide4140"
       inkscape:label="Margin Right"
       inkscape:color="rgb(0,0,255)"
       inkscape:locked="false" />
    <sodipodi:guide
       position="-20,120"
       orientation="0,1"
       id="guide4142"
       inkscape:label="Margin Top"
       inkscape:color="rgb(0,0,255)"
       inkscape:locked="false" />
    <sodipodi:guide
       position="-16,8"
       orientation="0,1"
       id="guide4144"
       inkscape:label="Margin Bottom"
       inkscape:color="rgb(0,0,255)"
       inkscape:locked="false" />
    <sodipodi:guide
       position="8,8"
       orientation="-0.70710678,0.70710678"
       id="guide4146"
       inkscape:locked="false" />
    <sodipodi:guide
       position="72,56"
       orientation="0.70710678,0.70710678"
       id="guide4148"
       inkscape:locked="false" />
    <sodipodi:guide
       position="20,140"
       orientation="1,0"
       id="guide4150"
       inkscape:label="Rectangle Left"
       inkscape:color="rgb(0,0,255)"
       inkscape:locked="false" />
    <sodipodi:guide
       position="108,140"
       orientation="1,0"
       id="guide4152"
       inkscape:label="Rectangle Right"
       inkscape:color="rgb(0,0,255)"
       inkscape:locked="false" />
    <sodipodi:guide
       position="-20,116"
       orientation="0,1"
       id="guide4154"
       inkscape:label="Shadow Top"
       inkscape:color="rgb(0,0,255)"
       inkscape:locked="false" />
    <sodipodi:guide
       position="-16,12"
       orientation="0,1"
       id="guide4156"
       inkscape:label="Shadow Bottom"
       inkscape:color="rgb(0,0,255)"
       inkscape:locked="false" />
    <sodipodi:guide
       position="-20,104"
       orientation="0,1"
       id="guide4158"
       inkscape:label="Rectangle Top"
       inkscape:color="rgb(0,0,255)"
       inkscape:locked="false" />
    <sodipodi:guide
       position="-16,24"
       orientation="0,1"
       id="guide4160"
       inkscape:label="Rectangle Bottom"
       inkscape:color="rgb(0,0,255)"
       inkscape:locked="false" />
  </sodipodi:namedview>
  <metadata
     id="metadata7">
    <rdf:RDF>
      <cc:Work
         rdf:about="">
        <dc:format>image/svg+xml</dc:format>
        <dc:type
           rdf:resource="http://purl.org/dc/dcmitype/StillImage" />
        <dc:title />
      </cc:Work>
    </rdf:RDF>
  </metadata>
  <g
     inkscape:label="Layer 1"
     inkscape:groupmode="layer"
     id="layer1"
     transform="translate(0,-924.36216)">
    <g
       id="g40">
      <path
         style="fill:#009587;stroke-width:3.93042946"
         inkscape:connector-curvature="0"
         id="path2"
         d="m 26,932.36216 c -3.324,0 -6,2.58373 -6,5.7931 v 96.55174 c 0,3.2094 2.676,5.7931 6,5.7931 h 76 c 3.324,0 6,-2.5837 6,-5.7931 v -96.55174 c 0,-3.20937 -2.676,-5.7931 -6,-5.7931 z" />
      <path
         style="opacity:0.2;stroke-width:3.93042946"
         inkscape:connector-curvature="0"
         id="path4"
         d="m 26,932.36216 c -3.324,0 -6,2.58373 -6,5.7931 v 96.55174 c 0,3.2094 2.676,5.7931 6,5.7931 H 36 V 932.36216 Z" />
      <path
         style="opacity:0.2;stroke-width:3.93042946"
         inkscape:connector-curvature="0"
         id="path6"
         d="m 76,936.22423 v 54.06897 l 8,-7.72414 8,7.72414 v -54.06897 z" />
      <path
         style="fill:#d8d8d8;stroke-width:3.93042946"
         inkscape:connector-curvature="0"
         id="path8"
         d="m 76,932.36216 v 54.06897 l 8,-7.72414 8,7.72414 v -54.06897 z" />
      <path
         style="opacity:0.2;fill:#ffffff;stroke-width:3.93042946"
         inkscape:connector-curvature="0"
         id="path10"
         d="m 26,932.36216 c -3.324,0 -6,2.58373 -6,5.7931 v 3.86207 c 0,-3.20937 2.676,-5.7931 6,-5.7931 h 76 c 3.324,0 6,2.58373 6,5.7931 v -3.86207 c 0,-3.20937 -2.676,-5.7931 -6,-5.7931 z" />
      <path
         style="opacity:0.2;stroke-width:3.93042946"
         inkscape:connector-curvature="0"
         id="path12"
         d="m 20,1034.707 v 3.8621 c 0,3.2094 2.676,5.7931 6,5.7931 h 76 c 3.324,0 6,-2.5837 6,-5.7931 v -3.8621 c 0,3.2094 -2.676,5.7931 -6,5.7931 H 26 c -3.324,0 -6,-2.5837 -6,-5.7931 z" />
    </g>
    <g
       id="g847"
       transform="translate(71.8368,-8.03624)">
      <g
         transform="translate(0.14356,-1.00154)"
         id="g1545" />
      <g
         id="g855"
         transform="translate(-69.98036,9.03774)">
        <circle
           style="fill:#8561c5;fill-rule:evenodd;stroke-width:4"
           id="circle14"
           r="32"
           cy="1016.3622"
           cx="94"
           transform="translate(0.14356,-1.00154)" />
        <path
           style="opacity:0.2;fill-rule:evenodd;stroke-width:4"
           inkscape:connector-curvature="0"
           id="path18"
           d="m 125.916,1018.0582 a 32,32 0 0 1 -31.916,30.304 32,32 0 0 1 -31.916,-29.696 32,32 0 0 0 -0.084,1.696 32,32 0 0 0 32,32 32,32 0 0 0 32,-32 32,32 0 0 0 -0.084,-2.304 z"
           transform="translate(0.14356,-1.00154)" />
        <path
           id="path42"
           d="m 94.17936,1001.3611 c 3.7876,0 7.6282,1.1888 10.6282,3.5252 2.109,2.4296 -1.90952,5.0316 -3.7194,2.6624 -5.4484,-3.2966 -13.1324,-2.136 -17.2316,2.7928 -2.181,2.446 -3.4098,5.7098 -3.3954,8.9864 h 3.6006 c -1.92,2.882 -3.8404,5.762 -5.7606,8.642 -1.9204,-2.88 -3.8406,-5.76 -5.761,-8.64 h 3.6006 c -0.1146,-7.824 5.512,-15.2662 13.065,-17.2924 1.622,-0.4442 3.292,-0.693 4.974,-0.6756 z m 15.8066,9.3616 c 1.92032,2.8804 3.8406,5.761 5.761,8.6414 h -3.6006 c 0.102,7.917 -5.6682,15.4426 -13.3544,17.362 -5.1866,1.4484 -11.0512,0.3914 -15.314,-2.9222 -2.1748,-2.47 1.89952,-5.047 3.7262,-2.6564 5.2788,3.2028 12.6712,2.187 16.838,-2.3874 2.4132,-2.4864 3.802,-5.9306 3.7834,-9.396 h -3.6006 c 1.92032,-2.8804 3.8406,-5.761 5.761,-8.6414 z"
           style="opacity:0.2;stroke-width:2"
           inkscape:connector-curvature="0" />
        <path
           inkscape:connector-curvature="0"
           style="fill:#ffffff;stroke-width:2"
           d="m 94.17936,997.36109 c 3.7876,0 7.6282,1.1888 10.6282,3.52521 2.109,2.4296 -1.90952,5.0316 -3.7194,2.6624 -5.4484,-3.2966 -13.1324,-2.136 -17.2316,2.7928 -2.181,2.446 -3.4098,5.7098 -3.3954,8.9864 h 3.6006 c -1.92,2.882 -3.8404,5.762 -5.7606,8.642 -1.9204,-2.88 -3.8406,-5.76 -5.761,-8.64 h 3.6006 c -0.1146,-7.824 5.512,-15.2662 13.065,-17.29241 1.622,-0.4442 3.292,-0.693 4.974,-0.6756 z m 15.8066,9.36161 c 1.92032,2.8804 3.8406,5.761 5.761,8.6414 h -3.6006 c 0.102,7.917 -5.6682,15.4426 -13.3544,17.362 -5.1866,1.4484 -11.0512,0.3914 -15.314,-2.9222 -2.1748,-2.47 1.89952,-5.047 3.7262,-2.6564 5.2788,3.2028 12.6712,2.187 16.838,-2.3874 2.4132,-2.4864 3.802,-5.9306 3.7834,-9.396 h -3.6006 c 1.92032,-2.8804 3.8406,-5.761 5.761,-8.6414 z"
           id="path4-3" />
      </g>
    </g>
  </g>
</svg>
