<svg xmlns="http://www.w3.org/2000/svg" id="svg2" width="32" height="32" version="1">
 <ellipse style="fill:#4f4f4f" id="ellipse4" cx="16" cy="16" rx="12" ry="10"/>
 <path style="fill:#e462aa;fill-opacity:1" id="path8" d="m 14.0001,2 0,2.1 C 7.4278,4.1 2,9.4277 2,16 c 0,3.95017 1.925,7.4508 4.88768,9.6152 1.39251,0.90209 3.05305,-2.15327 1.42737,-3.34005 -1.7276,-1.5379 -2.8154,-3.7793 -2.8154,-6.2748 0,-4.6389 3.8605,-8.4 8.5001,-8.4 l 0,2.1 7,-3.69999 z"/>
 <path style="fill:#a651ea;fill-opacity:1" id="path12" d="m 24.5848,6.2203 c -1.22864,-0.00329 -2.32211,2.46568 -0.89964,3.50413 1.7269,1.5386 2.8147,3.78 2.8147,6.2755 0,4.6389 -3.8605,8.4 -8.5001,8.4 l 0,-2.1 -7,3.69999 7,4.00001 0,-2.1 c 6.5723,0 12.0001,-5.3277 12.0001,-11.9 0,-3.9501 -1.925,-7.4508 -4.8874,-9.6152 -0.1743,-0.1127 -0.3528,-0.1638 -0.5278,-0.1645 z"/>
 <path style="opacity:0.2" id="path16" d="m 20.090432,6.4800096 -6.090122,3.2187644 0,1.00002 L 21.00045,6.99952 20.090432,6.4800096 Z M 14.00031,7.599132 c -4.6392928,0 -8.50017,3.761475 -8.50017,8.400568 0,0.165003 0.018,0.326007 0.0273,0.48801 0.272606,-4.399088 4.0062807,-7.888558 8.47287,-7.888558 l 0,-1.00002 z m 9.086182,1.250025 c -0.148003,0.6809136 -0.029,1.416028 0.600012,1.875037 1.613032,1.436429 2.654053,3.48947 2.787055,5.787516 0.01,-0.170003 0.027,-0.339007 0.027,-0.51201 0,-2.49505 -1.087022,-4.737095 -2.814056,-6.2755255 C 23.366497,9.4906698 23.179494,9.1829637 23.086492,8.849157 Z M 2.0270705,16.460709 c -0.0082,0.180004 -0.027301,0.357007 -0.027301,0.539011 0,3.950079 1.9260385,7.451149 4.8887978,9.615192 C 8.00209,27.336927 9.2812156,25.528891 8.9198084,24.167863 8.6782036,25.239885 7.7380848,26.165903 6.8885678,25.614892 4.0428109,23.535851 2.1718734,20.219784 2.0270705,16.460709 Z m 27.9465585,0.078 C 29.684624,22.858837 24.390518,27.899938 18.00039,27.899938 l 0,1.00002 c 6.572131,0 12.00024,-5.328107 12.00024,-11.900238 0,-0.156003 -0.021,-0.306006 -0.027,-0.461009 z M 11.910268,26.51991 11.00025,26.99992 18.00039,31 l 0,-1.00002 -6.090122,-3.48007 z"/>
 <path style="fill:#ffffff;fill-opacity:1;opacity:0.1" id="path4137" d="M 14 2 L 14 3 L 20.091797 6.4804688 L 21 6 L 14 2 z M 14 4.0996094 C 7.4277 4.0996094 2 9.4277 2 16 C 2 16.155989 2.0213947 16.306405 2.0273438 16.460938 C 2.3163956 10.140665 7.6096718 5.0996094 14 5.0996094 L 14 4.0996094 z M 5.5253906 16.498047 C 5.515207 16.665272 5.5 16.830284 5.5 17 C 5.5 19.4955 6.5868531 21.737491 8.3144531 23.275391 C 8.6401784 23.513177 8.8294591 23.827016 8.9199219 24.167969 C 9.0746452 23.48237 8.948386 22.738175 8.3144531 22.275391 C 6.7032629 20.841118 5.6602126 18.791555 5.5253906 16.498047 z"/>
 <path style="fill:#ffffff;fill-opacity:1;opacity:0.1" id="path4139" d="M 24.583984 6.2207031 C 23.63166 6.218153 22.767184 7.698974 23.085938 8.8496094 C 23.273677 7.9899296 23.898375 7.2188672 24.583984 7.2207031 C 24.758984 7.2214031 24.938981 7.2720656 25.113281 7.3847656 C 27.958699 9.4636954 29.827956 12.780368 29.972656 16.539062 C 29.980887 16.359086 30 16.181972 30 16 C 30 12.0499 28.075681 8.5491656 25.113281 6.3847656 C 24.938981 6.2720656 24.758984 6.2214031 24.583984 6.2207031 z M 26.472656 16.511719 C 26.200099 20.911214 22.466923 24.400391 18 24.400391 L 18 25.400391 C 22.6396 25.400391 26.5 21.6389 26.5 17 C 26.5 16.835119 26.482024 16.674252 26.472656 16.511719 z M 18 22.300781 L 11 26 L 11.910156 26.519531 L 18 23.300781 L 18 22.300781 z"/>
</svg>
