<svg xmlns="http://www.w3.org/2000/svg" width="32" height="32" version="1">
 <path fill="#ccc" d="m27 28.5v-25c0-0.831-0.669-1.5-1.5-1.5h-19c-0.831 0-1.5 0.669-1.5 1.5v25c0 0.831 0.669 1.5 1.5 1.5h19c0.831 0 1.5-0.669 1.5-1.5z"/>
 <path fill="#fff" opacity=".1" d="m6.5 2c-0.831 0-1.5 0.669-1.5 1.5v1c0-0.831 0.669-1.5 1.5-1.5h19c0.831 0 1.5 0.669 1.5 1.5v-1c0-0.831-0.669-1.5-1.5-1.5z"/>
 <g fill="#4c4c4c">
  <path d="m9 8h14v1h-14z"/>
  <path d="m9 11h14v1h-14z"/>
  <path d="m9 14h14v1h-14z"/>
  <path d="m9 17h14v1h-14z"/>
  <path d="m9 20h14v1h-14z"/>
  <path d="m9 23h14v1h-14z"/>
 </g>
 <path opacity=".2" d="m5 28.5v1c0 0.831 0.669 1.5 1.5 1.5h19c0.831 0 1.5-0.669 1.5-1.5v-1c0 0.831-0.669 1.5-1.5 1.5h-19c-0.831 0-1.5-0.669-1.5-1.5z"/>
 <circle style="fill-rule:evenodd;opacity:0.2" cx="24" cy="24" r="8"/>
 <circle style="fill:#c03630;fill-rule:evenodd" cx="24" cy="23" r="8"/>
 <path style="fill:#ffffff" d="M 24,18 C 22.34,18 21,19.3 21,21 V 22 H 20.5 C 20.223,22 20,22.223 20,22.5 V 27.5 C 20,27.777 20.223,28 20.5,28 H 27.5 C 27.777,28 28,27.777 28,27.5 V 22.5 C 28,22.223 27.777,22 27.5,22 H 27 V 21 C 27,19.3 25.66,18 24,18 Z M 24,19 C 25.11,19 26,19.9 26,21 V 22 H 22 V 21 C 22,19.9 22.89,19 24,19 Z"/>
</svg>
