<?xml version="1.0" encoding="UTF-8" standalone="no"?>
<!-- Created with Inkscape (http://www.inkscape.org/) -->

<svg
   xmlns:dc="http://purl.org/dc/elements/1.1/"
   xmlns:cc="http://creativecommons.org/ns#"
   xmlns:rdf="http://www.w3.org/1999/02/22-rdf-syntax-ns#"
   xmlns:svg="http://www.w3.org/2000/svg"
   xmlns="http://www.w3.org/2000/svg"
   xmlns:sodipodi="http://sodipodi.sourceforge.net/DTD/sodipodi-0.dtd"
   xmlns:inkscape="http://www.inkscape.org/namespaces/inkscape"
   width="128"
   height="128"
   viewBox="0 0 128 128"
   id="svg2"
   version="1.1"
   inkscape:version="0.92.2 5c3e80d, 2017-08-06"
   sodipodi:docname="download-metadata.svg">
  <defs
     id="defs4" />
  <sodipodi:namedview
     id="base"
     pagecolor="#ffffff"
     bordercolor="#666666"
     borderopacity="1.0"
     inkscape:pageopacity="0.0"
     inkscape:pageshadow="2"
     inkscape:zoom="2.52183"
     inkscape:cx="29.640328"
     inkscape:cy="50.29229"
     inkscape:document-units="px"
     inkscape:current-layer="layer1"
     showgrid="false"
     units="px"
     showguides="true"
     inkscape:guide-bbox="true"
     inkscape:window-width="1366"
     inkscape:window-height="694"
     inkscape:window-x="0"
     inkscape:window-y="48"
     inkscape:window-maximized="1">
    <inkscape:grid
       type="xygrid"
       id="grid4136"
       empspacing="4" />
    <sodipodi:guide
       position="8,140"
       orientation="1,0"
       id="guide4138"
       inkscape:label="Margin Left"
       inkscape:color="rgb(0,0,255)"
       inkscape:locked="false" />
    <sodipodi:guide
       position="120,140"
       orientation="1,0"
       id="guide4140"
       inkscape:label="Margin Right"
       inkscape:color="rgb(0,0,255)"
       inkscape:locked="false" />
    <sodipodi:guide
       position="-20,120"
       orientation="0,1"
       id="guide4142"
       inkscape:label="Margin Top"
       inkscape:color="rgb(0,0,255)"
       inkscape:locked="false" />
    <sodipodi:guide
       position="-16,8"
       orientation="0,1"
       id="guide4144"
       inkscape:label="Margin Bottom"
       inkscape:color="rgb(0,0,255)"
       inkscape:locked="false" />
    <sodipodi:guide
       position="8,8"
       orientation="-0.70710678,0.70710678"
       id="guide4146"
       inkscape:locked="false" />
    <sodipodi:guide
       position="72,56"
       orientation="0.70710678,0.70710678"
       id="guide4148"
       inkscape:locked="false" />
    <sodipodi:guide
       position="20,140"
       orientation="1,0"
       id="guide4150"
       inkscape:label="Rectangle Left"
       inkscape:color="rgb(0,0,255)"
       inkscape:locked="false" />
    <sodipodi:guide
       position="108,140"
       orientation="1,0"
       id="guide4152"
       inkscape:label="Rectangle Right"
       inkscape:color="rgb(0,0,255)"
       inkscape:locked="false" />
    <sodipodi:guide
       position="-20,116"
       orientation="0,1"
       id="guide4154"
       inkscape:label="Shadow Top"
       inkscape:color="rgb(0,0,255)"
       inkscape:locked="false" />
    <sodipodi:guide
       position="-16,12"
       orientation="0,1"
       id="guide4156"
       inkscape:label="Shadow Bottom"
       inkscape:color="rgb(0,0,255)"
       inkscape:locked="false" />
    <sodipodi:guide
       position="-20,104"
       orientation="0,1"
       id="guide4158"
       inkscape:label="Rectangle Top"
       inkscape:color="rgb(0,0,255)"
       inkscape:locked="false" />
    <sodipodi:guide
       position="-16,24"
       orientation="0,1"
       id="guide4160"
       inkscape:label="Rectangle Bottom"
       inkscape:color="rgb(0,0,255)"
       inkscape:locked="false" />
  </sodipodi:namedview>
  <metadata
     id="metadata7">
    <rdf:RDF>
      <cc:Work
         rdf:about="">
        <dc:format>image/svg+xml</dc:format>
        <dc:type
           rdf:resource="http://purl.org/dc/dcmitype/StillImage" />
        <dc:title></dc:title>
      </cc:Work>
    </rdf:RDF>
  </metadata>
  <g
     inkscape:label="Layer 1"
     inkscape:groupmode="layer"
     id="layer1"
     transform="translate(0,-924.36216)">
    <path
       style="opacity:0.2;stroke-width:4"
       d="M 76,948.36214 A 28,28 0 0 0 49.984376,966.0887 20,20 0 0 0 36,960.36214 a 20,20 0 0 0 -20,20 20,20 0 0 0 1.953125,8.57812 A 24,24 0 0 0 8.0000005,1008.3621 24,24 0 0 0 32,1032.3622 H 88.000001 A 32,32 0 0 0 120,1000.3621 32,32 0 0 0 103.70312,972.49495 28,28 0 0 0 76,948.36214 Z"
       id="path2"
       inkscape:connector-curvature="0" />
    <circle
       style="fill:#46b4ff;stroke-width:4"
       cx="76"
       cy="972.36218"
       r="28"
       id="circle4" />
    <circle
       style="fill:#46b4ff;stroke-width:4"
       cx="32"
       cy="1004.3622"
       r="24"
       id="circle6" />
    <circle
       style="fill:#46b4ff;stroke-width:4"
       cx="36"
       cy="976.36218"
       r="20"
       id="circle8" />
    <circle
       style="fill:#46b4ff;stroke-width:4"
       cx="88"
       cy="996.36218"
       r="32"
       id="circle10" />
    <rect
       style="fill:#46b4ff;stroke-width:4"
       width="56"
       height="56"
       x="32"
       y="972.36218"
       id="rect12" />
    <path
       style="opacity:0.2;stroke-width:4"
       d="m 64,976.36214 a 20,20 0 0 0 -19.578124,16 h 8.281248 a 12,12 0 0 1 11.296876,-8 12,12 0 0 1 8.476564,3.52344 L 68,992.36214 h 16.000001 v -16 l -5.867188,5.86719 A 20,20 0 0 0 64,976.36214 Z m -20,20 v 15.99996 l 4.015624,-4.0156 A 20,20 0 0 0 64,1016.3621 a 20,20 0 0 0 19.578125,-16 h -8.281249 a 12,12 0 0 1 -11.296876,8 12,12 0 0 1 -10.234376,-5.7656 L 60,996.36214 Z"
       id="path14"
       inkscape:connector-curvature="0" />
    <path
       style="fill:#ffffff;stroke-width:4"
       d="m 64,972.36214 a 20,20 0 0 0 -19.578124,16 h 8.281248 a 12,12 0 0 1 11.296876,-8 12,12 0 0 1 11.304688,8 h 8.289065 A 20,20 0 0 0 64,972.36214 Z m -19.593752,24 A 20,20 0 0 0 64,1012.3621 20,20 0 0 0 83.578125,996.36214 H 75.296876 A 12,12 0 0 1 64,1004.3621 12,12 0 0 1 52.695312,996.36214 Z"
       id="path16"
       inkscape:connector-curvature="0" />
    <path
       style="fill:#ffffff;stroke-width:4"
       d="M 84.000001,988.36214 H 68 l 16.000001,-16 z"
       id="path18"
       inkscape:connector-curvature="0" />
    <path
       style="fill:#ffffff;stroke-width:4"
       d="M 44,992.36214 H 60 L 44,1008.3621 Z"
       id="path20"
       inkscape:connector-curvature="0" />
    <path
       style="opacity:0.2;fill:#ffffff;stroke-width:4"
       d="M 76,944.36214 A 28,28 0 0 0 49.984376,962.0887 20,20 0 0 0 36,956.36214 a 20,20 0 0 0 -20,20 20,20 0 0 0 0.109375,2.0625 A 20,20 0 0 1 36,960.36214 20,20 0 0 1 49.984376,966.0887 28,28 0 0 1 76,948.36214 28,28 0 0 1 103.70312,972.49495 32,32 0 0 1 119.91406,998.69026 32,32 0 0 0 120,996.36214 32,32 0 0 0 103.70312,968.49495 28,28 0 0 0 76,944.36214 Z m -59.195312,41.5 a 24,24 0 0 0 -8.8046875,18.49996 24,24 0 0 0 0.101563,2.1094 24,24 0 0 1 9.8515615,-17.53124 20,20 0 0 1 -1.148437,-3.07812 z"
       id="path22"
       inkscape:connector-curvature="0" />
  </g>
</svg>
