<?xml version="1.0" encoding="UTF-8" standalone="no"?>
<svg
   xmlns:dc="http://purl.org/dc/elements/1.1/"
   xmlns:cc="http://creativecommons.org/ns#"
   xmlns:rdf="http://www.w3.org/1999/02/22-rdf-syntax-ns#"
   xmlns:svg="http://www.w3.org/2000/svg"
   xmlns="http://www.w3.org/2000/svg"
   xmlns:sodipodi="http://sodipodi.sourceforge.net/DTD/sodipodi-0.dtd"
   xmlns:inkscape="http://www.inkscape.org/namespaces/inkscape"
   width="32"
   height="32"
   version="1.1"
   viewBox="0 0 32 32"
   id="svg2"
   inkscape:version="0.91 r13725"
   sodipodi:docname="download-metadata.svg">
  <metadata
     id="metadata30">
    <rdf:RDF>
      <cc:Work
         rdf:about="">
        <dc:format>image/svg+xml</dc:format>
        <dc:type
           rdf:resource="http://purl.org/dc/dcmitype/StillImage" />
      </cc:Work>
    </rdf:RDF>
  </metadata>
  <defs
     id="defs28" />
  <sodipodi:namedview
     pagecolor="#ffffff"
     bordercolor="#666666"
     borderopacity="1"
     objecttolerance="10"
     gridtolerance="10"
     guidetolerance="10"
     inkscape:pageopacity="0"
     inkscape:pageshadow="2"
     inkscape:window-width="1920"
     inkscape:window-height="1022"
     id="namedview26"
     showgrid="true"
     inkscape:zoom="22.36"
     inkscape:cx="16"
     inkscape:cy="16"
     inkscape:window-x="0"
     inkscape:window-y="28"
     inkscape:window-maximized="1"
     inkscape:current-layer="svg2">
    <inkscape:grid
       type="xygrid"
       id="grid4158" />
  </sodipodi:namedview>
  <path
     style="opacity:.2"
     d="m19 7a7 7 0 0 0 -6.503906 4.431641 5 5 0 0 0 -3.496094 -1.431641 5 5 0 0 0 -5 5 5 5 0 0 0 0.4882812 2.144531 6 6 0 0 0 -2.4882812 4.855469 6 6 0 0 0 6 6h14a8 8 0 0 0 8 -8 8 8 0 0 0 -4.074219 -6.966797 7 7 0 0 0 -6.925781 -6.033203z"
     id="path4" />
  <circle
     style="fill:#46b4ff"
     cx="19"
     cy="13"
     r="7"
     id="circle6" />
  <circle
     style="fill:#46b4ff"
     cx="8"
     cy="21"
     r="6"
     id="circle8" />
  <circle
     style="fill:#46b4ff"
     cx="9"
     cy="14"
     r="5"
     id="circle10" />
  <circle
     style="fill:#46b4ff"
     cx="22"
     cy="19"
     r="8"
     id="circle12" />
  <rect
     style="fill:#46b4ff"
     width="14"
     height="14"
     x="8"
     y="13"
     id="rect14" />
  <path
     style="opacity:.2;fill:#ffffff"
     d="m19 6a7 7 0 0 0 -6.503906 4.431641 5 5 0 0 0 -3.496094 -1.431641 5 5 0 0 0 -5 5 5 5 0 0 0 0.0273438 0.515625 5 5 0 0 1 4.9726562 -4.515625 5 5 0 0 1 3.496094 1.431641 7 7 0 0 1 6.503906 -4.431641 7 7 0 0 1 6.925781 6.033203 8 8 0 0 1 4.052735 6.548828 8 8 0 0 0 0.021484 -0.582031 8 8 0 0 0 -4.074219 -6.966797 7 7 0 0 0 -6.925781 -6.033203zm-14.798828 10.375a6 6 0 0 0 -2.2011719 4.625 6 6 0 0 0 0.0253906 0.527344 6 6 0 0 1 2.4628906 -4.382813 5 5 0 0 1 -0.2871093 -0.769531z"
     id="path24" />
  <path
     id="path4170"
     d="m 16,13 c -0.554,0 -1,0.446 -1,1 l 0,4 -0.902344,0 a 1.0983842,1.0000558 0 0 0 -0.951172,1.5 l 0.951172,1.5 0.951172,1.5 a 1.0983842,1.0000558 0 0 0 1.902344,0 L 17.902344,21 18.853516,19.5 A 1.0983842,1.0000558 0 0 0 17.902344,18 L 17,18 17,14 c 0,-0.554 -0.446,-1 -1,-1 z m -3,11 c -0.554,0 -1,0.446 -1,1 0,0.554 0.446,1 1,1 l 6,0 c 0.554,0 1,-0.446 1,-1 0,-0.554 -0.446,-1 -1,-1 l -6,0 z"
     style="opacity:0.2;fill:#000000;fill-opacity:1;stroke:none;stroke-width:3;stroke-miterlimit:4;stroke-dasharray:none;stroke-opacity:1"
     inkscape:connector-curvature="0" />
  <path
     style="opacity:1;fill:#ffffff;fill-opacity:1;stroke:none;stroke-width:3;stroke-miterlimit:4;stroke-dasharray:none;stroke-opacity:1"
     d="M 16 12 C 15.446 12 15 12.446 15 13 L 15 17 L 14.097656 17 A 1.0983842 1.0000558 0 0 0 13.146484 18.5 L 14.097656 20 L 15.048828 21.5 A 1.0983842 1.0000558 0 0 0 16.951172 21.5 L 17.902344 20 L 18.853516 18.5 A 1.0983842 1.0000558 0 0 0 17.902344 17 L 17 17 L 17 13 C 17 12.446 16.554 12 16 12 z M 13 23 C 12.446 23 12 23.446 12 24 C 12 24.554 12.446 25 13 25 L 19 25 C 19.554 25 20 24.554 20 24 C 20 23.446 19.554 23 19 23 L 13 23 z "
     id="rect4160" />
</svg>
