<svg xmlns="http://www.w3.org/2000/svg" width="32" height="32" version="1">
 <circle style="opacity:0.2" cx="16" cy="17" r="14"/>
 <circle style="fill:#db3c30" cx="16" cy="16" r="14"/>
 <path fill="#fff" d="m16 2a14 14 0 0 0 -14 14 14 14 0 0 0 0.0215 0.586 14 14 0 0 1 13.978 -13.586 14 14 0 0 1 13.979 13.414 14 14 0 0 0 0.021 -0.414 14 14 0 0 0 -14 -14z" style="opacity:0.2"/>
 <path style="opacity:0.2" d="M 16,10 C 13.784,10 12,11.821 12,14.062 V 16 H 11 C 10.446,16 10,16.446 10,17 V 23 C 10,23.554 10.446,24 11,24 H 21 C 21.554,24 22,23.554 22,23 V 17 C 22,16.446 21.554,16 21,16 H 20 V 14.062 C 20,11.822 18.216,10 16,10 Z M 16,12 C 17.108,12 18,12.891 18,14 V 16 H 14 V 14 C 14,12.891 14.892,12 16,12 Z"/>
 <path style="fill:#ffffff" d="M 16,9 C 13.784,9 12,10.821 12,13.062 V 15 H 11 C 10.446,15 10,15.446 10,16 V 22 C 10,22.554 10.446,23 11,23 H 21 C 21.554,23 22,22.554 22,22 V 16 C 22,15.446 21.554,15 21,15 H 20 V 13.062 C 20,10.822 18.216,9 16,9 Z M 16,11 C 17.108,11 18,11.891 18,13 V 15 H 14 V 13 C 14,11.891 14.892,11 16,11 Z"/>
</svg>
