<?xml version="1.0" encoding="UTF-8" standalone="no"?>
<!-- Created with Inkscape (http://www.inkscape.org/) -->

<svg
   xmlns:dc="http://purl.org/dc/elements/1.1/"
   xmlns:cc="http://creativecommons.org/ns#"
   xmlns:rdf="http://www.w3.org/1999/02/22-rdf-syntax-ns#"
   xmlns:svg="http://www.w3.org/2000/svg"
   xmlns="http://www.w3.org/2000/svg"
   xmlns:sodipodi="http://sodipodi.sourceforge.net/DTD/sodipodi-0.dtd"
   xmlns:inkscape="http://www.inkscape.org/namespaces/inkscape"
   width="128"
   height="128"
   viewBox="0 0 128 128"
   id="svg2"
   version="1.1"
   inkscape:version="0.92.2 5c3e80d, 2017-08-06"
   sodipodi:docname="drm-unlocked.svg">
  <defs
     id="defs4">
    <linearGradient
       id="linearGradient4561"
       x1="24"
       x2="44"
       y1="24"
       y2="24"
       gradientTransform="matrix(2.6,0,0,2.66668,1.6,922.36212)"
       gradientUnits="userSpaceOnUse">
      <stop
         offset="0"
         id="stop2" />
      <stop
         offset="1"
         stop-opacity="0"
         id="stop4" />
    </linearGradient>
  </defs>
  <sodipodi:namedview
     id="base"
     pagecolor="#ffffff"
     bordercolor="#666666"
     borderopacity="1.0"
     inkscape:pageopacity="0.0"
     inkscape:pageshadow="2"
     inkscape:zoom="2.52183"
     inkscape:cx="-32.480984"
     inkscape:cy="92.499079"
     inkscape:document-units="px"
     inkscape:current-layer="layer1"
     showgrid="false"
     units="px"
     showguides="true"
     inkscape:guide-bbox="true"
     inkscape:window-width="1366"
     inkscape:window-height="694"
     inkscape:window-x="0"
     inkscape:window-y="48"
     inkscape:window-maximized="1">
    <inkscape:grid
       type="xygrid"
       id="grid4136"
       empspacing="4" />
    <sodipodi:guide
       position="8,140"
       orientation="1,0"
       id="guide4138"
       inkscape:label="Margin Left"
       inkscape:color="rgb(0,0,255)"
       inkscape:locked="false" />
    <sodipodi:guide
       position="120,140"
       orientation="1,0"
       id="guide4140"
       inkscape:label="Margin Right"
       inkscape:color="rgb(0,0,255)"
       inkscape:locked="false" />
    <sodipodi:guide
       position="-20,120"
       orientation="0,1"
       id="guide4142"
       inkscape:label="Margin Top"
       inkscape:color="rgb(0,0,255)"
       inkscape:locked="false" />
    <sodipodi:guide
       position="-16,8"
       orientation="0,1"
       id="guide4144"
       inkscape:label="Margin Bottom"
       inkscape:color="rgb(0,0,255)"
       inkscape:locked="false" />
    <sodipodi:guide
       position="8,8"
       orientation="-0.70710678,0.70710678"
       id="guide4146"
       inkscape:locked="false" />
    <sodipodi:guide
       position="72,56"
       orientation="0.70710678,0.70710678"
       id="guide4148"
       inkscape:locked="false" />
    <sodipodi:guide
       position="20,140"
       orientation="1,0"
       id="guide4150"
       inkscape:label="Rectangle Left"
       inkscape:color="rgb(0,0,255)"
       inkscape:locked="false" />
    <sodipodi:guide
       position="108,140"
       orientation="1,0"
       id="guide4152"
       inkscape:label="Rectangle Right"
       inkscape:color="rgb(0,0,255)"
       inkscape:locked="false" />
    <sodipodi:guide
       position="-20,116"
       orientation="0,1"
       id="guide4154"
       inkscape:label="Shadow Top"
       inkscape:color="rgb(0,0,255)"
       inkscape:locked="false" />
    <sodipodi:guide
       position="-16,12"
       orientation="0,1"
       id="guide4156"
       inkscape:label="Shadow Bottom"
       inkscape:color="rgb(0,0,255)"
       inkscape:locked="false" />
    <sodipodi:guide
       position="-20,104"
       orientation="0,1"
       id="guide4158"
       inkscape:label="Rectangle Top"
       inkscape:color="rgb(0,0,255)"
       inkscape:locked="false" />
    <sodipodi:guide
       position="-16,24"
       orientation="0,1"
       id="guide4160"
       inkscape:label="Rectangle Bottom"
       inkscape:color="rgb(0,0,255)"
       inkscape:locked="false" />
  </sodipodi:namedview>
  <metadata
     id="metadata7">
    <rdf:RDF>
      <cc:Work
         rdf:about="">
        <dc:format>image/svg+xml</dc:format>
        <dc:type
           rdf:resource="http://purl.org/dc/dcmitype/StillImage" />
        <dc:title></dc:title>
      </cc:Work>
    </rdf:RDF>
  </metadata>
  <g
     inkscape:label="Layer 1"
     inkscape:groupmode="layer"
     id="layer1"
     transform="translate(0,-924.36216)">
    <circle
       cx="64"
       cy="986.36218"
       r="56"
       id="circle2"
       style="fill:#4caf50;stroke-width:4;fill-opacity:1" />
    <path
       d="m 64.000001,930.36214 a 56,56 0 0 0 -55.9999998,56 56,56 0 0 0 0.086,2.344 56,56 0 0 1 55.9119998,-54.344 56,56 0 0 1 55.915999,53.656 56,56 0 0 0 0.084,-1.656 56,56 0 0 0 -55.999999,-56 z"
       id="path8"
       inkscape:connector-curvature="0"
       style="opacity:0.2;fill:#ffffff;stroke-width:4" />
    <path
       d="m 119.916,988.01814 a 56,56 0 0 1 -55.915999,54.34406 56,56 0 0 1 -55.9119998,-53.65606 56,56 0 0 0 -0.088,1.656 A 56,56 0 0 0 64.000001,1046.3622 56,56 0 0 0 120,990.36214 a 56,56 0 0 0 -0.084,-2.344 z"
       id="path10"
       inkscape:connector-curvature="0"
       style="opacity:0.2;stroke-width:4" />
    <path
       id="path839"
       d="m 63.999998,954.36218 c -10.865449,0 -19.636355,8.50909 -19.636355,19.63636 h 6.545451 c 0,-7.2 5.825453,-13.09092 13.090904,-13.09092 7.265453,0 13.090904,5.89092 13.090904,13.09092 v 13.0909 H 57.454547 50.909094 44.363643 41.090916 c -1.813087,0 -3.272723,1.45964 -3.272723,3.27273 v 32.72733 c 0,1.8131 1.459636,3.2727 3.272723,3.2727 h 45.818165 c 1.81309,0 3.272726,-1.4596 3.272726,-3.2727 v -32.72733 c 0,-1.81309 -1.459636,-3.27273 -3.272726,-3.27273 h -3.272725 v -13.0909 c 0,-11.12727 -8.770906,-19.63636 -19.636358,-19.63636 z"
       style="opacity:0.2;stroke-width:6.54545212"
       inkscape:connector-curvature="0" />
    <path
       inkscape:connector-curvature="0"
       style="fill:#ffffff;stroke-width:6.54545212"
       d="m 63.999998,950.36218 c -10.865449,0 -19.636355,8.50909 -19.636355,19.63636 h 6.545451 c 0,-7.2 5.825453,-13.09092 13.090904,-13.09092 7.265453,0 13.090904,5.89092 13.090904,13.09092 v 13.0909 H 57.454547 50.909094 44.363643 41.090916 c -1.813087,0 -3.272723,1.45964 -3.272723,3.27273 v 32.72733 c 0,1.8131 1.459636,3.2727 3.272723,3.2727 h 45.818165 c 1.81309,0 3.272726,-1.4596 3.272726,-3.2727 v -32.72733 c 0,-1.81309 -1.459636,-3.27273 -3.272726,-3.27273 h -3.272725 v -13.0909 c 0,-11.12727 -8.770906,-19.63636 -19.636358,-19.63636 z"
       id="path14" />
  </g>
</svg>
