<svg xmlns="http://www.w3.org/2000/svg" width="32" height="32" version="1.1" viewBox="0 0 32 32">
 <circle style="opacity:0.2" cx="16" cy="17" r="14"/>
 <circle style="fill:#30a3db" cx="16" cy="16" r="14"/>
 <path style="fill-rule:evenodd;opacity:0.2" d="M 15,10 V 13.036 H 19.24 C 21.298,13.037 23.199,14.054 24.228,15.706 25.257,17.357 25.257,19.692 24.228,21.344 23.249,22.911 21.479,23.911 19.527,24 20.999,23.863 22,22.715 22,21.344 22,19.87 20.831,18.982 19.24,19 H 15 V 22.011 L 7,16 Z"/>
 <path style="fill:#ffffff;fill-rule:evenodd" d="M 15,9 V 12.036 H 19.24 C 21.298,12.037 23.199,13.054 24.228,14.706 25.257,16.357 25.257,18.692 24.228,20.344 23.249,21.911 21.479,22.911 19.527,23 20.999,22.863 22,21.715 22,20.344 22,18.87 20.831,17.982 19.24,18 H 15 V 21.011 L 7,15 Z"/>
 <path style="fill:#ffffff;opacity:0.2" d="M 16 2 A 14 14 0 0 0 2 16 A 14 14 0 0 0 2.0215 16.586 A 14 14 0 0 1 16 3 A 14 14 0 0 1 29.979 16.414 A 14 14 0 0 0 30 16 A 14 14 0 0 0 16 2 z"/>
</svg>
