<svg xmlns="http://www.w3.org/2000/svg" width="32" height="32" version="1.1" viewBox="0 0 32 32">
 <circle style="opacity:0.2" cx="16" cy="17" r="14"/>
 <circle style="fill:#009587" cx="16" cy="16" r="14"/>
 <path style="fill-rule:evenodd;opacity:0.2" d="M 17,10 V 13.036 H 12.76 C 10.702,13.037 8.8006,14.054 7.7717,15.706 6.7428,17.357 6.7428,19.692 7.7717,21.344 8.7512,22.911 10.521,23.911 12.473,24 11.001,23.863 9.9999,22.715 10,21.344 10,19.87 11.169,18.982 12.76,19 H 17 V 22.011 L 25,16 Z"/>
 <path style="fill:#ffffff;fill-rule:evenodd" d="m 17,9 0,3.036425 -4.240229,0 c -2.057768,1.12e-4 -3.9591787,1.017571 -4.9880627,2.669149 -1.0289441,1.651676 -1.0289441,3.986635 0,5.63831 C 8.7511759,21.91098 10.521135,22.910988 12.47289,23 11.000634,22.863409 9.9998663,21.715147 10,20.343884 10,18.869754 11.169268,17.981592 12.759771,18 L 17,18 17,21.011171 25,15 Z"/>
 <path style="fill:#ffffff;opacity:0.2" d="M 16 2 A 14 14 0 0 0 2 16 A 14 14 0 0 0 2.0215 16.586 A 14 14 0 0 1 16 3 A 14 14 0 0 1 29.979 16.414 A 14 14 0 0 0 30 16 A 14 14 0 0 0 16 2 z"/>
</svg>
