<?xml version="1.0" encoding="UTF-8" standalone="no"?>
<!-- Created with Inkscape (http://www.inkscape.org/) -->

<svg
   xmlns:dc="http://purl.org/dc/elements/1.1/"
   xmlns:cc="http://creativecommons.org/ns#"
   xmlns:rdf="http://www.w3.org/1999/02/22-rdf-syntax-ns#"
   xmlns:svg="http://www.w3.org/2000/svg"
   xmlns="http://www.w3.org/2000/svg"
   xmlns:sodipodi="http://sodipodi.sourceforge.net/DTD/sodipodi-0.dtd"
   xmlns:inkscape="http://www.inkscape.org/namespaces/inkscape"
   width="128"
   height="128"
   viewBox="0 0 128 128"
   id="svg2"
   version="1.1"
   inkscape:version="0.92.2 5c3e80d, 2017-08-06"
   sodipodi:docname="edit_book.svg">
  <defs
     id="defs4">
    <linearGradient
       id="linearGradient4561"
       x1="24"
       x2="44"
       y1="24"
       y2="24"
       gradientTransform="matrix(2.6,0,0,2.66668,1.6,922.36212)"
       gradientUnits="userSpaceOnUse">
      <stop
         offset="0"
         id="stop2" />
      <stop
         offset="1"
         stop-opacity="0"
         id="stop4" />
    </linearGradient>
  </defs>
  <sodipodi:namedview
     id="base"
     pagecolor="#ffffff"
     bordercolor="#666666"
     borderopacity="1.0"
     inkscape:pageopacity="0.0"
     inkscape:pageshadow="2"
     inkscape:zoom="3.5664062"
     inkscape:cx="46.073785"
     inkscape:cy="68.88238"
     inkscape:document-units="px"
     inkscape:current-layer="g1545"
     showgrid="true"
     units="px"
     showguides="true"
     inkscape:guide-bbox="true"
     inkscape:window-width="1366"
     inkscape:window-height="694"
     inkscape:window-x="0"
     inkscape:window-y="48"
     inkscape:window-maximized="1">
    <inkscape:grid
       type="xygrid"
       id="grid4136"
       empspacing="4" />
    <sodipodi:guide
       position="8,140"
       orientation="1,0"
       id="guide4138"
       inkscape:label="Margin Left"
       inkscape:color="rgb(0,0,255)"
       inkscape:locked="false" />
    <sodipodi:guide
       position="120,140"
       orientation="1,0"
       id="guide4140"
       inkscape:label="Margin Right"
       inkscape:color="rgb(0,0,255)"
       inkscape:locked="false" />
    <sodipodi:guide
       position="-20,120"
       orientation="0,1"
       id="guide4142"
       inkscape:label="Margin Top"
       inkscape:color="rgb(0,0,255)"
       inkscape:locked="false" />
    <sodipodi:guide
       position="-16,8"
       orientation="0,1"
       id="guide4144"
       inkscape:label="Margin Bottom"
       inkscape:color="rgb(0,0,255)"
       inkscape:locked="false" />
    <sodipodi:guide
       position="8,8"
       orientation="-0.70710678,0.70710678"
       id="guide4146"
       inkscape:locked="false" />
    <sodipodi:guide
       position="72,56"
       orientation="0.70710678,0.70710678"
       id="guide4148"
       inkscape:locked="false" />
    <sodipodi:guide
       position="20,140"
       orientation="1,0"
       id="guide4150"
       inkscape:label="Rectangle Left"
       inkscape:color="rgb(0,0,255)"
       inkscape:locked="false" />
    <sodipodi:guide
       position="108,140"
       orientation="1,0"
       id="guide4152"
       inkscape:label="Rectangle Right"
       inkscape:color="rgb(0,0,255)"
       inkscape:locked="false" />
    <sodipodi:guide
       position="-20,116"
       orientation="0,1"
       id="guide4154"
       inkscape:label="Shadow Top"
       inkscape:color="rgb(0,0,255)"
       inkscape:locked="false" />
    <sodipodi:guide
       position="-16,12"
       orientation="0,1"
       id="guide4156"
       inkscape:label="Shadow Bottom"
       inkscape:color="rgb(0,0,255)"
       inkscape:locked="false" />
    <sodipodi:guide
       position="-20,104"
       orientation="0,1"
       id="guide4158"
       inkscape:label="Rectangle Top"
       inkscape:color="rgb(0,0,255)"
       inkscape:locked="false" />
    <sodipodi:guide
       position="-16,24"
       orientation="0,1"
       id="guide4160"
       inkscape:label="Rectangle Bottom"
       inkscape:color="rgb(0,0,255)"
       inkscape:locked="false" />
  </sodipodi:namedview>
  <metadata
     id="metadata7">
    <rdf:RDF>
      <cc:Work
         rdf:about="">
        <dc:format>image/svg+xml</dc:format>
        <dc:type
           rdf:resource="http://purl.org/dc/dcmitype/StillImage" />
        <dc:title></dc:title>
      </cc:Work>
    </rdf:RDF>
  </metadata>
  <g
     inkscape:label="Layer 1"
     inkscape:groupmode="layer"
     id="layer1"
     transform="translate(0,-924.36216)">
    <path
       d="m 26,930.36216 c -3.324,0 -6,2.67601 -6,6 v 4 c 0,-3.32399 2.676,-6 6,-6 h 76 c 3.324,0 6,2.67601 6,6 v -4 c 0,-3.32399 -2.676,-6 -6,-6 z"
       id="path10"
       inkscape:connector-curvature="0"
       style="opacity:0.2;fill:#ffffff;stroke-width:4" />
    <g
       id="g1545"
       transform="matrix(1.75,0,0,1.75,-100.5,-793.77167)">
      <circle
         style="fill:#8561c5;fill-rule:evenodd;stroke-width:4"
         id="circle14"
         r="32"
         cy="1016.3622"
         cx="94" />
      <path
         d="m 89.856,1002.6479 -0.3528,4.2144 a 12.5716,12.5716 0 0 0 -3.67408,2.1251 l -3.83036,-1.8036 -4,6.9284 3.47764,2.4152 a 12.5716,12.5716 0 0 0 -0.192,2.1205 12.5716,12.5716 0 0 0 0.1828,2.1295 l -3.468,2.408 4,6.9284 3.82144,-1.7991 a 12.5716,12.5716 0 0 0 3.683,2.1116 l 0.3528,4.2232 h 8 l 0.3528,-4.2144 a 12.5716,12.5716 0 0 0 3.67416,-2.1251 l 3.83032,1.8036 4,-6.9284 -3.47768,-2.4152 a 12.5716,12.5716 0 0 0 0.192,-2.1205 12.5716,12.5716 0 0 0 -0.1828,-2.1295 l 3.46876,-2.4062 -4,-6.9284 -3.82144,1.7991 a 12.5716,12.5716 0 0 0 -3.68304,-2.1116 l -0.3528,-4.2232 h -8 z m 4,11.4289 a 4.5716,4.5716 0 0 1 4.572,4.572 4.5716,4.5716 0 0 1 -4.572,4.572 4.5716,4.5716 0 0 1 -4.572,-4.572 4.5716,4.5716 0 0 1 4.572,-4.572 z"
         id="path843"
         inkscape:connector-curvature="0"
         style="opacity:0.2;stroke-width:4" />
      <path
         style="fill:#ffffff;stroke-width:4"
         inkscape:connector-curvature="0"
         id="path16"
         d="m 89.856,1000.3621 -0.3528,4.2144 a 12.5716,12.5716 0 0 0 -3.67408,2.1251 l -3.83036,-1.8036 -4,6.9284 3.47764,2.4152 a 12.5716,12.5716 0 0 0 -0.192,2.1205 12.5716,12.5716 0 0 0 0.1828,2.1295 l -3.468,2.408 4,6.9284 3.82144,-1.7991 a 12.5716,12.5716 0 0 0 3.683,2.1116 l 0.3528,4.2232 h 8 l 0.3528,-4.2144 a 12.5716,12.5716 0 0 0 3.67416,-2.1251 l 3.83032,1.8036 4,-6.9284 -3.47768,-2.4152 a 12.5716,12.5716 0 0 0 0.192,-2.1205 12.5716,12.5716 0 0 0 -0.1828,-2.1295 l 3.46876,-2.4062 -4,-6.9284 -3.82144,1.7991 a 12.5716,12.5716 0 0 0 -3.68304,-2.1116 l -0.3528,-4.2232 h -8 z m 4,11.4289 a 4.5716,4.5716 0 0 1 4.572,4.572 4.5716,4.5716 0 0 1 -4.572,4.572 4.5716,4.5716 0 0 1 -4.572,-4.572 4.5716,4.5716 0 0 1 4.572,-4.572 z" />
      <path
         style="opacity:0.2;fill-rule:evenodd;stroke-width:4"
         inkscape:connector-curvature="0"
         id="path18"
         d="m 125.916,1018.0582 a 32,32 0 0 1 -31.916,30.304 32,32 0 0 1 -31.916,-29.696 32,32 0 0 0 -0.084,1.696 32,32 0 0 0 32,32 32,32 0 0 0 32,-32 32,32 0 0 0 -0.084,-2.304 z" />
    </g>
  </g>
</svg>
