<svg xmlns="http://www.w3.org/2000/svg" width="32" height="32" version="1">
 <rect opacity=".2" width="28" height="24" x="2" y="5" rx="2" ry="2"/>
 <rect style="fill:#ff9100" width="28" height="24" x="2" y="4" rx="2" ry="2"/>
 <g style="opacity:0.2" transform="translate(0,-3)">
  <path style="fill:none;stroke:#000000;stroke-width:1.177;stroke-linecap:round;stroke-linejoin:round" d="M 6.5929,14.231 7.8643,16.411 C 8.6746,15.209 9.607,13.621 10.407,12.595"/>
  <rect width="13" height="2" x="12" y="14" rx="1" ry="1"/>
  <rect width="13" height="2" x="12" y="19" rx="1" ry="1"/>
  <rect width="13" height="2" x="12" y="24" rx="1" ry="1"/>
  <circle cx="8" cy="20" r="1"/>
  <circle cx="8" cy="25" r="1"/>
 </g>
 <g transform="translate(0,-3)">
  <path style="fill:none;stroke:#ffffff;stroke-width:1.177;stroke-linecap:round;stroke-linejoin:round" d="M 6.5929,13.231 7.8643,15.411 C 8.6746,14.209 9.607,12.621 10.407,11.595"/>
  <rect style="fill:#ffffff" width="13" height="2" x="12" y="13" rx="1" ry="1"/>
  <rect style="fill:#ffffff" width="13" height="2" x="12" y="18" rx="1" ry="1"/>
  <rect style="fill:#ffffff" width="13" height="2" x="12" y="23" rx="1" ry="1"/>
  <circle style="fill:#ffffff" cx="8" cy="19" r="1"/>
  <circle style="fill:#ffffff" cx="8" cy="24" r="1"/>
 </g>
 <path fill="#fff" opacity=".2" d="m4 4c-1.108 0-2 0.892-2 2v1c0-1.108 0.892-2 2-2h24c1.108 0 2 0.892 2 2v-1c0-1.108-0.892-2-2-2h-24z"/>
</svg>
