<svg xmlns="http://www.w3.org/2000/svg" width="32" height="32" version="1">
 <path fill="#009587" d="m6.5 2c-0.831 0-1.5 0.669-1.5 1.5v25c0 0.831 0.669 1.5 1.5 1.5h19c0.831 0 1.5-0.669 1.5-1.5v-25c0-0.831-0.669-1.5-1.5-1.5h-19z"/>
 <path opacity=".2" d="m6.5 2c-0.831 0-1.5 0.669-1.5 1.5v25c0 0.831 0.669 1.5 1.5 1.5h2.5v-28z"/>
 <path opacity=".2" d="m19 3v14l2-2 2 2v-14h-4z"/>
 <path fill="#d8d8d8" d="m19 2v14l2-2 2 2v-14h-4z"/>
 <path fill="#fff" opacity=".2" d="m6.5 2c-0.831 0-1.5 0.669-1.5 1.5v1c0-0.831 0.669-1.5 1.5-1.5h19c0.831 0 1.5 0.669 1.5 1.5v-1c0-0.831-0.669-1.5-1.5-1.5h-19z"/>
 <path opacity=".2" d="m5 28.5v1c0 0.831 0.669 1.5 1.5 1.5h19c0.831 0 1.5-0.669 1.5-1.5v-1c0 0.831-0.669 1.5-1.5 1.5h-19c-0.831 0-1.5-0.669-1.5-1.5z"/>
 <circle fill-rule="evenodd" cx="24" cy="23" r="8" style="fill:#f34235"/>
 <path fill-rule="evenodd" opacity=".2" d="m31.979 23.424a8 8 0 0 1 -7.979 7.576 8 8 0 0 1 -7.979 -7.424 8 8 0 0 0 -0.021 0.424 8 8 0 0 0 8 8 8 8 0 0 0 8 -8 8 8 0 0 0 -0.021 -0.576z"/>
 <path style="fill:#ffffff" d="M 20,25.218 V 27 H 21.782 L 26.282,22.5 24.5,20.718 Z M 27.859,20.929 C 28.047,20.74 28.047,20.443 27.859,20.255 L 26.745,19.141 C 26.556,18.953 26.259,18.953 26.071,19.141 L 25.14,20.078 26.922,21.86 Z"/>
</svg>
