<?xml version="1.0" encoding="UTF-8" standalone="no"?>
<!-- Created with Inkscape (http://www.inkscape.org/) -->

<svg
   xmlns:dc="http://purl.org/dc/elements/1.1/"
   xmlns:cc="http://creativecommons.org/ns#"
   xmlns:rdf="http://www.w3.org/1999/02/22-rdf-syntax-ns#"
   xmlns:svg="http://www.w3.org/2000/svg"
   xmlns="http://www.w3.org/2000/svg"
   xmlns:sodipodi="http://sodipodi.sourceforge.net/DTD/sodipodi-0.dtd"
   xmlns:inkscape="http://www.inkscape.org/namespaces/inkscape"
   width="128"
   height="128"
   viewBox="0 0 128 128"
   id="svg2"
   version="1.1"
   inkscape:version="0.92.2 5c3e80d, 2017-08-06"
   sodipodi:docname="edit_input.svg">
  <defs
     id="defs4" />
  <sodipodi:namedview
     id="base"
     pagecolor="#ffffff"
     bordercolor="#666666"
     borderopacity="1.0"
     inkscape:pageopacity="0.0"
     inkscape:pageshadow="2"
     inkscape:zoom="5.04366"
     inkscape:cx="65.29689"
     inkscape:cy="61.414471"
     inkscape:document-units="px"
     inkscape:current-layer="layer1"
     showgrid="false"
     units="px"
     showguides="true"
     inkscape:guide-bbox="true"
     inkscape:window-width="1366"
     inkscape:window-height="694"
     inkscape:window-x="0"
     inkscape:window-y="48"
     inkscape:window-maximized="1">
    <inkscape:grid
       type="xygrid"
       id="grid4136"
       empspacing="4" />
    <sodipodi:guide
       position="8,140"
       orientation="1,0"
       id="guide4138"
       inkscape:label="Margin Left"
       inkscape:color="rgb(0,0,255)"
       inkscape:locked="false" />
    <sodipodi:guide
       position="120,140"
       orientation="1,0"
       id="guide4140"
       inkscape:label="Margin Right"
       inkscape:color="rgb(0,0,255)"
       inkscape:locked="false" />
    <sodipodi:guide
       position="-20,120"
       orientation="0,1"
       id="guide4142"
       inkscape:label="Margin Top"
       inkscape:color="rgb(0,0,255)"
       inkscape:locked="false" />
    <sodipodi:guide
       position="-16,8"
       orientation="0,1"
       id="guide4144"
       inkscape:label="Margin Bottom"
       inkscape:color="rgb(0,0,255)"
       inkscape:locked="false" />
    <sodipodi:guide
       position="8,8"
       orientation="-0.70710678,0.70710678"
       id="guide4146"
       inkscape:locked="false" />
    <sodipodi:guide
       position="72,56"
       orientation="0.70710678,0.70710678"
       id="guide4148"
       inkscape:locked="false" />
    <sodipodi:guide
       position="20,140"
       orientation="1,0"
       id="guide4150"
       inkscape:label="Rectangle Left"
       inkscape:color="rgb(0,0,255)"
       inkscape:locked="false" />
    <sodipodi:guide
       position="108,140"
       orientation="1,0"
       id="guide4152"
       inkscape:label="Rectangle Right"
       inkscape:color="rgb(0,0,255)"
       inkscape:locked="false" />
    <sodipodi:guide
       position="-20,116"
       orientation="0,1"
       id="guide4154"
       inkscape:label="Shadow Top"
       inkscape:color="rgb(0,0,255)"
       inkscape:locked="false" />
    <sodipodi:guide
       position="-16,12"
       orientation="0,1"
       id="guide4156"
       inkscape:label="Shadow Bottom"
       inkscape:color="rgb(0,0,255)"
       inkscape:locked="false" />
    <sodipodi:guide
       position="-20,104"
       orientation="0,1"
       id="guide4158"
       inkscape:label="Rectangle Top"
       inkscape:color="rgb(0,0,255)"
       inkscape:locked="false" />
    <sodipodi:guide
       position="-16,24"
       orientation="0,1"
       id="guide4160"
       inkscape:label="Rectangle Bottom"
       inkscape:color="rgb(0,0,255)"
       inkscape:locked="false" />
  </sodipodi:namedview>
  <metadata
     id="metadata7">
    <rdf:RDF>
      <cc:Work
         rdf:about="">
        <dc:format>image/svg+xml</dc:format>
        <dc:type
           rdf:resource="http://purl.org/dc/dcmitype/StillImage" />
        <dc:title />
      </cc:Work>
    </rdf:RDF>
  </metadata>
  <g
     inkscape:label="Layer 1"
     inkscape:groupmode="layer"
     id="layer1"
     transform="translate(0,-924.36216)">
    <path
       d="m 119.9992,1030.8062 v -88.88806 c 0,-3.0784 -2.496,-5.556 -5.6,-5.556 h -100.8 c -3.102399,0 -5.5999993,2.4776 -5.5999993,5.5556 v 88.88806 c 0,3.08 2.4976003,5.556 5.5999993,5.556 h 100.8 c 3.1024,0 5.6,-2.4778 5.6,-5.5556 z"
       id="path2"
       inkscape:connector-curvature="0"
       style="fill:#ff9100;stroke-width:4" />
    <g
       transform="matrix(4,0,0,4,-7.9935e-4,928.36215)"
       id="g22"
       style="opacity:0.2">
      <g
         transform="translate(-0.50371,-2.999)"
         id="g8">
        <path
           d="M 10.939,9 A 0.58872,0.58872 0 0 0 10.443,9.2324 C 9.7699,10.095 9.0672,11.26 8.3984,12.301 L 7.6015,10.934 a 0.58908,0.58908 0 1 0 -1.0176,0.59375 l 1.2715,2.1797 a 0.58872,0.58872 0 0 0 0.99609,0.0332 c 0.82755,-1.2279 1.7643,-2.8153 2.5195,-3.7832 a 0.58872,0.58872 0 0 0 -0.432,-0.9578 z"
           id="path4"
           inkscape:connector-curvature="0"
           style="fill-rule:evenodd" />
        <rect
           width="13"
           height="2"
           x="12.5"
           y="11"
           rx="1"
           ry="1"
           id="rect6" />
      </g>
      <g
         transform="translate(-0.50371,-0.99982)"
         id="g14">
        <rect
           width="13"
           height="2"
           x="12.5"
           y="16"
           rx="1"
           ry="1"
           id="rect10" />
        <circle
           cx="8.5"
           cy="17"
           r="1"
           id="circle12" />
      </g>
      <g
         transform="translate(-0.50371)"
         id="g20">
        <rect
           width="13"
           height="2"
           x="12.5"
           y="21"
           rx="1"
           ry="1"
           id="rect16" />
        <circle
           cx="8.5"
           cy="22"
           r="1"
           id="circle18" />
      </g>
    </g>
    <g
       id="g42"
       transform="matrix(4,0,0,4,-7.9935e-4,924.36215)"
       style="fill:#ffffff">
      <g
         transform="translate(-0.50371,-2.999)"
         id="g28"
         style="fill:#ffffff">
        <path
           d="M 10.939,9 A 0.58872,0.58872 0 0 0 10.443,9.2324 C 9.7699,10.095 9.0672,11.26 8.3984,12.301 L 7.60152,10.9338 a 0.58907742,0.58907742 0 1 0 -1.0176,0.59375 l 1.2715,2.1797 a 0.58872,0.58872 0 0 0 0.99609,0.0332 c 0.82755,-1.2279 1.7643,-2.8153 2.5195,-3.7832 a 0.58872,0.58872 0 0 0 -0.432,-0.9578 z"
           id="path24"
           inkscape:connector-curvature="0"
           style="fill-rule:evenodd;fill:#ffffff" />
        <rect
           width="13"
           height="2"
           x="12.5"
           y="11"
           rx="1"
           ry="1"
           id="rect26"
           style="fill:#ffffff" />
      </g>
      <g
         transform="translate(-0.50371,-0.99982)"
         id="g34"
         style="fill:#ffffff">
        <rect
           width="13"
           height="2"
           x="12.5"
           y="16"
           rx="1"
           ry="1"
           id="rect30"
           style="fill:#ffffff" />
        <circle
           cx="8.5"
           cy="17"
           r="1"
           id="circle32"
           style="fill:#ffffff" />
      </g>
      <g
         transform="translate(-0.50371)"
         id="g40"
         style="fill:#ffffff">
        <rect
           width="13"
           height="2"
           x="12.5"
           y="21"
           rx="1"
           ry="1"
           id="rect36"
           style="fill:#ffffff" />
        <circle
           cx="8.5"
           cy="22"
           r="1"
           id="circle38"
           style="fill:#ffffff" />
      </g>
    </g>
    <path
       d="m 7.9992007,1030.8062 v 4 c 0,3.08 2.4992003,5.556 5.6015993,5.556 h 100.8 c 3.1,0 5.6,-2.476 5.6,-5.556 v -4 c 0,3.08 -2.5,5.556 -5.6,5.556 h -100.8 c -3.100799,0 -5.5999993,-2.476 -5.5999993,-5.556 z"
       id="path44"
       inkscape:connector-curvature="0"
       style="opacity:0.2;stroke-width:4" />
    <path
       d="m 13.6008,936.36215 c -3.102399,0 -5.6015993,2.4768 -5.6015993,5.5548 v 4 c 0,-3.078 2.4992003,-5.5548 5.6015993,-5.5548 h 100.8 c 3.104,0 5.6,2.4764 5.6,5.5548 v -4 c 0,-3.0784 -2.496,-5.5548 -5.6,-5.5548 z"
       id="path46"
       inkscape:connector-curvature="0"
       style="opacity:0.2;fill:#ffffff;stroke-width:4" />
  </g>
</svg>
