<svg xmlns="http://www.w3.org/2000/svg" width="32" height="32" version="1">
 <circle style="opacity:0.2" cx="16" cy="17" r="14"/>
 <circle style="fill:#cccccc" cx="16" cy="16" r="14"/>
 <path fill="#fff" d="m16 2a14 14 0 0 0 -14 14 14 14 0 0 0 0.0215 0.586 14 14 0 0 1 13.978 -13.586 14 14 0 0 1 13.979 13.414 14 14 0 0 0 0.021 -0.414 14 14 0 0 0 -14 -14z" style="opacity:0.2"/>
 <path style="opacity:0.2;fill:#ffffff" class="ColorScheme-Text" d="M 16,10 9,17 V 18 H 23 V 17 Z M 9,20 V 22 H 23 V 20 Z"/>
 <path style="fill:#4f4f4f" class="ColorScheme-Text" d="M 16,9 9,16 V 17 H 23 V 16 Z M 9,19 V 21 H 23 V 19 Z"/>
</svg>
