<?xml version="1.0" encoding="UTF-8" standalone="no"?>
<!-- Created with Inkscape (http://www.inkscape.org/) -->

<svg
   xmlns:dc="http://purl.org/dc/elements/1.1/"
   xmlns:cc="http://creativecommons.org/ns#"
   xmlns:rdf="http://www.w3.org/1999/02/22-rdf-syntax-ns#"
   xmlns:svg="http://www.w3.org/2000/svg"
   xmlns="http://www.w3.org/2000/svg"
   xmlns:sodipodi="http://sodipodi.sourceforge.net/DTD/sodipodi-0.dtd"
   xmlns:inkscape="http://www.inkscape.org/namespaces/inkscape"
   width="128"
   height="128"
   viewBox="0 0 128 128"
   id="svg2"
   version="1.1"
   inkscape:version="0.92.2 5c3e80d, 2017-08-06"
   sodipodi:docname="folder_saved_search.svg">
  <defs
     id="defs4" />
  <sodipodi:namedview
     id="base"
     pagecolor="#ffffff"
     bordercolor="#666666"
     borderopacity="1.0"
     inkscape:pageopacity="0.0"
     inkscape:pageshadow="2"
     inkscape:zoom="2.52183"
     inkscape:cx="18.723875"
     inkscape:cy="65.860304"
     inkscape:document-units="px"
     inkscape:current-layer="layer1"
     showgrid="false"
     units="px"
     showguides="true"
     inkscape:guide-bbox="true"
     inkscape:window-width="1366"
     inkscape:window-height="694"
     inkscape:window-x="0"
     inkscape:window-y="48"
     inkscape:window-maximized="1">
    <inkscape:grid
       type="xygrid"
       id="grid4136"
       empspacing="4" />
    <sodipodi:guide
       position="8,140"
       orientation="1,0"
       id="guide4138"
       inkscape:label="Margin Left"
       inkscape:color="rgb(0,0,255)"
       inkscape:locked="false" />
    <sodipodi:guide
       position="120,140"
       orientation="1,0"
       id="guide4140"
       inkscape:label="Margin Right"
       inkscape:color="rgb(0,0,255)"
       inkscape:locked="false" />
    <sodipodi:guide
       position="-20,120"
       orientation="0,1"
       id="guide4142"
       inkscape:label="Margin Top"
       inkscape:color="rgb(0,0,255)"
       inkscape:locked="false" />
    <sodipodi:guide
       position="-16,8"
       orientation="0,1"
       id="guide4144"
       inkscape:label="Margin Bottom"
       inkscape:color="rgb(0,0,255)"
       inkscape:locked="false" />
    <sodipodi:guide
       position="8,8"
       orientation="-0.70710678,0.70710678"
       id="guide4146"
       inkscape:locked="false" />
    <sodipodi:guide
       position="72,56"
       orientation="0.70710678,0.70710678"
       id="guide4148"
       inkscape:locked="false" />
    <sodipodi:guide
       position="20,140"
       orientation="1,0"
       id="guide4150"
       inkscape:label="Rectangle Left"
       inkscape:color="rgb(0,0,255)"
       inkscape:locked="false" />
    <sodipodi:guide
       position="108,140"
       orientation="1,0"
       id="guide4152"
       inkscape:label="Rectangle Right"
       inkscape:color="rgb(0,0,255)"
       inkscape:locked="false" />
    <sodipodi:guide
       position="-20,116"
       orientation="0,1"
       id="guide4154"
       inkscape:label="Shadow Top"
       inkscape:color="rgb(0,0,255)"
       inkscape:locked="false" />
    <sodipodi:guide
       position="-16,12"
       orientation="0,1"
       id="guide4156"
       inkscape:label="Shadow Bottom"
       inkscape:color="rgb(0,0,255)"
       inkscape:locked="false" />
    <sodipodi:guide
       position="-20,104"
       orientation="0,1"
       id="guide4158"
       inkscape:label="Rectangle Top"
       inkscape:color="rgb(0,0,255)"
       inkscape:locked="false" />
    <sodipodi:guide
       position="-16,24"
       orientation="0,1"
       id="guide4160"
       inkscape:label="Rectangle Bottom"
       inkscape:color="rgb(0,0,255)"
       inkscape:locked="false" />
  </sodipodi:namedview>
  <metadata
     id="metadata7">
    <rdf:RDF>
      <cc:Work
         rdf:about="">
        <dc:format>image/svg+xml</dc:format>
        <dc:type
           rdf:resource="http://purl.org/dc/dcmitype/StillImage" />
        <dc:title></dc:title>
      </cc:Work>
    </rdf:RDF>
  </metadata>
  <g
     inkscape:label="Layer 1"
     inkscape:groupmode="layer"
     id="layer1"
     transform="translate(0,-924.36216)">
    <rect
       style="opacity:0.2;stroke-width:4"
       width="100"
       height="64"
       x="14"
       y="970.36218"
       rx="5"
       ry="5"
       id="rect2" />
    <path
       style="fill:#4877b1;stroke-width:4"
       d="m 14,1009.3621 c 0,2.768 2.23,5.0001 5,5.0001 h 90 c 2.768,0 5,-2.2321 5,-5.0001 v -53.99995 c 0,-2.77 -2.232,-5 -5,-5 H 58 v -3 c 0,-2.77 -2.228,-5 -5,-5 H 19 c -2.77,0 -5,2.23 -5,5"
       id="path4"
       inkscape:connector-curvature="0" />
    <rect
       style="opacity:0.2;stroke-width:4"
       width="100"
       height="64"
       x="14"
       y="962.36218"
       rx="5"
       ry="5"
       id="rect6" />
    <rect
       style="fill:#dcdcdc;stroke-width:4"
       width="84"
       height="40"
       x="22"
       y="958.36218"
       rx="5"
       ry="5"
       id="rect8" />
    <rect
       style="fill:#5294e2;stroke-width:4"
       width="100"
       height="64"
       x="14"
       y="966.36218"
       rx="5"
       ry="5"
       id="rect10" />
    <path
       style="opacity:0.1;fill:#ffffff;stroke-width:4"
       d="m 19,942.36215 c -2.77,0 -5,2.23 -5,5 v 4 c 0,-2.77 2.23,-5 5,-5 h 34 c 2.772,0 5,2.23 5,5 v 3 h 51 c 2.768,0 5,2.23 5,5 v -4 c 0,-2.77 -2.232,-5 -5,-5 H 58 v -3 c 0,-2.77 -2.228,-5 -5,-5 z"
       id="path12"
       inkscape:connector-curvature="0" />
    <path
       inkscape:connector-curvature="0"
       style="fill:#1d344f;fill-opacity:1;stroke-width:2.28275537"
       d="m 67.44373,982.38078 c -6.914009,0 -12.626375,5.6489 -12.626375,12.5551 0,2.625 0.888471,5.03994 2.282755,7.06242 l -8.41766,8.4177 a 2.2953106,2.2953106 0 0 0 3.210239,3.2814 l 8.417659,-8.4176 c 2.025467,1.3945 4.503877,2.2114 7.133611,2.2114 6.91424,0 12.555156,-5.6489 12.555156,-12.55512 0,-6.9063 -5.640916,-12.5552 -12.555156,-12.5552 z m 0,4.5655 c 4.445441,0 7.989646,3.5492 7.989646,7.9896 0,4.44024 -3.544205,7.98972 -7.989646,7.98972 -4.445437,0 -7.989643,-3.54948 -7.989643,-7.98972 0,-4.4404 3.544206,-7.9896 7.989643,-7.9896 z"
       id="path8" />
  </g>
</svg>
