<?xml version="1.0" encoding="UTF-8" standalone="no"?>
<svg
   xmlns:dc="http://purl.org/dc/elements/1.1/"
   xmlns:cc="http://creativecommons.org/ns#"
   xmlns:rdf="http://www.w3.org/1999/02/22-rdf-syntax-ns#"
   xmlns:svg="http://www.w3.org/2000/svg"
   xmlns="http://www.w3.org/2000/svg"
   xmlns:sodipodi="http://sodipodi.sourceforge.net/DTD/sodipodi-0.dtd"
   xmlns:inkscape="http://www.inkscape.org/namespaces/inkscape"
   width="32"
   height="32"
   version="1"
   id="svg2"
   inkscape:version="0.91 r13725"
   sodipodi:docname="font_size_larger.svg">
  <metadata
     id="metadata26">
    <rdf:RDF>
      <cc:Work
         rdf:about="">
        <dc:format>image/svg+xml</dc:format>
        <dc:type
           rdf:resource="http://purl.org/dc/dcmitype/StillImage" />
        <dc:title />
      </cc:Work>
    </rdf:RDF>
  </metadata>
  <defs
     id="defs24" />
  <sodipodi:namedview
     pagecolor="#ffffff"
     bordercolor="#666666"
     borderopacity="1"
     objecttolerance="10"
     gridtolerance="10"
     guidetolerance="10"
     inkscape:pageopacity="0"
     inkscape:pageshadow="2"
     inkscape:window-width="1920"
     inkscape:window-height="1022"
     id="namedview22"
     showgrid="true"
     inkscape:zoom="19.46"
     inkscape:cx="5.2343268"
     inkscape:cy="16"
     inkscape:window-x="0"
     inkscape:window-y="28"
     inkscape:window-maximized="1"
     inkscape:current-layer="svg2">
    <inkscape:grid
       type="xygrid"
       id="grid4158" />
  </sodipodi:namedview>
  <path
     style="opacity:0.2"
     d="M 16,3 C 8.244,3 2,9.244 2,17 2,24.756 8.244,31 16,31 23.756,31 30,24.756 30,17 30,9.244 23.756,3 16,3 Z"
     id="path4" />
  <path
     style="fill:#cccccc"
     d="M 16,2 C 8.244,2 2,8.244 2,16 2,23.756 8.244,30 16,30 23.756,30 30,23.756 30,16 30,8.244 23.756,2 16,2 Z"
     id="path6" />
  <g
     id="g8"
     transform="translate(3,0)">
    <path
       style="fill:#404040"
       d="m 16.369141,9 c -1.849676,0 -2.973819,2.069019 -3.681641,3.908203 l -0.888672,2.701172 -1.130859,3.621094 C 10.316975,20.249382 10.069708,21.869213 9,22 8.5320799,22.05721 8.5522847,21 8,21 c -0.5522847,0 -1,0.447715 -1,1 0,0.552285 0.4477153,1 1,1 l 0.6308594,0 c 2.1388996,0 3.3587316,-2.690808 4.2753906,-5.652344 l 0.513672,-1.671875 0.820312,-2.638672 C 14.663611,11.946361 14.839858,10.15182 16,10 c 0.467419,-0.061168 0.447715,1 1,1 0.552285,0 1,-0.447715 1,-1 0,-0.5522847 -0.447715,-1 -1,-1 z"
       id="path10"
       inkscape:connector-curvature="0" />
    <rect
       style="fill:#404040"
       width="8"
       height="1"
       x="9"
       y="14"
       id="rect12" />
  </g>
  <path
     style="fill:#ffffff;opacity:0.2"
     d="M 16 2 C 8.244 2 2 8.244 2 16 C 2 16.168842 2.0195214 16.33264 2.0253906 16.5 C 2.2891326 8.9794325 8.4128418 3 16 3 C 23.587158 3 29.710867 8.9794325 29.974609 16.5 C 29.980479 16.33264 30 16.168842 30 16 C 30 8.244 23.756 2 16 2 z"
     id="path20" />
  <circle
     r="8"
     cy="24"
     cx="24"
     id="circle4156"
     style="opacity:0.2;fill:#000000;fill-opacity:1;stroke:none;stroke-width:3;stroke-miterlimit:4;stroke-dasharray:none;stroke-opacity:1" />
  <circle
     style="opacity:1;fill:#38a44f;fill-opacity:1;stroke:none;stroke-width:3;stroke-miterlimit:4;stroke-dasharray:none;stroke-opacity:1"
     id="path4154"
     cx="24"
     cy="23"
     r="8" />
  <path
     style="opacity:1;fill:#ffffff;fill-opacity:1;stroke:none;stroke-width:3;stroke-miterlimit:4;stroke-dasharray:none;stroke-opacity:1"
     d="M 23 18 L 23 22 L 19 22 L 19 24 L 23 24 L 23 28 L 25 28 L 25 24 L 29 24 L 29 22 L 25 22 L 25 18 L 23 18 z "
     id="rect4160" />
</svg>
