<?xml version="1.0" encoding="UTF-8" standalone="no"?>
<!-- Created with Inkscape (http://www.inkscape.org/) -->

<svg
   xmlns:dc="http://purl.org/dc/elements/1.1/"
   xmlns:cc="http://creativecommons.org/ns#"
   xmlns:rdf="http://www.w3.org/1999/02/22-rdf-syntax-ns#"
   xmlns:svg="http://www.w3.org/2000/svg"
   xmlns="http://www.w3.org/2000/svg"
   xmlns:sodipodi="http://sodipodi.sourceforge.net/DTD/sodipodi-0.dtd"
   xmlns:inkscape="http://www.inkscape.org/namespaces/inkscape"
   width="128"
   height="128"
   viewBox="0 0 128 128"
   id="svg2"
   version="1.1"
   inkscape:version="0.92.2 5c3e80d, 2017-08-06"
   sodipodi:docname="gmail_logo.svg">
  <defs
     id="defs4">
    <linearGradient
       id="linearGradient4561"
       x1="24"
       x2="44"
       y1="24"
       y2="24"
       gradientTransform="matrix(2.6,0,0,2.66668,1.6,922.36212)"
       gradientUnits="userSpaceOnUse">
      <stop
         offset="0"
         id="stop2" />
      <stop
         offset="1"
         stop-opacity="0"
         id="stop4" />
    </linearGradient>
  </defs>
  <sodipodi:namedview
     id="base"
     pagecolor="#ffffff"
     bordercolor="#666666"
     borderopacity="1.0"
     inkscape:pageopacity="0.0"
     inkscape:pageshadow="2"
     inkscape:zoom="2.52183"
     inkscape:cx="71.265085"
     inkscape:cy="65.860304"
     inkscape:document-units="px"
     inkscape:current-layer="layer1"
     showgrid="false"
     units="px"
     showguides="true"
     inkscape:guide-bbox="true"
     inkscape:window-width="1366"
     inkscape:window-height="717"
     inkscape:window-x="0"
     inkscape:window-y="25"
     inkscape:window-maximized="1">
    <inkscape:grid
       type="xygrid"
       id="grid4136"
       empspacing="4" />
    <sodipodi:guide
       position="8,140"
       orientation="1,0"
       id="guide4138"
       inkscape:label="Margin Left"
       inkscape:color="rgb(0,0,255)"
       inkscape:locked="false" />
    <sodipodi:guide
       position="120,140"
       orientation="1,0"
       id="guide4140"
       inkscape:label="Margin Right"
       inkscape:color="rgb(0,0,255)"
       inkscape:locked="false" />
    <sodipodi:guide
       position="-20,120"
       orientation="0,1"
       id="guide4142"
       inkscape:label="Margin Top"
       inkscape:color="rgb(0,0,255)"
       inkscape:locked="false" />
    <sodipodi:guide
       position="-16,8"
       orientation="0,1"
       id="guide4144"
       inkscape:label="Margin Bottom"
       inkscape:color="rgb(0,0,255)"
       inkscape:locked="false" />
    <sodipodi:guide
       position="8,8"
       orientation="-0.70710678,0.70710678"
       id="guide4146"
       inkscape:locked="false" />
    <sodipodi:guide
       position="72,56"
       orientation="0.70710678,0.70710678"
       id="guide4148"
       inkscape:locked="false" />
    <sodipodi:guide
       position="20,140"
       orientation="1,0"
       id="guide4150"
       inkscape:label="Rectangle Left"
       inkscape:color="rgb(0,0,255)"
       inkscape:locked="false" />
    <sodipodi:guide
       position="108,140"
       orientation="1,0"
       id="guide4152"
       inkscape:label="Rectangle Right"
       inkscape:color="rgb(0,0,255)"
       inkscape:locked="false" />
    <sodipodi:guide
       position="-20,116"
       orientation="0,1"
       id="guide4154"
       inkscape:label="Shadow Top"
       inkscape:color="rgb(0,0,255)"
       inkscape:locked="false" />
    <sodipodi:guide
       position="-16,12"
       orientation="0,1"
       id="guide4156"
       inkscape:label="Shadow Bottom"
       inkscape:color="rgb(0,0,255)"
       inkscape:locked="false" />
    <sodipodi:guide
       position="-20,104"
       orientation="0,1"
       id="guide4158"
       inkscape:label="Rectangle Top"
       inkscape:color="rgb(0,0,255)"
       inkscape:locked="false" />
    <sodipodi:guide
       position="-16,24"
       orientation="0,1"
       id="guide4160"
       inkscape:label="Rectangle Bottom"
       inkscape:color="rgb(0,0,255)"
       inkscape:locked="false" />
  </sodipodi:namedview>
  <metadata
     id="metadata7">
    <rdf:RDF>
      <cc:Work
         rdf:about="">
        <dc:format>image/svg+xml</dc:format>
        <dc:type
           rdf:resource="http://purl.org/dc/dcmitype/StillImage" />
        <dc:title></dc:title>
      </cc:Work>
    </rdf:RDF>
  </metadata>
  <g
     inkscape:label="Layer 1"
     inkscape:groupmode="layer"
     id="layer1"
     transform="translate(0,-924.36216)">
    <path
       d="M 113,1028.3625 H 14.999999 c -3.8,0 -7.0000005,-3.0708 -7.0000005,-6.934 v -70.13206 c 0,-3.76416 3.1000005,-6.934 7.0000005,-6.934 H 113 c 3.8,0 7,3.07076 7,6.934 v 70.13206 c 0,3.8632 -3.1,6.934 -7,6.934 z"
       id="path2"
       inkscape:connector-curvature="0"
       style="fill:#cccccc;stroke-width:4" />
    <path
       d="m 14.976399,944.36244 c -3.3984,0 -6.1888005,2.422 -6.8364005,5.5468 -5.1e-4,0.002 5.08e-4,0.005 0,0.008 -0.12188,0.92324 -0.124576,1.6328 -0.124576,1.6328 v 69.82006 c 0,3.8405 3.0876805,7.036 6.9684005,6.992 h 9.031599 v -76.81206 c 0,-0.4684 -0.048,-0.8944 -0.14,-1.274 -0.464,-1.998 -2.8304,-4.2508 -5.248,-5.914 z"
       id="path4"
       inkscape:connector-curvature="0"
       style="fill:#d54b3d;stroke-width:4" />
    <path
       d="m 110.616,944.36244 c -3.348,0.956 -6.692,3.848 -6.616,6.992 v 77.00806 h 8.86 c 4.036,0 7.14,-3.12 7.14,-6.892 v -70.17206 c 0,-3.8616 -3.2,-6.936 -7,-6.936 z"
       id="path6"
       inkscape:connector-curvature="0"
       style="fill:#d54b3d;stroke-width:4" />
    <path
       d="m 112.188,944.36244 c -1.804,-0.02 -3.56,0.4988 -4.984,1.6016 l -43.204001,32.3984 -43.204,-32.3984 c -8.092,-6.1712 -17.5964002,7.0768 -9.5928,12.79681 l 47.999999,36.0016 c 2.84328,2.12996 6.7504,2.12996 9.5936,0 l 45.572002,-34.18 2.428,-1.8216 c 5.936,-4.2436 3.088,-14.30281 -4.608,-14.39841 z"
       id="path8"
       inkscape:connector-curvature="0"
       style="fill:#d54b3d;fill-rule:evenodd;stroke-width:4" />
    <path
       d="m 14.999999,944.36244 c -3.9,0 -7.0000005,3.1732 -7.0000005,6.9376 v 4.00001 c 0,-3.76441 3.1000005,-6.93761 7.0000005,-6.93761 H 113 c 3.8,0 7,3.0744 7,6.93761 v -4.00001 c 0,-3.8632 -3.2,-6.9376 -7,-6.9376 z"
       id="path10"
       inkscape:connector-curvature="0"
       style="opacity:0.1;fill:#ffffff;stroke-width:4" />
    <path
       d="m 7.9999985,1021.4265 v 4 c 0,3.86 3.2000005,6.936 7.0000005,6.936 H 113 c 3.9,0 7,-3.076 7,-6.936 v -4 c 0,3.86 -3.1,6.936 -7,6.936 H 14.999999 c -3.8,0 -7.0000005,-3.076 -7.0000005,-6.936 z"
       id="path12"
       inkscape:connector-curvature="0"
       style="opacity:0.2;stroke-width:4" />
  </g>
</svg>
