<?xml version="1.0" encoding="UTF-8" standalone="no"?>
<svg
   xmlns:dc="http://purl.org/dc/elements/1.1/"
   xmlns:cc="http://creativecommons.org/ns#"
   xmlns:rdf="http://www.w3.org/1999/02/22-rdf-syntax-ns#"
   xmlns:svg="http://www.w3.org/2000/svg"
   xmlns="http://www.w3.org/2000/svg"
   xmlns:sodipodi="http://sodipodi.sourceforge.net/DTD/sodipodi-0.dtd"
   xmlns:inkscape="http://www.inkscape.org/namespaces/inkscape"
   width="32"
   height="32"
   version="1"
   id="svg2"
   inkscape:version="0.91 r13725"
   sodipodi:docname="grid.svg">
  <metadata
     id="metadata54">
    <rdf:RDF>
      <cc:Work
         rdf:about="">
        <dc:format>image/svg+xml</dc:format>
        <dc:type
           rdf:resource="http://purl.org/dc/dcmitype/StillImage" />
      </cc:Work>
    </rdf:RDF>
  </metadata>
  <defs
     id="defs52" />
  <sodipodi:namedview
     pagecolor="#ffffff"
     bordercolor="#666666"
     borderopacity="1"
     objecttolerance="10"
     gridtolerance="10"
     guidetolerance="10"
     inkscape:pageopacity="0"
     inkscape:pageshadow="2"
     inkscape:window-width="1920"
     inkscape:window-height="1022"
     id="namedview50"
     showgrid="false"
     inkscape:zoom="7.375"
     inkscape:cx="16"
     inkscape:cy="16"
     inkscape:window-x="0"
     inkscape:window-y="28"
     inkscape:window-maximized="1"
     inkscape:current-layer="svg2" />
  <rect
     fill="#325f78"
     width="28"
     height="28"
     x="-30"
     y="-30"
     rx="1.4"
     ry="1.4"
     transform="matrix(0,-1,-1,0,0,0)"
     id="rect4"
     style="fill:#cc57bc;fill-opacity:1" />
  <path
     fill="#fff"
     style="opacity:0.1"
     d="m3.4004 2c-0.7756 0-1.4004 0.6248-1.4004 1.4004v1c0-0.7756 0.6248-1.4004 1.4004-1.4004h25.2c0.775 0 1.4 0.6248 1.4 1.4004v-1c0-0.7756-0.625-1.4004-1.4-1.4004h-25.2z"
     id="path6" />
  <path
     opacity=".2"
     d="m2 28.6v1c0 0.775 0.6248 1.4 1.4004 1.4h25.2c0.775 0 1.4-0.625 1.4-1.4v-1c0 0.775-0.625 1.4-1.4 1.4h-25.2c-0.7752 0-1.4-0.625-1.4-1.4z"
     id="path8" />
  <g
     style="opacity:0.2"
     id="g10">
    <rect
       width="6"
       height="6"
       x="5"
       y="6"
       rx=".75"
       ry=".75"
       id="rect12" />
    <rect
       width="6"
       height="6"
       x="13"
       y="6"
       rx=".75"
       ry=".75"
       id="rect14" />
    <rect
       width="6"
       height="6"
       x="5"
       y="14"
       rx=".75"
       ry=".75"
       id="rect16" />
    <rect
       width="6"
       height="6"
       x="13"
       y="14"
       rx=".75"
       ry=".75"
       id="rect18" />
    <rect
       width="6"
       height="6"
       x="5"
       y="22"
       rx=".75"
       ry=".75"
       id="rect20" />
    <rect
       width="6"
       height="6"
       x="13"
       y="22"
       rx=".75"
       ry=".75"
       id="rect22" />
    <rect
       width="6"
       height="6"
       x="21"
       y="6"
       rx=".75"
       ry=".75"
       id="rect24" />
    <rect
       width="6"
       height="6"
       x="21"
       y="14"
       rx=".75"
       ry=".75"
       id="rect26" />
    <rect
       width="6"
       height="6"
       x="21"
       y="22"
       rx=".75"
       ry=".75"
       id="rect28" />
  </g>
  <g
     id="g30"
     style="fill:#3f3f3f;fill-opacity:1">
    <rect
       style="fill:#3f3f3f;fill-opacity:1"
       width="6"
       height="6"
       x="5"
       y="5"
       rx=".75"
       ry=".75"
       id="rect32" />
    <rect
       style="fill:#3f3f3f;fill-opacity:1"
       width="6"
       height="6"
       x="13"
       y="5"
       rx=".75"
       ry=".75"
       id="rect34" />
    <rect
       style="fill:#3f3f3f;fill-opacity:1"
       width="6"
       height="6"
       x="5"
       y="13"
       rx=".75"
       ry=".75"
       id="rect36" />
    <rect
       style="fill:#3f3f3f;fill-opacity:1"
       width="6"
       height="6"
       x="13"
       y="13"
       rx=".75"
       ry=".75"
       id="rect38" />
    <rect
       style="fill:#3f3f3f;fill-opacity:1"
       width="6"
       height="6"
       x="5"
       y="21"
       rx=".75"
       ry=".75"
       id="rect40" />
    <rect
       style="fill:#3f3f3f;fill-opacity:1"
       width="6"
       height="6"
       x="13"
       y="21"
       rx=".75"
       ry=".75"
       id="rect42" />
    <rect
       style="fill:#3f3f3f;fill-opacity:1"
       width="6"
       height="6"
       x="21"
       y="5"
       rx=".75"
       ry=".75"
       id="rect44" />
    <rect
       style="fill:#3f3f3f;fill-opacity:1"
       width="6"
       height="6"
       x="21"
       y="13"
       rx=".75"
       ry=".75"
       id="rect46" />
    <rect
       style="fill:#3f3f3f;fill-opacity:1"
       width="6"
       height="6"
       x="21"
       y="21"
       rx=".75"
       ry=".75"
       id="rect48" />
  </g>
</svg>
