<svg xmlns="http://www.w3.org/2000/svg" id="svg2" width="16" height="16" version="1">
 <rect id="rect4" width="15" height="15" x="-15" y="-15" rx=".75" ry=".75" transform="matrix(0,-1,-1,0,0,0)" style="fill:#cc57bc;fill-opacity:1"/>
 <rect id="rect32" width="3" height="3" x="2" y="2" rx=".375" ry=".375" style="fill:#3f3f3f;fill-opacity:1"/>
 <rect style="fill:#3f3f3f;fill-opacity:1" id="rect4190" width="3" height="3" x="6" y="2" rx=".375" ry=".375"/>
 <rect id="rect4192" width="3" height="3" x="10" y="2" rx=".375" ry=".375" style="fill:#3f3f3f;fill-opacity:1"/>
 <rect style="fill:#3f3f3f;fill-opacity:1" id="rect4194" width="3" height="3" x="2" y="6" rx=".375" ry=".375"/>
 <rect id="rect4196" width="3" height="3" x="6" y="6" rx=".375" ry=".375" style="fill:#3f3f3f;fill-opacity:1"/>
 <rect style="fill:#3f3f3f;fill-opacity:1" id="rect4198" width="3" height="3" x="10" y="6" rx=".375" ry=".375"/>
 <rect id="rect4200" width="3" height="3" x="2" y="10" rx=".375" ry=".375" style="fill:#3f3f3f;fill-opacity:1"/>
 <rect style="fill:#3f3f3f;fill-opacity:1" id="rect4202" width="3" height="3" x="6" y="10" rx=".375" ry=".375"/>
 <rect id="rect4204" width="3" height="3" x="10" y="10" rx=".375" ry=".375" style="fill:#3f3f3f;fill-opacity:1"/>
</svg>
