<?xml version="1.0" encoding="UTF-8" standalone="no"?>
<!-- Created with Inkscape (http://www.inkscape.org/) -->

<svg
   xmlns:dc="http://purl.org/dc/elements/1.1/"
   xmlns:cc="http://creativecommons.org/ns#"
   xmlns:rdf="http://www.w3.org/1999/02/22-rdf-syntax-ns#"
   xmlns:svg="http://www.w3.org/2000/svg"
   xmlns="http://www.w3.org/2000/svg"
   xmlns:sodipodi="http://sodipodi.sourceforge.net/DTD/sodipodi-0.dtd"
   xmlns:inkscape="http://www.inkscape.org/namespaces/inkscape"
   width="128"
   height="128"
   viewBox="0 0 128 128"
   id="svg2"
   version="1.1"
   inkscape:version="0.92.2 5c3e80d, 2017-08-06"
   sodipodi:docname="grid.svg">
  <defs
     id="defs4" />
  <sodipodi:namedview
     id="base"
     pagecolor="#ffffff"
     bordercolor="#666666"
     borderopacity="1.0"
     inkscape:pageopacity="0.0"
     inkscape:pageshadow="2"
     inkscape:zoom="2.52183"
     inkscape:cx="44.707336"
     inkscape:cy="70.398081"
     inkscape:document-units="px"
     inkscape:current-layer="g877"
     showgrid="false"
     units="px"
     showguides="true"
     inkscape:guide-bbox="true"
     inkscape:window-width="1366"
     inkscape:window-height="694"
     inkscape:window-x="0"
     inkscape:window-y="48"
     inkscape:window-maximized="1">
    <inkscape:grid
       type="xygrid"
       id="grid4136"
       empspacing="4" />
    <sodipodi:guide
       position="8,140"
       orientation="1,0"
       id="guide4138"
       inkscape:label="Margin Left"
       inkscape:color="rgb(0,0,255)"
       inkscape:locked="false" />
    <sodipodi:guide
       position="120,140"
       orientation="1,0"
       id="guide4140"
       inkscape:label="Margin Right"
       inkscape:color="rgb(0,0,255)"
       inkscape:locked="false" />
    <sodipodi:guide
       position="-20,120"
       orientation="0,1"
       id="guide4142"
       inkscape:label="Margin Top"
       inkscape:color="rgb(0,0,255)"
       inkscape:locked="false" />
    <sodipodi:guide
       position="-16,8"
       orientation="0,1"
       id="guide4144"
       inkscape:label="Margin Bottom"
       inkscape:color="rgb(0,0,255)"
       inkscape:locked="false" />
    <sodipodi:guide
       position="8,8"
       orientation="-0.70710678,0.70710678"
       id="guide4146"
       inkscape:locked="false" />
    <sodipodi:guide
       position="72,56"
       orientation="0.70710678,0.70710678"
       id="guide4148"
       inkscape:locked="false" />
    <sodipodi:guide
       position="20,140"
       orientation="1,0"
       id="guide4150"
       inkscape:label="Rectangle Left"
       inkscape:color="rgb(0,0,255)"
       inkscape:locked="false" />
    <sodipodi:guide
       position="108,140"
       orientation="1,0"
       id="guide4152"
       inkscape:label="Rectangle Right"
       inkscape:color="rgb(0,0,255)"
       inkscape:locked="false" />
    <sodipodi:guide
       position="-20,116"
       orientation="0,1"
       id="guide4154"
       inkscape:label="Shadow Top"
       inkscape:color="rgb(0,0,255)"
       inkscape:locked="false" />
    <sodipodi:guide
       position="-16,12"
       orientation="0,1"
       id="guide4156"
       inkscape:label="Shadow Bottom"
       inkscape:color="rgb(0,0,255)"
       inkscape:locked="false" />
    <sodipodi:guide
       position="-20,104"
       orientation="0,1"
       id="guide4158"
       inkscape:label="Rectangle Top"
       inkscape:color="rgb(0,0,255)"
       inkscape:locked="false" />
    <sodipodi:guide
       position="-16,24"
       orientation="0,1"
       id="guide4160"
       inkscape:label="Rectangle Bottom"
       inkscape:color="rgb(0,0,255)"
       inkscape:locked="false" />
  </sodipodi:namedview>
  <metadata
     id="metadata7">
    <rdf:RDF>
      <cc:Work
         rdf:about="">
        <dc:format>image/svg+xml</dc:format>
        <dc:type
           rdf:resource="http://purl.org/dc/dcmitype/StillImage" />
        <dc:title></dc:title>
      </cc:Work>
    </rdf:RDF>
  </metadata>
  <g
     inkscape:label="Layer 1"
     inkscape:groupmode="layer"
     id="layer1"
     transform="translate(0,-924.36216)">
    <g
       id="g877"
       transform="matrix(4,0,0,4,-175.50861,-2908.615)">
      <rect
         id="rect2"
         transform="matrix(0,-1,-1,0,0,0)"
         ry="1.4"
         rx="1.4"
         y="-73.876953"
         x="-987.74432"
         height="28"
         width="28"
         style="fill:#325f78" />
      <path
         id="path4"
         d="m 47.277352,959.74429 c -0.7756,0 -1.4004,0.6248 -1.4004,1.4004 v 1 c 0,-0.7756 0.6248,-1.4004 1.4004,-1.4004 h 25.2 c 0.775,0 1.4,0.6248 1.4,1.4004 v -1 c 0,-0.7756 -0.625,-1.4004 -1.4,-1.4004 z"
         style="opacity:0.1;fill:#ffffff"
         inkscape:connector-curvature="0" />
      <path
         id="path6"
         d="m 45.876952,986.34429 v 1 c 0,0.775 0.6248,1.4 1.4004,1.4 h 25.2 c 0.775,0 1.4,-0.625 1.4,-1.4 v -1 c 0,0.775 -0.625,1.4 -1.4,1.4 h -25.2 c -0.7752,0 -1.4,-0.625 -1.4,-1.4 z"
         style="opacity:0.2"
         inkscape:connector-curvature="0" />
      <g
         transform="translate(44.876953,958.74432)"
         style="opacity:0.2"
         id="g977">
        <rect
           width="6"
           height="6"
           x="5"
           y="5"
           rx="0.75"
           ry="0.75"
           id="rect941" />
        <rect
           width="6"
           height="6"
           x="13"
           y="5"
           rx="0.75"
           ry="0.75"
           id="rect943" />
        <rect
           width="6"
           height="6"
           x="5"
           y="13"
           rx="0.75"
           ry="0.75"
           id="rect945" />
        <rect
           width="6"
           height="6"
           x="13"
           y="13"
           rx="0.75"
           ry="0.75"
           id="rect947" />
        <rect
           width="6"
           height="6"
           x="5"
           y="21"
           rx="0.75"
           ry="0.75"
           id="rect949" />
        <rect
           id="rect951"
           ry="0.75"
           rx="0.75"
           y="21"
           x="13"
           height="6"
           width="6" />
        <rect
           width="6"
           height="6"
           x="21"
           y="21"
           rx="0.75"
           ry="0.75"
           id="rect953" />
        <rect
           id="rect955"
           ry="0.75"
           rx="0.75"
           y="13"
           x="21"
           height="6"
           width="6" />
        <rect
           width="6"
           height="6"
           x="21"
           y="5"
           rx="0.75"
           ry="0.75"
           id="rect957" />
        <rect
           id="rect959"
           ry="0.75"
           rx="0.75"
           y="5"
           x="5"
           height="6"
           width="6" />
        <rect
           id="rect961"
           ry="0.75"
           rx="0.75"
           y="5"
           x="13"
           height="6"
           width="6" />
        <rect
           id="rect963"
           ry="0.75"
           rx="0.75"
           y="13"
           x="5"
           height="6"
           width="6" />
        <rect
           id="rect965"
           ry="0.75"
           rx="0.75"
           y="13"
           x="13"
           height="6"
           width="6" />
        <rect
           id="rect967"
           ry="0.75"
           rx="0.75"
           y="21"
           x="5"
           height="6"
           width="6" />
        <rect
           width="6"
           height="6"
           x="13"
           y="21"
           rx="0.75"
           ry="0.75"
           id="rect969" />
        <rect
           id="rect971"
           ry="0.75"
           rx="0.75"
           y="21"
           x="21"
           height="6"
           width="6" />
        <rect
           width="6"
           height="6"
           x="21"
           y="13"
           rx="0.75"
           ry="0.75"
           id="rect973" />
        <rect
           id="rect975"
           ry="0.75"
           rx="0.75"
           y="5"
           x="21"
           height="6"
           width="6" />
      </g>
      <g
         id="g30"
         style="fill:#ffffff"
         transform="translate(43.876953,957.74432)">
        <rect
           id="rect20"
           ry="0.75"
           rx="0.75"
           y="5"
           x="5"
           height="6"
           width="6" />
        <rect
           id="rect22"
           ry="0.75"
           rx="0.75"
           y="5"
           x="13"
           height="6"
           width="6" />
        <rect
           id="rect24"
           ry="0.75"
           rx="0.75"
           y="13"
           x="5"
           height="6"
           width="6" />
        <rect
           id="rect26"
           ry="0.75"
           rx="0.75"
           y="13"
           x="13"
           height="6"
           width="6" />
        <rect
           id="rect28"
           ry="0.75"
           rx="0.75"
           y="21"
           x="5"
           height="6"
           width="6" />
        <rect
           width="6"
           height="6"
           x="13"
           y="21"
           rx="0.75"
           ry="0.75"
           id="rect915" />
        <rect
           id="rect917"
           ry="0.75"
           rx="0.75"
           y="21"
           x="21"
           height="6"
           width="6" />
        <rect
           width="6"
           height="6"
           x="21"
           y="13"
           rx="0.75"
           ry="0.75"
           id="rect919" />
        <rect
           id="rect921"
           ry="0.75"
           rx="0.75"
           y="5"
           x="21"
           height="6"
           width="6" />
        <rect
           width="6"
           height="6"
           x="5"
           y="5"
           rx="0.75"
           ry="0.75"
           id="rect923" />
        <rect
           width="6"
           height="6"
           x="13"
           y="5"
           rx="0.75"
           ry="0.75"
           id="rect925" />
        <rect
           width="6"
           height="6"
           x="5"
           y="13"
           rx="0.75"
           ry="0.75"
           id="rect927" />
        <rect
           width="6"
           height="6"
           x="13"
           y="13"
           rx="0.75"
           ry="0.75"
           id="rect929" />
        <rect
           width="6"
           height="6"
           x="5"
           y="21"
           rx="0.75"
           ry="0.75"
           id="rect931" />
        <rect
           id="rect933"
           ry="0.75"
           rx="0.75"
           y="21"
           x="13"
           height="6"
           width="6" />
        <rect
           width="6"
           height="6"
           x="21"
           y="21"
           rx="0.75"
           ry="0.75"
           id="rect935" />
        <rect
           id="rect937"
           ry="0.75"
           rx="0.75"
           y="13"
           x="21"
           height="6"
           width="6" />
        <rect
           width="6"
           height="6"
           x="21"
           y="5"
           rx="0.75"
           ry="0.75"
           id="rect939" />
      </g>
    </g>
  </g>
</svg>
