<?xml version="1.0" encoding="UTF-8" standalone="no"?>
<!-- Created with Inkscape (http://www.inkscape.org/) -->

<svg
   xmlns:dc="http://purl.org/dc/elements/1.1/"
   xmlns:cc="http://creativecommons.org/ns#"
   xmlns:rdf="http://www.w3.org/1999/02/22-rdf-syntax-ns#"
   xmlns:svg="http://www.w3.org/2000/svg"
   xmlns="http://www.w3.org/2000/svg"
   xmlns:sodipodi="http://sodipodi.sourceforge.net/DTD/sodipodi-0.dtd"
   xmlns:inkscape="http://www.inkscape.org/namespaces/inkscape"
   width="128"
   height="128"
   viewBox="0 0 128 128"
   id="svg2"
   version="1.1"
   inkscape:version="0.92.2 5c3e80d, 2017-08-06"
   sodipodi:docname="help.svg">
  <defs
     id="defs4">
    <linearGradient
       id="linearGradient4561"
       x1="24"
       x2="44"
       y1="24"
       y2="24"
       gradientTransform="matrix(2.6,0,0,2.66668,1.6,922.36212)"
       gradientUnits="userSpaceOnUse">
      <stop
         offset="0"
         id="stop2" />
      <stop
         offset="1"
         stop-opacity="0"
         id="stop4" />
    </linearGradient>
  </defs>
  <sodipodi:namedview
     id="base"
     pagecolor="#ffffff"
     bordercolor="#666666"
     borderopacity="1.0"
     inkscape:pageopacity="0.0"
     inkscape:pageshadow="2"
     inkscape:zoom="2.52183"
     inkscape:cx="71.265085"
     inkscape:cy="65.860304"
     inkscape:document-units="px"
     inkscape:current-layer="layer1"
     showgrid="false"
     units="px"
     showguides="true"
     inkscape:guide-bbox="true"
     inkscape:window-width="1366"
     inkscape:window-height="717"
     inkscape:window-x="0"
     inkscape:window-y="25"
     inkscape:window-maximized="1">
    <inkscape:grid
       type="xygrid"
       id="grid4136"
       empspacing="4" />
    <sodipodi:guide
       position="8,140"
       orientation="1,0"
       id="guide4138"
       inkscape:label="Margin Left"
       inkscape:color="rgb(0,0,255)"
       inkscape:locked="false" />
    <sodipodi:guide
       position="120,140"
       orientation="1,0"
       id="guide4140"
       inkscape:label="Margin Right"
       inkscape:color="rgb(0,0,255)"
       inkscape:locked="false" />
    <sodipodi:guide
       position="-20,120"
       orientation="0,1"
       id="guide4142"
       inkscape:label="Margin Top"
       inkscape:color="rgb(0,0,255)"
       inkscape:locked="false" />
    <sodipodi:guide
       position="-16,8"
       orientation="0,1"
       id="guide4144"
       inkscape:label="Margin Bottom"
       inkscape:color="rgb(0,0,255)"
       inkscape:locked="false" />
    <sodipodi:guide
       position="8,8"
       orientation="-0.70710678,0.70710678"
       id="guide4146"
       inkscape:locked="false" />
    <sodipodi:guide
       position="72,56"
       orientation="0.70710678,0.70710678"
       id="guide4148"
       inkscape:locked="false" />
    <sodipodi:guide
       position="20,140"
       orientation="1,0"
       id="guide4150"
       inkscape:label="Rectangle Left"
       inkscape:color="rgb(0,0,255)"
       inkscape:locked="false" />
    <sodipodi:guide
       position="108,140"
       orientation="1,0"
       id="guide4152"
       inkscape:label="Rectangle Right"
       inkscape:color="rgb(0,0,255)"
       inkscape:locked="false" />
    <sodipodi:guide
       position="-20,116"
       orientation="0,1"
       id="guide4154"
       inkscape:label="Shadow Top"
       inkscape:color="rgb(0,0,255)"
       inkscape:locked="false" />
    <sodipodi:guide
       position="-16,12"
       orientation="0,1"
       id="guide4156"
       inkscape:label="Shadow Bottom"
       inkscape:color="rgb(0,0,255)"
       inkscape:locked="false" />
    <sodipodi:guide
       position="-20,104"
       orientation="0,1"
       id="guide4158"
       inkscape:label="Rectangle Top"
       inkscape:color="rgb(0,0,255)"
       inkscape:locked="false" />
    <sodipodi:guide
       position="-16,24"
       orientation="0,1"
       id="guide4160"
       inkscape:label="Rectangle Bottom"
       inkscape:color="rgb(0,0,255)"
       inkscape:locked="false" />
  </sodipodi:namedview>
  <metadata
     id="metadata7">
    <rdf:RDF>
      <cc:Work
         rdf:about="">
        <dc:format>image/svg+xml</dc:format>
        <dc:type
           rdf:resource="http://purl.org/dc/dcmitype/StillImage" />
        <dc:title></dc:title>
      </cc:Work>
    </rdf:RDF>
  </metadata>
  <g
     inkscape:label="Layer 1"
     inkscape:groupmode="layer"
     id="layer1"
     transform="translate(0,-924.36216)">
    <path
       d="m 64.36,930.36163 c -7.272,-0.0372 -14.68,1.354 -21.836,4.328 -28.628,11.896 -42.092,44.512 -30.196,73.13997 11.896,28.628 44.52,42.1 73.148,30.204 28.628,-11.896 42.092,-44.51197 30.196,-73.13997 -8.924,-21.4708 -29.504,-34.4204 -51.312,-34.532 z m -0.36,24 a 32,32 0 0 1 32,32 32,32 0 0 1 -32,31.99997 32,32 0 0 1 -32,-31.99997 32,32 0 0 1 32,-32 z"
       id="path2"
       inkscape:connector-curvature="0"
       style="fill:#cccccc;stroke-width:4" />
    <path
       d="m 64.36,930.36163 c -6.744,-0.0344 -13.596,1.18 -20.268,3.7264 l 8.524,22.3752 a 32,32 0 0 1 11.384,-2.1016 32,32 0 0 1 11.376,2.1248 l 8.54,-22.414 c -6.204,-2.362 -12.812,-3.6764 -19.556,-3.7108 z m -52.624,36.084 c -2.5464,6.672 -3.7612,13.524 -3.7264,20.268 0.0344,6.744 1.3568,13.35997 3.7184,19.56397 l 22.3752,-8.52397 a 32,32 0 0 1 -2.1016,-11.392 32,32 0 0 1 2.1328,-11.384 z m 104.536,0 -22.372,8.524 a 32,32 0 0 1 2.1,11.392 32,32 0 0 1 -2.124,11.376 l 22.404,8.53997 c 2.364,-6.204 3.676,-12.81997 3.712,-19.56397 0.036,-6.744 -1.172,-13.596 -3.72,-20.268 z m -63.648,49.79197 -8.532,22.396 c 6.672,2.548 13.524,3.764 20.268,3.728 6.744,-0.036 13.352,-1.348 19.556,-3.712 l -8.524,-22.388 a 32,32 0 0 1 -11.392,2.1 32,32 0 0 1 -11.376,-2.124 z"
       id="path4"
       inkscape:connector-curvature="0"
       style="fill:#e74c3c;stroke-width:4" />
    <path
       d="m 64.36,930.36163 c -7.272,-0.0372 -14.68,1.354 -21.836,4.328 -22.196,9.2232 -35.2096,30.904 -34.4224,53.524 0.79,-21.136 13.542,-40.848 34.4224,-49.524 7.156,-2.974 14.564,-4.3652 21.836,-4.328 21.808,0.1116 42.388,13.0612 51.312,34.532 2.672,6.432 4,13.068 4.228,19.624 0.292,-7.844 -1.008,-15.876 -4.228,-23.624 -8.924,-21.4708 -29.504,-34.4204 -51.312,-34.532 z m 31.556,57.704 A 32,32 0 0 1 64,1018.3616 32,32 0 0 1 32.086,988.66563 a 32,32 0 0 0 -0.086,1.696 32,32 0 0 0 32,31.99997 32,32 0 0 0 32,-31.99997 32,32 0 0 0 -0.084,-2.296 z"
       id="path6"
       inkscape:connector-curvature="0"
       style="opacity:0.2;fill:#ffffff;stroke-width:4" />
    <path
       d="m 64,954.36403 a 32,32 0 0 0 -32,32.0016 32,32 0 0 0 0.086,2.304 32,32 0 0 1 31.914,-30.3056 32,32 0 0 1 31.916,29.6976 32,32 0 0 0 0.084,-1.696 32,32 0 0 0 -32,-32.0016 z m -55.9,33.8536 c -0.2924,7.84 1.008,15.87197 4.2264,23.61597 11.896,28.628 44.52,42.1 73.148,30.204 22.192,-9.224 35.208,-30.9 34.424,-53.51597 -0.792,21.13597 -13.544,40.83997 -34.424,49.51597 -28.628,11.896 -61.252,-1.576 -73.148,-30.204 C 9.6532,1001.4016 8.3276,994.77363 8.1,988.21763 Z"
       id="path8"
       inkscape:connector-curvature="0"
       style="opacity:0.2;stroke-width:4" />
  </g>
</svg>
