<?xml version="1.0" encoding="UTF-8" standalone="no"?>
<!-- Created with Inkscape (http://www.inkscape.org/) -->

<svg
   xmlns:dc="http://purl.org/dc/elements/1.1/"
   xmlns:cc="http://creativecommons.org/ns#"
   xmlns:rdf="http://www.w3.org/1999/02/22-rdf-syntax-ns#"
   xmlns:svg="http://www.w3.org/2000/svg"
   xmlns="http://www.w3.org/2000/svg"
   xmlns:sodipodi="http://sodipodi.sourceforge.net/DTD/sodipodi-0.dtd"
   xmlns:inkscape="http://www.inkscape.org/namespaces/inkscape"
   width="128"
   height="128"
   viewBox="0 0 128 128"
   id="svg2"
   version="1.1"
   inkscape:version="0.92.2 5c3e80d, 2017-08-06"
   sodipodi:docname="html-fix.svg">
  <defs
     id="defs4">
    <linearGradient
       id="linearGradient4561"
       x1="24"
       x2="44"
       y1="24"
       y2="24"
       gradientTransform="matrix(2.6,0,0,2.66668,1.6,922.36212)"
       gradientUnits="userSpaceOnUse">
      <stop
         offset="0"
         id="stop2" />
      <stop
         offset="1"
         stop-opacity="0"
         id="stop4" />
    </linearGradient>
  </defs>
  <sodipodi:namedview
     id="base"
     pagecolor="#ffffff"
     bordercolor="#666666"
     borderopacity="1.0"
     inkscape:pageopacity="0.0"
     inkscape:pageshadow="2"
     inkscape:zoom="2.52183"
     inkscape:cx="0.76483314"
     inkscape:cy="65.874466"
     inkscape:document-units="px"
     inkscape:current-layer="layer1"
     showgrid="false"
     units="px"
     showguides="true"
     inkscape:guide-bbox="true"
     inkscape:window-width="1366"
     inkscape:window-height="694"
     inkscape:window-x="0"
     inkscape:window-y="48"
     inkscape:window-maximized="1">
    <inkscape:grid
       type="xygrid"
       id="grid4136"
       empspacing="4" />
    <sodipodi:guide
       position="8,140"
       orientation="1,0"
       id="guide4138"
       inkscape:label="Margin Left"
       inkscape:color="rgb(0,0,255)"
       inkscape:locked="false" />
    <sodipodi:guide
       position="120,140"
       orientation="1,0"
       id="guide4140"
       inkscape:label="Margin Right"
       inkscape:color="rgb(0,0,255)"
       inkscape:locked="false" />
    <sodipodi:guide
       position="-20,120"
       orientation="0,1"
       id="guide4142"
       inkscape:label="Margin Top"
       inkscape:color="rgb(0,0,255)"
       inkscape:locked="false" />
    <sodipodi:guide
       position="-16,8"
       orientation="0,1"
       id="guide4144"
       inkscape:label="Margin Bottom"
       inkscape:color="rgb(0,0,255)"
       inkscape:locked="false" />
    <sodipodi:guide
       position="8,8"
       orientation="-0.70710678,0.70710678"
       id="guide4146"
       inkscape:locked="false" />
    <sodipodi:guide
       position="72,56"
       orientation="0.70710678,0.70710678"
       id="guide4148"
       inkscape:locked="false" />
    <sodipodi:guide
       position="20,140"
       orientation="1,0"
       id="guide4150"
       inkscape:label="Rectangle Left"
       inkscape:color="rgb(0,0,255)"
       inkscape:locked="false" />
    <sodipodi:guide
       position="108,140"
       orientation="1,0"
       id="guide4152"
       inkscape:label="Rectangle Right"
       inkscape:color="rgb(0,0,255)"
       inkscape:locked="false" />
    <sodipodi:guide
       position="-20,116"
       orientation="0,1"
       id="guide4154"
       inkscape:label="Shadow Top"
       inkscape:color="rgb(0,0,255)"
       inkscape:locked="false" />
    <sodipodi:guide
       position="-16,12"
       orientation="0,1"
       id="guide4156"
       inkscape:label="Shadow Bottom"
       inkscape:color="rgb(0,0,255)"
       inkscape:locked="false" />
    <sodipodi:guide
       position="-20,104"
       orientation="0,1"
       id="guide4158"
       inkscape:label="Rectangle Top"
       inkscape:color="rgb(0,0,255)"
       inkscape:locked="false" />
    <sodipodi:guide
       position="-16,24"
       orientation="0,1"
       id="guide4160"
       inkscape:label="Rectangle Bottom"
       inkscape:color="rgb(0,0,255)"
       inkscape:locked="false" />
  </sodipodi:namedview>
  <metadata
     id="metadata7">
    <rdf:RDF>
      <cc:Work
         rdf:about="">
        <dc:format>image/svg+xml</dc:format>
        <dc:type
           rdf:resource="http://purl.org/dc/dcmitype/StillImage" />
        <dc:title></dc:title>
      </cc:Work>
    </rdf:RDF>
  </metadata>
  <g
     inkscape:label="Layer 1"
     inkscape:groupmode="layer"
     id="layer1"
     transform="translate(0,-924.36216)">
    <path
       style="opacity:0.2;stroke-width:4"
       d="m 29.000003,940.36276 c -2.77,0 -5,2.23 -5,5 v 90.00004 c 0,2.768 2.23,5 5,5 h 69.999995 c 2.768002,0 5.000002,-2.232 5.000002,-5 v -63.00004 l -27.500002,-4.5 -4.5,-27.5 z"
       id="path2"
       inkscape:connector-curvature="0" />
    <path
       d="m 29.000003,936.36276 c -2.77,0 -5,2.23 -5,5 v 90.00004 c 0,2.768 2.23,5 5,5 h 69.999995 c 2.768002,0 5.000002,-2.232 5.000002,-5 v -63.00004 l -27.500002,-4.5 -4.5,-27.5 z"
       id="path4"
       inkscape:connector-curvature="0"
       style="fill:#2095f2;stroke-width:4" />
    <path
       style="opacity:0.2;stroke-width:4"
       d="m 71.999998,940.36276 v 26.6668 c 0,2.944 2.388,5.332 5.331999,5.332 H 104 l -32.000002,-32 z"
       id="path6"
       inkscape:connector-curvature="0" />
    <path
       d="m 71.999998,936.36276 v 26.6668 c 0,2.944 2.388,5.332 5.331999,5.332 H 104 l -32.000002,-32 z"
       id="path8"
       inkscape:connector-curvature="0"
       style="fill:#7cc0f5;stroke-width:4" />
    <path
       style="opacity:0.2;fill:#ffffff;stroke-width:4"
       d="m 29.000003,936.36276 c -2.77,0 -5,2.23 -5,5 v 4 c 0,-2.77 2.23,-5 5,-5 h 42.999995 v -4 z"
       id="path10"
       inkscape:connector-curvature="0" />
    <path
       style="opacity:0.2;stroke-width:4"
       d="m 63.999998,976.36276 c -15.464,0 -27.999995,12.536 -27.999995,28.00004 0,15.464 12.535995,28 27.999995,28 15.464,0 28,-12.536 28,-28 0,-15.46404 -12.536,-28.00004 -28,-28.00004 z m -2.804688,5.35156 c 0.32644,-0.034 0.740951,0.0196 1.070312,0 0.0392,0.15616 -0.23704,0.71036 -0.609376,1.52344 -2.370772,5.17918 -2.50498,11.2502 -0.30468,14.49219 0.39816,0.58779 0.757812,1.14603 0.757812,1.21875 0,0.0727 -0.428544,0.14844 -0.914064,0.14844 -1.139768,0 -2.218116,-0.69242 -4.421876,-2.4375 -0.978988,-0.77522 -2.249108,-1.42488 -2.742188,-1.52344 -0.774292,-0.15468 -0.982696,-0.0877 -1.984372,0.91406 -0.931972,0.9318 -1.218752,1.43602 -1.218752,2.28906 0,3.23488 3.838144,5.79938 10.976564,7.31248 9.69424,2.0547 12.084164,3.9024 12.35156,9 0.33572,6.3923 -3.069404,11.2139 -10.523436,14.9453 -0.889688,0.4456 -1.454844,0.6139 -1.828124,0.7578 -0.1654,-0.015 -0.2882,0.015 -0.453124,0 -0.06344,-0.1976 -0.15624,-0.6546 -0.15624,-1.5234 0,-3.3951 -1.33508,-6.8895 -3.35156,-8.8437 -0.541292,-0.5247 -2.061508,-1.6341 -3.359376,-2.4375 -1.29782,-0.8034 -2.60664,-1.7347 -2.89844,-2.1329 -0.48356,-0.6607 -0.519956,-1.0684 -0.14844,-2.289 0.677088,-2.2293 1.480144,-3.4742 3.046876,-4.8828 0.821376,-0.7385 1.646164,-1.3524 1.828124,-1.3672 0.182,-0.015 -1.043216,-0.3877 -2.890624,-0.7656 -1.847304,-0.3787 -4.555956,-1.1741 -5.953123,-1.6797 -2.55484,-0.9245 -5.99746,-2.8611 -7.3125,-4.2657 -0.0556,-0.06 -0.10792,-0.1035 -0.15624,-0.1562 1.88414,-7.50527 7.17018,-13.65285 14.179683,-16.61719 1.466652,-0.62034 2.982116,-1.04856 4.578124,-1.375 0.79498,-0.16248 1.61666,-0.22124 2.4375,-0.30468 z m 22.875,11.4375 c 0.573104,0.35424 2.733856,5.03668 3.351564,7.32028 0.797516,2.9482 0.739788,8.0479 0,10.9766 -0.28156,1.1147 -0.637772,2.1593 -0.757812,2.2891 -0.12004,0.1298 -0.558252,-0.616 -1.070312,-1.5235 -0.512116,-0.9073 -2.14842,-2.8391 -3.507816,-4.2734 -3.923856,-4.1405 -4.542072,-6.2971 -2.898436,-9.60158 0.828892,-1.66632 4.43926,-5.46126 4.882812,-5.1875 z"
       id="path12"
       inkscape:connector-curvature="0" />
    <path
       style="fill:#ffffff;stroke-width:4"
       d="m 63.999998,972.36276 c -15.464,0 -27.999995,12.536 -27.999995,28.00004 0,15.464 12.535995,28 27.999995,28 15.464,0 28,-12.536 28,-28 0,-15.46404 -12.536,-28.00004 -28,-28.00004 z m -2.804688,5.35156 c 0.32644,-0.034 0.740951,0.0196 1.070312,0 0.0392,0.15616 -0.23704,0.71036 -0.609376,1.52344 -2.370772,5.17918 -2.50498,11.2502 -0.30468,14.49219 0.39816,0.58779 0.757812,1.14603 0.757812,1.21875 0,0.0727 -0.428544,0.14844 -0.914064,0.14844 -1.139768,0 -2.218116,-0.69242 -4.421876,-2.4375 -0.978988,-0.77522 -2.249108,-1.42488 -2.742188,-1.52344 -0.774292,-0.15468 -0.982696,-0.0877 -1.984372,0.91406 -0.931972,0.9318 -1.218752,1.43602 -1.218752,2.28906 0,3.23487 3.838144,5.79938 10.976564,7.31248 9.69424,2.0547 12.084164,3.9024 12.35156,9 0.33572,6.3923 -3.069404,11.2139 -10.523436,14.9453 -0.889688,0.4456 -1.454844,0.6139 -1.828124,0.7578 -0.1654,-0.015 -0.2882,0.015 -0.453124,0 -0.06344,-0.1976 -0.15624,-0.6546 -0.15624,-1.5234 0,-3.3951 -1.33508,-6.8895 -3.35156,-8.8437 -0.541292,-0.5247 -2.061508,-1.6341 -3.359376,-2.4375 -1.29782,-0.8034 -2.60664,-1.7347 -2.89844,-2.1329 -0.48356,-0.6607 -0.519956,-1.0684 -0.14844,-2.289 0.677088,-2.2293 1.480144,-3.4742 3.046876,-4.8828 0.821376,-0.7385 1.646164,-1.3524 1.828124,-1.3672 0.182,-0.015 -1.043216,-0.3877 -2.890624,-0.7656 -1.847304,-0.3787 -4.555956,-1.1741 -5.953123,-1.6797 -2.55484,-0.92447 -5.99746,-2.86113 -7.3125,-4.26566 -0.0556,-0.0595 -0.10792,-0.10352 -0.15624,-0.15624 1.88414,-7.50527 7.17018,-13.65285 14.179683,-16.61719 1.466652,-0.62034 2.982116,-1.04856 4.578124,-1.375 0.79498,-0.16248 1.61666,-0.22124 2.4375,-0.30468 z m 22.875,11.4375 c 0.573104,0.35424 2.733856,5.03668 3.351564,7.32032 0.797516,2.94818 0.739788,8.04786 0,10.97656 -0.28156,1.1147 -0.637772,2.1593 -0.757812,2.2891 -0.12004,0.1298 -0.558252,-0.616 -1.070312,-1.5235 -0.512116,-0.9073 -2.14842,-2.8391 -3.507816,-4.2734 -3.923856,-4.14049 -4.542072,-6.29714 -2.898436,-9.60159 0.828892,-1.66632 4.43926,-5.46126 4.882812,-5.18749 z"
       id="path14"
       inkscape:connector-curvature="0" />
    <g
       id="g52"
       transform="matrix(0.42857143,0,0,0.42857143,135.09986,630.70498)">
      <path
         id="circle2"
         d="m -72.566351,867.86672 a 56,56 0 0 0 -55.999999,56 56,56 0 0 0 55.999999,56.00002 56,56 0 0 0 56,-56.00002 56,56 0 0 0 -56,-56 z"
         style="fill:#4caf50;fill-opacity:1;stroke-width:4"
         inkscape:connector-curvature="0" />
      <path
         style="opacity:0.2;fill:#ffffff;stroke-width:4"
         inkscape:connector-curvature="0"
         id="path8-3"
         d="m -72.56635,867.8667 a 56,56 0 0 0 -56,56 56,56 0 0 0 0.086,2.344 56,56 0 0 1 55.912,-54.344 56,56 0 0 1 55.915999,53.656 56,56 0 0 0 0.084,-1.656 56,56 0 0 0 -55.999999,-56 z" />
      <path
         style="opacity:0.2;stroke-width:4"
         inkscape:connector-curvature="0"
         id="path10-6"
         d="m -16.650351,925.5227 a 56,56 0 0 1 -55.915999,54.34404 56,56 0 0 1 -55.912,-53.65604 56,56 0 0 0 -0.088,1.656 56,56 0 0 0 56,56.00004 56,56 0 0 0 55.999999,-56.00004 56,56 0 0 0 -0.084,-2.344 z" />
      <g
         id="g2297"
         transform="matrix(8,0,0,8,-136.16035,-7421.0517)">
        <path
           id="path16"
           d="m 11.4844,1040.3296 -4.2422,4.2422 -2.8281,-2.8281 -1.4141,1.4141 2.8281,2.8281 1.4141,1.4141 5.6563,-5.6563 z"
           inkscape:connector-curvature="0"
           style="opacity:0.2;fill-opacity:0.5" />
        <path
           d="m 11.4844,1039.3296 -4.2422,4.2422 -2.8281,-2.8281 -1.4141,1.4141 2.8281,2.8281 1.4141,1.4141 5.6563,-5.6563 z"
           id="path4-3"
           inkscape:connector-curvature="0"
           style="fill:#ffffff" />
      </g>
    </g>
  </g>
</svg>
