<?xml version="1.0" encoding="UTF-8" standalone="no"?>
<!-- Created with Inkscape (http://www.inkscape.org/) -->

<svg
   xmlns:dc="http://purl.org/dc/elements/1.1/"
   xmlns:cc="http://creativecommons.org/ns#"
   xmlns:rdf="http://www.w3.org/1999/02/22-rdf-syntax-ns#"
   xmlns:svg="http://www.w3.org/2000/svg"
   xmlns="http://www.w3.org/2000/svg"
   xmlns:sodipodi="http://sodipodi.sourceforge.net/DTD/sodipodi-0.dtd"
   xmlns:inkscape="http://www.inkscape.org/namespaces/inkscape"
   width="128"
   height="128"
   viewBox="0 0 128 128"
   id="svg2"
   version="1.1"
   inkscape:version="0.92.2 5c3e80d, 2017-08-06"
   sodipodi:docname="identifiers.svg">
  <defs
     id="defs4">
    <linearGradient
       id="linearGradient4561"
       x1="24"
       x2="44"
       y1="24"
       y2="24"
       gradientTransform="matrix(2.6,0,0,2.66668,1.6,922.36212)"
       gradientUnits="userSpaceOnUse">
      <stop
         offset="0"
         id="stop2" />
      <stop
         offset="1"
         stop-opacity="0"
         id="stop4" />
    </linearGradient>
  </defs>
  <sodipodi:namedview
     id="base"
     pagecolor="#ffffff"
     bordercolor="#666666"
     borderopacity="1.0"
     inkscape:pageopacity="0.0"
     inkscape:pageshadow="2"
     inkscape:zoom="2.52183"
     inkscape:cx="66.088282"
     inkscape:cy="68.79485"
     inkscape:document-units="px"
     inkscape:current-layer="layer1"
     showgrid="true"
     units="px"
     showguides="true"
     inkscape:guide-bbox="true"
     inkscape:window-width="1366"
     inkscape:window-height="717"
     inkscape:window-x="0"
     inkscape:window-y="25"
     inkscape:window-maximized="1">
    <inkscape:grid
       type="xygrid"
       id="grid4136"
       empspacing="4" />
    <sodipodi:guide
       position="8,140"
       orientation="1,0"
       id="guide4138"
       inkscape:label="Margin Left"
       inkscape:color="rgb(0,0,255)"
       inkscape:locked="false" />
    <sodipodi:guide
       position="120,140"
       orientation="1,0"
       id="guide4140"
       inkscape:label="Margin Right"
       inkscape:color="rgb(0,0,255)"
       inkscape:locked="false" />
    <sodipodi:guide
       position="-20,120"
       orientation="0,1"
       id="guide4142"
       inkscape:label="Margin Top"
       inkscape:color="rgb(0,0,255)"
       inkscape:locked="false" />
    <sodipodi:guide
       position="-16,8"
       orientation="0,1"
       id="guide4144"
       inkscape:label="Margin Bottom"
       inkscape:color="rgb(0,0,255)"
       inkscape:locked="false" />
    <sodipodi:guide
       position="8,8"
       orientation="-0.70710678,0.70710678"
       id="guide4146"
       inkscape:locked="false" />
    <sodipodi:guide
       position="72,56"
       orientation="0.70710678,0.70710678"
       id="guide4148"
       inkscape:locked="false" />
    <sodipodi:guide
       position="20,140"
       orientation="1,0"
       id="guide4150"
       inkscape:label="Rectangle Left"
       inkscape:color="rgb(0,0,255)"
       inkscape:locked="false" />
    <sodipodi:guide
       position="108,140"
       orientation="1,0"
       id="guide4152"
       inkscape:label="Rectangle Right"
       inkscape:color="rgb(0,0,255)"
       inkscape:locked="false" />
    <sodipodi:guide
       position="-20,116"
       orientation="0,1"
       id="guide4154"
       inkscape:label="Shadow Top"
       inkscape:color="rgb(0,0,255)"
       inkscape:locked="false" />
    <sodipodi:guide
       position="-16,12"
       orientation="0,1"
       id="guide4156"
       inkscape:label="Shadow Bottom"
       inkscape:color="rgb(0,0,255)"
       inkscape:locked="false" />
    <sodipodi:guide
       position="-20,104"
       orientation="0,1"
       id="guide4158"
       inkscape:label="Rectangle Top"
       inkscape:color="rgb(0,0,255)"
       inkscape:locked="false" />
    <sodipodi:guide
       position="-16,24"
       orientation="0,1"
       id="guide4160"
       inkscape:label="Rectangle Bottom"
       inkscape:color="rgb(0,0,255)"
       inkscape:locked="false" />
  </sodipodi:namedview>
  <metadata
     id="metadata7">
    <rdf:RDF>
      <cc:Work
         rdf:about="">
        <dc:format>image/svg+xml</dc:format>
        <dc:type
           rdf:resource="http://purl.org/dc/dcmitype/StillImage" />
        <dc:title></dc:title>
      </cc:Work>
    </rdf:RDF>
  </metadata>
  <g
     inkscape:label="Layer 1"
     inkscape:groupmode="layer"
     id="layer1"
     transform="translate(0,-924.36216)">
    <rect
       style="opacity:0.2;stroke-width:4"
       width="112"
       height="112"
       x="-1046.3622"
       y="-120"
       rx="5.5999999"
       ry="5.5999999"
       transform="matrix(0,-1,-1,0,0,0)"
       id="rect2" />
    <rect
       style="fill:#c2352a;stroke-width:4"
       width="112"
       height="112"
       x="-1042.3622"
       y="-120"
       rx="5.5999999"
       ry="5.5999999"
       transform="matrix(0,-1,-1,0,0,0)"
       id="rect4" />
    <path
       style="opacity:0.2;fill:#ffffff;stroke-width:4"
       d="M 13.601562,930.36215 C 10.499162,930.36215 8,932.86131 8,935.96371 v 4 c 0,-3.1024 2.499162,-5.60156 5.601562,-5.60156 H 114.39843 c 3.1024,0 5.60157,2.49916 5.60157,5.60156 v -4 c 0,-3.1024 -2.49917,-5.60156 -5.60157,-5.60156 z"
       id="path6"
       inkscape:connector-curvature="0" />
    <path
       style="opacity:0.2;stroke-width:4"
       d="m 16,942.36215 v 32 h 32 v -32 z m 40,0 v 16 h 8 v -8 h 8 v -8 h -8 z m 8,16 v 16 h 8 v -16 z m 0,16 h -8 v 8 h 8 z m 0,8 v 8 h 8 v -8 z m 8,8 v 8 h 16 v -16 h -8 v 8 z m 16,8 v 8.00005 h 8 v 8 h 8 v -16.00005 z m 16,0 h 8 v -8 -8 H 96 v 8 h 8 z m -16,8.00005 h -8 v 8 h 8 z m -8,8 h -8 v 8 h 8 z m 0,8 v 8 h 8 v -8 z m 8,8 v 8 h 8 v -8 z m 8,0 h 16 v -8 H 96 Z m -24,-8 H 56 v 8 h 8 v 8 h 8 v -8 z m 0,-8 V 998.36215 H 56 v 8.00005 h 8 v 8 z M 56,998.36215 v -16 h -8 v 8 h -8 v 8 z m -16,-8 v -8 H 32 16 v 16 h 16 v -8 z m 40,-48 v 32 h 32 v -32 z m -56,8 h 16 v 16 H 24 Z m 64,0 h 16 v 16 H 88 Z m -60,4 v 8 h 8 v -8 z m 64,0 v 8 h 8 v -8 z m -76,52.00005 v 32 h 32 v -32 z m 8,8 h 16 v 16 H 24 Z m 4,4 v 8 h 8 v -8 z"
       id="path8"
       inkscape:connector-curvature="0" />
    <path
       style="fill:#fef7c0;stroke-width:4"
       d="m 16,938.36215 v 32 h 32 v -32 z m 40,0 v 16 h 8 v -8 h 8 v -8 h -8 z m 8,16 v 16 h 8 v -16 z m 0,16 h -8 v 8 h 8 z m 0,8 v 8 h 8 v -8 z m 8,8 v 8 h 16 v -16 h -8 v 8 z m 16,8 v 7.99995 h 8 v 8.0001 h 8 v -16.00005 z m 16,0 h 8 v -8 -8 H 96 v 8 h 8 z m -16,7.99995 h -8 v 8.0001 h 8 z m -8,8.0001 h -8 v 8 h 8 z m 0,8 v 8 h 8 v -8 z m 8,8 v 8 h 8 v -8 z m 8,0 h 16 v -8 H 96 Z m -24,-8 H 56 v 8 h 8 v 8 h 8 v -8 z m 0,-8 V 994.36215 H 56 v 7.99995 h 8 v 8.0001 z M 56,994.36215 v -16 h -8 v 8 h -8 v 8 z m -16,-8 v -8 H 32 16 v 16 h 16 v -8 z m 40,-48 v 32 h 32 v -32 z m -56,8 h 16 v 16 H 24 Z m 64,0 h 16 v 16 H 88 Z m -60,4 v 8 h 8 v -8 z m 64,0 v 8 h 8 v -8 z m -76,51.99995 v 32.0001 h 32 v -32.0001 z m 8,8.0001 h 16 v 16 H 24 Z m 4,4 v 8 h 8 v -8 z"
       id="path10"
       inkscape:connector-curvature="0" />
  </g>
</svg>
