<?xml version="1.0" encoding="UTF-8" standalone="no"?>
<!-- Created with Inkscape (http://www.inkscape.org/) -->

<svg
   xmlns:dc="http://purl.org/dc/elements/1.1/"
   xmlns:cc="http://creativecommons.org/ns#"
   xmlns:rdf="http://www.w3.org/1999/02/22-rdf-syntax-ns#"
   xmlns:svg="http://www.w3.org/2000/svg"
   xmlns="http://www.w3.org/2000/svg"
   xmlns:sodipodi="http://sodipodi.sourceforge.net/DTD/sodipodi-0.dtd"
   xmlns:inkscape="http://www.inkscape.org/namespaces/inkscape"
   width="128"
   height="128"
   viewBox="0 0 128 128"
   id="svg2"
   version="1.1"
   inkscape:version="0.92.2 5c3e80d, 2017-08-06"
   sodipodi:docname="languages.svg">
  <defs
     id="defs4">
    <linearGradient
       id="linearGradient4561"
       x1="24"
       x2="44"
       y1="24"
       y2="24"
       gradientTransform="matrix(2.6,0,0,2.66668,1.6,922.36212)"
       gradientUnits="userSpaceOnUse">
      <stop
         offset="0"
         id="stop2" />
      <stop
         offset="1"
         stop-opacity="0"
         id="stop4" />
    </linearGradient>
  </defs>
  <sodipodi:namedview
     id="base"
     pagecolor="#ffffff"
     bordercolor="#666666"
     borderopacity="1.0"
     inkscape:pageopacity="0.0"
     inkscape:pageshadow="2"
     inkscape:zoom="2.52183"
     inkscape:cx="66.088282"
     inkscape:cy="68.79485"
     inkscape:document-units="px"
     inkscape:current-layer="layer1"
     showgrid="true"
     units="px"
     showguides="true"
     inkscape:guide-bbox="true"
     inkscape:window-width="1366"
     inkscape:window-height="717"
     inkscape:window-x="0"
     inkscape:window-y="25"
     inkscape:window-maximized="1">
    <inkscape:grid
       type="xygrid"
       id="grid4136"
       empspacing="4" />
    <sodipodi:guide
       position="8,140"
       orientation="1,0"
       id="guide4138"
       inkscape:label="Margin Left"
       inkscape:color="rgb(0,0,255)"
       inkscape:locked="false" />
    <sodipodi:guide
       position="120,140"
       orientation="1,0"
       id="guide4140"
       inkscape:label="Margin Right"
       inkscape:color="rgb(0,0,255)"
       inkscape:locked="false" />
    <sodipodi:guide
       position="-20,120"
       orientation="0,1"
       id="guide4142"
       inkscape:label="Margin Top"
       inkscape:color="rgb(0,0,255)"
       inkscape:locked="false" />
    <sodipodi:guide
       position="-16,8"
       orientation="0,1"
       id="guide4144"
       inkscape:label="Margin Bottom"
       inkscape:color="rgb(0,0,255)"
       inkscape:locked="false" />
    <sodipodi:guide
       position="8,8"
       orientation="-0.70710678,0.70710678"
       id="guide4146"
       inkscape:locked="false" />
    <sodipodi:guide
       position="72,56"
       orientation="0.70710678,0.70710678"
       id="guide4148"
       inkscape:locked="false" />
    <sodipodi:guide
       position="20,140"
       orientation="1,0"
       id="guide4150"
       inkscape:label="Rectangle Left"
       inkscape:color="rgb(0,0,255)"
       inkscape:locked="false" />
    <sodipodi:guide
       position="108,140"
       orientation="1,0"
       id="guide4152"
       inkscape:label="Rectangle Right"
       inkscape:color="rgb(0,0,255)"
       inkscape:locked="false" />
    <sodipodi:guide
       position="-20,116"
       orientation="0,1"
       id="guide4154"
       inkscape:label="Shadow Top"
       inkscape:color="rgb(0,0,255)"
       inkscape:locked="false" />
    <sodipodi:guide
       position="-16,12"
       orientation="0,1"
       id="guide4156"
       inkscape:label="Shadow Bottom"
       inkscape:color="rgb(0,0,255)"
       inkscape:locked="false" />
    <sodipodi:guide
       position="-20,104"
       orientation="0,1"
       id="guide4158"
       inkscape:label="Rectangle Top"
       inkscape:color="rgb(0,0,255)"
       inkscape:locked="false" />
    <sodipodi:guide
       position="-16,24"
       orientation="0,1"
       id="guide4160"
       inkscape:label="Rectangle Bottom"
       inkscape:color="rgb(0,0,255)"
       inkscape:locked="false" />
  </sodipodi:namedview>
  <metadata
     id="metadata7">
    <rdf:RDF>
      <cc:Work
         rdf:about="">
        <dc:format>image/svg+xml</dc:format>
        <dc:type
           rdf:resource="http://purl.org/dc/dcmitype/StillImage" />
        <dc:title></dc:title>
      </cc:Work>
    </rdf:RDF>
  </metadata>
  <g
     inkscape:label="Layer 1"
     inkscape:groupmode="layer"
     id="layer1"
     transform="translate(0,-924.36216)">
    <path
       d="m 84.1276,966.36316 0.0288,76.00004 h -69.972 c -5.9992,0 -6.028,-5.0239 -6.028,-5.0239 v -64.97614 c 0,0 0,-6 6,-6 z"
       id="path2"
       inkscape:connector-curvature="0"
       style="fill:#cccccc;stroke-width:4" />
    <path
       d="m 13.8124,966.36316 c -6,0 -6,6 -6,6 l 0.0236,3.79688 c 0.0168,-0.58 0.302,-5.796 5.9764,-5.796 h 70.344 v -4 z"
       id="path4"
       inkscape:connector-curvature="0"
       style="opacity:0.1;fill:#ffffff;stroke-width:4" />
    <path
       d="m 38.8424,983.88716 c 1.6508,1.14292 3.1746,2.53972 4.5716,4.1904 l -2.476,3.044 c -1.5256,-1.904 -3.1132,-3.492 -4.764,-4.76 l 2.6668,-2.476 m 0,12 c 1.5238,1.14292 2.98408,2.41272 4.3808,3.80952 l -2.47616,3.23812 c -1.3972,-1.78 -2.9212,-3.30404 -4.572,-4.57204 l 2.6668,-2.476 m 0.76192,13.14284 3.04764,2.0952 c -1.524,5.204 -3.7456,10.22 -6.6664,15.044 l -3.238,-2.476 c 2.92064,-4.6984 5.2064,-9.5872 6.8572,-14.6668 m 8.9512,-26.66396 3.61904,0.76188 c -0.254,1.26992 -0.63492,2.47624 -1.14284,3.61908 h 14.8572 v 3.42852 H 49.5064 l -1.71428,2.85716 c -0.50796,1.01588 -1.33336,2.09528 -2.47616,3.23808 l -2.28576,-2.6666 c 2.41272,-2.9206 4.254,-6.6668 5.524,-11.238 m -0.95236,11.8096 h 17.524 c -8e-5,3.93652 -0.0636,7.61924 -0.1908,11.04764 h 2.47616 v 3.4286 h -2.66664 c -0.254,2.6666 -0.44448,5.27 -0.5714,7.8096 h 2.85712 v 3.2381 H 63.7922 c -0.508,4.444 -2.288,6.668 -5.336,6.668 -0.76192,0 -1.84128,-0.1272 -3.23808,-0.3808 l -0.57144,-3.2381 c 1.65076,0.2536 2.92064,0.3808 3.80952,0.3808 0.88888,0 1.46028,-1.1429 1.71432,-3.4286 h -14.8572 c 0.50792,-3.4286 0.95236,-7.1112 1.33332,-11.0476 H 43.98 v -3.4286 h 3.0476 c 0.254,-3.5556 0.44444,-7.23799 0.57144,-11.04759 m 2.85712,11.04759 h 10.8572 c 0.1272,-2.6666 0.1908,-5.26959 0.1908,-7.80959 h -10.476 c -0.1272,2.79369 -0.3176,5.39679 -0.57144,7.80959 m 4.768,-6.85599 c 1.3968,0.88888 2.66668,1.90479 3.80956,3.04759 l -2.28572,2.8571 c -1.14288,-1.2698 -2.41276,-2.4126 -3.80952,-3.4285 l 2.284,-2.47603 m 5.3332,18.09523 c 0.254,-2.6667 0.4444,-5.27 0.57144,-7.8096 h -10.8572 c -0.254,2.7936 -0.57144,5.3968 -0.95236,7.8096 h 11.238 m -5.9048,-6.8572 c 1.52376,0.8888 2.9206,1.9047 4.1904,3.0476 l -2.4762,2.8571 c -1.26984,-1.3968 -2.6032,-2.6031 -4,-3.619 l 2.28572,-2.2857 m -20,-22.66683 v 29.90483 h -3.42856 v -3.2381 H 27.9846 v 4.9524 h -3.42856 v -31.61922 h 10.0952 m -6.6668,23.42842 h 3.23808 v -20.19042 h -3.23808 v 20.19042"
       id="path6"
       inkscape:connector-curvature="0"
       style="opacity:0.2;stroke-width:4" />
    <path
       d="m 8.156,1037.3393 v 4 c 0,0 0.0312,5.0239 6.0312,5.0239 h 69.968 v -4 h -69.968 c -6.0004,0 -6.0316,-5.0239 -6.0316,-5.0239 z"
       id="path8"
       inkscape:connector-curvature="0"
       style="opacity:0.2;stroke-width:4" />
    <path
       d="m 84.1556,966.36316 -40,-36 v 76.00004 l 40,36 z"
       id="path10"
       inkscape:connector-curvature="0"
       style="fill:#a3a3a3;stroke-width:4" />
    <path
       d="m 44.1556,930.36316 v 76.00004 h 70 c 6,0 6.0288,-5.026 6.0288,-5.026 l -0.028,-64.97603 c 0,0 0,-6 -6,-6 z"
       id="path12"
       inkscape:connector-curvature="0"
       style="fill:#2095f2;stroke-width:4" />
    <path
       d="m 77.2796,976.14316 1.07976,-4.0492 c 1.21472,-4.3864 2.36196,-9.5152 3.44172,-14.172 h 0.27 c 1.14724,4.5888 2.36196,9.7852 3.57672,14.172 l 1.01224,4.0492 h -9.3804 m 14.108,18.22 h 10.5276 l -13.7668,-44 h -11.9448 l -13.7668,44 h 10.1228 l 2.6994,-10.46 h 13.4296 l 2.7,10.46"
       id="path14"
       inkscape:connector-curvature="0"
       style="opacity:0.2;stroke-width:4" />
    <path
       d="m 77.2796,972.14316 1.07976,-4.0492 c 1.21472,-4.3864 2.36196,-9.5152 3.44172,-14.172 h 0.27 c 1.14724,4.5888 2.36196,9.7852 3.57672,14.172 l 1.01224,4.0492 h -9.3804 m 14.108,18.22 h 10.5276 l -13.7668,-44 h -11.9448 l -13.7668,44 h 10.1228 l 2.6994,-10.46 h 13.4296 l 2.7,10.46"
       id="path16"
       inkscape:connector-curvature="0"
       style="fill:#ffffff;stroke-width:4" />
    <path
       d="m 44.1556,930.36316 v 4 h 70 c 6,0 6,6 6,6 v -4 c 0,0 0,-6 -6,-6 z"
       id="path18"
       inkscape:connector-curvature="0"
       style="opacity:0.1;fill:#ffffff;stroke-width:4" />
    <path
       d="m 120.1876,1001.3552 c 0,0.048 -0.06,5.008 -6.032,5.008 h -70 v 4 h 70 c 6,0 6.032,-5.024 6.032,-5.024 z"
       id="path20"
       inkscape:connector-curvature="0"
       style="opacity:0.2;stroke-width:4" />
  </g>
</svg>
