<?xml version="1.0" encoding="UTF-8" standalone="no"?>
<!-- Created with Inkscape (http://www.inkscape.org/) -->

<svg
   xmlns:dc="http://purl.org/dc/elements/1.1/"
   xmlns:cc="http://creativecommons.org/ns#"
   xmlns:rdf="http://www.w3.org/1999/02/22-rdf-syntax-ns#"
   xmlns:svg="http://www.w3.org/2000/svg"
   xmlns="http://www.w3.org/2000/svg"
   xmlns:sodipodi="http://sodipodi.sourceforge.net/DTD/sodipodi-0.dtd"
   xmlns:inkscape="http://www.inkscape.org/namespaces/inkscape"
   width="128"
   height="128"
   viewBox="0 0 128 128"
   id="svg2"
   version="1.1"
   inkscape:version="0.92.2 5c3e80d, 2017-08-06"
   sodipodi:docname="mail.svg">
  <defs
     id="defs4">
    <linearGradient
       id="linearGradient4561"
       x1="24"
       x2="44"
       y1="24"
       y2="24"
       gradientTransform="matrix(2.6,0,0,2.66668,1.6,922.36212)"
       gradientUnits="userSpaceOnUse">
      <stop
         offset="0"
         id="stop2" />
      <stop
         offset="1"
         stop-opacity="0"
         id="stop4" />
    </linearGradient>
  </defs>
  <sodipodi:namedview
     id="base"
     pagecolor="#ffffff"
     bordercolor="#666666"
     borderopacity="1.0"
     inkscape:pageopacity="0.0"
     inkscape:pageshadow="2"
     inkscape:zoom="2.52183"
     inkscape:cx="71.265085"
     inkscape:cy="65.860304"
     inkscape:document-units="px"
     inkscape:current-layer="layer1"
     showgrid="false"
     units="px"
     showguides="true"
     inkscape:guide-bbox="true"
     inkscape:window-width="1366"
     inkscape:window-height="717"
     inkscape:window-x="0"
     inkscape:window-y="25"
     inkscape:window-maximized="1">
    <inkscape:grid
       type="xygrid"
       id="grid4136"
       empspacing="4" />
    <sodipodi:guide
       position="8,140"
       orientation="1,0"
       id="guide4138"
       inkscape:label="Margin Left"
       inkscape:color="rgb(0,0,255)"
       inkscape:locked="false" />
    <sodipodi:guide
       position="120,140"
       orientation="1,0"
       id="guide4140"
       inkscape:label="Margin Right"
       inkscape:color="rgb(0,0,255)"
       inkscape:locked="false" />
    <sodipodi:guide
       position="-20,120"
       orientation="0,1"
       id="guide4142"
       inkscape:label="Margin Top"
       inkscape:color="rgb(0,0,255)"
       inkscape:locked="false" />
    <sodipodi:guide
       position="-16,8"
       orientation="0,1"
       id="guide4144"
       inkscape:label="Margin Bottom"
       inkscape:color="rgb(0,0,255)"
       inkscape:locked="false" />
    <sodipodi:guide
       position="8,8"
       orientation="-0.70710678,0.70710678"
       id="guide4146"
       inkscape:locked="false" />
    <sodipodi:guide
       position="72,56"
       orientation="0.70710678,0.70710678"
       id="guide4148"
       inkscape:locked="false" />
    <sodipodi:guide
       position="20,140"
       orientation="1,0"
       id="guide4150"
       inkscape:label="Rectangle Left"
       inkscape:color="rgb(0,0,255)"
       inkscape:locked="false" />
    <sodipodi:guide
       position="108,140"
       orientation="1,0"
       id="guide4152"
       inkscape:label="Rectangle Right"
       inkscape:color="rgb(0,0,255)"
       inkscape:locked="false" />
    <sodipodi:guide
       position="-20,116"
       orientation="0,1"
       id="guide4154"
       inkscape:label="Shadow Top"
       inkscape:color="rgb(0,0,255)"
       inkscape:locked="false" />
    <sodipodi:guide
       position="-16,12"
       orientation="0,1"
       id="guide4156"
       inkscape:label="Shadow Bottom"
       inkscape:color="rgb(0,0,255)"
       inkscape:locked="false" />
    <sodipodi:guide
       position="-20,104"
       orientation="0,1"
       id="guide4158"
       inkscape:label="Rectangle Top"
       inkscape:color="rgb(0,0,255)"
       inkscape:locked="false" />
    <sodipodi:guide
       position="-16,24"
       orientation="0,1"
       id="guide4160"
       inkscape:label="Rectangle Bottom"
       inkscape:color="rgb(0,0,255)"
       inkscape:locked="false" />
  </sodipodi:namedview>
  <metadata
     id="metadata7">
    <rdf:RDF>
      <cc:Work
         rdf:about="">
        <dc:format>image/svg+xml</dc:format>
        <dc:type
           rdf:resource="http://purl.org/dc/dcmitype/StillImage" />
        <dc:title></dc:title>
      </cc:Work>
    </rdf:RDF>
  </metadata>
  <g
     inkscape:label="Layer 1"
     inkscape:groupmode="layer"
     id="layer1"
     transform="translate(0,-924.36216)">
    <path
       d="m 10.54664,967.66712 c -0.115,0.0748 -0.21924,0.1632 -0.32816,0.246 l -0.0656,0.0492 v 0.008 c -1.3036,1.0236 -2.15472,2.59804 -2.15472,4.3916 l 6e-5,48.79608 c 1e-5,8 6.3084,8 8,8 h 96 c 0,0 8,0 8,-8 l -8e-5,-48.79608 c 0,-1.83404 -0.88752,-3.44224 -2.24216,-4.4624 l 0.024,-0.032 -53.78,-39.504 c 0,0 -53.78,39.5544 -53.452,39.3084 z"
       id="path2"
       inkscape:connector-curvature="0"
       style="fill:#fe9700;stroke-width:4" />
    <path
       d="m 63.99864,928.36712 c 0,0 -53.78,39.552 -53.452,39.304 l -10e-4,-0.008 c -0.1148,0.076 -0.2192,0.168 -0.328,0.252 l -0.0624,0.044 v 0.008 c -1.3036,1.024 -2.1564,2.6 -2.1564,4.392 v 4.008 c 0,-1.792 0.8528,-3.376 2.1564,-4.4 v -0.008 l 0.0624,-0.044 c 0.1088,-0.084 0.2132,-0.168 0.328,-0.244 -0.328,0.248 53.452,-39.304 53.452,-39.304 l 53.78,39.5 -0.024,0.032 c 1.356,1.02 2.244,2.632 2.244,4.468 v -4.008 c 0,-1.836 -0.888,-3.44 -2.244,-4.46 l 0.024,-0.032 -53.78,-39.5 z"
       id="path4"
       inkscape:connector-curvature="0"
       style="opacity:0.1;fill:#ffffff;stroke-width:4" />
    <rect
       width="88"
       height="72"
       x="19.998636"
       y="940.35919"
       rx="6"
       ry="5.9959998"
       id="rect6"
       style="fill:#ebebeb;stroke-width:4" />
    <path
       d="m 7.99864,972.35912 104,72.00008 h -96 c -4,-1e-4 -8,-1.978 -8,-7.912 z"
       id="path8"
       inkscape:connector-curvature="0"
       style="fill:#fec006;stroke-width:4" />
    <path
       d="m 111.99864,1044.3592 c 8,0 8,-7.912 8,-7.912 v -64.08808 l -104,72.00008 z"
       id="path10"
       inkscape:connector-curvature="0"
       style="fill:#fecd38;stroke-width:4" />
    <path
       d="m 63.99864,952.35912 a 20,20 0 0 0 -20,20 20,20 0 0 0 20,20 h 14 c 1.108,0 2,-0.892 2,-2 0,-1.108 -0.892,-2 -2,-2 h -14 a 16,16 0 0 1 -16,-16 16,16 0 0 1 16,-16 16,16 0 0 1 16,16 v 6 c 0,1.108 -0.892,2 -2,2 -1.108,0 -2,-0.892 -2,-2 v -6 a 12,12 0 0 0 -12,-12 12,12 0 0 0 -12,12 12,12 0 0 0 12,12 12,12 0 0 0 8.5236,-3.56248 c 0.932,2.1 3.024,3.564 5.476,3.564 3.324,0 6,-2.676 6,-6 v -6 a 20,20 0 0 0 -20,-20 z m 0,12 a 8,8 0 0 1 8,8 8,8 0 0 1 -8,8 8,8 0 0 1 -8,-8 8,8 0 0 1 8,-8 z"
       id="path12"
       inkscape:connector-curvature="0"
       style="fill:#848484;stroke-width:4" />
    <path
       d="m 7.99864,1036.3592 v 4 c 0,4.9496 2.73104,7.1452 5.9296,7.7736 l -0.328,0.228 h 100.8 l -0.3828,-0.2657 c 5.9212,-1.2494 5.9844,-7.7344 5.9844,-7.7344 v -4 c 0,0 -0.0632,6.4848 -5.9844,7.7344 l 0.384,0.264 h -100.8 l 0.328,-0.228 c -3.1984,-0.628 -5.9296,-2.824 -5.9296,-7.772 z"
       id="path14"
       inkscape:connector-curvature="0"
       style="opacity:0.2;stroke-width:4" />
  </g>
</svg>
