<?xml version="1.0" encoding="UTF-8" standalone="no"?>
<!-- Created with Inkscape (http://www.inkscape.org/) -->

<svg
   xmlns:dc="http://purl.org/dc/elements/1.1/"
   xmlns:cc="http://creativecommons.org/ns#"
   xmlns:rdf="http://www.w3.org/1999/02/22-rdf-syntax-ns#"
   xmlns:svg="http://www.w3.org/2000/svg"
   xmlns="http://www.w3.org/2000/svg"
   xmlns:sodipodi="http://sodipodi.sourceforge.net/DTD/sodipodi-0.dtd"
   xmlns:inkscape="http://www.inkscape.org/namespaces/inkscape"
   width="128"
   height="128"
   viewBox="0 0 128 128"
   id="svg2"
   version="1.1"
   inkscape:version="0.92.2 5c3e80d, 2017-08-06"
   sodipodi:docname="marked.svg">
  <defs
     id="defs4">
    <linearGradient
       id="linearGradient4561"
       x1="24"
       x2="44"
       y1="24"
       y2="24"
       gradientTransform="matrix(2.6,0,0,2.66668,1.6,922.36212)"
       gradientUnits="userSpaceOnUse">
      <stop
         offset="0"
         id="stop2" />
      <stop
         offset="1"
         stop-opacity="0"
         id="stop4" />
    </linearGradient>
  </defs>
  <sodipodi:namedview
     id="base"
     pagecolor="#ffffff"
     bordercolor="#666666"
     borderopacity="1.0"
     inkscape:pageopacity="0.0"
     inkscape:pageshadow="2"
     inkscape:zoom="1.7832031"
     inkscape:cx="-114.21705"
     inkscape:cy="55.663488"
     inkscape:document-units="px"
     inkscape:current-layer="layer1"
     showgrid="false"
     units="px"
     showguides="true"
     inkscape:guide-bbox="true"
     inkscape:window-width="1366"
     inkscape:window-height="694"
     inkscape:window-x="0"
     inkscape:window-y="48"
     inkscape:window-maximized="1">
    <inkscape:grid
       type="xygrid"
       id="grid4136"
       empspacing="4" />
    <sodipodi:guide
       position="8,140"
       orientation="1,0"
       id="guide4138"
       inkscape:label="Margin Left"
       inkscape:color="rgb(0,0,255)"
       inkscape:locked="false" />
    <sodipodi:guide
       position="120,140"
       orientation="1,0"
       id="guide4140"
       inkscape:label="Margin Right"
       inkscape:color="rgb(0,0,255)"
       inkscape:locked="false" />
    <sodipodi:guide
       position="-20,120"
       orientation="0,1"
       id="guide4142"
       inkscape:label="Margin Top"
       inkscape:color="rgb(0,0,255)"
       inkscape:locked="false" />
    <sodipodi:guide
       position="-16,8"
       orientation="0,1"
       id="guide4144"
       inkscape:label="Margin Bottom"
       inkscape:color="rgb(0,0,255)"
       inkscape:locked="false" />
    <sodipodi:guide
       position="8,8"
       orientation="-0.70710678,0.70710678"
       id="guide4146"
       inkscape:locked="false" />
    <sodipodi:guide
       position="72,56"
       orientation="0.70710678,0.70710678"
       id="guide4148"
       inkscape:locked="false" />
    <sodipodi:guide
       position="20,140"
       orientation="1,0"
       id="guide4150"
       inkscape:label="Rectangle Left"
       inkscape:color="rgb(0,0,255)"
       inkscape:locked="false" />
    <sodipodi:guide
       position="108,140"
       orientation="1,0"
       id="guide4152"
       inkscape:label="Rectangle Right"
       inkscape:color="rgb(0,0,255)"
       inkscape:locked="false" />
    <sodipodi:guide
       position="-20,116"
       orientation="0,1"
       id="guide4154"
       inkscape:label="Shadow Top"
       inkscape:color="rgb(0,0,255)"
       inkscape:locked="false" />
    <sodipodi:guide
       position="-16,12"
       orientation="0,1"
       id="guide4156"
       inkscape:label="Shadow Bottom"
       inkscape:color="rgb(0,0,255)"
       inkscape:locked="false" />
    <sodipodi:guide
       position="-20,104"
       orientation="0,1"
       id="guide4158"
       inkscape:label="Rectangle Top"
       inkscape:color="rgb(0,0,255)"
       inkscape:locked="false" />
    <sodipodi:guide
       position="-16,24"
       orientation="0,1"
       id="guide4160"
       inkscape:label="Rectangle Bottom"
       inkscape:color="rgb(0,0,255)"
       inkscape:locked="false" />
  </sodipodi:namedview>
  <metadata
     id="metadata7">
    <rdf:RDF>
      <cc:Work
         rdf:about="">
        <dc:format>image/svg+xml</dc:format>
        <dc:type
           rdf:resource="http://purl.org/dc/dcmitype/StillImage" />
        <dc:title></dc:title>
      </cc:Work>
    </rdf:RDF>
  </metadata>
  <g
     inkscape:label="Layer 1"
     inkscape:groupmode="layer"
     id="layer1"
     transform="translate(0,-924.36216)">
    <g
       id="g855">
      <rect
         style="fill:#009587;stroke-width:4;fill-opacity:1"
         id="rect2"
         transform="matrix(0,-1,-1,0,0,0)"
         ry="56"
         rx="56"
         y="-119.9992"
         x="-1042.3622"
         height="112"
         width="112" />
      <path
         style="opacity:0.2;fill:#ffffff;stroke-width:4"
         inkscape:connector-curvature="0"
         id="path8"
         d="m 63.999202,930.36214 c -31.023999,0 -56.0000004,24.976 -56.0000004,56 0,0.676 0.078,1.332 0.1016,2 1.0548,-30.0824 25.5496014,-54 55.9000004,-54 30.348001,0 54.843998,23.9176 55.899998,54 0.02,-0.668 0.1,-1.324 0.1,-2 0,-31.024 -24.975997,-56 -55.999998,-56 z" />
      <path
         style="opacity:0.2;stroke-width:4"
         inkscape:connector-curvature="0"
         id="path10"
         d="m 8.1008016,988.36214 c -0.0236,0.668 -0.1016,1.324 -0.1016,2 0,31.02406 24.9760014,56.00006 56.0000004,56.00006 31.024001,0 55.999998,-24.976 55.999998,-56.00006 0,-0.676 -0.08,-1.332 -0.1,-2 -1.056,30.08406 -25.551997,54.00006 -55.899998,54.00006 -30.348799,0 -54.8440004,-23.916 -55.9000004,-54.00006 z" />
    </g>
    <g
       id="g846"
       transform="matrix(0.6399992,0,0,0.6399992,9.6260018,358.27863)">
      <path
         style="fill:#fecd38;stroke-width:4"
         inkscape:connector-curvature="0"
         id="path2"
         d="m 84.959416,932.50672 16.000004,34 34,4 -24,26.00005 6,36.00003 -32.000004,-18 -32,18 6,-36.00003 -24.000001,-26.00005 34.000001,-4 z" />
      <path
         style="opacity:0.2;stroke-width:4"
         inkscape:connector-curvature="0"
         id="path4"
         d="m 38.287416,974.11472 -3.328001,0.392 23.437601,25.39205 0.5624,-3.392 z m 93.344004,0 -20.672,22.39205 0.564,3.392 23.436,-25.39205 z m -46.672004,40.39208 -31.2656,17.584 -0.7344,4.416 32,-18 32.000004,18 -0.736,-4.416 z" />
      <path
         style="opacity:0.2;fill:#ffffff;stroke-width:4"
         inkscape:connector-curvature="0"
         id="path6"
         d="m 84.959416,932.50672 -16,34 -34.000001,4 3.328121,3.60936 30.672,-3.608 16,-34 16.000004,34 30.672,3.60936 3.328,-3.608 -34,-4 -16.000004,-34 z m -26.5624,67.39205 -5.4376,32.60803 0.7344,-0.416 5.2656,-31.584 z m 53.124004,0 -0.56,0.60803 5.264,31.584 0.736,0.416 -5.436,-32.60803 z" />
    </g>
  </g>
</svg>
