<svg xmlns="http://www.w3.org/2000/svg" id="svg2" width="32" height="32" version="1">
 <rect style="fill:#008276;fill-opacity:1" id="rect4" width="28" height="28" x="-30" y="-30" rx="14" ry="14" transform="matrix(0,-1,-1,0,0,0)"/>
 <path style="opacity:0.1;fill:#ffffff" id="path6" d="M 16,2 C 8.244,2 2,8.244 2,16 2,16.16884 2.01952,16.33264 2.02539,16.5 2.28949,8.9794 8.41319,3 16.00039,3 c 7.5872,0 13.711,5.9794 13.975,13.5 0.006,-0.16736 0.0254,-0.33116 0.0254,-0.5 0,-7.756 -6.244,-14 -14,-14 z"/>
 <path id="path4144" d="M 16,9 13.881,14.778 8,15.111 12.572,19.016 11.056,25 16,21.635 20.944,25 19.428,19.016 24,15.111 18.119,14.778 Z" style="opacity:0.2;fill:#000000;fill-opacity:1"/>
 <path style="fill:#fed147;fill-opacity:1" id="path8" d="M 16,8 13.881,13.778 8,14.111 12.572,18.016 11.056,24 16,20.635 20.944,24 19.428,18.016 24,14.111 18.119,13.778 Z"/>
 <path style="opacity:0.2" id="path10" d="M 2.0254,16.5 C 2.0195,16.667 2,16.831 2,17 c 0,7.756 6.244,14 14,14 7.756,0 14,-6.244 14,-14 0,-0.16884 -0.01952,-0.33264 -0.02539,-0.5 -0.264,7.521 -6.388,13.5 -13.975,13.5 -7.5872,0 -13.711,-5.979 -13.975,-13.5 z"/>
 <path style="opacity:0.2;fill:#ffffff;fill-opacity:1" id="path4146" d="M 16,8 13.880859,13.777344 8,14.111328 9.0976562,15.048828 13.880859,14.777344 16,9 18.119141,14.777344 22.902344,15.048828 24,14.111328 18.119141,13.777344 16,8 Z M 12.363281,18.837891 11.056641,24 l 0.30664,-0.208984 1.208985,-4.775391 -0.208985,-0.177734 z m 7.273438,0 -0.208985,0.177734 1.208985,4.775391 L 20.943359,24 19.636719,18.837891 Z"/>
</svg>
