<svg xmlns="http://www.w3.org/2000/svg" width="32" height="32" version="1.1" viewBox="0 0 32 32">
 <g transform="translate(0,-1020.4)">
  <g transform="matrix(4,0,0,4,-8e-4,922.36)">
   <g transform="matrix(0.25,0,0,0.25,1.375e-4,24.375)">
    <rect style="fill:#f58411" width="28" height="28" x="-30" y="-30" rx="1.4" ry="1.4" transform="matrix(0,-1,-1,0,0,0)"/>
    <path style="opacity:0.2;fill:#ffffff" d="M 3.4004,2 C 2.6248,2 2,2.6248 2,3.4004 V 4.4004 C 2,3.6248 2.6248,3 3.4004,3 H 28.6 C 29.375,3 30,3.6248 30,4.4004 V 3.4004 C 30,2.6248 29.375,2 28.6,2 Z"/>
    <path style="opacity:0.2" d="M 2,28.6 V 29.6 C 2,30.375 2.6248,31 3.4004,31 H 28.6 C 29.375,31 30,30.375 30,29.6 V 28.6 C 30,29.375 29.375,30 28.6,30 H 3.4004 C 2.6252,30 2.0004,29.375 2.0004,28.6 Z"/>
    <g transform="rotate(-180,15.5,16.5)">
     <g style="opacity:0.2;enable-background:new" transform="translate(-620,-519)">
      <path d="M 17,8 C 15.343,8 14,9.3432 14,11 14,11.231 14.044,11.44 14.094,11.656 L 10.875,13.656 C 10.362,13.245 9.709,13 9,13 7.3431,13 6,14.343 6,16 6,17.657 7.3431,19 9,19 9.709,19 10.361,18.755 10.875,18.344 L 14.094,20.344 C 14.044,20.56 14,20.769 14,21 14,22.657 15.343,24 17,24 18.657,24 20,22.657 20,21 20,19.343 18.657,18 17,18 16.291,18 15.638,18.245 15.125,18.656 L 11.906,16.656 C 11.956,16.44 12,16.231 12,16 12,15.769 11.956,15.56 11.906,15.344 L 15.125,13.344 C 15.638,13.755 16.291,14 17,14 18.657,14 20,12.657 20,11 20,9.3435 18.657,8.0003 17,8.0003 Z M 24,8 A 3,3 0 0 0 21,11 3,3 0 0 0 24,14 3,3 0 0 0 27,11 3,3 0 0 0 24,8 Z M 24,18 A 3,3 0 0 0 21,21 3,3 0 0 0 24,24 3,3 0 0 0 27,21 3,3 0 0 0 24,18 Z" transform="translate(619,520)"/>
     </g>
     <g style="fill:#ffffff;enable-background:new" transform="translate(-620,-520)">
      <path d="M 17,8 C 15.343,8 14,9.3432 14,11 14,11.231 14.044,11.44 14.094,11.656 L 10.875,13.656 C 10.362,13.245 9.709,13 9,13 7.3431,13 6,14.343 6,16 6,17.657 7.3431,19 9,19 9.709,19 10.361,18.755 10.875,18.344 L 14.094,20.344 C 14.044,20.56 14,20.769 14,21 14,22.657 15.343,24 17,24 18.657,24 20,22.657 20,21 20,19.343 18.657,18 17,18 16.291,18 15.638,18.245 15.125,18.656 L 11.906,16.656 C 11.956,16.44 12,16.231 12,16 12,15.769 11.956,15.56 11.906,15.344 L 15.125,13.344 C 15.638,13.755 16.291,14 17,14 18.657,14 20,12.657 20,11 20,9.3435 18.657,8.0003 17,8.0003 Z M 24,8 A 3,3 0 0 0 21,11 3,3 0 0 0 24,14 3,3 0 0 0 27,11 3,3 0 0 0 24,8 Z M 24,18 A 3,3 0 0 0 21,21 3,3 0 0 0 24,24 3,3 0 0 0 27,21 3,3 0 0 0 24,18 Z" transform="translate(619,520)"/>
     </g>
    </g>
   </g>
  </g>
 </g>
</svg>
