<svg xmlns="http://www.w3.org/2000/svg" id="svg2" width="32" height="32" version="1">
 <rect id="rect4" fill="#f58411" width="28" height="28" x="-30" y="-30" rx="1.4" ry="1.4" transform="matrix(0,-1,-1,0,0,0)"/>
 <path id="path6" fill="#fff" opacity=".2" d="m3.4004 2c-0.7756 0-1.4004 0.6248-1.4004 1.4004v1c0-0.7756 0.6248-1.4004 1.4004-1.4004h25.2c0.775 0 1.4 0.6248 1.4 1.4004v-1c0-0.7756-0.625-1.4004-1.4-1.4004h-25.2z"/>
 <path id="path8" opacity=".2" d="m2 28.6v1c0 0.775 0.6248 1.4 1.4004 1.4h25.2c0.775 0 1.4-0.625 1.4-1.4v-1c0 0.775-0.625 1.4-1.4 1.4h-25.2c-0.7752 0-1.4-0.625-1.4-1.4z"/>
 <path style="fill:none;fill-rule:evenodd;stroke:#3f3f3f;stroke-width:3;stroke-linecap:butt;stroke-linejoin:miter;stroke-opacity:1;stroke-miterlimit:4;stroke-dasharray:none" id="path4173" d="m 16,11 8,5 -8,5"/>
 <path id="path4176" d="m 9,9 a 3,3 0 0 0 -3,3 3,3 0 0 0 3,3 3,3 0 0 0 3,-3 3,3 0 0 0 -3,-3 z m 7,0 a 3,3 0 0 0 -3,3 3,3 0 0 0 3,3 3,3 0 0 0 3,-3 3,3 0 0 0 -3,-3 z m 8,5 a 3,3 0 0 0 -3,3 3,3 0 0 0 3,3 3,3 0 0 0 3,-3 3,3 0 0 0 -3,-3 z M 9,19 a 3,3 0 0 0 -3,3 3,3 0 0 0 3,3 3,3 0 0 0 3,-3 3,3 0 0 0 -3,-3 z m 7,0 a 3,3 0 0 0 -3,3 3,3 0 0 0 3,3 3,3 0 0 0 3,-3 3,3 0 0 0 -3,-3 z" style="opacity:0.2;fill:#000000"/>
 <path style="fill:#ffffff;opacity:1" id="path4169" d="M 9 8 A 3 3 0 0 0 6 11 A 3 3 0 0 0 9 14 A 3 3 0 0 0 12 11 A 3 3 0 0 0 9 8 z M 16 8 A 3 3 0 0 0 13 11 A 3 3 0 0 0 16 14 A 3 3 0 0 0 19 11 A 3 3 0 0 0 16 8 z M 24 13 A 3 3 0 0 0 21 16 A 3 3 0 0 0 24 19 A 3 3 0 0 0 27 16 A 3 3 0 0 0 24 13 z M 9 18 A 3 3 0 0 0 6 21 A 3 3 0 0 0 9 24 A 3 3 0 0 0 12 21 A 3 3 0 0 0 9 18 z M 16 18 A 3 3 0 0 0 13 21 A 3 3 0 0 0 16 24 A 3 3 0 0 0 19 21 A 3 3 0 0 0 16 18 z"/>
</svg>
