<?xml version="1.0" encoding="UTF-8" standalone="no"?>
<!-- Created with Inkscape (http://www.inkscape.org/) -->

<svg
   xmlns:dc="http://purl.org/dc/elements/1.1/"
   xmlns:cc="http://creativecommons.org/ns#"
   xmlns:rdf="http://www.w3.org/1999/02/22-rdf-syntax-ns#"
   xmlns:svg="http://www.w3.org/2000/svg"
   xmlns="http://www.w3.org/2000/svg"
   xmlns:sodipodi="http://sodipodi.sourceforge.net/DTD/sodipodi-0.dtd"
   xmlns:inkscape="http://www.inkscape.org/namespaces/inkscape"
   width="128"
   height="128"
   viewBox="0 0 128 128"
   id="svg2"
   version="1.1"
   inkscape:version="0.92.2 5c3e80d, 2017-08-06"
   sodipodi:docname="metadata.svg">
  <defs
     id="defs4">
    <linearGradient
       id="linearGradient4561"
       x1="24"
       x2="44"
       y1="24"
       y2="24"
       gradientTransform="matrix(2.6,0,0,2.66668,1.6,922.36212)"
       gradientUnits="userSpaceOnUse">
      <stop
         offset="0"
         id="stop2" />
      <stop
         offset="1"
         stop-opacity="0"
         id="stop4" />
    </linearGradient>
  </defs>
  <sodipodi:namedview
     id="base"
     pagecolor="#ffffff"
     bordercolor="#666666"
     borderopacity="1.0"
     inkscape:pageopacity="0.0"
     inkscape:pageshadow="2"
     inkscape:zoom="2.52183"
     inkscape:cx="66.088282"
     inkscape:cy="68.79485"
     inkscape:document-units="px"
     inkscape:current-layer="layer1"
     showgrid="true"
     units="px"
     showguides="true"
     inkscape:guide-bbox="true"
     inkscape:window-width="1366"
     inkscape:window-height="717"
     inkscape:window-x="0"
     inkscape:window-y="25"
     inkscape:window-maximized="1">
    <inkscape:grid
       type="xygrid"
       id="grid4136"
       empspacing="4" />
    <sodipodi:guide
       position="8,140"
       orientation="1,0"
       id="guide4138"
       inkscape:label="Margin Left"
       inkscape:color="rgb(0,0,255)"
       inkscape:locked="false" />
    <sodipodi:guide
       position="120,140"
       orientation="1,0"
       id="guide4140"
       inkscape:label="Margin Right"
       inkscape:color="rgb(0,0,255)"
       inkscape:locked="false" />
    <sodipodi:guide
       position="-20,120"
       orientation="0,1"
       id="guide4142"
       inkscape:label="Margin Top"
       inkscape:color="rgb(0,0,255)"
       inkscape:locked="false" />
    <sodipodi:guide
       position="-16,8"
       orientation="0,1"
       id="guide4144"
       inkscape:label="Margin Bottom"
       inkscape:color="rgb(0,0,255)"
       inkscape:locked="false" />
    <sodipodi:guide
       position="8,8"
       orientation="-0.70710678,0.70710678"
       id="guide4146"
       inkscape:locked="false" />
    <sodipodi:guide
       position="72,56"
       orientation="0.70710678,0.70710678"
       id="guide4148"
       inkscape:locked="false" />
    <sodipodi:guide
       position="20,140"
       orientation="1,0"
       id="guide4150"
       inkscape:label="Rectangle Left"
       inkscape:color="rgb(0,0,255)"
       inkscape:locked="false" />
    <sodipodi:guide
       position="108,140"
       orientation="1,0"
       id="guide4152"
       inkscape:label="Rectangle Right"
       inkscape:color="rgb(0,0,255)"
       inkscape:locked="false" />
    <sodipodi:guide
       position="-20,116"
       orientation="0,1"
       id="guide4154"
       inkscape:label="Shadow Top"
       inkscape:color="rgb(0,0,255)"
       inkscape:locked="false" />
    <sodipodi:guide
       position="-16,12"
       orientation="0,1"
       id="guide4156"
       inkscape:label="Shadow Bottom"
       inkscape:color="rgb(0,0,255)"
       inkscape:locked="false" />
    <sodipodi:guide
       position="-20,104"
       orientation="0,1"
       id="guide4158"
       inkscape:label="Rectangle Top"
       inkscape:color="rgb(0,0,255)"
       inkscape:locked="false" />
    <sodipodi:guide
       position="-16,24"
       orientation="0,1"
       id="guide4160"
       inkscape:label="Rectangle Bottom"
       inkscape:color="rgb(0,0,255)"
       inkscape:locked="false" />
  </sodipodi:namedview>
  <metadata
     id="metadata7">
    <rdf:RDF>
      <cc:Work
         rdf:about="">
        <dc:format>image/svg+xml</dc:format>
        <dc:type
           rdf:resource="http://purl.org/dc/dcmitype/StillImage" />
        <dc:title></dc:title>
      </cc:Work>
    </rdf:RDF>
  </metadata>
  <g
     inkscape:label="Layer 1"
     inkscape:groupmode="layer"
     id="layer1"
     transform="translate(0,-924.36216)">
    <path
       style="opacity:0.2;stroke-width:4"
       d="m 62.75,943.91683 c -6.363516,0.38522 -12.356748,3.80241 -15.75,9.67969 l -36.40625,63.04688 c -1.76977,3.0653 -2.50879,6.411 -2.5,9.7188 H 40 v 16.1562 c 2.072564,-1.5338 3.871736,-3.5013 5.242188,-5.875 l 36.398436,-63.04688 c 5.4292,-9.40365 2.072124,-21.43656 -7.523436,-26.97656 -3.598336,-2.0775 -7.549076,-2.93426 -11.367188,-2.70313 z"
       id="path2"
       inkscape:connector-curvature="0" />
    <path
       style="opacity:0.2;stroke-width:4"
       d="m 91.968752,970.19027 c -3.784364,-0.30032 -7.67676,0.4953 -11.203128,2.53125 L 17.71875,1009.12 c -6.33125,3.6553 -9.7186,10.3406 -9.625,17.2422 H 40 v 16.0859 l 60.76562,-35.0859 c 9.40366,-5.4293 12.51657,-17.52169 6.97657,-27.11725 -3.4625,-5.99722 -9.466166,-9.55415 -15.773438,-10.05468 z"
       id="path4"
       inkscape:connector-curvature="0" />
    <rect
       style="opacity:0.2;stroke-width:4"
       width="112"
       height="40"
       x="8"
       y="1006.3622"
       rx="19.6"
       ry="20"
       id="rect6" />
    <path
       style="fill:#4f4f4f;stroke-width:4"
       d="m 28,930.36215 c -11.08,0 -20,8.74316 -20,19.60156 v 72.39849 h 32 v 16.0156 c 4.836508,-3.571 8,-9.1993 8,-15.6172 v -72.79689 c 0,-10.8584 -8.92,-19.60156 -20,-19.60156 z"
       id="path8"
       inkscape:connector-curvature="0" />
    <path
       style="opacity:0.1;fill:#ffffff;stroke-width:4"
       d="m 28,930.36215 c -11.08,0 -20,8.74316 -20,19.60156 v 4 c 0,-10.8584 8.92,-19.60156 20,-19.60156 11.08,0 20,8.74316 20,19.60156 v -4 c 0,-10.8584 -8.92,-19.60156 -20,-19.60156 z"
       id="path10"
       inkscape:connector-curvature="0" />
    <path
       style="fill:#4d4e99;stroke-width:4"
       d="m 62.75,939.91684 c -6.363516,0.38522 -12.356748,3.8024 -15.75,9.67969 l -36.40625,63.04687 c -1.76977,3.0653 -2.50879,6.411 -2.5,9.7188 H 40 v 16.1562 c 2.072564,-1.5338 3.871736,-3.5013 5.242188,-5.875 l 36.398436,-63.04687 c 5.4292,-9.40366 2.072124,-21.43657 -7.523436,-26.97657 -3.598336,-2.0775 -7.549076,-2.93425 -11.367188,-2.70312 z"
       id="path12"
       inkscape:connector-curvature="0" />
    <path
       style="opacity:0.1;fill:#ffffff;stroke-width:4"
       d="m 62.75,939.91684 c -6.363516,0.38522 -12.356748,3.8024 -15.75,9.67969 l -36.40625,63.04687 c -1.76977,3.0653 -2.50879,6.411 -2.5,9.7188 h 0.41406 c 0.38221,-1.9605 1.03024,-3.8903 2.08594,-5.7188 L 47,953.59653 c 3.393252,-5.87729 9.386484,-9.29447 15.75,-9.67969 3.818112,-0.23113 7.768852,0.62562 11.367188,2.70312 5.864144,3.38567 9.36948,9.19804 9.992188,15.35157 0.80094,-7.54153 -2.8645,-15.23639 -9.992188,-19.35157 -3.598336,-2.0775 -7.549076,-2.93425 -11.367188,-2.70312 z"
       id="path14"
       inkscape:connector-curvature="0" />
    <path
       style="fill:#e74949;stroke-width:4"
       d="m 91.968752,966.19027 c -3.784364,-0.30032 -7.67676,0.4953 -11.203128,2.53126 L 17.71875,1005.12 c -6.33125,3.6553 -9.7186,10.3406 -9.625,17.2422 H 40 v 16.0859 l 60.76562,-35.086 c 9.40366,-5.42915 12.51657,-17.52158 6.97657,-27.11714 -3.4625,-5.99722 -9.466166,-9.55415 -15.773438,-10.05469 z"
       id="path16"
       inkscape:connector-curvature="0" />
    <path
       style="opacity:0.1;fill:#ffffff;stroke-width:4"
       d="m 89.117188,966.17465 c -2.856564,0.1925 -5.706788,1.01991 -8.351564,2.54688 L 17.71875,1005.12 c -6.33125,3.6553 -9.7186,10.3406 -9.625,17.2422 h 0.375 c 1.00441,-5.3954 4.15841,-10.3026 9.25,-13.2422 l 63.046874,-36.39847 c 3.526368,-2.03596 7.418764,-2.83158 11.203128,-2.53126 6.307272,0.50054 12.310938,4.05747 15.773438,10.05469 1.48777,2.5769 2.30831,5.33412 2.59375,8.09375 0.39601,-4.04359 -0.3822,-8.26322 -2.59375,-12.09375 -3.4625,-5.99722 -9.466166,-9.55415 -15.773438,-10.05469 -0.946092,-0.0751 -1.899376,-0.0798 -2.851564,-0.0156 z"
       id="path18"
       inkscape:connector-curvature="0" />
    <rect
       style="fill:#ffc255;stroke-width:4"
       width="112"
       height="40"
       x="8"
       y="1002.3622"
       rx="19.6"
       ry="20"
       id="rect20" />
    <circle
       style="opacity:0.2;stroke-width:4"
       cx="28"
       cy="1026.3622"
       r="8"
       id="circle22" />
    <circle
       style="fill:#ffffff;stroke-width:4"
       cx="28"
       cy="1022.3622"
       r="8"
       id="circle24" />
    <path
       style="opacity:0.1;fill:#ffffff;stroke-width:4"
       d="M 27.60156,1002.3621 C 16.74316,1002.3621 8,1011.2822 8,1022.3622 c 0,0.6766 0.0379,1.3409 0.10156,2 0.97933,-10.132 9.30475,-18 19.5,-18 h 72.79688 c 10.19525,0 18.52067,7.868 19.5,18 0.0637,-0.6591 0.10156,-1.3234 0.10156,-2 0,-11.08 -8.74316,-20.0001 -19.60156,-20.0001 z"
       id="path26"
       inkscape:connector-curvature="0" />
  </g>
</svg>
