<svg xmlns="http://www.w3.org/2000/svg" width="32" height="32" version="1.1" viewBox="0 0 32 32">
 <circle style="opacity:0.2" cx="16" cy="17" r="14"/>
 <circle style="fill:#db3c30" cx="16" cy="16" r="14"/>
 <rect style="opacity:0.2" width="4" height="20" x="15" y="-26" transform="rotate(90)"/>
 <rect style="fill:#ffffff" width="4" height="20" x="14" y="-26" transform="rotate(90)"/>
 <path style="fill:#ffffff;opacity:0.2" d="M 16 2 A 14 14 0 0 0 2 16 A 14 14 0 0 0 2.0215 16.586 A 14 14 0 0 1 16 3 A 14 14 0 0 1 29.979 16.414 A 14 14 0 0 0 30 16 A 14 14 0 0 0 16 2 z"/>
</svg>
