<?xml version="1.0" encoding="UTF-8" standalone="no"?>
<!-- Created with Inkscape (http://www.inkscape.org/) -->

<svg
   xmlns:dc="http://purl.org/dc/elements/1.1/"
   xmlns:cc="http://creativecommons.org/ns#"
   xmlns:rdf="http://www.w3.org/1999/02/22-rdf-syntax-ns#"
   xmlns:svg="http://www.w3.org/2000/svg"
   xmlns="http://www.w3.org/2000/svg"
   xmlns:sodipodi="http://sodipodi.sourceforge.net/DTD/sodipodi-0.dtd"
   xmlns:inkscape="http://www.inkscape.org/namespaces/inkscape"
   width="128"
   height="128"
   viewBox="0 0 128 128"
   id="svg2"
   version="1.1"
   inkscape:version="0.92.2 5c3e80d, 2017-08-06"
   sodipodi:docname="news.svg">
  <defs
     id="defs4">
    <linearGradient
       id="linearGradient4561"
       x1="24"
       x2="44"
       y1="24"
       y2="24"
       gradientTransform="matrix(2.6,0,0,2.66668,1.6,922.36212)"
       gradientUnits="userSpaceOnUse">
      <stop
         offset="0"
         id="stop2" />
      <stop
         offset="1"
         stop-opacity="0"
         id="stop4" />
    </linearGradient>
  </defs>
  <sodipodi:namedview
     id="base"
     pagecolor="#ffffff"
     bordercolor="#666666"
     borderopacity="1.0"
     inkscape:pageopacity="0.0"
     inkscape:pageshadow="2"
     inkscape:zoom="2.52183"
     inkscape:cx="66.088282"
     inkscape:cy="68.79485"
     inkscape:document-units="px"
     inkscape:current-layer="layer1"
     showgrid="true"
     units="px"
     showguides="true"
     inkscape:guide-bbox="true"
     inkscape:window-width="1366"
     inkscape:window-height="717"
     inkscape:window-x="0"
     inkscape:window-y="25"
     inkscape:window-maximized="1">
    <inkscape:grid
       type="xygrid"
       id="grid4136"
       empspacing="4" />
    <sodipodi:guide
       position="8,140"
       orientation="1,0"
       id="guide4138"
       inkscape:label="Margin Left"
       inkscape:color="rgb(0,0,255)"
       inkscape:locked="false" />
    <sodipodi:guide
       position="120,140"
       orientation="1,0"
       id="guide4140"
       inkscape:label="Margin Right"
       inkscape:color="rgb(0,0,255)"
       inkscape:locked="false" />
    <sodipodi:guide
       position="-20,120"
       orientation="0,1"
       id="guide4142"
       inkscape:label="Margin Top"
       inkscape:color="rgb(0,0,255)"
       inkscape:locked="false" />
    <sodipodi:guide
       position="-16,8"
       orientation="0,1"
       id="guide4144"
       inkscape:label="Margin Bottom"
       inkscape:color="rgb(0,0,255)"
       inkscape:locked="false" />
    <sodipodi:guide
       position="8,8"
       orientation="-0.70710678,0.70710678"
       id="guide4146"
       inkscape:locked="false" />
    <sodipodi:guide
       position="72,56"
       orientation="0.70710678,0.70710678"
       id="guide4148"
       inkscape:locked="false" />
    <sodipodi:guide
       position="20,140"
       orientation="1,0"
       id="guide4150"
       inkscape:label="Rectangle Left"
       inkscape:color="rgb(0,0,255)"
       inkscape:locked="false" />
    <sodipodi:guide
       position="108,140"
       orientation="1,0"
       id="guide4152"
       inkscape:label="Rectangle Right"
       inkscape:color="rgb(0,0,255)"
       inkscape:locked="false" />
    <sodipodi:guide
       position="-20,116"
       orientation="0,1"
       id="guide4154"
       inkscape:label="Shadow Top"
       inkscape:color="rgb(0,0,255)"
       inkscape:locked="false" />
    <sodipodi:guide
       position="-16,12"
       orientation="0,1"
       id="guide4156"
       inkscape:label="Shadow Bottom"
       inkscape:color="rgb(0,0,255)"
       inkscape:locked="false" />
    <sodipodi:guide
       position="-20,104"
       orientation="0,1"
       id="guide4158"
       inkscape:label="Rectangle Top"
       inkscape:color="rgb(0,0,255)"
       inkscape:locked="false" />
    <sodipodi:guide
       position="-16,24"
       orientation="0,1"
       id="guide4160"
       inkscape:label="Rectangle Bottom"
       inkscape:color="rgb(0,0,255)"
       inkscape:locked="false" />
  </sodipodi:namedview>
  <metadata
     id="metadata7">
    <rdf:RDF>
      <cc:Work
         rdf:about="">
        <dc:format>image/svg+xml</dc:format>
        <dc:type
           rdf:resource="http://purl.org/dc/dcmitype/StillImage" />
        <dc:title></dc:title>
      </cc:Work>
    </rdf:RDF>
  </metadata>
  <g
     inkscape:label="Layer 1"
     inkscape:groupmode="layer"
     id="layer1"
     transform="translate(0,-924.36216)">
    <path
       d="m 115.9992,1022.7622 c 0,-52.00006 -36.4,-88.40006 -88.4,-88.40006 -7.8,0 -15.6,7.8 -15.6,15.6 v 72.80006 c 0,7.8 7.8,15.6 15.6,15.6 h 72.8 c 7.8,0 15.6,-7.8 15.6,-15.6 z"
       id="path2"
       inkscape:connector-curvature="0"
       style="fill:#f59335;stroke-width:4" />
    <path
       d="m 23.9992,964.36214 c 0,4.224 1.7964,6 6,6 29.824,0 54,24.176 54,54.00006 0,3.732 2.036,6 6,6 4.08,0 6,-2.384 6,-6 0,-36.45206 -29.548,-66.00006 -66,-66.00006 -3.9896,0 -6,1.942 -6,6 z m 0,24 c 0,4.1096 1.68092,6 6,6 16.5688,0 30,13.43156 30,30.00006 0,3.532 2.02756,6 6,6 3.876,0 6,-2.152 6,-6 0,-23.1961 -18.804,-42.00006 -42,-42.00006 -3.8744,0 -6,1.712 -6,6 z m 12,17.99996 c -6.6276,0 -12,5.3721 -12,12.0001 0,6.628 5.3724,12 12,12 6.628,0 12,-5.372 12,-12 0,-6.628 -5.372,-12.0001 -12,-12.0001 z"
       id="path4"
       inkscape:connector-curvature="0"
       style="opacity:0.2;stroke-width:4" />
    <path
       d="m 23.9992,960.36214 c 0,4.224 1.7964,6 6,6 29.824,0 54,24.176 54,54.00006 0,3.732 2.036,6 6,6 4.08,0 6,-2.384 6,-6 0,-36.45206 -29.548,-66.00006 -66,-66.00006 -3.9896,0 -6,1.942 -6,6 z m 0,24 c 0,4.1096 1.68092,6 6,6 16.5688,0 30,13.43156 30,30.00006 0,3.532 2.02756,6 6,6 3.876,0 6,-2.152 6,-6 0,-23.19606 -18.804,-42.00006 -42,-42.00006 -3.8744,0 -6,1.712 -6,6 z m 12,17.99996 c -6.6276,0 -12,5.372 -12,12.0001 0,6.628 5.3724,12 12,12 6.628,0 12,-5.372 12,-12 0,-6.6281 -5.372,-12.0001 -12,-12.0001 z"
       id="path6"
       inkscape:connector-curvature="0"
       style="fill:#ffffff;stroke-width:4" />
    <path
       d="m 27.6008,934.36214 c -7.8,0 -15.6016,7.8016 -15.6016,15.6016 v 4 c 0,-7.8 7.8016,-15.6016 15.6016,-15.6016 50.868,0 86.78,34.84 88.32,85.03206 0.012,-0.212 0.08,-0.42 0.08,-0.632 0,-52.00006 -36.4,-88.40006 -88.4,-88.40006 z"
       id="path8"
       inkscape:connector-curvature="0"
       style="opacity:0.1;fill:#ffffff;stroke-width:4" />
    <path
       d="m 11.9992,1022.7622 v 4 c 0,7.8 7.8016,15.6 15.6016,15.6 h 72.8 c 7.8,0 15.6,-7.8 15.6,-15.6 0,-1.136 -0.044,-2.252 -0.08,-3.368 -0.404,7.58 -7.932,14.968 -15.52,14.968 h -72.8 c -7.7984,0 -15.6,-7.8 -15.6,-15.6 z"
       id="path10"
       inkscape:connector-curvature="0"
       style="opacity:0.2;stroke-width:4" />
  </g>
</svg>
