<svg xmlns="http://www.w3.org/2000/svg" id="svg2" width="32" height="32" version="1">
 <path id="path4" d="M 4.5499,2.001 A 2.4767,2.197 0 0 0 2,4.1967 l 0,23.606 a 2.4767,2.197 0 0 0 3.7158,1.903 l 11.522,-5.903 11.523,-5.901 a 2.4767,2.197 0 0 0 0,-3.8059 L 17.2378,8.1961 5.7158,2.2935 A 2.4767,2.197 0 0 0 4.5497,2.0008 Z" style="fill:#3eb456;fill-opacity:1"/>
 <path id="path10" d="M 4.5508,2 A 2.4767,2.197 0 0 0 2,4.1973 l 0,0.998 A 2.4767,2.197 0 0 1 4.5508,3 2.4767,2.197 0 0 1 5.7148,3.293 l 11.523,5.9043 11.524,5.8987 a 2.4767,2.197 0 0 1 1.172,1.402 2.4767,2.197 0 0 0 -1.172,-2.402 L 17.2378,8.1973 5.7148,2.293 A 2.4767,2.197 0 0 0 4.5506,2 Z" style="opacity:0.2;fill:#ffffff"/>
 <path style="opacity:0.2" id="path12" d="m 29.934,16.499 a 2.4767,2.197 0 0 1 -1.1719,1.4043 l -11.524,5.9 -11.523,5.903 a 2.4767,2.197 0 0 1 -3.715,-1.903 l 0,1 a 2.4767,2.197 0 0 0 3.7148,1.9023 l 11.523,-5.9023 11.523,-5.9004 a 2.4767,2.197 0 0 0 1.1719,-2.4043 z"/>
</svg>
