<svg xmlns="http://www.w3.org/2000/svg" width="32" height="32" version="1.1" viewBox="0 0 32 32">
 <circle style="opacity:0.2" cx="16" cy="17" r="14"/>
 <circle style="fill:#4caf50" cx="16" cy="16" r="14"/>
 <path style="opacity:0.2" d="M 23.07,9.8 14.586,18.2 8.9294,12.6 6.1012,15.4 11.757,21.2 14.586,24 25.898,12.6 Z"/>
 <path style="fill:#ffffff" d="M 23.07,8.8 14.586,17.2 8.9294,11.6 6.1012,14.4 11.757,20.2 14.586,23 25.898,11.6 Z"/>
 <path style="fill:#ffffff;opacity:0.2" d="M 16 2 A 14 14 0 0 0 2 16 A 14 14 0 0 0 2.0215 16.586 A 14 14 0 0 1 16 3 A 14 14 0 0 1 29.979 16.414 A 14 14 0 0 0 30 16 A 14 14 0 0 0 16 2 z"/>
</svg>
