<svg xmlns="http://www.w3.org/2000/svg" width="32" height="32" version="1.1" viewBox="0 0 32 32">
 <g transform="translate(0,-1020.4)">
  <g transform="matrix(0.25,0,0,0.25,0,789.26)">
   <g>
    <rect style="fill:#c2c2c2" width="76" height="76" x="930.36" y="-120" rx="6" ry="6" transform="rotate(90)"/>
    <path style="opacity:0.2" d="M 44,1000.4 V 1004.4 C 44,1007.7 46.676,1010.4 50,1010.4 H 114 C 117.32,1010.4 120,1007.7 120,1004.4 V 1000.4 C 120,1003.7 117.32,1006.4 114,1006.4 H 50 C 46.676,1006.4 44,1003.7 44,1000.4 Z"/>
   </g>
   <path style="opacity:0.1;fill:#ffffff" d="M 50,930.36 C 46.676,930.36 44,933.04 44,936.36 V 940.36 C 44,937.04 46.676,934.36 50,934.36 H 114 C 117.32,934.36 120,937.04 120,940.36 V 936.36 C 120,933.04 117.32,930.36 114,930.36 Z"/>
   <path style="opacity:0.1;fill:#ffffff" d="M 14,966.36 C 10.676,966.36 8,969.04 8,972.36 V 976.36 C 8,973.04 10.676,970.36 14,970.36 H 78 C 81.324,970.36 84,973.04 84,976.36 V 972.36 C 84,969.04 81.324,966.36 78,966.36 Z"/>
   <g transform="translate(75.863,-55.307)">
    <path style="fill:#4caf50" d="M 6.1368,992.53 A 32,32 0 0 0 -25.863,1024.5 32,32 0 0 0 6.1368,1056.5 32,32 0 0 0 38.137,1024.5 32,32 0 0 0 6.1368,992.53 Z"/>
    <path style="opacity:0.2;fill:#ffffff" d="M 6.1368,992.53 A 32,32 0 0 0 -25.863,1024.5 32,32 0 0 0 -25.814,1025.9 32,32 0 0 1 6.1357,994.81 32,32 0 0 1 38.088,1025.5 32,32 0 0 0 38.136,1024.5 32,32 0 0 0 6.1357,992.53 Z"/>
    <path style="opacity:0.2" d="M 38.089,1025.5 A 32,32 0 0 1 6.1368,1056.5 32,32 0 0 1 -25.813,1025.9 32,32 0 0 0 -25.863,1026.8 32,32 0 0 0 6.1368,1058.8 32,32 0 0 0 38.137,1026.8 32,32 0 0 0 38.089,1025.5 Z"/>
    <path style="opacity:0.2" d="M 2.1368,1006.8 V 1022.8 H -13.863 V 1030.8 H 2.1368 V 1046.8 H 10.137 V 1030.8 H 26.137 V 1022.8 H 10.137 V 1006.8 Z"/>
    <path style="fill:#ffffff" d="M 2.1368,1004.5 V 1020.5 H -13.863 V 1028.5 H 2.1368 V 1044.5 H 10.137 V 1028.5 H 26.137 V 1020.5 H 10.137 V 1004.5 Z"/>
   </g>
   <g transform="translate(27.915,27.6)">
    <rect style="fill:#d3d3d3" width="76" height="76" x="938.76" y="-56.09" rx="6" ry="6" transform="rotate(90)"/>
    <path style="opacity:0.2" d="M -19.915,1008.8 V 1012.8 C -19.915,1016.1 -17.239,1018.8 -13.915,1018.8 H 50.085 C 53.409,1018.8 56.085,1016.1 56.085,1012.8 V 1008.8 C 56.085,1012.1 53.409,1014.8 50.085,1014.8 H -13.915 C -17.239,1014.8 -19.915,1012.1 -19.915,1008.8 Z"/>
   </g>
   <g transform="translate(39.863,-19.307)">
    <path style="fill:#4caf50" d="M 6.1368,992.53 A 32,32 0 0 0 -25.863,1024.5 32,32 0 0 0 6.1368,1056.5 32,32 0 0 0 38.137,1024.5 32,32 0 0 0 6.1368,992.53 Z"/>
    <path style="opacity:0.2;fill:#ffffff" d="M 6.1368,992.53 A 32,32 0 0 0 -25.863,1024.5 32,32 0 0 0 -25.814,1025.9 32,32 0 0 1 6.1357,994.81 32,32 0 0 1 38.088,1025.5 32,32 0 0 0 38.136,1024.5 32,32 0 0 0 6.1357,992.53 Z"/>
    <path style="opacity:0.2" d="M 38.089,1025.5 A 32,32 0 0 1 6.1368,1056.5 32,32 0 0 1 -25.813,1025.9 32,32 0 0 0 -25.863,1026.8 32,32 0 0 0 6.1368,1058.8 32,32 0 0 0 38.137,1026.8 32,32 0 0 0 38.089,1025.5 Z"/>
    <path style="opacity:0.2" d="M 2.1368,1006.8 V 1022.8 H -13.863 V 1030.8 H 2.1368 V 1046.8 H 10.137 V 1030.8 H 26.137 V 1022.8 H 10.137 V 1006.8 Z"/>
    <path style="fill:#ffffff" d="M 2.1368,1004.5 V 1020.5 H -13.863 V 1028.5 H 2.1368 V 1044.5 H 10.137 V 1028.5 H 26.137 V 1020.5 H 10.137 V 1004.5 Z"/>
   </g>
  </g>
 </g>
</svg>
