<svg xmlns="http://www.w3.org/2000/svg" id="svg2" width="32" height="32" version="1.1" viewBox="0 0 32 32">
 <circle style="opacity:0.2;fill:#000000" id="circle4180" cx="20" cy="13" r="10"/>
 <circle id="circle4182" cx="20" cy="12" r="10" style="fill:#48934a;fill-opacity:1"/>
 <path style="opacity:0.2;fill:#000000" id="path4184" d="m 18,6 0,5 -5,0 0,4 2.5,0 2.5,0 0,5 4,0 0,-5 2.5,0 2.5,0 0,-4 -5,0 0,-5 z"/>
 <path id="path4186" d="m 18,5 0,5 -5,0 0,4 2.5,0 2.5,0 0,5 4,0 0,-5 2.5,0 2.5,0 0,-4 -5,0 0,-5 z" style="fill:#3f3f3f;fill-opacity:1"/>
 <path id="path4188" d="M 20,2 A 10,10 0 0 0 10,12 10,10 0 0 0 10.021484,12.585938 10,10 0 0 1 20,3 10,10 0 0 1 29.978516,12.414062 10,10 0 0 0 30,12 10,10 0 0 0 20,2 Z" style="opacity:0.1;fill:#ffffff"/>
 <circle id="circle4162" cx="12" cy="21" r="10" style="opacity:0.2;fill:#000000"/>
 <circle style="fill:#97c950;fill-opacity:1" id="circle6" cx="12" cy="20" r="10"/>
 <path id="path4164" d="m 10,14 0,5 -5,0 0,4 2.5,0 2.5,0 0,5 4,0 0,-5 2.5,0 2.5,0 0,-4 -5,0 0,-5 z" style="opacity:0.2;fill:#000000"/>
 <path style="fill:#3f3f3f;fill-opacity:1" id="path10" d="m 10,13 0,5 -5,0 0,4 2.5,0 2.5,0 0,5 4,0 0,-5 2.5,0 2.5,0 0,-4 -5,0 0,-5 z"/>
 <path style="opacity:0.2;fill:#ffffff" id="circle4166" d="M 12,10 A 10,10 0 0 0 2,20 10,10 0 0 0 2.0214844,20.585938 10,10 0 0 1 12,11 10,10 0 0 1 21.978516,20.414062 10,10 0 0 0 22,20 10,10 0 0 0 12,10 Z"/>
</svg>
