<svg xmlns="http://www.w3.org/2000/svg" width="32" height="32" version="1.1" viewBox="0 0 32 32">
 <circle style="opacity:0.2" cx="16" cy="17" r="14"/>
 <circle style="fill:#4caf50" cx="16" cy="16" r="14"/>
 <path style="opacity:0.2" d="M 14,7 V 15 H 6 V 19 H 14 V 27 H 18 V 19 H 26 V 15 H 18 V 7 Z"/>
 <path style="fill:#ffffff" d="M 14,6 V 14 H 6 V 18 H 14 V 26 H 18 V 18 H 26 V 14 H 18 V 6 Z"/>
 <path style="fill:#ffffff;opacity:0.2" d="M 16 2 A 14 14 0 0 0 2 16 A 14 14 0 0 0 2.0215 16.586 A 14 14 0 0 1 16 3 A 14 14 0 0 1 29.979 16.414 A 14 14 0 0 0 30 16 A 14 14 0 0 0 16 2 z"/>
</svg>
