<?xml version="1.0" encoding="UTF-8" standalone="no"?>
<svg
   xmlns:dc="http://purl.org/dc/elements/1.1/"
   xmlns:cc="http://creativecommons.org/ns#"
   xmlns:rdf="http://www.w3.org/1999/02/22-rdf-syntax-ns#"
   xmlns:svg="http://www.w3.org/2000/svg"
   xmlns="http://www.w3.org/2000/svg"
   xmlns:sodipodi="http://sodipodi.sourceforge.net/DTD/sodipodi-0.dtd"
   xmlns:inkscape="http://www.inkscape.org/namespaces/inkscape"
   width="32"
   height="32"
   version="1.1"
   viewBox="0 0 32 32"
   id="svg2"
   inkscape:version="0.91 r13725"
   sodipodi:docname="plusplus.svg">
  <metadata
     id="metadata18">
    <rdf:RDF>
      <cc:Work
         rdf:about="">
        <dc:format>image/svg+xml</dc:format>
        <dc:type
           rdf:resource="http://purl.org/dc/dcmitype/StillImage" />
        <dc:title></dc:title>
      </cc:Work>
    </rdf:RDF>
  </metadata>
  <defs
     id="defs16" />
  <sodipodi:namedview
     pagecolor="#ffffff"
     bordercolor="#666666"
     borderopacity="1"
     objecttolerance="10"
     gridtolerance="10"
     guidetolerance="10"
     inkscape:pageopacity="0"
     inkscape:pageshadow="2"
     inkscape:window-width="1920"
     inkscape:window-height="1022"
     id="namedview14"
     showgrid="true"
     inkscape:zoom="13.76"
     inkscape:cx="16"
     inkscape:cy="16"
     inkscape:window-x="0"
     inkscape:window-y="28"
     inkscape:window-maximized="1"
     inkscape:current-layer="svg2">
    <inkscape:grid
       type="xygrid"
       id="grid4160" />
  </sodipodi:namedview>
  <circle
     style="opacity:0.2;fill:#000000"
     cx="20"
     cy="13"
     r="10"
     id="circle4180" />
  <circle
     id="circle4182"
     r="10"
     cy="12"
     cx="20"
     style="fill:#48934a;fill-opacity:1" />
  <path
     inkscape:connector-curvature="0"
     style="opacity:0.2;fill:#000000"
     d="m 18,6 0,5 -5,0 0,4 2.5,0 2.5,0 0,5 4,0 0,-5 2.5,0 2.5,0 0,-4 -5,0 0,-5 z"
     id="path4184"
     sodipodi:nodetypes="ccccccccccccccc" />
  <path
     sodipodi:nodetypes="ccccccccccccccc"
     id="path4186"
     d="m 18,5 0,5 -5,0 0,4 2.5,0 2.5,0 0,5 4,0 0,-5 2.5,0 2.5,0 0,-4 -5,0 0,-5 z"
     style="fill:#3f3f3f;fill-opacity:1"
     inkscape:connector-curvature="0" />
  <path
     inkscape:connector-curvature="0"
     id="path4188"
     d="M 20,2 A 10,10 0 0 0 10,12 10,10 0 0 0 10.021484,12.585938 10,10 0 0 1 20,3 10,10 0 0 1 29.978516,12.414062 10,10 0 0 0 30,12 10,10 0 0 0 20,2 Z"
     style="opacity:0.1;fill:#ffffff" />
  <circle
     id="circle4162"
     r="10"
     cy="21"
     cx="12"
     style="opacity:0.2;fill:#000000" />
  <circle
     style="fill:#97c950;fill-opacity:1"
     cx="12"
     cy="20"
     r="10"
     id="circle6" />
  <path
     sodipodi:nodetypes="ccccccccccccccc"
     id="path4164"
     d="m 10,14 0,5 -5,0 0,4 2.5,0 2.5,0 0,5 4,0 0,-5 2.5,0 2.5,0 0,-4 -5,0 0,-5 z"
     style="opacity:0.2;fill:#000000"
     inkscape:connector-curvature="0" />
  <path
     inkscape:connector-curvature="0"
     style="fill:#3f3f3f;fill-opacity:1"
     d="m 10,13 0,5 -5,0 0,4 2.5,0 2.5,0 0,5 4,0 0,-5 2.5,0 2.5,0 0,-4 -5,0 0,-5 z"
     id="path10"
     sodipodi:nodetypes="ccccccccccccccc" />
  <path
     inkscape:connector-curvature="0"
     style="opacity:0.2;fill:#ffffff"
     d="M 12,10 A 10,10 0 0 0 2,20 10,10 0 0 0 2.0214844,20.585938 10,10 0 0 1 12,11 10,10 0 0 1 21.978516,20.414062 10,10 0 0 0 22,20 10,10 0 0 0 12,10 Z"
     id="circle4166" />
</svg>
