<?xml version="1.0" encoding="UTF-8" standalone="no"?>
<svg
   xmlns:dc="http://purl.org/dc/elements/1.1/"
   xmlns:cc="http://creativecommons.org/ns#"
   xmlns:rdf="http://www.w3.org/1999/02/22-rdf-syntax-ns#"
   xmlns:svg="http://www.w3.org/2000/svg"
   xmlns="http://www.w3.org/2000/svg"
   xmlns:sodipodi="http://sodipodi.sourceforge.net/DTD/sodipodi-0.dtd"
   xmlns:inkscape="http://www.inkscape.org/namespaces/inkscape"
   width="32"
   height="32"
   version="1"
   id="svg2"
   inkscape:version="0.91 r13725"
   sodipodi:docname="previous.svg">
  <metadata
     id="metadata18">
    <rdf:RDF>
      <cc:Work
         rdf:about="">
        <dc:format>image/svg+xml</dc:format>
        <dc:type
           rdf:resource="http://purl.org/dc/dcmitype/StillImage" />
        <dc:title></dc:title>
      </cc:Work>
    </rdf:RDF>
  </metadata>
  <defs
     id="defs16" />
  <sodipodi:namedview
     pagecolor="#ffffff"
     bordercolor="#666666"
     borderopacity="1"
     objecttolerance="10"
     gridtolerance="10"
     guidetolerance="10"
     inkscape:pageopacity="0"
     inkscape:pageshadow="2"
     inkscape:window-width="1920"
     inkscape:window-height="1022"
     id="namedview14"
     showgrid="false"
     inkscape:zoom="7.375"
     inkscape:cx="16"
     inkscape:cy="16"
     inkscape:window-x="0"
     inkscape:window-y="28"
     inkscape:window-maximized="1"
     inkscape:current-layer="svg2" />
  <path
     inkscape:connector-curvature="0"
     d="m 27.44982,2.001 a 2.4767,2.197 0 0 1 2.5499,2.1957 l 0,23.606 a 2.4767,2.197 0 0 1 -3.7158,1.903 l -11.522,-5.903 -11.523,-5.901 a 2.4767,2.197 0 0 1 0,-3.8059 l 11.523,-5.8997 11.522,-5.9026 a 2.4767,2.197 0 0 1 1.1661,-0.2927 z"
     id="path4"
     style="fill:#3eb456;fill-opacity:1" />
  <path
     inkscape:connector-curvature="0"
     d="m 27.44892,2 a 2.4767,2.197 0 0 1 2.5508,2.1973 l 0,0.998 A 2.4767,2.197 0 0 0 27.44892,3 a 2.4767,2.197 0 0 0 -1.164,0.293 l -11.523,5.9043 -11.524,5.8987 a 2.4767,2.197 0 0 0 -1.172,1.402 2.4767,2.197 0 0 1 1.172,-2.402 l 11.524,-5.8987 11.523,-5.9043 A 2.4767,2.197 0 0 1 27.44912,2 Z"
     id="path10"
     style="opacity:0.2;fill:#ffffff" />
  <path
     style="opacity:0.2"
     inkscape:connector-curvature="0"
     d="m 2.06572,16.499 a 2.4767,2.197 0 0 0 1.1719,1.4043 l 11.524,5.9 11.523,5.903 a 2.4767,2.197 0 0 0 3.715,-1.903 l 0,1 a 2.4767,2.197 0 0 1 -3.7148,1.9023 l -11.523,-5.9023 -11.523,-5.9004 a 2.4767,2.197 0 0 1 -1.1719,-2.4043 z"
     id="path12" />
</svg>
