<svg xmlns="http://www.w3.org/2000/svg" id="svg2" width="32" height="32" version="1">
 <path id="path4" d="m 27.44982,2.001 a 2.4767,2.197 0 0 1 2.5499,2.1957 l 0,23.606 a 2.4767,2.197 0 0 1 -3.7158,1.903 l -11.522,-5.903 -11.523,-5.901 a 2.4767,2.197 0 0 1 0,-3.8059 l 11.523,-5.8997 11.522,-5.9026 a 2.4767,2.197 0 0 1 1.1661,-0.2927 z" style="fill:#3eb456;fill-opacity:1"/>
 <path id="path10" d="m 27.44892,2 a 2.4767,2.197 0 0 1 2.5508,2.1973 l 0,0.998 A 2.4767,2.197 0 0 0 27.44892,3 a 2.4767,2.197 0 0 0 -1.164,0.293 l -11.523,5.9043 -11.524,5.8987 a 2.4767,2.197 0 0 0 -1.172,1.402 2.4767,2.197 0 0 1 1.172,-2.402 l 11.524,-5.8987 11.523,-5.9043 A 2.4767,2.197 0 0 1 27.44912,2 Z" style="opacity:0.2;fill:#ffffff"/>
 <path style="opacity:0.2" id="path12" d="m 2.06572,16.499 a 2.4767,2.197 0 0 0 1.1719,1.4043 l 11.524,5.9 11.523,5.903 a 2.4767,2.197 0 0 0 3.715,-1.903 l 0,1 a 2.4767,2.197 0 0 1 -3.7148,1.9023 l -11.523,-5.9023 -11.523,-5.9004 a 2.4767,2.197 0 0 1 -1.1719,-2.4043 z"/>
</svg>
