<?xml version="1.0" encoding="UTF-8" standalone="no"?>
<svg
   xmlns:dc="http://purl.org/dc/elements/1.1/"
   xmlns:cc="http://creativecommons.org/ns#"
   xmlns:rdf="http://www.w3.org/1999/02/22-rdf-syntax-ns#"
   xmlns:svg="http://www.w3.org/2000/svg"
   xmlns="http://www.w3.org/2000/svg"
   xmlns:sodipodi="http://sodipodi.sourceforge.net/DTD/sodipodi-0.dtd"
   xmlns:inkscape="http://www.inkscape.org/namespaces/inkscape"
   width="32"
   height="32"
   version="1"
   id="svg2"
   inkscape:version="0.91 r13725"
   sodipodi:docname="publisher.svg">
  <metadata
     id="metadata24">
    <rdf:RDF>
      <cc:Work
         rdf:about="">
        <dc:format>image/svg+xml</dc:format>
        <dc:type
           rdf:resource="http://purl.org/dc/dcmitype/StillImage" />
      </cc:Work>
    </rdf:RDF>
  </metadata>
  <defs
     id="defs22" />
  <sodipodi:namedview
     pagecolor="#ffffff"
     bordercolor="#666666"
     borderopacity="1"
     objecttolerance="10"
     gridtolerance="10"
     guidetolerance="10"
     inkscape:pageopacity="0"
     inkscape:pageshadow="2"
     inkscape:window-width="1920"
     inkscape:window-height="1022"
     id="namedview20"
     showgrid="true"
     inkscape:object-nodes="true"
     inkscape:zoom="22.36"
     inkscape:cx="16"
     inkscape:cy="16"
     inkscape:window-x="0"
     inkscape:window-y="28"
     inkscape:window-maximized="1"
     inkscape:current-layer="svg2">
    <inkscape:grid
       type="xygrid"
       id="grid4176" />
  </sodipodi:namedview>
  <rect
     style="opacity:0.2;fill:#000000;fill-opacity:1"
     id="rect4182"
     ry="1.4170001"
     rx="1.1999999"
     y="13"
     x="4"
     height="17"
     width="24" />
  <path
     fill="#b7b7b7"
     d="m6 3h20v10h-20z"
     id="path4"
     style="fill:#cccccc;fill-opacity:1" />
  <rect
     width="24"
     height="17"
     x="4"
     y="12"
     rx="1.1999999"
     ry="1.4170001"
     id="rect6"
     style="fill:#3f3f3f;fill-opacity:1" />
  <path
     fill="#fff"
     opacity=".2"
     d="m6 3v1h20v-1h-20z"
     id="path18" />
  <rect
     width="28"
     height="6"
     x="2"
     y="11"
     rx="1"
     ry="1"
     id="rect4184"
     style="opacity:0.2;fill:#000000;fill-opacity:1" />
  <rect
     style="fill:#4f4f4f;fill-opacity:1"
     id="rect4152"
     ry="1"
     rx="1"
     y="10"
     x="2"
     height="6"
     width="28" />
  <rect
     style="opacity:0.5;fill:#000000;fill-opacity:1;stroke:none;stroke-width:3;stroke-miterlimit:4;stroke-dasharray:none;stroke-opacity:1"
     id="rect4188"
     width="8"
     height="1"
     x="9"
     y="5" />
  <rect
     y="7"
     x="9"
     height="1"
     width="6"
     id="rect4190"
     style="opacity:0.5;fill:#000000;fill-opacity:1;stroke:none;stroke-width:3;stroke-miterlimit:4;stroke-dasharray:none;stroke-opacity:1" />
  <rect
     style="opacity:0.5;fill:#000000;fill-opacity:1;stroke:none;stroke-width:3;stroke-miterlimit:4;stroke-dasharray:none;stroke-opacity:1"
     id="rect4192"
     width="6"
     height="1"
     x="16"
     y="7" />
  <rect
     y="9"
     x="9"
     height="1"
     width="3"
     id="rect4194"
     style="opacity:0.5;fill:#000000;fill-opacity:1;stroke:none;stroke-width:3;stroke-miterlimit:4;stroke-dasharray:none;stroke-opacity:1" />
  <rect
     style="opacity:0.5;fill:#000000;fill-opacity:1;stroke:none;stroke-width:3;stroke-miterlimit:4;stroke-dasharray:none;stroke-opacity:1"
     id="rect4196"
     width="3"
     height="1"
     x="13"
     y="9" />
  <rect
     y="9"
     x="17"
     height="1"
     width="4"
     id="rect4198"
     style="opacity:0.5;fill:#000000;fill-opacity:1;stroke:none;stroke-width:3;stroke-miterlimit:4;stroke-dasharray:none;stroke-opacity:1" />
  <rect
     y="5"
     x="18"
     height="1"
     width="5"
     id="rect4200"
     style="opacity:0.5;fill:#000000;fill-opacity:1;stroke:none;stroke-width:3;stroke-miterlimit:4;stroke-dasharray:none;stroke-opacity:1" />
  <path
     id="path4302"
     d="m 7,20 a 1,1 0 0 0 -1,1 1,1 0 0 0 1,1 1,1 0 0 0 1,-1 1,1 0 0 0 -1,-1 z m 3,0 a 1,1 0 0 0 -1,1 1,1 0 0 0 1,1 1,1 0 0 0 1,-1 1,1 0 0 0 -1,-1 z m 3,0 a 1,1 0 0 0 -1,1 1,1 0 0 0 1,1 1,1 0 0 0 1,-1 1,1 0 0 0 -1,-1 z m 3,0 a 1,1 0 0 0 -1,1 1,1 0 0 0 1,1 1,1 0 0 0 1,-1 1,1 0 0 0 -1,-1 z m 3,0 a 1,1 0 0 0 -1,1 1,1 0 0 0 1,1 1,1 0 0 0 1,-1 1,1 0 0 0 -1,-1 z m 3,0 a 1,1 0 0 0 -1,1 1,1 0 0 0 1,1 1,1 0 0 0 1,-1 1,1 0 0 0 -1,-1 z m 3,0 a 1,1 0 0 0 -1,1 1,1 0 0 0 1,1 1,1 0 0 0 1,-1 1,1 0 0 0 -1,-1 z M 7,23 a 1,1 0 0 0 -1,1 1,1 0 0 0 1,1 1,1 0 0 0 1,-1 1,1 0 0 0 -1,-1 z m 3,0 a 1,1 0 0 0 -1,1 1,1 0 0 0 1,1 1,1 0 0 0 1,-1 1,1 0 0 0 -1,-1 z m 3,0 a 1,1 0 0 0 -1,1 1,1 0 0 0 1,1 1,1 0 0 0 1,-1 1,1 0 0 0 -1,-1 z m 3,0 a 1,1 0 0 0 -1,1 1,1 0 0 0 1,1 1,1 0 0 0 1,-1 1,1 0 0 0 -1,-1 z m 3,0 a 1,1 0 0 0 -1,1 1,1 0 0 0 1,1 1,1 0 0 0 1,-1 1,1 0 0 0 -1,-1 z m 3,0 a 1,1 0 0 0 -1,1 1,1 0 0 0 1,1 1,1 0 0 0 1,-1 1,1 0 0 0 -1,-1 z m 3,0 a 1,1 0 0 0 -1,1 1,1 0 0 0 1,1 1,1 0 0 0 1,-1 1,1 0 0 0 -1,-1 z M 7,26 a 1,1 0 0 0 -1,1 1,1 0 0 0 1,1 1,1 0 0 0 1,-1 1,1 0 0 0 -1,-1 z m 3,0 a 1,1 0 0 0 -1,1 1,1 0 0 0 1,1 1,1 0 0 0 1,-1 1,1 0 0 0 -1,-1 z m 3,0 a 1,1 0 0 0 -1,1 1,1 0 0 0 1,1 l 6,0 a 1,1 0 0 0 1,-1 1,1 0 0 0 -1,-1 l -6,0 z m 9,0 a 1,1 0 0 0 -1,1 1,1 0 0 0 1,1 1,1 0 0 0 1,-1 1,1 0 0 0 -1,-1 z m 3,0 a 1,1 0 0 0 -1,1 1,1 0 0 0 1,1 1,1 0 0 0 1,-1 1,1 0 0 0 -1,-1 z"
     style="opacity:0.2;fill:#000000;fill-opacity:1;stroke:none;stroke-width:3;stroke-miterlimit:4;stroke-dasharray:none;stroke-opacity:1"
     inkscape:connector-curvature="0" />
  <path
     style="opacity:1;fill:#ffffff;fill-opacity:1;stroke:none;stroke-width:3;stroke-miterlimit:4;stroke-dasharray:none;stroke-opacity:1"
     d="M 7 19 A 1 1 0 0 0 6 20 A 1 1 0 0 0 7 21 A 1 1 0 0 0 8 20 A 1 1 0 0 0 7 19 z M 10 19 A 1 1 0 0 0 9 20 A 1 1 0 0 0 10 21 A 1 1 0 0 0 11 20 A 1 1 0 0 0 10 19 z M 13 19 A 1 1 0 0 0 12 20 A 1 1 0 0 0 13 21 A 1 1 0 0 0 14 20 A 1 1 0 0 0 13 19 z M 16 19 A 1 1 0 0 0 15 20 A 1 1 0 0 0 16 21 A 1 1 0 0 0 17 20 A 1 1 0 0 0 16 19 z M 19 19 A 1 1 0 0 0 18 20 A 1 1 0 0 0 19 21 A 1 1 0 0 0 20 20 A 1 1 0 0 0 19 19 z M 22 19 A 1 1 0 0 0 21 20 A 1 1 0 0 0 22 21 A 1 1 0 0 0 23 20 A 1 1 0 0 0 22 19 z M 25 19 A 1 1 0 0 0 24 20 A 1 1 0 0 0 25 21 A 1 1 0 0 0 26 20 A 1 1 0 0 0 25 19 z M 7 22 A 1 1 0 0 0 6 23 A 1 1 0 0 0 7 24 A 1 1 0 0 0 8 23 A 1 1 0 0 0 7 22 z M 10 22 A 1 1 0 0 0 9 23 A 1 1 0 0 0 10 24 A 1 1 0 0 0 11 23 A 1 1 0 0 0 10 22 z M 13 22 A 1 1 0 0 0 12 23 A 1 1 0 0 0 13 24 A 1 1 0 0 0 14 23 A 1 1 0 0 0 13 22 z M 16 22 A 1 1 0 0 0 15 23 A 1 1 0 0 0 16 24 A 1 1 0 0 0 17 23 A 1 1 0 0 0 16 22 z M 19 22 A 1 1 0 0 0 18 23 A 1 1 0 0 0 19 24 A 1 1 0 0 0 20 23 A 1 1 0 0 0 19 22 z M 22 22 A 1 1 0 0 0 21 23 A 1 1 0 0 0 22 24 A 1 1 0 0 0 23 23 A 1 1 0 0 0 22 22 z M 25 22 A 1 1 0 0 0 24 23 A 1 1 0 0 0 25 24 A 1 1 0 0 0 26 23 A 1 1 0 0 0 25 22 z M 7 25 A 1 1 0 0 0 6 26 A 1 1 0 0 0 7 27 A 1 1 0 0 0 8 26 A 1 1 0 0 0 7 25 z M 10 25 A 1 1 0 0 0 9 26 A 1 1 0 0 0 10 27 A 1 1 0 0 0 11 26 A 1 1 0 0 0 10 25 z M 13 25 A 1 1 0 0 0 12 26 A 1 1 0 0 0 13 27 L 19 27 A 1 1 0 0 0 20 26 A 1 1 0 0 0 19 25 L 13 25 z M 22 25 A 1 1 0 0 0 21 26 A 1 1 0 0 0 22 27 A 1 1 0 0 0 23 26 A 1 1 0 0 0 22 25 z M 25 25 A 1 1 0 0 0 24 26 A 1 1 0 0 0 25 27 A 1 1 0 0 0 26 26 A 1 1 0 0 0 25 25 z "
     id="path4202" />
</svg>
