<?xml version="1.0" encoding="UTF-8" standalone="no"?>
<svg
   xmlns:dc="http://purl.org/dc/elements/1.1/"
   xmlns:cc="http://creativecommons.org/ns#"
   xmlns:rdf="http://www.w3.org/1999/02/22-rdf-syntax-ns#"
   xmlns:svg="http://www.w3.org/2000/svg"
   xmlns="http://www.w3.org/2000/svg"
   xmlns:sodipodi="http://sodipodi.sourceforge.net/DTD/sodipodi-0.dtd"
   xmlns:inkscape="http://www.inkscape.org/namespaces/inkscape"
   width="16"
   height="16"
   version="1"
   id="svg2"
   inkscape:version="0.91 r13725"
   sodipodi:docname="publisher.svg">
  <metadata
     id="metadata24">
    <rdf:RDF>
      <cc:Work
         rdf:about="">
        <dc:format>image/svg+xml</dc:format>
        <dc:type
           rdf:resource="http://purl.org/dc/dcmitype/StillImage" />
        <dc:title></dc:title>
      </cc:Work>
    </rdf:RDF>
  </metadata>
  <defs
     id="defs22" />
  <sodipodi:namedview
     pagecolor="#ffffff"
     bordercolor="#666666"
     borderopacity="1"
     objecttolerance="10"
     gridtolerance="10"
     guidetolerance="10"
     inkscape:pageopacity="0"
     inkscape:pageshadow="2"
     inkscape:window-width="1920"
     inkscape:window-height="1022"
     id="namedview20"
     showgrid="true"
     inkscape:object-nodes="true"
     inkscape:zoom="38.93"
     inkscape:cx="6.6305903"
     inkscape:cy="8.8076034"
     inkscape:window-x="0"
     inkscape:window-y="28"
     inkscape:window-maximized="1"
     inkscape:current-layer="svg2">
    <inkscape:grid
       type="xygrid"
       id="grid4176" />
  </sodipodi:namedview>
  <path
     inkscape:connector-curvature="0"
     d="M 2,0 13,0 13,6 2,6 Z"
     id="path4"
     style="fill:#cccccc;fill-opacity:1" />
  <rect
     width="13"
     height="10"
     x="1"
     y="5.4285717"
     rx="0.64999992"
     ry="0.83352941"
     id="rect6"
     style="fill:#3f3f3f;fill-opacity:1" />
  <rect
     style="fill:#4f4f4f;fill-opacity:1"
     id="rect4152"
     ry="0.5"
     rx="0.53571433"
     y="5"
     x="4e-08"
     height="3"
     width="15" />
  <rect
     style="opacity:0.5;fill:#000000;fill-opacity:1;stroke:none;stroke-width:3;stroke-miterlimit:4;stroke-dasharray:none;stroke-opacity:1"
     id="rect4188"
     width="4"
     height="0.5"
     x="3"
     y="1.5" />
  <path
     style="opacity:1;fill:#ffffff;fill-opacity:1;stroke:none;stroke-width:4;stroke-linecap:round;stroke-linejoin:round;stroke-miterlimit:4;stroke-dasharray:none;stroke-opacity:1"
     d="M 2.5,9 A 0.5,0.5 0 0 0 2,9.5 0.5,0.5 0 0 0 2.5,10 0.5,0.5 0 0 0 3,9.5 0.5,0.5 0 0 0 2.5,9 Z m 2,0 A 0.5,0.5 0 0 0 4,9.5 0.5,0.5 0 0 0 4.5,10 0.5,0.5 0 0 0 5,9.5 0.5,0.5 0 0 0 4.5,9 Z m 2,0 A 0.5,0.5 0 0 0 6,9.5 0.5,0.5 0 0 0 6.5,10 0.5,0.5 0 0 0 7,9.5 0.5,0.5 0 0 0 6.5,9 Z m 2,0 A 0.5,0.5 0 0 0 8,9.5 0.5,0.5 0 0 0 8.5,10 0.5,0.5 0 0 0 9,9.5 0.5,0.5 0 0 0 8.5,9 Z m 2,0 A 0.5,0.5 0 0 0 10,9.5 0.5,0.5 0 0 0 10.5,10 0.5,0.5 0 0 0 11,9.5 0.5,0.5 0 0 0 10.5,9 Z m 2,0 A 0.5,0.5 0 0 0 12,9.5 0.5,0.5 0 0 0 12.5,10 0.5,0.5 0 0 0 13,9.5 0.5,0.5 0 0 0 12.5,9 Z"
     id="path4172"
     inkscape:connector-curvature="0" />
  <path
     inkscape:connector-curvature="0"
     id="path4188"
     d="M 2.5,11 A 0.5,0.5 0 0 0 2,11.5 0.5,0.5 0 0 0 2.5,12 0.5,0.5 0 0 0 3,11.5 0.5,0.5 0 0 0 2.5,11 Z m 2,0 A 0.5,0.5 0 0 0 4,11.5 0.5,0.5 0 0 0 4.5,12 0.5,0.5 0 0 0 5,11.5 0.5,0.5 0 0 0 4.5,11 Z m 2,0 A 0.5,0.5 0 0 0 6,11.5 0.5,0.5 0 0 0 6.5,12 0.5,0.5 0 0 0 7,11.5 0.5,0.5 0 0 0 6.5,11 Z m 2,0 A 0.5,0.5 0 0 0 8,11.5 0.5,0.5 0 0 0 8.5,12 0.5,0.5 0 0 0 9,11.5 0.5,0.5 0 0 0 8.5,11 Z m 2,0 A 0.5,0.5 0 0 0 10,11.5 0.5,0.5 0 0 0 10.5,12 0.5,0.5 0 0 0 11,11.5 0.5,0.5 0 0 0 10.5,11 Z m 2,0 A 0.5,0.5 0 0 0 12,11.5 0.5,0.5 0 0 0 12.5,12 0.5,0.5 0 0 0 13,11.5 0.5,0.5 0 0 0 12.5,11 Z"
     style="opacity:1;fill:#ffffff;fill-opacity:1;stroke:none;stroke-width:4;stroke-linecap:round;stroke-linejoin:round;stroke-miterlimit:4;stroke-dasharray:none;stroke-opacity:1" />
  <path
     style="opacity:1;fill:#ffffff;fill-opacity:1;stroke:none;stroke-width:4;stroke-linecap:round;stroke-linejoin:round;stroke-miterlimit:4;stroke-dasharray:none;stroke-opacity:1"
     d="M 2.5,13 A 0.5,0.5 0 0 0 2,13.5 0.5,0.5 0 0 0 2.5,14 0.5,0.5 0 0 0 3,13.5 0.5,0.5 0 0 0 2.5,13 Z m 2,0 A 0.5,0.5 0 0 0 4,13.5 0.5,0.5 0 0 0 4.5,14 0.5,0.5 0 0 0 5,13.5 0.5,0.5 0 0 0 4.5,13 Z m 2,0 A 0.5,0.5 0 0 0 6,13.5 0.5,0.5 0 0 0 6.5,14 0.5,0.5 0 0 0 7,13.5 0.5,0.5 0 0 0 6.5,13 Z m 2,0 A 0.5,0.5 0 0 0 8,13.5 0.5,0.5 0 0 0 8.5,14 0.5,0.5 0 0 0 9,13.5 0.5,0.5 0 0 0 8.5,13 Z m 2,0 A 0.5,0.5 0 0 0 10,13.5 0.5,0.5 0 0 0 10.5,14 0.5,0.5 0 0 0 11,13.5 0.5,0.5 0 0 0 10.5,13 Z m 2,0 A 0.5,0.5 0 0 0 12,13.5 0.5,0.5 0 0 0 12.5,14 0.5,0.5 0 0 0 13,13.5 0.5,0.5 0 0 0 12.5,13 Z"
     id="path4190"
     inkscape:connector-curvature="0" />
  <rect
     style="opacity:1;fill:#ffffff;fill-opacity:1;stroke:none;stroke-width:4;stroke-linecap:round;stroke-linejoin:round;stroke-miterlimit:4;stroke-dasharray:none;stroke-opacity:1"
     id="rect4193"
     width="2"
     height="1"
     x="6.5"
     y="13" />
  <rect
     y="2.5"
     x="3"
     height="0.5"
     width="2"
     id="rect4195"
     style="opacity:0.5;fill:#000000;fill-opacity:1;stroke:none;stroke-width:3;stroke-miterlimit:4;stroke-dasharray:none;stroke-opacity:1" />
  <rect
     style="opacity:0.5;fill:#000000;fill-opacity:1;stroke:none;stroke-width:3;stroke-miterlimit:4;stroke-dasharray:none;stroke-opacity:1"
     id="rect4197"
     width="1"
     height="0.5"
     x="3"
     y="3.5" />
  <rect
     y="1.5"
     x="8"
     height="0.5"
     width="4"
     id="rect4201"
     style="opacity:0.5;fill:#000000;fill-opacity:1;stroke:none;stroke-width:3;stroke-miterlimit:4;stroke-dasharray:none;stroke-opacity:1" />
  <rect
     style="opacity:0.5;fill:#000000;fill-opacity:1;stroke:none;stroke-width:3;stroke-miterlimit:4;stroke-dasharray:none;stroke-opacity:1"
     id="rect4203"
     width="3"
     height="0.5"
     x="6"
     y="2.5" />
  <rect
     y="3.5"
     x="8"
     height="0.5"
     width="3"
     id="rect4205"
     style="opacity:0.5;fill:#000000;fill-opacity:1;stroke:none;stroke-width:3;stroke-miterlimit:4;stroke-dasharray:none;stroke-opacity:1" />
  <rect
     style="opacity:0.5;fill:#000000;fill-opacity:1;stroke:none;stroke-width:3;stroke-miterlimit:4;stroke-dasharray:none;stroke-opacity:1"
     id="rect4207"
     width="2"
     height="0.5"
     x="10"
     y="2.5" />
  <rect
     style="opacity:0.5;fill:#000000;fill-opacity:1;stroke:none;stroke-width:3;stroke-miterlimit:4;stroke-dasharray:none;stroke-opacity:1"
     id="rect4209"
     width="2"
     height="0.5"
     x="5"
     y="3.5" />
</svg>
