<svg xmlns="http://www.w3.org/2000/svg" id="svg2" width="16" height="16" version="1">
 <path id="path4" d="M 2,0 13,0 13,6 2,6 Z" style="fill:#cccccc;fill-opacity:1"/>
 <rect id="rect6" width="13" height="10" x="1" y="5.43" rx=".65" ry=".834" style="fill:#3f3f3f;fill-opacity:1"/>
 <rect style="fill:#4f4f4f;fill-opacity:1" id="rect4152" width="15" height="3" x="0" y="5" rx=".536" ry=".5"/>
 <rect style="opacity:0.5;fill:#000000;fill-opacity:1;stroke:none;stroke-width:3;stroke-miterlimit:4;stroke-dasharray:none;stroke-opacity:1" id="rect4188" width="4" height=".5" x="3" y="1.5"/>
 <path style="opacity:1;fill:#ffffff;fill-opacity:1;stroke:none;stroke-width:4;stroke-linecap:round;stroke-linejoin:round;stroke-miterlimit:4;stroke-dasharray:none;stroke-opacity:1" id="path4172" d="M 2.5,9 A 0.5,0.5 0 0 0 2,9.5 0.5,0.5 0 0 0 2.5,10 0.5,0.5 0 0 0 3,9.5 0.5,0.5 0 0 0 2.5,9 Z m 2,0 A 0.5,0.5 0 0 0 4,9.5 0.5,0.5 0 0 0 4.5,10 0.5,0.5 0 0 0 5,9.5 0.5,0.5 0 0 0 4.5,9 Z m 2,0 A 0.5,0.5 0 0 0 6,9.5 0.5,0.5 0 0 0 6.5,10 0.5,0.5 0 0 0 7,9.5 0.5,0.5 0 0 0 6.5,9 Z m 2,0 A 0.5,0.5 0 0 0 8,9.5 0.5,0.5 0 0 0 8.5,10 0.5,0.5 0 0 0 9,9.5 0.5,0.5 0 0 0 8.5,9 Z m 2,0 A 0.5,0.5 0 0 0 10,9.5 0.5,0.5 0 0 0 10.5,10 0.5,0.5 0 0 0 11,9.5 0.5,0.5 0 0 0 10.5,9 Z m 2,0 A 0.5,0.5 0 0 0 12,9.5 0.5,0.5 0 0 0 12.5,10 0.5,0.5 0 0 0 13,9.5 0.5,0.5 0 0 0 12.5,9 Z"/>
 <path id="path4188" d="M 2.5,11 A 0.5,0.5 0 0 0 2,11.5 0.5,0.5 0 0 0 2.5,12 0.5,0.5 0 0 0 3,11.5 0.5,0.5 0 0 0 2.5,11 Z m 2,0 A 0.5,0.5 0 0 0 4,11.5 0.5,0.5 0 0 0 4.5,12 0.5,0.5 0 0 0 5,11.5 0.5,0.5 0 0 0 4.5,11 Z m 2,0 A 0.5,0.5 0 0 0 6,11.5 0.5,0.5 0 0 0 6.5,12 0.5,0.5 0 0 0 7,11.5 0.5,0.5 0 0 0 6.5,11 Z m 2,0 A 0.5,0.5 0 0 0 8,11.5 0.5,0.5 0 0 0 8.5,12 0.5,0.5 0 0 0 9,11.5 0.5,0.5 0 0 0 8.5,11 Z m 2,0 A 0.5,0.5 0 0 0 10,11.5 0.5,0.5 0 0 0 10.5,12 0.5,0.5 0 0 0 11,11.5 0.5,0.5 0 0 0 10.5,11 Z m 2,0 A 0.5,0.5 0 0 0 12,11.5 0.5,0.5 0 0 0 12.5,12 0.5,0.5 0 0 0 13,11.5 0.5,0.5 0 0 0 12.5,11 Z" style="opacity:1;fill:#ffffff;fill-opacity:1;stroke:none;stroke-width:4;stroke-linecap:round;stroke-linejoin:round;stroke-miterlimit:4;stroke-dasharray:none;stroke-opacity:1"/>
 <path style="opacity:1;fill:#ffffff;fill-opacity:1;stroke:none;stroke-width:4;stroke-linecap:round;stroke-linejoin:round;stroke-miterlimit:4;stroke-dasharray:none;stroke-opacity:1" id="path4190" d="M 2.5,13 A 0.5,0.5 0 0 0 2,13.5 0.5,0.5 0 0 0 2.5,14 0.5,0.5 0 0 0 3,13.5 0.5,0.5 0 0 0 2.5,13 Z m 2,0 A 0.5,0.5 0 0 0 4,13.5 0.5,0.5 0 0 0 4.5,14 0.5,0.5 0 0 0 5,13.5 0.5,0.5 0 0 0 4.5,13 Z m 2,0 A 0.5,0.5 0 0 0 6,13.5 0.5,0.5 0 0 0 6.5,14 0.5,0.5 0 0 0 7,13.5 0.5,0.5 0 0 0 6.5,13 Z m 2,0 A 0.5,0.5 0 0 0 8,13.5 0.5,0.5 0 0 0 8.5,14 0.5,0.5 0 0 0 9,13.5 0.5,0.5 0 0 0 8.5,13 Z m 2,0 A 0.5,0.5 0 0 0 10,13.5 0.5,0.5 0 0 0 10.5,14 0.5,0.5 0 0 0 11,13.5 0.5,0.5 0 0 0 10.5,13 Z m 2,0 A 0.5,0.5 0 0 0 12,13.5 0.5,0.5 0 0 0 12.5,14 0.5,0.5 0 0 0 13,13.5 0.5,0.5 0 0 0 12.5,13 Z"/>
 <rect style="opacity:1;fill:#ffffff;fill-opacity:1;stroke:none;stroke-width:4;stroke-linecap:round;stroke-linejoin:round;stroke-miterlimit:4;stroke-dasharray:none;stroke-opacity:1" id="rect4193" width="2" height="1" x="6.5" y="13"/>
 <rect id="rect4195" width="2" height=".5" x="3" y="2.5" style="opacity:0.5;fill:#000000;fill-opacity:1;stroke:none;stroke-width:3;stroke-miterlimit:4;stroke-dasharray:none;stroke-opacity:1"/>
 <rect style="opacity:0.5;fill:#000000;fill-opacity:1;stroke:none;stroke-width:3;stroke-miterlimit:4;stroke-dasharray:none;stroke-opacity:1" id="rect4197" width="1" height=".5" x="3" y="3.5"/>
 <rect id="rect4201" width="4" height=".5" x="8" y="1.5" style="opacity:0.5;fill:#000000;fill-opacity:1;stroke:none;stroke-width:3;stroke-miterlimit:4;stroke-dasharray:none;stroke-opacity:1"/>
 <rect style="opacity:0.5;fill:#000000;fill-opacity:1;stroke:none;stroke-width:3;stroke-miterlimit:4;stroke-dasharray:none;stroke-opacity:1" id="rect4203" width="3" height=".5" x="6" y="2.5"/>
 <rect id="rect4205" width="3" height=".5" x="8" y="3.5" style="opacity:0.5;fill:#000000;fill-opacity:1;stroke:none;stroke-width:3;stroke-miterlimit:4;stroke-dasharray:none;stroke-opacity:1"/>
 <rect style="opacity:0.5;fill:#000000;fill-opacity:1;stroke:none;stroke-width:3;stroke-miterlimit:4;stroke-dasharray:none;stroke-opacity:1" id="rect4207" width="2" height=".5" x="10" y="2.5"/>
 <rect style="opacity:0.5;fill:#000000;fill-opacity:1;stroke:none;stroke-width:3;stroke-miterlimit:4;stroke-dasharray:none;stroke-opacity:1" id="rect4209" width="2" height=".5" x="5" y="3.5"/>
</svg>
