<?xml version="1.0" encoding="UTF-8" standalone="no"?>
<svg
   xmlns:dc="http://purl.org/dc/elements/1.1/"
   xmlns:cc="http://creativecommons.org/ns#"
   xmlns:rdf="http://www.w3.org/1999/02/22-rdf-syntax-ns#"
   xmlns:svg="http://www.w3.org/2000/svg"
   xmlns="http://www.w3.org/2000/svg"
   xmlns:sodipodi="http://sodipodi.sourceforge.net/DTD/sodipodi-0.dtd"
   xmlns:inkscape="http://www.inkscape.org/namespaces/inkscape"
   width="16"
   height="16"
   version="1.1"
   viewBox="0 0 16 16"
   id="svg2"
   inkscape:version="0.91 r13725"
   sodipodi:docname="quickview.svg">
  <metadata
     id="metadata18">
    <rdf:RDF>
      <cc:Work
         rdf:about="">
        <dc:format>image/svg+xml</dc:format>
        <dc:type
           rdf:resource="http://purl.org/dc/dcmitype/StillImage" />
        <dc:title></dc:title>
      </cc:Work>
    </rdf:RDF>
  </metadata>
  <defs
     id="defs16" />
  <sodipodi:namedview
     pagecolor="#ffffff"
     bordercolor="#666666"
     borderopacity="1"
     objecttolerance="10"
     gridtolerance="10"
     guidetolerance="10"
     inkscape:pageopacity="0"
     inkscape:pageshadow="2"
     inkscape:window-width="1920"
     inkscape:window-height="1022"
     id="namedview14"
     showgrid="true"
     inkscape:zoom="31.62"
     inkscape:cx="16"
     inkscape:cy="9.6748893"
     inkscape:window-x="0"
     inkscape:window-y="28"
     inkscape:window-maximized="1"
     inkscape:current-layer="svg2">
    <inkscape:grid
       type="xygrid"
       id="grid4152" />
  </sodipodi:namedview>
  <circle
     style="fill:#8561c5"
     cx="8"
     cy="8"
     r="8"
     id="circle6" />
  <path
     style="fill:#ffffff;fill-rule:evenodd"
     d="M 8 4 C 6.8366001 4.0116661 5.6651437 4.2962309 4.6523438 4.9082031 C 4.2485437 5.188857 3.7638375 5.550699 3.3984375 5.9160156 C 2.8236376 6.5159884 2.3324 7.2153689 2 8 C 2.9114 10.143903 4.9133876 11.71723 7.1171875 11.949219 C 8.5625874 12.123878 10.076855 11.856383 11.347656 11.09375 C 11.751455 10.813095 12.236162 10.451254 12.601562 10.085938 C 13.176362 9.4846312 13.6676 8.7832978 14 8 C 13.0892 5.8560974 11.086013 4.2847237 8.8828125 4.0527344 C 8.5900125 4.0154024 8.294 4 8 4 z M 8.0039062 5 C 9.6089212 4.964751 11.028048 6.4020959 10.998047 7.9980469 C 11.049804 9.7627425 9.2924596 11.285068 7.5546875 10.955078 C 5.7996654 10.749584 4.5677739 8.7792768 5.1445312 7.1113281 C 5.5142859 5.8843658 6.71764 4.9877035 8.0039062 5.0019531 L 8.0039062 5 z M 8 7 A 0.99999928 0.99940001 0 0 0 7 8.0019531 A 0.99999928 0.99940001 0 0 0 8 9 A 0.99999928 0.99940001 0 0 0 9 8.0019531 A 0.99999928 0.99940001 0 0 0 8 7.0058594 L 8 7 z "
     id="path4158" />
</svg>
