<svg xmlns="http://www.w3.org/2000/svg" width="32" height="32" version="1.1" viewBox="0 0 32 32">
 <circle style="opacity:0.2" cx="16" cy="17" r="14"/>
 <circle style="fill:#8561c5" cx="16" cy="16" r="14"/>
 <path style="fill:#ffffff;opacity:0.2" d="M 16 2 A 14 14 0 0 0 2 16 A 14 14 0 0 0 2.0215 16.586 A 14 14 0 0 1 16 3 A 14 14 0 0 1 29.979 16.414 A 14 14 0 0 0 30 16 A 14 14 0 0 0 16 2 z"/>
 <path style="fill-rule:evenodd;opacity:0.2" d="M 16,10.999 C 14.061,11.017 12.11,11.444 10.422,12.362 9.749,12.783 8.941,13.326 8.332,13.874 7.374,14.774 6.554,15.824 6,17.001 7.519,20.217 10.856,22.575 14.529,22.923 16.938,23.185 19.46,22.784 21.578,21.64 22.251,21.219 23.059,20.676 23.668,20.128 24.626,19.226 25.446,18.176 26,17.001 24.482,13.785 21.143,11.427 17.471,11.079 16.983,11.023 16.49,10.999 16,10.999 Z M 16.004,12.999 C 18.144,12.952 20.038,14.867 19.998,16.995 20.067,19.348 17.723,21.378 15.406,20.938 13.066,20.664 11.422,18.037 12.191,15.813 12.684,14.177 14.291,12.982 16.006,13.001 Z M 16,14.999 A 2,1.9988 0 0 0 14,17.001 2,1.9988 0 0 0 16,18.999 2,1.9988 0 0 0 18,17.001 2,1.9988 0 0 0 16,15.009 Z"/>
 <path style="fill:#ffffff;fill-rule:evenodd" d="M 16,9.9995 C 14.061,10.017 12.11,10.444 10.422,11.362 9.749,11.783 8.941,12.326 8.332,12.874 7.374,13.774 6.554,14.824 6,16.001 7.519,19.217 10.856,21.575 14.529,21.923 16.938,22.185 19.46,21.784 21.578,20.64 22.251,20.219 23.059,19.676 23.668,19.128 24.626,18.226 25.446,17.176 26,16.001 24.482,12.785 21.143,10.427 17.471,10.079 16.983,10.023 16.49,9.9995 16,9.9995 Z M 16.004,11.999 C 18.144,11.952 20.038,13.867 19.998,15.995 20.067,18.348 17.723,20.378 15.406,19.938 13.066,19.664 11.422,17.037 12.191,14.813 12.684,13.177 14.291,11.982 16.006,12.001 Z M 16,13.999 A 2,1.9988 0 0 0 14,16.001 2,1.9988 0 0 0 16,17.999 2,1.9988 0 0 0 18,16.001 2,1.9988 0 0 0 16,14.009 Z"/>
</svg>
