<?xml version="1.0" encoding="UTF-8" standalone="no"?>
<!-- Created with Inkscape (http://www.inkscape.org/) -->

<svg
   xmlns:dc="http://purl.org/dc/elements/1.1/"
   xmlns:cc="http://creativecommons.org/ns#"
   xmlns:rdf="http://www.w3.org/1999/02/22-rdf-syntax-ns#"
   xmlns:svg="http://www.w3.org/2000/svg"
   xmlns="http://www.w3.org/2000/svg"
   xmlns:sodipodi="http://sodipodi.sourceforge.net/DTD/sodipodi-0.dtd"
   xmlns:inkscape="http://www.inkscape.org/namespaces/inkscape"
   width="128"
   height="128"
   viewBox="0 0 128 128"
   id="svg2"
   version="1.1"
   inkscape:version="0.92.2 5c3e80d, 2017-08-06"
   sodipodi:docname="quickview.svg">
  <defs
     id="defs4">
    <linearGradient
       id="linearGradient4561"
       x1="24"
       x2="44"
       y1="24"
       y2="24"
       gradientTransform="matrix(2.6,0,0,2.66668,1.6,922.36212)"
       gradientUnits="userSpaceOnUse">
      <stop
         offset="0"
         id="stop2" />
      <stop
         offset="1"
         stop-opacity="0"
         id="stop4" />
    </linearGradient>
  </defs>
  <sodipodi:namedview
     id="base"
     pagecolor="#ffffff"
     bordercolor="#666666"
     borderopacity="1.0"
     inkscape:pageopacity="0.0"
     inkscape:pageshadow="2"
     inkscape:zoom="3.5664062"
     inkscape:cx="15.549055"
     inkscape:cy="58.722882"
     inkscape:document-units="px"
     inkscape:current-layer="layer1"
     showgrid="false"
     units="px"
     showguides="true"
     inkscape:guide-bbox="true"
     inkscape:window-width="1366"
     inkscape:window-height="694"
     inkscape:window-x="0"
     inkscape:window-y="48"
     inkscape:window-maximized="1">
    <inkscape:grid
       type="xygrid"
       id="grid4136"
       empspacing="4" />
    <sodipodi:guide
       position="8,140"
       orientation="1,0"
       id="guide4138"
       inkscape:label="Margin Left"
       inkscape:color="rgb(0,0,255)"
       inkscape:locked="false" />
    <sodipodi:guide
       position="120,140"
       orientation="1,0"
       id="guide4140"
       inkscape:label="Margin Right"
       inkscape:color="rgb(0,0,255)"
       inkscape:locked="false" />
    <sodipodi:guide
       position="-20,120"
       orientation="0,1"
       id="guide4142"
       inkscape:label="Margin Top"
       inkscape:color="rgb(0,0,255)"
       inkscape:locked="false" />
    <sodipodi:guide
       position="-16,8"
       orientation="0,1"
       id="guide4144"
       inkscape:label="Margin Bottom"
       inkscape:color="rgb(0,0,255)"
       inkscape:locked="false" />
    <sodipodi:guide
       position="8,8"
       orientation="-0.70710678,0.70710678"
       id="guide4146"
       inkscape:locked="false" />
    <sodipodi:guide
       position="72,56"
       orientation="0.70710678,0.70710678"
       id="guide4148"
       inkscape:locked="false" />
    <sodipodi:guide
       position="20,140"
       orientation="1,0"
       id="guide4150"
       inkscape:label="Rectangle Left"
       inkscape:color="rgb(0,0,255)"
       inkscape:locked="false" />
    <sodipodi:guide
       position="108,140"
       orientation="1,0"
       id="guide4152"
       inkscape:label="Rectangle Right"
       inkscape:color="rgb(0,0,255)"
       inkscape:locked="false" />
    <sodipodi:guide
       position="-20,116"
       orientation="0,1"
       id="guide4154"
       inkscape:label="Shadow Top"
       inkscape:color="rgb(0,0,255)"
       inkscape:locked="false" />
    <sodipodi:guide
       position="-16,12"
       orientation="0,1"
       id="guide4156"
       inkscape:label="Shadow Bottom"
       inkscape:color="rgb(0,0,255)"
       inkscape:locked="false" />
    <sodipodi:guide
       position="-20,104"
       orientation="0,1"
       id="guide4158"
       inkscape:label="Rectangle Top"
       inkscape:color="rgb(0,0,255)"
       inkscape:locked="false" />
    <sodipodi:guide
       position="-16,24"
       orientation="0,1"
       id="guide4160"
       inkscape:label="Rectangle Bottom"
       inkscape:color="rgb(0,0,255)"
       inkscape:locked="false" />
  </sodipodi:namedview>
  <metadata
     id="metadata7">
    <rdf:RDF>
      <cc:Work
         rdf:about="">
        <dc:format>image/svg+xml</dc:format>
        <dc:type
           rdf:resource="http://purl.org/dc/dcmitype/StillImage" />
        <dc:title></dc:title>
      </cc:Work>
    </rdf:RDF>
  </metadata>
  <g
     inkscape:label="Layer 1"
     inkscape:groupmode="layer"
     id="layer1"
     transform="translate(0,-924.36216)">
    <g
       id="g846">
      <path
         id="circle2"
         transform="translate(0,924.36216)"
         d="M 64 6 A 56 56 0 0 0 8 62 A 56 56 0 0 0 64 118 A 56 56 0 0 0 120 62 A 56 56 0 0 0 64 6 z "
         style="fill:#771b85;stroke-width:4;fill-opacity:1" />
      <path
         style="opacity:0.2;fill:#ffffff;stroke-width:4"
         inkscape:connector-curvature="0"
         id="path8"
         d="m 64.000001,930.36214 a 56,56 0 0 0 -55.9999998,56 56,56 0 0 0 0.086,2.344 56,56 0 0 1 55.9119998,-54.344 56,56 0 0 1 55.915999,53.656 56,56 0 0 0 0.084,-1.656 56,56 0 0 0 -55.999999,-56 z" />
      <path
         style="opacity:0.2;stroke-width:4"
         inkscape:connector-curvature="0"
         id="path10"
         d="m 119.916,988.01814 a 56,56 0 0 1 -55.915999,54.34406 56,56 0 0 1 -55.9119998,-53.65606 56,56 0 0 0 -0.088,1.656 A 56,56 0 0 0 64.000001,1046.3622 56,56 0 0 0 120,990.36214 a 56,56 0 0 0 -0.084,-2.344 z" />
    </g>
    <path
       d="m 64.0007,970.48724 c -6.78489,0.0665 -13.615,1.6163 -19.5251,4.96562 -2.35557,1.5344 -5.18329,3.5161 -7.3143,5.51268 -3.353,3.283 -6.223,7.112 -8.162,11.403 5.31538,11.72566 17.0009,20.31966 29.8557,21.58946 8.4322,0.9545 17.2571,-0.5026 24.6694,-4.6749 2.3555,-1.5344 5.18329,-3.5161 7.3143,-5.5128 3.353,-3.29 6.223,-7.11899 8.162,-11.40299 -5.313,-11.725 -17.003,-20.321 -29.855,-21.588 -1.708,-0.203 -3.43,-0.294 -5.145,-0.294 z m 0,8.7521 c 7.0308,-0.15575 13.2573,6.13427 13.125,13.1278 0.22533,7.72936 -7.4767,14.40046 -15.0906,12.95706 -7.6895,-0.9031 -13.0907,-9.52986 -10.5616,-16.83716 1.617,-5.376 6.895,-9.31 12.53,-9.247 z m 0,8.7521 a 4.375,4.37598 0 0 0 -4.375,4.382 4.375,4.37598 0 0 0 4.375,4.375 4.375,4.37598 0 0 0 4.375,-4.375 4.375,4.37598 0 0 0 -4.375,-4.361 z"
       id="path848"
       inkscape:connector-curvature="0"
       style="opacity:0.2;fill-rule:evenodd;stroke-width:7" />
    <path
       style="fill:#ffffff;fill-rule:evenodd;stroke-width:7"
       inkscape:connector-curvature="0"
       id="path10-3-6"
       d="m 64.0007,966.48724 c -6.78489,0.0665 -13.615,1.6163 -19.5251,4.96562 -2.35557,1.5344 -5.18329,3.5161 -7.3143,5.51268 -3.353,3.283 -6.223,7.112 -8.162,11.403 5.31538,11.72566 17.0009,20.31966 29.8557,21.58946 8.4322,0.9545 17.2571,-0.5026 24.6694,-4.6749 2.3555,-1.5344 5.18329,-3.5161 7.3143,-5.51279 3.353,-3.29 6.223,-7.119 8.162,-11.403 -5.313,-11.725 -17.003,-20.321 -29.855,-21.588 -1.708,-0.203 -3.43,-0.294 -5.145,-0.294 z m 0,8.7521 c 7.0308,-0.15575 13.2573,6.13427 13.125,13.1278 0.22533,7.7294 -7.4767,14.40046 -15.0906,12.95706 -7.6895,-0.9031 -13.0907,-9.52986 -10.5616,-16.83716 1.617,-5.376 6.895,-9.31 12.53,-9.247 z m 0,8.7521 a 4.375,4.37598 0 0 0 -4.375,4.382 4.375,4.37598 0 0 0 4.375,4.375 4.375,4.37598 0 0 0 4.375,-4.375 4.375,4.37598 0 0 0 -4.375,-4.361 z" />
  </g>
</svg>
