<?xml version="1.0" encoding="UTF-8" standalone="no"?>
<svg
   xmlns:dc="http://purl.org/dc/elements/1.1/"
   xmlns:cc="http://creativecommons.org/ns#"
   xmlns:rdf="http://www.w3.org/1999/02/22-rdf-syntax-ns#"
   xmlns:svg="http://www.w3.org/2000/svg"
   xmlns="http://www.w3.org/2000/svg"
   xmlns:sodipodi="http://sodipodi.sourceforge.net/DTD/sodipodi-0.dtd"
   xmlns:inkscape="http://www.inkscape.org/namespaces/inkscape"
   width="32"
   height="32"
   version="1"
   id="svg2"
   inkscape:version="0.91 r13725"
   sodipodi:docname="reader.svg">
  <metadata
     id="metadata20">
    <rdf:RDF>
      <cc:Work
         rdf:about="">
        <dc:format>image/svg+xml</dc:format>
        <dc:type
           rdf:resource="http://purl.org/dc/dcmitype/StillImage" />
      </cc:Work>
    </rdf:RDF>
  </metadata>
  <defs
     id="defs18" />
  <sodipodi:namedview
     pagecolor="#ffffff"
     bordercolor="#666666"
     borderopacity="1"
     objecttolerance="10"
     gridtolerance="10"
     guidetolerance="10"
     inkscape:pageopacity="0"
     inkscape:pageshadow="2"
     inkscape:window-width="1920"
     inkscape:window-height="1022"
     id="namedview16"
     showgrid="true"
     inkscape:object-nodes="true"
     inkscape:zoom="22.36"
     inkscape:cx="16"
     inkscape:cy="16"
     inkscape:window-x="0"
     inkscape:window-y="28"
     inkscape:window-maximized="1"
     inkscape:current-layer="svg2">
    <inkscape:grid
       type="xygrid"
       id="grid4148" />
  </sodipodi:namedview>
  <rect
     style="opacity:0.2"
     width="23"
     height="30"
     x="4"
     y="2"
     rx="1.5"
     ry="1.5"
     id="rect4" />
  <rect
     style="fill:#8e8e8e"
     width="23"
     height="30"
     x="4"
     y="1"
     rx="1.5"
     ry="1.5"
     id="rect6" />
  <rect
     style="opacity:0.6"
     width="19"
     height="22"
     x="6"
     y="5"
     rx="1.5"
     ry="1.5"
     id="rect8" />
  <path
     style="opacity:0.2;fill:#ffffff"
     d="M 5.5 1 C 4.669 1 4 1.669 4 2.5 L 4 3.5 C 4 2.669 4.669 2 5.5 2 L 25.5 2 C 26.331 2 27 2.669 27 3.5 L 27 2.5 C 27 1.669 26.331 1 25.5 1 L 5.5 1 z"
     id="path14" />
  <path
     id="path4183"
     d="m 8,8 0,2 11,0 0,-2 -11,0 z m 12,0 0,2 3,0 0,-2 -3,0 z m -12,4 0,2 3,0 0,-2 -3,0 z m 4,0 0,2 8,0 0,-2 -8,0 z m 9,0 0,2 2,0 0,-2 -2,0 z m -13,4 0,2 1,0 0,-2 -1,0 z m 2,0 0,2 6,0 0,-2 -6,0 z m 7,0 0,2 2,0 0,-2 -2,0 z m 3,0 0,2 2,0 0,-2 -2,0 z m -12,4 0,2 7,0 0,-2 -7,0 z m 8,0 0,2 5,0 0,-2 -5,0 z m -8,4 0,2 2,0 0,-2 -2,0 z m 3,0 0,2 8,0 0,-2 -8,0 z"
     style="opacity:0.2;fill:#000000;fill-opacity:1;stroke:none;stroke-width:3;stroke-miterlimit:4;stroke-dasharray:none;stroke-opacity:1"
     inkscape:connector-curvature="0" />
  <path
     style="opacity:1;fill:#ffffff;fill-opacity:1;stroke:none;stroke-width:3;stroke-miterlimit:4;stroke-dasharray:none;stroke-opacity:1"
     d="M 8 7 L 8 9 L 19 9 L 19 7 L 8 7 z M 20 7 L 20 9 L 23 9 L 23 7 L 20 7 z M 8 11 L 8 13 L 11 13 L 11 11 L 8 11 z M 12 11 L 12 13 L 20 13 L 20 11 L 12 11 z M 21 11 L 21 13 L 23 13 L 23 11 L 21 11 z M 8 15 L 8 17 L 9 17 L 9 15 L 8 15 z M 10 15 L 10 17 L 16 17 L 16 15 L 10 15 z M 17 15 L 17 17 L 19 17 L 19 15 L 17 15 z M 20 15 L 20 17 L 22 17 L 22 15 L 20 15 z M 8 19 L 8 21 L 15 21 L 15 19 L 8 19 z M 16 19 L 16 21 L 21 21 L 21 19 L 16 19 z M 8 23 L 8 25 L 10 25 L 10 23 L 8 23 z M 11 23 L 11 25 L 19 25 L 19 23 L 11 23 z "
     id="rect4150" />
</svg>
