<?xml version="1.0" encoding="UTF-8" standalone="no"?>
<!-- Created with Inkscape (http://www.inkscape.org/) -->

<svg
   xmlns:dc="http://purl.org/dc/elements/1.1/"
   xmlns:cc="http://creativecommons.org/ns#"
   xmlns:rdf="http://www.w3.org/1999/02/22-rdf-syntax-ns#"
   xmlns:svg="http://www.w3.org/2000/svg"
   xmlns="http://www.w3.org/2000/svg"
   xmlns:sodipodi="http://sodipodi.sourceforge.net/DTD/sodipodi-0.dtd"
   xmlns:inkscape="http://www.inkscape.org/namespaces/inkscape"
   width="128"
   height="128"
   viewBox="0 0 128 128"
   id="svg2"
   version="1.1"
   inkscape:version="0.92.2 5c3e80d, 2017-08-06"
   sodipodi:docname="remove_books.svg">
  <defs
     id="defs4">
    <linearGradient
       id="linearGradient4561"
       x1="24"
       x2="44"
       y1="24"
       y2="24"
       gradientTransform="matrix(2.6,0,0,2.66668,1.6,922.36212)"
       gradientUnits="userSpaceOnUse">
      <stop
         offset="0"
         id="stop2" />
      <stop
         offset="1"
         stop-opacity="0"
         id="stop4" />
    </linearGradient>
  </defs>
  <sodipodi:namedview
     id="base"
     pagecolor="#ffffff"
     bordercolor="#666666"
     borderopacity="1.0"
     inkscape:pageopacity="0.0"
     inkscape:pageshadow="2"
     inkscape:zoom="3.5664062"
     inkscape:cx="68.492934"
     inkscape:cy="57.254397"
     inkscape:document-units="px"
     inkscape:current-layer="g114"
     showgrid="true"
     units="px"
     showguides="true"
     inkscape:guide-bbox="true"
     inkscape:window-width="1366"
     inkscape:window-height="694"
     inkscape:window-x="0"
     inkscape:window-y="48"
     inkscape:window-maximized="1">
    <inkscape:grid
       type="xygrid"
       id="grid4136"
       empspacing="4" />
    <sodipodi:guide
       position="8,140"
       orientation="1,0"
       id="guide4138"
       inkscape:label="Margin Left"
       inkscape:color="rgb(0,0,255)"
       inkscape:locked="false" />
    <sodipodi:guide
       position="120,140"
       orientation="1,0"
       id="guide4140"
       inkscape:label="Margin Right"
       inkscape:color="rgb(0,0,255)"
       inkscape:locked="false" />
    <sodipodi:guide
       position="-20,120"
       orientation="0,1"
       id="guide4142"
       inkscape:label="Margin Top"
       inkscape:color="rgb(0,0,255)"
       inkscape:locked="false" />
    <sodipodi:guide
       position="-16,8"
       orientation="0,1"
       id="guide4144"
       inkscape:label="Margin Bottom"
       inkscape:color="rgb(0,0,255)"
       inkscape:locked="false" />
    <sodipodi:guide
       position="8,8"
       orientation="-0.70710678,0.70710678"
       id="guide4146"
       inkscape:locked="false" />
    <sodipodi:guide
       position="72,56"
       orientation="0.70710678,0.70710678"
       id="guide4148"
       inkscape:locked="false" />
    <sodipodi:guide
       position="20,140"
       orientation="1,0"
       id="guide4150"
       inkscape:label="Rectangle Left"
       inkscape:color="rgb(0,0,255)"
       inkscape:locked="false" />
    <sodipodi:guide
       position="108,140"
       orientation="1,0"
       id="guide4152"
       inkscape:label="Rectangle Right"
       inkscape:color="rgb(0,0,255)"
       inkscape:locked="false" />
    <sodipodi:guide
       position="-20,116"
       orientation="0,1"
       id="guide4154"
       inkscape:label="Shadow Top"
       inkscape:color="rgb(0,0,255)"
       inkscape:locked="false" />
    <sodipodi:guide
       position="-16,12"
       orientation="0,1"
       id="guide4156"
       inkscape:label="Shadow Bottom"
       inkscape:color="rgb(0,0,255)"
       inkscape:locked="false" />
    <sodipodi:guide
       position="-20,104"
       orientation="0,1"
       id="guide4158"
       inkscape:label="Rectangle Top"
       inkscape:color="rgb(0,0,255)"
       inkscape:locked="false" />
    <sodipodi:guide
       position="-16,24"
       orientation="0,1"
       id="guide4160"
       inkscape:label="Rectangle Bottom"
       inkscape:color="rgb(0,0,255)"
       inkscape:locked="false" />
  </sodipodi:namedview>
  <metadata
     id="metadata7">
    <rdf:RDF>
      <cc:Work
         rdf:about="">
        <dc:format>image/svg+xml</dc:format>
        <dc:type
           rdf:resource="http://purl.org/dc/dcmitype/StillImage" />
        <dc:title></dc:title>
      </cc:Work>
    </rdf:RDF>
  </metadata>
  <g
     inkscape:label="Layer 1"
     inkscape:groupmode="layer"
     id="layer1"
     transform="translate(0,-924.36216)">
    <g
       id="g114"
       transform="matrix(1.7499999,0,0,1.7499999,16.498771,-733.56922)">
      <g
         id="g845"
         transform="translate(-67,-33.399864)"
         style="fill:#db3c30;fill-opacity:1">
        <circle
           cx="94.143562"
           cy="1015.3607"
           r="32"
           id="circle14"
           style="fill:#db3c30;fill-rule:evenodd;stroke-width:4;fill-opacity:1" />
        <g
           id="g107"
           style="fill:#db3c30;fill-opacity:1">
          <path
             style="opacity:0.2;fill-rule:evenodd;stroke-width:4;fill:#db3c30;fill-opacity:1"
             inkscape:connector-curvature="0"
             id="path18"
             d="m 126.05956,1017.0567 a 32,32 0 0 1 -31.916,30.304 32,32 0 0 1 -31.916,-29.696 32,32 0 0 0 -0.084,1.696 32,32 0 0 0 32,32 32,32 0 0 0 32,-32 32,32 0 0 0 -0.084,-2.304 z" />
        </g>
      </g>
    </g>
    <g
       id="g881"
       transform="matrix(0.96551691,0,0,0.96551691,21.517256,45.667954)">
      <rect
         style="fill:#ffffff;stroke-width:2"
         id="rect2"
         y="947.36218"
         x="35.999699"
         height="6"
         width="16" />
      <rect
         style="fill:#ffffff;stroke-width:2"
         id="rect4-3"
         ry="3.0580001"
         rx="2.934"
         y="951.36218"
         x="21.999701"
         height="52"
         width="44" />
      <rect
         style="fill:#ffffff;stroke-width:2"
         id="rect6"
         ry="3"
         rx="2.888"
         y="949.36218"
         x="17.999702"
         height="12"
         width="52" />
      <rect
         style="opacity:0.4;stroke-width:2"
         id="rect8"
         ry="1.4"
         rx="2"
         y="969.36218"
         x="39.999699"
         height="28"
         width="8" />
      <rect
         style="opacity:0.4;stroke-width:2"
         id="rect10"
         ry="1.4"
         rx="2"
         y="969.36218"
         x="27.999699"
         height="28"
         width="8" />
      <rect
         style="opacity:0.4;stroke-width:2"
         id="rect12"
         ry="1.4"
         rx="2"
         y="969.36218"
         x="51.999702"
         height="28"
         width="8" />
      <path
         style="opacity:0.2;stroke-width:2"
         inkscape:connector-curvature="0"
         id="path14"
         d="m 21.9997,1000.3042 v 2 c 0,1.694 1.3086,3.058 2.9336,3.058 h 38.132 c 1.626,0 2.934,-1.364 2.934,-3.058 v -2 c 0,1.694 -1.308,3.058 -2.934,3.058 h -38.132 c -1.6254,0 -2.934,-1.364 -2.934,-3.058 z" />
      <path
         style="opacity:0.2;stroke-width:2"
         inkscape:connector-curvature="0"
         id="path16"
         d="m 17.9997,958.36215 v 2 c 0,1.662 1.2902,3 2.8906,3 h 46.22 c 1.6,0 2.89,-1.338 2.89,-3 v -2 c 0,1.662 -1.29,3 -2.89,3 h -46.22 c -1.5998,0 -2.89,-1.338 -2.89,-3 z" />
      <path
         style="opacity:0.2;fill:#ffffff;stroke-width:2"
         inkscape:connector-curvature="0"
         id="path18-6"
         d="m 20.8903,949.36215 c -1.6004,0 -2.8906,1.338 -2.8906,3 v 2 c 0,-1.662 1.2902,-3 2.8906,-3 h 46.22 c 1.6,0 2.89,1.338 2.89,3 v -2 c 0,-1.662 -1.29,-3 -2.89,-3 z" />
    </g>
  </g>
</svg>
