<svg xmlns="http://www.w3.org/2000/svg" id="svg2" width="32" height="32" version="1">
 <path id="path4144" d="m 3.2431341,8.7455574 c -1.6575124,1.6578436 -1.657512,4.3453876 0,6.0032306 L 5.4943458,17 3.2431341,19.251212 c -1.657512,1.657843 -1.6575124,4.345387 0,6.003231 l 4.5024233,4.502423 c 1.6578439,1.657512 4.3453876,1.657512 6.0032306,0 L 16,27.505654 l 2.251212,2.251212 c 1.657843,1.657512 4.345387,1.657512 6.003231,0 l 4.502423,-4.502423 c 1.657512,-1.657844 1.657512,-4.345387 0,-6.003231 L 26.505654,17 28.756866,14.748788 c 1.657512,-1.657844 1.657512,-4.345387 0,-6.0032306 L 24.254443,4.2431342 c -1.657844,-1.6575123 -4.345388,-1.6575124 -6.003231,0 L 16,6.4943458 13.748788,4.2431342 c -1.657843,-1.6575119 -4.3453867,-1.6575124 -6.0032306,0 z" style="color:#000000;font-style:normal;font-variant:normal;font-weight:normal;font-stretch:normal;font-size:medium;line-height:normal;font-family:sans-serif;text-indent:0;text-align:start;text-decoration:none;text-decoration-line:none;text-decoration-style:solid;text-decoration-color:#000000;letter-spacing:normal;word-spacing:normal;text-transform:none;direction:ltr;block-progression:tb;writing-mode:lr-tb;baseline-shift:baseline;text-anchor:start;white-space:normal;clip-rule:nonzero;display:inline;overflow:visible;visibility:visible;opacity:0.2;isolation:auto;mix-blend-mode:normal;color-interpolation:sRGB;color-interpolation-filters:linearRGB;solid-color:#000000;solid-opacity:1;fill:#000000;fill-opacity:1;fill-rule:nonzero;stroke:none;stroke-width:8;stroke-linecap:round;stroke-linejoin:round;stroke-miterlimit:4;stroke-dasharray:none;stroke-dashoffset:0;stroke-opacity:1;color-rendering:auto;image-rendering:auto;shape-rendering:auto;text-rendering:auto;enable-background:accumulate"/>
 <path style="color:#000000;font-style:normal;font-variant:normal;font-weight:normal;font-stretch:normal;font-size:medium;line-height:normal;font-family:sans-serif;text-indent:0;text-align:start;text-decoration:none;text-decoration-line:none;text-decoration-style:solid;text-decoration-color:#000000;letter-spacing:normal;word-spacing:normal;text-transform:none;direction:ltr;block-progression:tb;writing-mode:lr-tb;baseline-shift:baseline;text-anchor:start;white-space:normal;clip-rule:nonzero;display:inline;overflow:visible;visibility:visible;opacity:1;isolation:auto;mix-blend-mode:normal;color-interpolation:sRGB;color-interpolation-filters:linearRGB;solid-color:#000000;solid-opacity:1;fill:#c23939;fill-opacity:1;fill-rule:nonzero;stroke:none;stroke-width:8;stroke-linecap:round;stroke-linejoin:round;stroke-miterlimit:4;stroke-dasharray:none;stroke-dashoffset:0;stroke-opacity:1;color-rendering:auto;image-rendering:auto;shape-rendering:auto;text-rendering:auto;enable-background:accumulate" id="path4212" d="m 3.2431341,7.7455574 c -1.6575124,1.657844 -1.657512,4.3453876 0,6.0032306 L 5.4943458,16 3.2431341,18.251212 c -1.657512,1.657843 -1.6575124,4.345387 0,6.003231 l 4.5024233,4.502423 c 1.6578439,1.657512 4.3453876,1.657512 6.0032306,0 L 16,26.505654 l 2.251212,2.251212 c 1.657843,1.657512 4.345387,1.657512 6.003231,0 l 4.502423,-4.502423 c 1.657512,-1.657844 1.657512,-4.345387 0,-6.003231 L 26.505654,16 28.756866,13.748788 c 1.657512,-1.657844 1.657512,-4.3453866 0,-6.0032306 L 24.254443,3.2431342 c -1.657844,-1.6575123 -4.345388,-1.6575124 -6.003231,0 L 16,5.4943458 13.748788,3.2431342 c -1.657843,-1.6575119 -4.3453867,-1.6575124 -6.0032306,0 z"/>
 <path id="path4146" d="M 6.9999998,12.153846 11.846154,17 6.9999998,21.846154 11.153846,26 16,21.153846 20.846154,26 25,21.846154 20.153846,17 25,12.153846 20.846154,8 16,12.846154 11.153846,8 6.9999998,12.153846 Z" style="opacity:0.2;fill:#000000;fill-opacity:1"/>
 <path style="opacity:1;fill:#ffffff;fill-opacity:1" id="rect4152" d="M 6.9999998,11.153846 11.846154,16 6.9999998,20.846154 11.153846,25 16,20.153846 20.846154,25 25,20.846154 20.153846,16 25,11.153846 20.846154,7 16,11.846154 11.153846,7 6.9999998,11.153846 Z"/>
 <path style="color:#000000;font-style:normal;font-variant:normal;font-weight:normal;font-stretch:normal;font-size:medium;line-height:normal;font-family:sans-serif;text-indent:0;text-align:start;text-decoration:none;text-decoration-line:none;text-decoration-style:solid;text-decoration-color:#000000;letter-spacing:normal;word-spacing:normal;text-transform:none;direction:ltr;block-progression:tb;writing-mode:lr-tb;baseline-shift:baseline;text-anchor:start;white-space:normal;clip-rule:nonzero;display:inline;overflow:visible;visibility:visible;opacity:0.2;isolation:auto;mix-blend-mode:normal;color-interpolation:sRGB;color-interpolation-filters:linearRGB;solid-color:#000000;solid-opacity:1;fill:#ffffff;fill-opacity:1;fill-rule:nonzero;stroke:none;stroke-width:8;stroke-linecap:round;stroke-linejoin:round;stroke-miterlimit:4;stroke-dasharray:none;stroke-dashoffset:0;stroke-opacity:1;color-rendering:auto;image-rendering:auto;shape-rendering:auto;text-rendering:auto;enable-background:accumulate" id="path4148" d="M 10.748047 2 C 9.6617001 1.9999999 8.5750157 2.4134313 7.7460938 3.2421875 L 3.2421875 7.7460938 C 2.2856076 8.702865 1.9012894 10.001215 2.0488281 11.248047 C 2.1567261 10.334011 2.5409505 9.4474709 3.2421875 8.7460938 L 7.7460938 4.2421875 C 9.4039377 2.5846751 12.090204 2.5846756 13.748047 4.2421875 L 16 6.4941406 L 18.251953 4.2421875 C 19.909796 2.5846751 22.596062 2.5846752 24.253906 4.2421875 L 28.757812 8.7460938 C 29.459049 9.4474709 29.843274 10.334011 29.951172 11.248047 C 30.09871 10.001215 29.714392 8.702865 28.757812 7.7460938 L 24.253906 3.2421875 C 22.596062 1.5846752 19.909796 1.5846751 18.251953 3.2421875 L 16 5.4941406 L 13.748047 3.2421875 C 12.919125 2.4134315 11.834394 2.0000001 10.748047 2 z M 4.9941406 16.5 L 3.2421875 18.251953 C 2.2859123 19.208419 1.9016878 20.505484 2.0488281 21.751953 C 2.1569369 20.838339 2.5412552 19.953025 3.2421875 19.251953 L 5.4941406 17 L 4.9941406 16.5 z M 27.005859 16.5 L 26.505859 17 L 28.757812 19.251953 C 29.458745 19.953026 29.843063 20.838339 29.951172 21.751953 C 30.098312 20.505485 29.714088 19.20842 28.757812 18.251953 L 27.005859 16.5 z"/>
</svg>
