<?xml version="1.0" encoding="UTF-8" standalone="no"?>
<!-- Created with Inkscape (http://www.inkscape.org/) -->

<svg
   xmlns:dc="http://purl.org/dc/elements/1.1/"
   xmlns:cc="http://creativecommons.org/ns#"
   xmlns:rdf="http://www.w3.org/1999/02/22-rdf-syntax-ns#"
   xmlns:svg="http://www.w3.org/2000/svg"
   xmlns="http://www.w3.org/2000/svg"
   xmlns:sodipodi="http://sodipodi.sourceforge.net/DTD/sodipodi-0.dtd"
   xmlns:inkscape="http://www.inkscape.org/namespaces/inkscape"
   width="128"
   height="128"
   viewBox="0 0 128 128"
   id="svg2"
   version="1.1"
   inkscape:version="0.92.2 5c3e80d, 2017-08-06"
   sodipodi:docname="remove_books.svg">
  <defs
     id="defs4">
    <linearGradient
       id="linearGradient4561"
       x1="24"
       x2="44"
       y1="24"
       y2="24"
       gradientTransform="matrix(2.6,0,0,2.66668,1.6,922.36212)"
       gradientUnits="userSpaceOnUse">
      <stop
         offset="0"
         id="stop2" />
      <stop
         offset="1"
         stop-opacity="0"
         id="stop4" />
    </linearGradient>
  </defs>
  <sodipodi:namedview
     id="base"
     pagecolor="#ffffff"
     bordercolor="#666666"
     borderopacity="1.0"
     inkscape:pageopacity="0.0"
     inkscape:pageshadow="2"
     inkscape:zoom="3.5664062"
     inkscape:cx="41.179753"
     inkscape:cy="49.385898"
     inkscape:document-units="px"
     inkscape:current-layer="g931"
     showgrid="true"
     units="px"
     showguides="true"
     inkscape:guide-bbox="true"
     inkscape:window-width="1366"
     inkscape:window-height="694"
     inkscape:window-x="0"
     inkscape:window-y="48"
     inkscape:window-maximized="1">
    <inkscape:grid
       type="xygrid"
       id="grid4136"
       empspacing="4" />
    <sodipodi:guide
       position="8,140"
       orientation="1,0"
       id="guide4138"
       inkscape:label="Margin Left"
       inkscape:color="rgb(0,0,255)"
       inkscape:locked="false" />
    <sodipodi:guide
       position="120,140"
       orientation="1,0"
       id="guide4140"
       inkscape:label="Margin Right"
       inkscape:color="rgb(0,0,255)"
       inkscape:locked="false" />
    <sodipodi:guide
       position="-20,120"
       orientation="0,1"
       id="guide4142"
       inkscape:label="Margin Top"
       inkscape:color="rgb(0,0,255)"
       inkscape:locked="false" />
    <sodipodi:guide
       position="-16,8"
       orientation="0,1"
       id="guide4144"
       inkscape:label="Margin Bottom"
       inkscape:color="rgb(0,0,255)"
       inkscape:locked="false" />
    <sodipodi:guide
       position="8,8"
       orientation="-0.70710678,0.70710678"
       id="guide4146"
       inkscape:locked="false" />
    <sodipodi:guide
       position="72,56"
       orientation="0.70710678,0.70710678"
       id="guide4148"
       inkscape:locked="false" />
    <sodipodi:guide
       position="20,140"
       orientation="1,0"
       id="guide4150"
       inkscape:label="Rectangle Left"
       inkscape:color="rgb(0,0,255)"
       inkscape:locked="false" />
    <sodipodi:guide
       position="108,140"
       orientation="1,0"
       id="guide4152"
       inkscape:label="Rectangle Right"
       inkscape:color="rgb(0,0,255)"
       inkscape:locked="false" />
    <sodipodi:guide
       position="-20,116"
       orientation="0,1"
       id="guide4154"
       inkscape:label="Shadow Top"
       inkscape:color="rgb(0,0,255)"
       inkscape:locked="false" />
    <sodipodi:guide
       position="-16,12"
       orientation="0,1"
       id="guide4156"
       inkscape:label="Shadow Bottom"
       inkscape:color="rgb(0,0,255)"
       inkscape:locked="false" />
    <sodipodi:guide
       position="-20,104"
       orientation="0,1"
       id="guide4158"
       inkscape:label="Rectangle Top"
       inkscape:color="rgb(0,0,255)"
       inkscape:locked="false" />
    <sodipodi:guide
       position="-16,24"
       orientation="0,1"
       id="guide4160"
       inkscape:label="Rectangle Bottom"
       inkscape:color="rgb(0,0,255)"
       inkscape:locked="false" />
  </sodipodi:namedview>
  <metadata
     id="metadata7">
    <rdf:RDF>
      <cc:Work
         rdf:about="">
        <dc:format>image/svg+xml</dc:format>
        <dc:type
           rdf:resource="http://purl.org/dc/dcmitype/StillImage" />
        <dc:title />
      </cc:Work>
    </rdf:RDF>
  </metadata>
  <g
     inkscape:label="Layer 1"
     inkscape:groupmode="layer"
     id="layer1"
     transform="translate(0,-924.36216)">
    <g
       id="g48"
       transform="matrix(1,0,0,0.96551725,0,34.081443)">
      <path
         style="fill:#009587;stroke-width:4"
         inkscape:connector-curvature="0"
         id="path2"
         d="m 26,930.36216 c -3.324,0 -6,2.67601 -6,6 v 100.00004 c 0,3.324 2.676,6 6,6 h 76 c 3.324,0 6,-2.676 6,-6 V 936.36216 c 0,-3.32399 -2.676,-6 -6,-6 z" />
      <path
         style="opacity:0.2;stroke-width:4"
         inkscape:connector-curvature="0"
         id="path4"
         d="m 26,930.36216 c -3.324,0 -6,2.67601 -6,6 v 100.00004 c 0,3.324 2.676,6 6,6 H 36 V 930.36216 Z" />
      <path
         style="opacity:0.2;stroke-width:4"
         inkscape:connector-curvature="0"
         id="path6"
         d="m 76,934.36216 v 56 l 8,-8 8,8 v -56 z" />
      <path
         style="fill:#d8d8d8;stroke-width:4"
         inkscape:connector-curvature="0"
         id="path8"
         d="m 76,930.36216 v 56 l 8,-8 8,8 v -56 z" />
      <path
         style="opacity:0.2;fill:#ffffff;stroke-width:4"
         inkscape:connector-curvature="0"
         id="path10"
         d="m 26,930.36216 c -3.324,0 -6,2.67601 -6,6 v 4 c 0,-3.32399 2.676,-6 6,-6 h 76 c 3.324,0 6,2.67601 6,6 v -4 c 0,-3.32399 -2.676,-6 -6,-6 z" />
      <path
         style="opacity:0.2;stroke-width:4"
         inkscape:connector-curvature="0"
         id="path12"
         d="m 20,1036.3622 v 4 c 0,3.324 2.676,6 6,6 h 76 c 3.324,0 6,-2.676 6,-6 v -4 c 0,3.324 -2.676,6 -6,6 H 26 c -3.324,0 -6,-2.676 -6,-6 z" />
    </g>
    <g
       id="g931"
       transform="translate(-55.14356,42.401324)">
      <g
         transform="translate(-52,-28)"
         id="g114">
        <g
           transform="translate(109,-13.399864)"
           id="g40">
          <circle
             style="fill:#8561c5;fill-rule:evenodd;stroke-width:4"
             id="circle14"
             r="32"
             cy="1015.3607"
             cx="94.143562" />
          <g
             id="g107">
            <path
               d="m 126.05956,1017.0567 a 32,32 0 0 1 -31.916,30.304 32,32 0 0 1 -31.916,-29.696 32,32 0 0 0 -0.084,1.696 32,32 0 0 0 32,32 32,32 0 0 0 32,-32 32,32 0 0 0 -0.084,-2.304 z"
               id="path18"
               inkscape:connector-curvature="0"
               style="opacity:0.2;fill-rule:evenodd;stroke-width:4" />
          </g>
        </g>
      </g>
      <g
         style="opacity:0.2;fill-opacity:1"
         id="g890"
         transform="translate(0,4)">
        <rect
           style="fill-opacity:1;stroke-width:1.10344827"
           id="rect884"
           y="957.96088"
           x="146.72961"
           height="3.3103449"
           width="8.8275862" />
        <rect
           style="fill-opacity:1;stroke-width:1.10344827"
           id="rect886"
           ry="1.6871725"
           rx="1.6187587"
           y="960.16772"
           x="139.00546"
           height="28.689655"
           width="24.275862" />
        <rect
           style="fill-opacity:1;stroke-width:1.10344827"
           id="rect888"
           ry="1.6551725"
           rx="1.5933794"
           y="959.06427"
           x="136.79857"
           height="6.6206899"
           width="28.689655" />
      </g>
      <g
         id="g874"
         style="fill:#ffffff;fill-opacity:1">
        <rect
           width="8.8275862"
           height="3.3103449"
           x="146.72961"
           y="957.96088"
           id="rect2"
           style="fill:#ffffff;stroke-width:1.10344827;fill-opacity:1" />
        <rect
           width="24.275862"
           height="28.689655"
           x="139.00546"
           y="960.16772"
           rx="1.6187587"
           ry="1.6871725"
           id="rect6"
           style="fill:#ffffff;stroke-width:1.10344827;fill-opacity:1" />
        <rect
           width="28.689655"
           height="6.6206899"
           x="136.79857"
           y="959.06427"
           rx="1.5933794"
           ry="1.6551725"
           id="rect8"
           style="fill:#ffffff;stroke-width:1.10344827;fill-opacity:1" />
      </g>
      <g
         id="g895">
        <rect
           width="4.4137931"
           height="15.448277"
           x="148.93651"
           y="970.09875"
           rx="1.1034483"
           ry="0.77241379"
           id="rect10"
           style="opacity:0.4;stroke-width:1.10344827" />
        <rect
           width="4.4137931"
           height="15.448277"
           x="142.31581"
           y="970.09875"
           rx="1.1034483"
           ry="0.77241379"
           id="rect12"
           style="opacity:0.4;stroke-width:1.10344827" />
        <rect
           width="4.4137931"
           height="15.448277"
           x="155.55719"
           y="970.09875"
           rx="1.1034483"
           ry="0.77241379"
           id="rect14"
           style="opacity:0.4;stroke-width:1.10344827" />
      </g>
    </g>
  </g>
</svg>
