<?xml version="1.0" encoding="UTF-8" standalone="no"?>
<svg
   xmlns:dc="http://purl.org/dc/elements/1.1/"
   xmlns:cc="http://creativecommons.org/ns#"
   xmlns:rdf="http://www.w3.org/1999/02/22-rdf-syntax-ns#"
   xmlns:svg="http://www.w3.org/2000/svg"
   xmlns="http://www.w3.org/2000/svg"
   xmlns:sodipodi="http://sodipodi.sourceforge.net/DTD/sodipodi-0.dtd"
   xmlns:inkscape="http://www.inkscape.org/namespaces/inkscape"
   width="32"
   height="32"
   version="1"
   id="svg2"
   inkscape:version="0.91 r13725"
   sodipodi:docname="restart.svg">
  <metadata
     id="metadata18">
    <rdf:RDF>
      <cc:Work
         rdf:about="">
        <dc:format>image/svg+xml</dc:format>
        <dc:type
           rdf:resource="http://purl.org/dc/dcmitype/StillImage" />
      </cc:Work>
    </rdf:RDF>
  </metadata>
  <defs
     id="defs16" />
  <sodipodi:namedview
     pagecolor="#ffffff"
     bordercolor="#666666"
     borderopacity="1"
     objecttolerance="10"
     gridtolerance="10"
     guidetolerance="10"
     inkscape:pageopacity="0"
     inkscape:pageshadow="2"
     inkscape:window-width="1920"
     inkscape:window-height="1022"
     id="namedview14"
     showgrid="false"
     inkscape:zoom="7.375"
     inkscape:cx="16"
     inkscape:cy="16"
     inkscape:window-x="0"
     inkscape:window-y="28"
     inkscape:window-maximized="1"
     inkscape:current-layer="svg2" />
  <circle
     fill="#eac046"
     cx="16"
     cy="16"
     r="14"
     id="circle4" />
  <path
     opacity=".2"
     d="m14 5v3.2344c-4.0916 0.9326-6.9956 4.5686-7 8.7656 0 4.9706 4.0294 9 9 9 4.5795-0.0054 8.4248-3.4488 8.9336-8 0 0 0.06641-1-0.93359-1s-1.0801 1-1.0801 1c-0.497 3.441-3.443 5.996-6.92 6-3.866 0-7-3.134-7-7 0.0031-3.093 2.036-5.817 5-6.701v2.701l4-4z"
     id="path6" />
  <path
     fill="#fff"
     d="m14 4v3.2344c-4.0916 0.9325-6.9956 4.5686-7 8.7656 0 4.9706 4.0294 9 9 9 4.5795-0.0054 8.4248-3.4488 8.9336-8 0 0 0.06641-1-0.93359-1s-1.0801 1-1.0801 1c-0.497 3.441-3.443 5.996-6.92 6-3.866 0-7-3.134-7-7 0.0031-3.093 2.036-5.817 5-6.701v2.701l4-4z"
     id="path8"
     style="fill:#3f3f3f;fill-opacity:1" />
  <path
     fill="#fff"
     opacity=".2"
     d="m16 2a14 14 0 0 0 -14 14 14 14 0 0 0 0.0215 0.586 14 14 0 0 1 13.978 -13.586 14 14 0 0 1 13.979 13.414 14 14 0 0 0 0.021 -0.414 14 14 0 0 0 -14 -14z"
     id="path10" />
  <path
     opacity=".2"
     d="m29.979 16.414a14 14 0 0 1 -13.979 13.586 14 14 0 0 1 -13.978 -13.414 14 14 0 0 0 -0.022 0.414 14 14 0 0 0 14 14 14 14 0 0 0 14 -14 14 14 0 0 0 -0.021 -0.586z"
     id="path12" />
</svg>
