<svg xmlns="http://www.w3.org/2000/svg" id="svg2" width="22" height="22" version="1">
 <path id="path4" fill="#ccc" d="m19 20v-18c0-0.554-0.446-1-1-1h-14c-0.554 0-1 0.446-1 1v18c0 0.554 0.446 1 1 1h14c0.554 0 1-0.446 1-1z"/>
 <path id="path6" d="M 6,4 6,5 16,5 16,4 6,4 Z M 6,6 6,7 16,7 16,6 6,6 Z M 6,8 6,9 16,9 16,8 6,8 Z m 0,2 0,1 10,0 0,-1 -10,0 z m 4,2 0,3 -2,0 1.5,2 1.5,2 1.5,-2 1.5,-2 -2,0 0,-3 -2,0 z" style="fill:#4c4c4c;fill-opacity:1"/>
 <path id="path18" fill="#fff" opacity=".2" d="m4 1c-0.554 0-1 0.446-1 1v0.5c0-0.554 0.446-1 1-1h14c0.554 0 1 0.446 1 1v-0.5c0-0.554-0.446-1-1-1z"/>
 <path id="path20" opacity=".2" d="m3 20v0.5c0 0.554 0.446 1 1 1h14c0.554 0 1-0.446 1-1v-0.5c0 0.554-0.446 1-1 1h-14c-0.554 0-1-0.446-1-1z"/>
</svg>
