<?xml version="1.0" encoding="UTF-8" standalone="no"?>
<!-- Created with Inkscape (http://www.inkscape.org/) -->

<svg
   xmlns:dc="http://purl.org/dc/elements/1.1/"
   xmlns:cc="http://creativecommons.org/ns#"
   xmlns:rdf="http://www.w3.org/1999/02/22-rdf-syntax-ns#"
   xmlns:svg="http://www.w3.org/2000/svg"
   xmlns="http://www.w3.org/2000/svg"
   xmlns:sodipodi="http://sodipodi.sourceforge.net/DTD/sodipodi-0.dtd"
   xmlns:inkscape="http://www.inkscape.org/namespaces/inkscape"
   width="128"
   height="128"
   viewBox="0 0 128 128"
   id="svg2"
   version="1.1"
   inkscape:version="0.92.2 5c3e80d, 2017-08-06"
   sodipodi:docname="search.svg">
  <defs
     id="defs4">
    <linearGradient
       id="linearGradient4561"
       x1="24"
       x2="44"
       y1="24"
       y2="24"
       gradientTransform="matrix(2.6,0,0,2.66668,1.6,922.36212)"
       gradientUnits="userSpaceOnUse">
      <stop
         offset="0"
         id="stop2" />
      <stop
         offset="1"
         stop-opacity="0"
         id="stop4" />
    </linearGradient>
  </defs>
  <sodipodi:namedview
     id="base"
     pagecolor="#ffffff"
     bordercolor="#666666"
     borderopacity="1.0"
     inkscape:pageopacity="0.0"
     inkscape:pageshadow="2"
     inkscape:zoom="2.52183"
     inkscape:cx="71.265085"
     inkscape:cy="65.860304"
     inkscape:document-units="px"
     inkscape:current-layer="layer1"
     showgrid="false"
     units="px"
     showguides="true"
     inkscape:guide-bbox="true"
     inkscape:window-width="1366"
     inkscape:window-height="717"
     inkscape:window-x="0"
     inkscape:window-y="25"
     inkscape:window-maximized="1">
    <inkscape:grid
       type="xygrid"
       id="grid4136"
       empspacing="4" />
    <sodipodi:guide
       position="8,140"
       orientation="1,0"
       id="guide4138"
       inkscape:label="Margin Left"
       inkscape:color="rgb(0,0,255)"
       inkscape:locked="false" />
    <sodipodi:guide
       position="120,140"
       orientation="1,0"
       id="guide4140"
       inkscape:label="Margin Right"
       inkscape:color="rgb(0,0,255)"
       inkscape:locked="false" />
    <sodipodi:guide
       position="-20,120"
       orientation="0,1"
       id="guide4142"
       inkscape:label="Margin Top"
       inkscape:color="rgb(0,0,255)"
       inkscape:locked="false" />
    <sodipodi:guide
       position="-16,8"
       orientation="0,1"
       id="guide4144"
       inkscape:label="Margin Bottom"
       inkscape:color="rgb(0,0,255)"
       inkscape:locked="false" />
    <sodipodi:guide
       position="8,8"
       orientation="-0.70710678,0.70710678"
       id="guide4146"
       inkscape:locked="false" />
    <sodipodi:guide
       position="72,56"
       orientation="0.70710678,0.70710678"
       id="guide4148"
       inkscape:locked="false" />
    <sodipodi:guide
       position="20,140"
       orientation="1,0"
       id="guide4150"
       inkscape:label="Rectangle Left"
       inkscape:color="rgb(0,0,255)"
       inkscape:locked="false" />
    <sodipodi:guide
       position="108,140"
       orientation="1,0"
       id="guide4152"
       inkscape:label="Rectangle Right"
       inkscape:color="rgb(0,0,255)"
       inkscape:locked="false" />
    <sodipodi:guide
       position="-20,116"
       orientation="0,1"
       id="guide4154"
       inkscape:label="Shadow Top"
       inkscape:color="rgb(0,0,255)"
       inkscape:locked="false" />
    <sodipodi:guide
       position="-16,12"
       orientation="0,1"
       id="guide4156"
       inkscape:label="Shadow Bottom"
       inkscape:color="rgb(0,0,255)"
       inkscape:locked="false" />
    <sodipodi:guide
       position="-20,104"
       orientation="0,1"
       id="guide4158"
       inkscape:label="Rectangle Top"
       inkscape:color="rgb(0,0,255)"
       inkscape:locked="false" />
    <sodipodi:guide
       position="-16,24"
       orientation="0,1"
       id="guide4160"
       inkscape:label="Rectangle Bottom"
       inkscape:color="rgb(0,0,255)"
       inkscape:locked="false" />
  </sodipodi:namedview>
  <metadata
     id="metadata7">
    <rdf:RDF>
      <cc:Work
         rdf:about="">
        <dc:format>image/svg+xml</dc:format>
        <dc:type
           rdf:resource="http://purl.org/dc/dcmitype/StillImage" />
        <dc:title></dc:title>
      </cc:Work>
    </rdf:RDF>
  </metadata>
  <g
     inkscape:label="Layer 1"
     inkscape:groupmode="layer"
     id="layer1"
     transform="translate(0,-924.36216)">
    <rect
       width="112"
       height="112"
       x="-1042.3622"
       y="-119.7984"
       rx="56"
       ry="56"
       transform="matrix(0,-1,-1,0,0,0)"
       id="rect2"
       style="fill:#0286c2;stroke-width:4" />
    <path
       d="m 70.282399,962.34813 c -12.1152,0 -22.124801,9.8984 -22.124801,22 0,4.5996 1.55684,8.8312 4,12.3752 l -14.749999,14.75007 a 4.022,4.022 0 0 0 5.625199,5.75 l 14.75,-14.7501 c 3.549161,2.4437 7.892001,3.8751 12.500001,3.8751 12.1156,0 22,-9.89847 22,-22.00007 0,-12.1016 -9.8844,-22 -22,-22 z m 0,8 c 7.7896,0 14,6.2192 14,14 0,7.7804 -6.2104,14 -14,14 -7.7896,0 -14.000001,-6.2196 -14.000001,-14 0,-7.7808 6.210401,-14 14.000001,-14 z"
       id="path4"
       inkscape:connector-curvature="0"
       style="opacity:0.2;stroke-width:4" />
    <path
       d="m 64.198399,930.36213 c -31.024,0 -56.0000001,24.976 -56.0000001,56 0,0.676 0.078,1.332 0.1016,2 1.0548,-30.0824 25.5496001,-54 55.9000001,-54 30.3488,0 54.844001,23.9176 55.900001,54 0.024,-0.66944 0.1016,-1.32464 0.1016,-2 0,-31.024 -24.976001,-56 -56.000001,-56 z"
       id="path6"
       inkscape:connector-curvature="0"
       style="opacity:0.1;fill:#ffffff;stroke-width:4" />
    <path
       d="m 70.282399,958.34013 c -12.1152,0 -22.124801,9.8984 -22.124801,22 0,4.5996 1.55684,8.8312 4,12.3752 l -14.749999,14.75007 a 4.022,4.022 0 0 0 5.625199,5.75 l 14.75,-14.75007 c 3.549161,2.44367 7.892001,3.87497 12.500001,3.87497 12.1156,0 22,-9.89837 22,-21.99997 0,-12.1016 -9.8844,-22 -22,-22 z m 0,8 c 7.7896,0 14,6.2192 14,14 0,7.7804 -6.2104,14 -14,14 -7.7896,0 -14.000001,-6.2196 -14.000001,-14 0,-7.7808 6.210401,-14 14.000001,-14 z"
       id="path8"
       inkscape:connector-curvature="0"
       style="fill:#ffffff;stroke-width:4" />
    <path
       d="m 8.2999989,988.36213 c -0.0236,0.668 -0.1016,1.324 -0.1016,2 0,31.02407 24.9760001,56.00007 56.0000001,56.00007 31.024,0 56.000001,-24.976 56.000001,-56.00007 0,-0.67536 -0.0781,-1.33056 -0.10156,-2 -1.056,30.08407 -25.552001,54.00007 -55.900001,54.00007 -30.3488,0 -54.8440001,-23.916 -55.9000001,-54.00007 z"
       id="path10"
       inkscape:connector-curvature="0"
       style="opacity:0.2;stroke-width:4" />
  </g>
</svg>
