<svg xmlns="http://www.w3.org/2000/svg" id="svg2" width="32" height="32" version="1">
 <rect id="rect4" width="28" height="28" x="-30" y="-30" rx="1.4" ry="1.4" transform="matrix(0,-1,-1,0,0,0)" style="fill:#4f4f4f;fill-opacity:1"/>
 <path id="path6" d="M 3.4004,2 C 2.6248,2 2,2.6248 2,3.4004 l 0,1 C 2,3.6248 2.6248,3 3.4004,3 l 25.2,0 c 0.775,0 1.4,0.6248 1.4,1.4004 l 0,-1 C 30.0004,2.6248 29.3754,2 28.6004,2 l -25.2,0 z" style="opacity:0.1;fill:#ffffff"/>
 <path style="opacity:0.2" id="path8" d="m 2,28.6 0,1 C 2,30.375 2.6248,31 3.4004,31 l 25.2,0 c 0.775,0 1.4,-0.625 1.4,-1.4 l 0,-1 c 0,0.775 -0.625,1.4 -1.4,1.4 l -25.2,0 c -0.7752,0 -1.4,-0.625 -1.4,-1.4 z"/>
 <rect id="rect4149" width="20" height="6" x="6" y="8" rx="1.217" ry="1.05" style="opacity:0.2;fill:#000000;fill-opacity:1;stroke:none;stroke-width:3;stroke-miterlimit:4;stroke-dasharray:none;stroke-opacity:1"/>
 <rect style="opacity:1;fill:#b4b4b4;fill-opacity:1;stroke:none;stroke-width:3;stroke-miterlimit:4;stroke-dasharray:none;stroke-opacity:1" id="rect4139" width="20" height="6" x="6" y="7" rx="1.217" ry="1.05"/>
 <rect style="opacity:0.2;fill:#000000;fill-opacity:1;stroke:none;stroke-width:3;stroke-miterlimit:4;stroke-dasharray:none;stroke-opacity:1" id="rect4151" width="20" height="6" x="6" y="20" rx="1.217" ry="1.05"/>
 <rect id="rect4141" width="20" height="6" x="6" y="19" rx="1.217" ry="1.05" style="opacity:1;fill:#ffffff;fill-opacity:1;stroke:none;stroke-width:3;stroke-miterlimit:4;stroke-dasharray:none;stroke-opacity:1"/>
</svg>
