<svg xmlns="http://www.w3.org/2000/svg" width="32" height="32" version="1">
 <path fill="#009587" d="m6.5 2c-0.831 0-1.5 0.669-1.5 1.5v25c0 0.831 0.669 1.5 1.5 1.5h19c0.831 0 1.5-0.669 1.5-1.5v-25c0-0.831-0.669-1.5-1.5-1.5h-19z"/>
 <path opacity=".2" d="m6.5 2c-0.831 0-1.5 0.669-1.5 1.5v25c0 0.831 0.669 1.5 1.5 1.5h2.5v-28z"/>
 <path opacity=".2" d="m19 3v14l2-2 2 2v-14h-4z"/>
 <path fill="#d8d8d8" d="m19 2v14l2-2 2 2v-14h-4z"/>
 <path fill="#fff" opacity=".2" d="m6.5 2c-0.831 0-1.5 0.669-1.5 1.5v1c0-0.831 0.669-1.5 1.5-1.5h19c0.831 0 1.5 0.669 1.5 1.5v-1c0-0.831-0.669-1.5-1.5-1.5h-19z"/>
 <path opacity=".2" d="m5 28.5v1c0 0.831 0.669 1.5 1.5 1.5h19c0.831 0 1.5-0.669 1.5-1.5v-1c0 0.831-0.669 1.5-1.5 1.5h-19c-0.831 0-1.5-0.669-1.5-1.5z"/>
 <path fill-rule="evenodd" opacity=".2" d="m31.979 23.424a8 8 0 0 1 -7.979 7.576 8 8 0 0 1 -7.979 -7.424 8 8 0 0 0 -0.021 0.424 8 8 0 0 0 8 8 8 8 0 0 0 8 -8 8 8 0 0 0 -0.021 -0.576z"/>
 <circle style="fill:#3cd240" cx="24" cy="23" r="8"/>
 <path style="fill:#ffffff" d="M 21,26 H 27 V 27 H 21 Z M 23.983,26 21,22 H 23 V 18 H 25 V 22 H 27 Z"/>
</svg>
