<svg xmlns="http://www.w3.org/2000/svg" id="svg2" width="32" height="32" version="1">
 <rect id="rect4201" width="24" height="28" x="7" y="2" rx="1.44" ry="1.4" transform="matrix(0,1,1,0,0,0)" style="opacity:0.2;fill:#000000"/>
 <rect style="fill:#8e8e8e" id="rect6-3" width="24" height="28" x="6" y="2" rx="1.44" ry="1.4" transform="matrix(0,1,1,0,0,0)"/>
 <rect id="rect4145" width="23" height="15" x="-26" y="-32" rx="1" ry="1" transform="matrix(0,-1,-1,0,0,0)" style="opacity:0.2;fill:#000000;fill-opacity:1"/>
 <path style="fill:#ffffff;opacity:0.2" id="rect4205" d="M 3.4003906 6 C 2.6247906 6 2 6.6416931 2 7.4394531 L 2 8.4394531 C 2 7.6416931 2.6247906 7 3.4003906 7 L 28.599609 7 C 29.375209 7 30 7.6416931 30 8.4394531 L 30 7.4394531 C 30 6.6416931 29.375209 6 28.599609 6 L 3.4003906 6 z"/>
 <rect style="opacity:0.5" id="rect8-6" width="18" height="24" x="9" y="4" rx="1.174" ry="1.5" transform="matrix(0,1,1,0,0,0)"/>
 <rect style="fill:#cccccc;fill-opacity:1" id="rect4171" width="23" height="15" x="-25" y="-32" rx="1" ry="1" transform="matrix(0,-1,-1,0,0,0)"/>
 <rect style="opacity:1;fill:#474747;fill-opacity:1" id="rect4173" width="4" height="1" x="22.5" y="3" rx=".5" ry=".5"/>
 <rect style="opacity:1;fill:#474747;fill-opacity:1" id="rect4175" width="13" height="15" x="18" y="5" rx="1" ry="1.071"/>
 <circle style="opacity:1;fill:#474747;fill-opacity:1;stroke:none;stroke-width:3;stroke-miterlimit:4;stroke-dasharray:none;stroke-opacity:1" id="path4143" cx="24.5" cy="22.5" r="1.5"/>
 <path style="fill:#ffffff;fill-opacity:1;opacity:0.2" id="rect4147" d="M 18 2 C 17.446 2 17 2.446 17 3 L 17 4 C 17 3.446 17.446 3 18 3 L 31 3 C 31.554 3 32 3.446 32 4 L 32 3 C 32 2.446 31.554 2 31 2 L 18 2 z"/>
</svg>
