<?xml version="1.0" encoding="UTF-8" standalone="no"?>
<svg
   xmlns:dc="http://purl.org/dc/elements/1.1/"
   xmlns:cc="http://creativecommons.org/ns#"
   xmlns:rdf="http://www.w3.org/1999/02/22-rdf-syntax-ns#"
   xmlns:svg="http://www.w3.org/2000/svg"
   xmlns="http://www.w3.org/2000/svg"
   xmlns:sodipodi="http://sodipodi.sourceforge.net/DTD/sodipodi-0.dtd"
   xmlns:inkscape="http://www.inkscape.org/namespaces/inkscape"
   width="32"
   height="32"
   version="1"
   id="svg2"
   inkscape:version="0.91 r13725"
   sodipodi:docname="sync.svg">
  <metadata
     id="metadata20">
    <rdf:RDF>
      <cc:Work
         rdf:about="">
        <dc:format>image/svg+xml</dc:format>
        <dc:type
           rdf:resource="http://purl.org/dc/dcmitype/StillImage" />
        <dc:title />
      </cc:Work>
    </rdf:RDF>
  </metadata>
  <defs
     id="defs18" />
  <sodipodi:namedview
     pagecolor="#ffffff"
     bordercolor="#666666"
     borderopacity="1"
     objecttolerance="10"
     gridtolerance="10"
     guidetolerance="10"
     inkscape:pageopacity="0"
     inkscape:pageshadow="2"
     inkscape:window-width="1920"
     inkscape:window-height="1022"
     id="namedview16"
     showgrid="true"
     inkscape:zoom="22.36"
     inkscape:cx="22.33835"
     inkscape:cy="16"
     inkscape:window-x="0"
     inkscape:window-y="28"
     inkscape:window-maximized="1"
     inkscape:current-layer="svg2">
    <inkscape:grid
       type="xygrid"
       id="grid4141" />
  </sodipodi:namedview>
  <rect
     transform="matrix(0,1,1,0,0,0)"
     id="rect4201"
     ry="1.4"
     rx="1.4400001"
     y="2"
     x="7"
     height="28"
     width="24"
     style="opacity:0.2;fill:#000000" />
  <rect
     style="fill:#8e8e8e"
     width="24"
     height="28"
     x="6"
     y="2"
     rx="1.4400001"
     ry="1.4"
     id="rect6-3"
     transform="matrix(0,1,1,0,0,0)" />
  <rect
     id="rect4145"
     transform="matrix(0,-1,-1,0,0,0)"
     ry="1"
     rx="1"
     y="-32"
     x="-26"
     height="15"
     width="23"
     style="opacity:0.2;fill:#000000;fill-opacity:1" />
  <path
     style="fill:#ffffff;opacity:0.2"
     d="M 3.4003906 6 C 2.6247906 6 2 6.6416931 2 7.4394531 L 2 8.4394531 C 2 7.6416931 2.6247906 7 3.4003906 7 L 28.599609 7 C 29.375209 7 30 7.6416931 30 8.4394531 L 30 7.4394531 C 30 6.6416931 29.375209 6 28.599609 6 L 3.4003906 6 z "
     id="rect4205" />
  <rect
     style="opacity:0.5"
     width="18"
     height="24"
     x="9"
     y="3.9999995"
     rx="1.1739131"
     ry="1.5"
     id="rect8-6"
     transform="matrix(0,1,1,0,0,0)" />
  <rect
     style="fill:#cccccc;fill-opacity:1"
     width="23"
     height="15"
     x="-25"
     y="-32"
     rx="1"
     ry="1"
     transform="matrix(0,-1,-1,0,0,0)"
     id="rect4171" />
  <rect
     style="opacity:1;fill:#474747;fill-opacity:1"
     width="4"
     height="1"
     x="22.5"
     y="3"
     rx="0.5"
     ry="0.5"
     id="rect4173" />
  <rect
     style="opacity:1;fill:#474747;fill-opacity:1"
     width="13"
     height="15"
     x="18"
     y="5"
     rx="1"
     ry="1.0714284"
     id="rect4175" />
  <circle
     style="opacity:1;fill:#474747;fill-opacity:1;stroke:none;stroke-width:3;stroke-miterlimit:4;stroke-dasharray:none;stroke-opacity:1"
     id="path4143"
     cx="24.5"
     cy="22.5"
     r="1.5" />
  <path
     style="fill:#ffffff;fill-opacity:1;opacity:0.2"
     d="M 18 2 C 17.446 2 17 2.446 17 3 L 17 4 C 17 3.446 17.446 3 18 3 L 31 3 C 31.554 3 32 3.446 32 4 L 32 3 C 32 2.446 31.554 2 31 2 L 18 2 z "
     id="rect4147" />
</svg>
