<?xml version="1.0" encoding="UTF-8" standalone="no"?>
<!-- Created with Inkscape (http://www.inkscape.org/) -->

<svg
   xmlns:dc="http://purl.org/dc/elements/1.1/"
   xmlns:cc="http://creativecommons.org/ns#"
   xmlns:rdf="http://www.w3.org/1999/02/22-rdf-syntax-ns#"
   xmlns:svg="http://www.w3.org/2000/svg"
   xmlns="http://www.w3.org/2000/svg"
   xmlns:sodipodi="http://sodipodi.sourceforge.net/DTD/sodipodi-0.dtd"
   xmlns:inkscape="http://www.inkscape.org/namespaces/inkscape"
   width="128"
   height="128"
   viewBox="0 0 128 128"
   id="svg2"
   version="1.1"
   inkscape:version="0.92.2 5c3e80d, 2017-08-06"
   sodipodi:docname="sync.svg">
  <defs
     id="defs4" />
  <sodipodi:namedview
     id="base"
     pagecolor="#ffffff"
     bordercolor="#666666"
     borderopacity="1.0"
     inkscape:pageopacity="0.0"
     inkscape:pageshadow="2"
     inkscape:zoom="2.52183"
     inkscape:cx="80.862692"
     inkscape:cy="64.179354"
     inkscape:document-units="px"
     inkscape:current-layer="layer1"
     showgrid="false"
     units="px"
     showguides="true"
     inkscape:guide-bbox="true"
     inkscape:window-width="1366"
     inkscape:window-height="694"
     inkscape:window-x="0"
     inkscape:window-y="48"
     inkscape:window-maximized="1"
     inkscape:snap-bbox="true">
    <inkscape:grid
       type="xygrid"
       id="grid4136"
       empspacing="4" />
    <sodipodi:guide
       position="8,140"
       orientation="1,0"
       id="guide4138"
       inkscape:label="Margin Left"
       inkscape:color="rgb(0,0,255)"
       inkscape:locked="false" />
    <sodipodi:guide
       position="120,140"
       orientation="1,0"
       id="guide4140"
       inkscape:label="Margin Right"
       inkscape:color="rgb(0,0,255)"
       inkscape:locked="false" />
    <sodipodi:guide
       position="-20,120"
       orientation="0,1"
       id="guide4142"
       inkscape:label="Margin Top"
       inkscape:color="rgb(0,0,255)"
       inkscape:locked="false" />
    <sodipodi:guide
       position="-16,8"
       orientation="0,1"
       id="guide4144"
       inkscape:label="Margin Bottom"
       inkscape:color="rgb(0,0,255)"
       inkscape:locked="false" />
    <sodipodi:guide
       position="8,8"
       orientation="-0.70710678,0.70710678"
       id="guide4146"
       inkscape:locked="false" />
    <sodipodi:guide
       position="72,56"
       orientation="0.70710678,0.70710678"
       id="guide4148"
       inkscape:locked="false" />
    <sodipodi:guide
       position="20,140"
       orientation="1,0"
       id="guide4150"
       inkscape:label="Rectangle Left"
       inkscape:color="rgb(0,0,255)"
       inkscape:locked="false" />
    <sodipodi:guide
       position="108,140"
       orientation="1,0"
       id="guide4152"
       inkscape:label="Rectangle Right"
       inkscape:color="rgb(0,0,255)"
       inkscape:locked="false" />
    <sodipodi:guide
       position="-20,116"
       orientation="0,1"
       id="guide4154"
       inkscape:label="Shadow Top"
       inkscape:color="rgb(0,0,255)"
       inkscape:locked="false" />
    <sodipodi:guide
       position="-16,12"
       orientation="0,1"
       id="guide4156"
       inkscape:label="Shadow Bottom"
       inkscape:color="rgb(0,0,255)"
       inkscape:locked="false" />
    <sodipodi:guide
       position="-20,104"
       orientation="0,1"
       id="guide4158"
       inkscape:label="Rectangle Top"
       inkscape:color="rgb(0,0,255)"
       inkscape:locked="false" />
    <sodipodi:guide
       position="-16,24"
       orientation="0,1"
       id="guide4160"
       inkscape:label="Rectangle Bottom"
       inkscape:color="rgb(0,0,255)"
       inkscape:locked="false" />
  </sodipodi:namedview>
  <metadata
     id="metadata7">
    <rdf:RDF>
      <cc:Work
         rdf:about="">
        <dc:format>image/svg+xml</dc:format>
        <dc:type
           rdf:resource="http://purl.org/dc/dcmitype/StillImage" />
        <dc:title></dc:title>
      </cc:Work>
    </rdf:RDF>
  </metadata>
  <g
     inkscape:label="Layer 1"
     inkscape:groupmode="layer"
     id="layer1"
     transform="translate(0,-924.36216)">
    <g
       id="g833"
       transform="matrix(4,0,0,4,-8e-4,922.36216)">
      <rect
         id="rect2"
         transform="matrix(0,-1,-1,0,0,0)"
         ry="13"
         rx="13"
         y="-29"
         x="-29"
         height="26"
         width="26"
         style="fill:#1b9dce" />
      <path
         id="path4"
         d="M 16,3 C 8.798,3 3,8.798 3,16 3,16.169 3.0191,16.333 3.0254,16.5 3.2887,9.5337 8.967,4 16.0004,4 c 7.033,0 12.711,5.5337 12.975,12.5 0.006,-0.167 0.025,-0.331 0.025,-0.5 0,-7.202 -5.798,-13 -13,-13 z"
         inkscape:connector-curvature="0"
         style="opacity:0.2;fill:#ffffff" />
      <path
         id="path6"
         d="m 16.017,9.0001 c 1.7532,0.0037 3.531,0.52833 4.9196,1.5668 0.97624,1.0798 -0.88389,2.2362 -1.7217,1.1833 -2.522,-1.4652 -6.0788,-0.94934 -7.9763,1.2413 -1.0095,1.0871 -1.5784,2.5377 -1.5717,3.994 h 1.6667 c -0.8892,1.28 -1.778,2.56 -2.6669,3.84 L 6,16.9855 h 1.6667 c -0.053013,-3.4772 2.5514,-6.7845 6.048,-7.6851 0.7502,-0.19742 1.5231,-0.308 2.302,-0.30025 z m 7.3167,4.1607 c 0.888,1.28 1.777,2.561 2.666,3.841 H 24.333 c 0.04725,3.5187 -2.6237,6.8634 -6.1816,7.7164 -2.4008,0.64371 -5.1155,0.174 -7.0886,-1.2988 -1.0067,-1.0978 0.87926,-2.2431 1.7248,-1.1806 2.4435,1.4235 5.8653,0.97198 7.7941,-1.0611 1.117,-1.105 1.7598,-2.6358 1.7513,-4.176 h -1.6667 l 2.6667,-3.8406 z"
         inkscape:connector-curvature="0"
         style="opacity:0.2" />
      <path
         id="path8"
         d="M 3.0254,16.5 C 3.0191,16.667 3,16.831 3,17 3,24.202 8.798,30 16,30 23.202,30 29,24.202 29,17 29,16.831 28.981,16.667 28.975,16.5 28.711,23.466 23.033,29 16,29 8.967,29 3.289,23.466 3.025,16.5 Z"
         inkscape:connector-curvature="0"
         style="opacity:0.2" />
      <path
         id="path10"
         d="m 16.017,8.0003 c 1.7532,0.0037 3.531,0.52833 4.9196,1.5668 0.97624,1.0798 -0.88389,2.2362 -1.7217,1.1833 -2.522,-1.4652 -6.0788,-0.94934 -7.9763,1.2413 -1.0095,1.0871 -1.5784,2.5377 -1.5717,3.994 h 1.6667 c -0.8892,1.28 -1.778,2.56 -2.6669,3.84 L 6,15.9857 h 1.6667 c -0.053013,-3.4772 2.5514,-6.7845 6.048,-7.6851 0.7502,-0.19742 1.5231,-0.308 2.302,-0.30025 z m 7.3167,4.1607 c 0.888,1.28 1.777,2.561 2.666,3.841 H 24.333 c 0.04725,3.5187 -2.6237,6.8634 -6.1816,7.7164 -2.4008,0.64371 -5.1155,0.174 -7.0886,-1.2988 -1.0067,-1.0978 0.87926,-2.2431 1.7248,-1.1806 2.4435,1.4235 5.8653,0.97198 7.7941,-1.0611 1.117,-1.105 1.7598,-2.6358 1.7513,-4.176 h -1.6667 l 2.6667,-3.8406 z"
         style="fill:#77ffe4"
         inkscape:connector-curvature="0" />
    </g>
  </g>
</svg>
