<svg xmlns="http://www.w3.org/2000/svg" width="32" height="32" version="1">
 <path style="fill:#f6dd79" d="M 27.628,9.0626 C 25.895,6.0767 18.852,6.9677 17.303,7.8257 L 4.6945,15.066 C 4.0292,15.448 3.8029,16.288 4.187,16.95 L 9.0405,25.31 C 9.4245,25.971 10.27,26.197 10.935,25.815 L 23.544,18.575 C 24.524,17.991 29.362,12.049 27.629,9.0626 Z M 25.226,10.442 A 1.3866,1.379 0 0 1 24.719,12.326 1.3866,1.379 0 0 1 22.825,11.821 1.3866,1.379 0 0 1 23.332,9.9366 1.3866,1.379 0 0 1 25.226,10.442 Z"/>
 <path style="fill:#ffffff" d="M 25.227,10.442 A 1.3866,1.379 0 0 0 23.333,9.9366 1.3866,1.379 0 0 0 22.825,11.821 1.3866,1.379 0 0 0 24.719,12.326 1.3866,1.379 0 0 0 25.227,10.442 Z M 24.627,10.787 C 24.822,11.124 24.712,11.534 24.373,11.729 24.034,11.923 23.621,11.813 23.426,11.476 23.23,11.139 23.341,10.729 23.679,10.534 24.018,10.34 24.431,10.45 24.627,10.787 Z"/>
 <path style="opacity:0.3" d="M 6.0806,17.454 6.7739,18.648 7.9745,17.959 10.748,22.736 11.949,22.046 9.1755,17.269 10.377,16.58 9.6835,15.386 8.4825,16.075 7.2815,16.765 Z M 10.884,14.696 11.578,15.89 12.271,17.085 12.964,18.279 14.351,20.667 15.552,19.978 14.165,17.589 15.366,16.9 16.753,19.288 17.953,18.599 14.487,12.628 12.085,14.007 Z M 15.688,11.938 16.381,13.132 19.154,17.909 20.355,17.22 22.757,15.841 22.064,14.646 21.717,14.049 22.317,13.705 21.624,12.51 19.222,13.889 19.916,15.084 20.516,14.739 20.863,15.336 19.662,16.025 17.582,12.443 19.984,11.064 19.29,9.8686 Z M 12.779,15.201 13.979,14.511 14.673,15.705 13.472,16.395 Z"/>
 <path style="opacity:0.2;fill:#ffffff" d="M 22.396,7.0037 C 20.225,6.9604 18.076,7.3971 17.302,7.8259 L 4.6947,15.066 C 4.0909,15.413 3.8534,16.134 4.1009,16.76 4.2114,16.478 4.4099,16.23 4.6947,16.066 L 17.303,8.826 C 18.851,7.9684 25.896,7.0766 27.629,10.063 27.815,10.383 27.912,10.743 27.959,11.121 28.05,10.363 27.972,9.6536 27.629,9.0626 26.763,7.5695 24.568,7.047 22.397,7.0037 Z"/>
 <path style="opacity:0.2" d="M 23.992,9.7506 A 1.3866,1.379 0 0 0 23.332,9.9366 1.3866,1.379 0 0 0 22.734,11.628 1.3866,1.379 0 0 1 23.332,10.937 1.3866,1.379 0 0 1 25.226,11.441 1.3866,1.379 0 0 1 25.316,11.632 1.3866,1.379 0 0 0 25.226,10.441 1.3866,1.379 0 0 0 23.992,9.7506 Z M 27.961,11.12 C 27.592,14.192 24.329,18.105 23.543,18.573 L 10.936,25.813 C 10.271,26.195 9.4245,25.969 9.0405,25.308 L 4.1863,16.95 C 4.1504,16.888 4.1257,16.823 4.1004,16.758 3.9516,17.135 3.9661,17.57 4.1863,17.95 L 9.0395,26.311 C 9.4235,26.973 10.27,27.197 10.935,26.815 L 23.542,19.575 C 24.417,19.054 28.355,14.268 27.96,11.122 Z"/>
 <circle style="opacity:0.2;fill:#ffffff" cx="24" cy="12" r="1.5"/>
 <circle style="fill:#3f3f3f" cx="24" cy="11" r="1.5"/>
</svg>
