<?xml version="1.0" encoding="UTF-8" standalone="no"?>
<svg
   xmlns:dc="http://purl.org/dc/elements/1.1/"
   xmlns:cc="http://creativecommons.org/ns#"
   xmlns:rdf="http://www.w3.org/1999/02/22-rdf-syntax-ns#"
   xmlns:svg="http://www.w3.org/2000/svg"
   xmlns="http://www.w3.org/2000/svg"
   xmlns:sodipodi="http://sodipodi.sourceforge.net/DTD/sodipodi-0.dtd"
   xmlns:inkscape="http://www.inkscape.org/namespaces/inkscape"
   width="32"
   height="32"
   version="1"
   id="svg2"
   inkscape:version="0.91 r13725"
   sodipodi:docname="tags.svg">
  <metadata
     id="metadata22">
    <rdf:RDF>
      <cc:Work
         rdf:about="">
        <dc:format>image/svg+xml</dc:format>
        <dc:type
           rdf:resource="http://purl.org/dc/dcmitype/StillImage" />
      </cc:Work>
    </rdf:RDF>
  </metadata>
  <defs
     id="defs20" />
  <sodipodi:namedview
     pagecolor="#ffffff"
     bordercolor="#666666"
     borderopacity="1"
     objecttolerance="10"
     gridtolerance="10"
     guidetolerance="10"
     inkscape:pageopacity="0"
     inkscape:pageshadow="2"
     inkscape:window-width="1920"
     inkscape:window-height="1022"
     id="namedview18"
     showgrid="false"
     inkscape:zoom="22.36"
     inkscape:cx="8.9686943"
     inkscape:cy="16"
     inkscape:window-x="0"
     inkscape:window-y="28"
     inkscape:window-maximized="1"
     inkscape:current-layer="svg2" />
  <path
     id="path4155"
     d="m 23.462891,6.0034924 c -2.532844,-0.050061 -5.039772,0.4564274 -5.94336,0.953125 L 2.8105469,15.33943 C 2.0343602,15.781711 1.7706314,16.752651 2.21875,17.519117 l 5.6621094,9.681641 c 0.448002,0.765308 1.4351003,1.026265 2.2109376,0.583984 L 24.802734,19.40193 C 25.946073,18.725773 31.588248,11.845922 29.566406,8.3882581 28.555485,6.6597155 25.995736,6.0535529 23.462891,6.0034924 Z M 25,8.9995862 a 2.0000003,2.0000002 0 0 1 2,1.9999998 2.0000003,2.0000002 0 0 1 -2,2 2.0000003,2.0000002 0 0 1 -2,-2 2.0000003,2.0000002 0 0 1 2,-1.9999998 z"
     style="opacity:0.2;fill:#000000;fill-opacity:1"
     inkscape:connector-curvature="0" />
  <path
     style="fill:#ffa344;fill-opacity:1"
     d="M 23.462891 5.0039062 C 20.930047 4.9538452 18.423119 5.4603336 17.519531 5.9570312 L 2.8105469 14.339844 C 2.0343602 14.782125 1.7706314 15.753065 2.21875 16.519531 L 7.8808594 26.201172 C 8.3288614 26.96648 9.3159597 27.227437 10.091797 26.785156 L 24.802734 18.402344 C 25.946073 17.726187 31.588248 10.846336 29.566406 7.3886719 C 28.555485 5.6601293 25.995736 5.0539667 23.462891 5.0039062 z M 25 8 A 2.0000003 2.0000002 0 0 1 27 10 A 2.0000003 2.0000002 0 0 1 25 12 A 2.0000003 2.0000002 0 0 1 23 10 A 2.0000003 2.0000002 0 0 1 25 8 z "
     id="path4152" />
  <path
     id="path4157"
     d="m 4.4267022,18.104425 0.8088535,1.382417 1.4007061,-0.797726 3.2357639,5.530826 1.4011723,-0.798884 -3.2357635,-5.530827 1.401756,-0.797726 -0.8090868,-1.382418 -1.4011727,0.797727 -1.4011727,0.798884 z m 5.6039908,-3.193222 0.80967,1.382417 0.808504,1.383575 0.808503,1.382418 1.618174,2.764834 1.401173,-0.797726 -1.618174,-2.765993 1.401173,-0.797726 1.618173,2.764834 1.400006,-0.797726 -4.043684,-6.913244 -2.802345,1.596611 z m 5.604691,-3.193222 0.808503,1.382418 3.235181,5.530826 1.401173,-0.797726 2.802345,-1.596611 -0.808503,-1.383575 -0.404835,-0.691209 0.700003,-0.398284 -0.808504,-1.383575 -2.802345,1.596611 0.80967,1.383575 0.700003,-0.399442 0.404835,0.691208 -1.401173,0.797727 -2.426677,-4.147252 2.802346,-1.596611 -0.809671,-1.3840379 z m -3.393848,3.777913 1.400006,-0.798885 0.80967,1.382418 -1.401173,0.798884 z"
     style="opacity:0.2;fill:#000000"
     inkscape:connector-curvature="0" />
  <path
     inkscape:connector-curvature="0"
     style="opacity:1;fill:#3f3f3f;fill-opacity:1"
     d="M 4.4267022,17.104839 5.2355557,18.487256 6.6362618,17.68953 9.8720257,23.220356 11.273198,22.421472 8.0374345,16.890645 9.4391905,16.092919 8.6301037,14.710501 7.228931,15.508228 5.8277583,16.307112 Z m 5.6039908,-3.193222 0.80967,1.382417 0.808504,1.383575 0.808503,1.382418 1.618174,2.764834 1.401173,-0.797726 -1.618174,-2.765993 1.401173,-0.797726 1.618173,2.764834 1.400006,-0.797726 -4.043684,-6.913244 -2.802345,1.596611 z m 5.604691,-3.193222 0.808503,1.382418 3.235181,5.530826 1.401173,-0.797726 2.802345,-1.596611 -0.808503,-1.383575 -0.404835,-0.691209 0.700003,-0.398284 -0.808504,-1.383575 -2.802345,1.596611 0.80967,1.383575 0.700003,-0.399442 0.404835,0.691208 -1.401173,0.797727 -2.426677,-4.147252 2.802346,-1.5966109 -0.809671,-1.3840382 z m -3.393848,3.777913 1.400006,-0.798885 0.80967,1.382418 -1.401173,0.798884 z"
     id="path8" />
  <path
     style="fill:#ffffff;fill-opacity:1;opacity:0.2"
     d="M 23.462891 5.0039062 C 20.930047 4.9538452 18.423119 5.4603336 17.519531 5.9570312 L 2.8105469 14.339844 C 2.1300775 14.727584 1.8443375 15.522131 2.0859375 16.228516 C 2.2051957 15.867922 2.4495981 15.545517 2.8105469 15.339844 L 17.519531 6.9570312 C 18.423119 6.4603336 20.930047 5.9538452 23.462891 6.0039062 C 25.995736 6.0539668 28.555485 6.6601293 29.566406 8.3886719 C 29.796161 8.7815882 29.915175 9.222279 29.964844 9.6894531 C 30.055242 8.8421462 29.9543 8.0520306 29.566406 7.3886719 C 28.555485 5.6601293 25.995736 5.0539668 23.462891 5.0039062 z M 26.935547 10.496094 A 2.0000003 2.0000002 0 0 1 25 12 A 2.0000003 2.0000002 0 0 1 23.064453 10.501953 A 2.0000003 2.0000002 0 0 0 23 11 A 2.0000003 2.0000002 0 0 0 25 13 A 2.0000003 2.0000002 0 0 0 27 11 A 2.0000003 2.0000002 0 0 0 26.935547 10.496094 z "
     id="path4159" />
</svg>
