<?xml version="1.0" encoding="UTF-8" standalone="no"?>
<!-- Created with Inkscape (http://www.inkscape.org/) -->

<svg
   xmlns:dc="http://purl.org/dc/elements/1.1/"
   xmlns:cc="http://creativecommons.org/ns#"
   xmlns:rdf="http://www.w3.org/1999/02/22-rdf-syntax-ns#"
   xmlns:svg="http://www.w3.org/2000/svg"
   xmlns="http://www.w3.org/2000/svg"
   xmlns:sodipodi="http://sodipodi.sourceforge.net/DTD/sodipodi-0.dtd"
   xmlns:inkscape="http://www.inkscape.org/namespaces/inkscape"
   width="128"
   height="128"
   viewBox="0 0 128 128"
   id="svg2"
   version="1.1"
   inkscape:version="0.92.2 5c3e80d, 2017-08-06"
   sodipodi:docname="tags.svg">
  <defs
     id="defs4">
    <linearGradient
       id="linearGradient4561"
       x1="24"
       x2="44"
       y1="24"
       y2="24"
       gradientTransform="matrix(2.6,0,0,2.66668,1.6,922.36212)"
       gradientUnits="userSpaceOnUse">
      <stop
         offset="0"
         id="stop2" />
      <stop
         offset="1"
         stop-opacity="0"
         id="stop4" />
    </linearGradient>
  </defs>
  <sodipodi:namedview
     id="base"
     pagecolor="#ffffff"
     bordercolor="#666666"
     borderopacity="1.0"
     inkscape:pageopacity="0.0"
     inkscape:pageshadow="2"
     inkscape:zoom="3.5664062"
     inkscape:cx="65.462824"
     inkscape:cy="70.115275"
     inkscape:document-units="px"
     inkscape:current-layer="layer1"
     showgrid="true"
     units="px"
     showguides="true"
     inkscape:guide-bbox="true"
     inkscape:window-width="1366"
     inkscape:window-height="694"
     inkscape:window-x="0"
     inkscape:window-y="48"
     inkscape:window-maximized="1">
    <inkscape:grid
       type="xygrid"
       id="grid4136"
       empspacing="4" />
    <sodipodi:guide
       position="8,140"
       orientation="1,0"
       id="guide4138"
       inkscape:label="Margin Left"
       inkscape:color="rgb(0,0,255)"
       inkscape:locked="false" />
    <sodipodi:guide
       position="120,140"
       orientation="1,0"
       id="guide4140"
       inkscape:label="Margin Right"
       inkscape:color="rgb(0,0,255)"
       inkscape:locked="false" />
    <sodipodi:guide
       position="-20,120"
       orientation="0,1"
       id="guide4142"
       inkscape:label="Margin Top"
       inkscape:color="rgb(0,0,255)"
       inkscape:locked="false" />
    <sodipodi:guide
       position="-16,8"
       orientation="0,1"
       id="guide4144"
       inkscape:label="Margin Bottom"
       inkscape:color="rgb(0,0,255)"
       inkscape:locked="false" />
    <sodipodi:guide
       position="8,8"
       orientation="-0.70710678,0.70710678"
       id="guide4146"
       inkscape:locked="false" />
    <sodipodi:guide
       position="72,56"
       orientation="0.70710678,0.70710678"
       id="guide4148"
       inkscape:locked="false" />
    <sodipodi:guide
       position="20,140"
       orientation="1,0"
       id="guide4150"
       inkscape:label="Rectangle Left"
       inkscape:color="rgb(0,0,255)"
       inkscape:locked="false" />
    <sodipodi:guide
       position="108,140"
       orientation="1,0"
       id="guide4152"
       inkscape:label="Rectangle Right"
       inkscape:color="rgb(0,0,255)"
       inkscape:locked="false" />
    <sodipodi:guide
       position="-20,116"
       orientation="0,1"
       id="guide4154"
       inkscape:label="Shadow Top"
       inkscape:color="rgb(0,0,255)"
       inkscape:locked="false" />
    <sodipodi:guide
       position="-16,12"
       orientation="0,1"
       id="guide4156"
       inkscape:label="Shadow Bottom"
       inkscape:color="rgb(0,0,255)"
       inkscape:locked="false" />
    <sodipodi:guide
       position="-20,104"
       orientation="0,1"
       id="guide4158"
       inkscape:label="Rectangle Top"
       inkscape:color="rgb(0,0,255)"
       inkscape:locked="false" />
    <sodipodi:guide
       position="-16,24"
       orientation="0,1"
       id="guide4160"
       inkscape:label="Rectangle Bottom"
       inkscape:color="rgb(0,0,255)"
       inkscape:locked="false" />
  </sodipodi:namedview>
  <metadata
     id="metadata7">
    <rdf:RDF>
      <cc:Work
         rdf:about="">
        <dc:format>image/svg+xml</dc:format>
        <dc:type
           rdf:resource="http://purl.org/dc/dcmitype/StillImage" />
        <dc:title />
      </cc:Work>
    </rdf:RDF>
  </metadata>
  <g
     inkscape:label="Layer 1"
     inkscape:groupmode="layer"
     id="layer1"
     transform="translate(0,-924.36216)">
    <path
       d="M 118.26091,951.32091 C 110.17364,937.38634 77.306566,941.5443 70.077953,945.54828 L 11.241068,979.3347 c -3.1045699,1.7826 -4.160909,5.70356 -2.3685024,8.79099 l 22.6480964,39.01251 c 1.792406,3.0875 5.73482,4.1382 8.839529,2.3556 l 58.841554,-33.78594 c 4.574035,-2.72504 27.152805,-30.45258 19.064125,-44.38574 z m -11.20784,6.43528 a 6.470751,6.4352847 0 0 1 -2.36849,8.79099 6.470751,6.4352847 0 0 1 -8.839542,-2.35552 6.470751,6.4352847 0 0 1 2.368506,-8.791 6.470751,6.4352847 0 0 1 8.839526,2.35553 z"
       id="path8"
       inkscape:connector-curvature="0"
       style="fill:#771b85;stroke-width:4.66663122" />
    <path
       style="opacity:0.4;fill:#efefef;stroke-width:4.66663122"
       d="m 17.709487,990.4786 3.23542,5.57332 5.603691,-3.21769 12.9415,22.29317 5.60369,-3.218 -12.941498,-22.2929 5.603687,-3.21774 -3.23542,-5.57336 -5.603691,3.21774 -5.603689,3.21773 z m 22.415692,-12.87104 3.235423,5.57337 3.235421,5.57335 3.235423,5.57338 6.47075,11.14664 5.603691,-3.2177 -6.47075,-11.14669 5.603689,-3.21773 6.470754,11.14665 5.603689,-3.21772 -16.176878,-27.86628 -11.207847,6.43529 -5.603691,3.21773 z m 22.415698,-12.87102 3.235421,5.57335 12.941503,22.29296 5.603692,-3.21774 11.207846,-6.43526 -3.235421,-5.57336 -1.617734,-2.78663 2.801937,-1.60888 -3.235421,-5.57335 -11.207848,6.43528 3.235421,5.57336 2.80194,-1.60887 1.617688,2.78663 -5.603692,3.21774 -9.706126,-16.7196 11.20785,-6.4353 -3.235424,-5.57335 -16.81154,9.65293 z m -13.576164,15.22628 5.603691,-3.21775 3.235422,5.57338 -5.603692,3.21774 z"
       id="path12"
       inkscape:connector-curvature="0" />
    <path
       d="m 93.845105,941.71232 c -10.131722,-0.20198 -20.158446,1.83609 -23.770885,3.83722 l -58.832218,33.78641 c -2.8177129,1.61792 -3.9259911,4.98351 -2.770814,7.90249 0.5155696,-1.31344 1.4419897,-2.47267 2.770814,-3.23566 l 58.836886,-33.78642 c 7.224409,-4.00223 40.099902,-8.16382 48.187632,5.76935 0.86836,1.49586 1.3187,3.1742 1.54035,4.9401 0.4243,-3.53744 0.0604,-6.8492 -1.54035,-9.60671 -4.0443,-6.96637 -14.28642,-9.40468 -24.41768,-9.60674 z"
       id="path14"
       inkscape:connector-curvature="0"
       style="opacity:0.2;fill:#ffffff;stroke-width:4.66663122" />
    <path
       d="m 101.29304,954.53155 a 6.470751,6.4352847 0 0 0 -3.080723,0.8659 6.470751,6.4352847 0 0 0 -2.789049,7.89313 6.470751,6.4352847 0 0 1 2.789049,-3.22656 6.470751,6.4352847 0 0 1 8.840943,2.35157 6.470751,6.4352847 0 0 1 0.41925,0.89324 6.470751,6.4352847 0 0 0 -0.41925,-5.55982 6.470751,6.4352847 0 0 0 -5.76049,-3.21741 z m 18.52093,6.38908 c -1.71936,14.33635 -16.94827,32.59549 -20.617163,34.78086 l -58.83223,33.78731 c -3.104709,1.7828 -7.048475,0.7269 -8.840929,-2.3607 L 8.8694853,988.12448 c -0.1675323,-0.28933 -0.2827977,-0.59267 -0.4008637,-0.89598 -0.6943945,1.7593 -0.6267282,3.78929 0.4008637,5.5626 l 22.6494957,39.019 c 1.792407,3.0876 5.73622,4.1342 8.84093,2.3516 l 58.832221,-33.7864 c 4.083158,-2.43255 22.462358,-24.76575 20.617158,-39.44743 z"
       id="path16"
       inkscape:connector-curvature="0"
       style="opacity:0.2;stroke-width:4.66663122" />
  </g>
</svg>
