<?xml version="1.0" encoding="UTF-8" standalone="no"?>
<!-- Created with Inkscape (http://www.inkscape.org/) -->

<svg
   xmlns:dc="http://purl.org/dc/elements/1.1/"
   xmlns:cc="http://creativecommons.org/ns#"
   xmlns:rdf="http://www.w3.org/1999/02/22-rdf-syntax-ns#"
   xmlns:svg="http://www.w3.org/2000/svg"
   xmlns="http://www.w3.org/2000/svg"
   xmlns:sodipodi="http://sodipodi.sourceforge.net/DTD/sodipodi-0.dtd"
   xmlns:inkscape="http://www.inkscape.org/namespaces/inkscape"
   width="128"
   height="128"
   viewBox="0 0 128 128"
   id="svg2"
   version="1.1"
   inkscape:version="0.92.2 5c3e80d, 2017-08-06"
   sodipodi:docname="tags.svg">
  <defs
     id="defs4">
    <linearGradient
       id="linearGradient4561"
       x1="24"
       x2="44"
       y1="24"
       y2="24"
       gradientTransform="matrix(2.6,0,0,2.66668,1.6,922.36212)"
       gradientUnits="userSpaceOnUse">
      <stop
         offset="0"
         id="stop2" />
      <stop
         offset="1"
         stop-opacity="0"
         id="stop4" />
    </linearGradient>
  </defs>
  <sodipodi:namedview
     id="base"
     pagecolor="#ffffff"
     bordercolor="#666666"
     borderopacity="1.0"
     inkscape:pageopacity="0.0"
     inkscape:pageshadow="2"
     inkscape:zoom="2.52183"
     inkscape:cx="66.088282"
     inkscape:cy="68.79485"
     inkscape:document-units="px"
     inkscape:current-layer="layer1"
     showgrid="true"
     units="px"
     showguides="true"
     inkscape:guide-bbox="true"
     inkscape:window-width="1366"
     inkscape:window-height="717"
     inkscape:window-x="0"
     inkscape:window-y="25"
     inkscape:window-maximized="1">
    <inkscape:grid
       type="xygrid"
       id="grid4136"
       empspacing="4" />
    <sodipodi:guide
       position="8,140"
       orientation="1,0"
       id="guide4138"
       inkscape:label="Margin Left"
       inkscape:color="rgb(0,0,255)"
       inkscape:locked="false" />
    <sodipodi:guide
       position="120,140"
       orientation="1,0"
       id="guide4140"
       inkscape:label="Margin Right"
       inkscape:color="rgb(0,0,255)"
       inkscape:locked="false" />
    <sodipodi:guide
       position="-20,120"
       orientation="0,1"
       id="guide4142"
       inkscape:label="Margin Top"
       inkscape:color="rgb(0,0,255)"
       inkscape:locked="false" />
    <sodipodi:guide
       position="-16,8"
       orientation="0,1"
       id="guide4144"
       inkscape:label="Margin Bottom"
       inkscape:color="rgb(0,0,255)"
       inkscape:locked="false" />
    <sodipodi:guide
       position="8,8"
       orientation="-0.70710678,0.70710678"
       id="guide4146"
       inkscape:locked="false" />
    <sodipodi:guide
       position="72,56"
       orientation="0.70710678,0.70710678"
       id="guide4148"
       inkscape:locked="false" />
    <sodipodi:guide
       position="20,140"
       orientation="1,0"
       id="guide4150"
       inkscape:label="Rectangle Left"
       inkscape:color="rgb(0,0,255)"
       inkscape:locked="false" />
    <sodipodi:guide
       position="108,140"
       orientation="1,0"
       id="guide4152"
       inkscape:label="Rectangle Right"
       inkscape:color="rgb(0,0,255)"
       inkscape:locked="false" />
    <sodipodi:guide
       position="-20,116"
       orientation="0,1"
       id="guide4154"
       inkscape:label="Shadow Top"
       inkscape:color="rgb(0,0,255)"
       inkscape:locked="false" />
    <sodipodi:guide
       position="-16,12"
       orientation="0,1"
       id="guide4156"
       inkscape:label="Shadow Bottom"
       inkscape:color="rgb(0,0,255)"
       inkscape:locked="false" />
    <sodipodi:guide
       position="-20,104"
       orientation="0,1"
       id="guide4158"
       inkscape:label="Rectangle Top"
       inkscape:color="rgb(0,0,255)"
       inkscape:locked="false" />
    <sodipodi:guide
       position="-16,24"
       orientation="0,1"
       id="guide4160"
       inkscape:label="Rectangle Bottom"
       inkscape:color="rgb(0,0,255)"
       inkscape:locked="false" />
  </sodipodi:namedview>
  <metadata
     id="metadata7">
    <rdf:RDF>
      <cc:Work
         rdf:about="">
        <dc:format>image/svg+xml</dc:format>
        <dc:type
           rdf:resource="http://purl.org/dc/dcmitype/StillImage" />
        <dc:title></dc:title>
      </cc:Work>
    </rdf:RDF>
  </metadata>
  <g
     inkscape:label="Layer 1"
     inkscape:groupmode="layer"
     id="layer1"
     transform="translate(0,-924.36216)">
    <path
       d="m 110.50971,956.61224 c -6.932,-11.944 -35.103996,-8.38 -41.299996,-4.948 l -50.431997,28.96 c -2.66108,1.52796 -3.56652,4.8888 -2.03016,7.5352 l 19.4128,33.43956 c 1.53636,2.6465 4.915597,3.547 7.576797,2.0191 l 50.436,-28.95962 c 3.92064,-2.33576 23.274006,-26.1024 16.340796,-38.0452 z m -9.6068,5.516 a 5.5464,5.516 0 0 1 -2.030156,7.5352 5.5464,5.516 0 0 1 -7.5768,-2.01904 5.5464,5.516 0 0 1 2.03016,-7.5352 5.5464,5.516 0 0 1 7.576796,2.01904 z"
       id="path8"
       inkscape:connector-curvature="0"
       style="fill:#771b85;stroke-width:4" />
    <path
       style="opacity:0.4;fill:#efefef;stroke-width:4"
       d="m 24.322117,990.17624 2.77324,4.7772 4.8032,-2.75808 11.092797,19.10844 4.8032,-2.7581 -11.092797,-19.10842 4.803197,-2.75808 -2.773237,-4.7772 -4.8032,2.75808 -4.8032,2.75808 z m 19.213597,-11.0324 2.77324,4.7772 2.77324,4.7772 2.77324,4.7772 5.5464,9.55436 4.8032,-2.758 -5.5464,-9.55444 4.8032,-2.75808 5.5464,9.5544 4.8032,-2.75808 -13.866,-23.8856 -9.6068,5.516 -4.8032,2.75808 z m 19.2136,-11.0324 2.77324,4.7772 11.0928,19.1084 4.8032,-2.75808 9.6068,-5.516 -2.77324,-4.7772 -1.38664,-2.38856 2.40168,-1.37904 -2.77324,-4.7772 -9.6068,5.516 2.77324,4.7772 2.40168,-1.37904 1.3866,2.38856 -4.8032,2.75808 -8.3196,-14.3312 9.6068,-5.516 -2.77324,-4.7772 -14.41,8.274 z m -11.6368,13.0512 4.8032,-2.75808 2.77324,4.7772 -4.8032,2.75808 z"
       id="path12"
       inkscape:connector-curvature="0" />
    <path
       d="m 89.581714,948.37624 c -8.6844,-0.17312 -17.2788,1.5738 -20.3752,3.28908 l -50.427997,28.96 c -2.4152,1.3868 -3.36516,4.2716 -2.375,6.7736 0.44192,-1.1258 1.236,-2.11944 2.375,-2.77344 l 50.431997,-28.96 c 6.1924,-3.43052 34.371596,-6.9976 41.303996,4.9452 0.74432,1.28216 1.13032,2.72076 1.32032,4.2344 0.36368,-3.03212 0.0518,-5.8708 -1.32032,-8.2344 -3.46656,-5.9712 -12.245596,-8.0612 -20.929596,-8.2344 z"
       id="path14"
       inkscape:connector-curvature="0"
       style="opacity:0.2;fill:#ffffff;stroke-width:4" />
    <path
       d="m 95.965714,959.36424 a 5.5464,5.516 0 0 0 -2.64064,0.7422 5.5464,5.516 0 0 0 -2.39064,6.7656 5.5464,5.516 0 0 1 2.39064,-2.76564 5.5464,5.516 0 0 1 7.577996,2.01564 5.5464,5.516 0 0 1 0.35936,0.76564 5.5464,5.516 0 0 0 -0.35936,-4.7656 5.5464,5.516 0 0 0 -4.937596,-2.7578 z m 15.875196,5.4764 c -1.47376,12.2884 -14.527196,27.9392 -17.671996,29.8124 l -50.428,28.96076 c -2.6612,1.528 -6.041597,0.6231 -7.577997,-2.0234 l -19.418,-33.432 c -0.1436,-0.248 -0.2424,-0.508 -0.3436,-0.768 -0.5952,1.508 -0.5372,3.248 0.3436,4.768 l 19.414,33.4452 c 1.53636,2.6465 4.916797,3.5436 7.577997,2.0156 l 50.428,-28.95996 c 3.49988,-2.08508 19.253596,-21.228 17.671996,-33.8124 z"
       id="path16"
       inkscape:connector-curvature="0"
       style="opacity:0.2;stroke-width:4" />
  </g>
</svg>
