<svg xmlns="http://www.w3.org/2000/svg" width="32" height="32" version="1">
 <rect opacity=".2" width="28" height="24" x="2" y="5" rx="2" ry="2"/>
 <rect style="fill:#4ab3e4" width="28" height="24" x="2" y="4" rx="2" ry="2"/>
 <g opacity=".2" transform="translate(0,1)">
  <path fill="none" stroke="#000" stroke-linecap="round" stroke-linejoin="round" stroke-width="1.177" d="m6.5929 13.231 1.2714 2.18c0.81026-1.2023 1.7427-2.7904 2.5428-3.8158"/>
  <circle cx="8" cy="9" r="1"/>
  <rect width="13" height="2" x="12" y="8" rx="1" ry="1"/>
  <rect width="13" height="2" x="12" y="13" rx="1" ry="1"/>
  <rect width="13" height="2" x="12" y="18" rx="1" ry="1"/>
  <rect width="13" height="2" x="12" y="23" rx="1" ry="1"/>
  <circle cx="8" cy="19" r="1"/>
  <circle cx="8" cy="24" r="1"/>
 </g>
 <g>
  <path fill="none" stroke="#fff" stroke-linecap="round" stroke-linejoin="round" stroke-width="1.177" d="m6.5929 13.231 1.2714 2.18c0.81026-1.2023 1.7427-2.7904 2.5428-3.8158"/>
  <circle fill="#fff" cx="8" cy="9" r="1"/>
  <rect fill="#fff" width="13" height="2" x="12" y="8" rx="1" ry="1"/>
  <rect fill="#fff" width="13" height="2" x="12" y="13" rx="1" ry="1"/>
  <rect fill="#fff" width="13" height="2" x="12" y="18" rx="1" ry="1"/>
  <rect fill="#fff" width="13" height="2" x="12" y="23" rx="1" ry="1"/>
  <circle fill="#fff" cx="8" cy="19" r="1"/>
  <circle fill="#fff" cx="8" cy="24" r="1"/>
 </g>
 <path fill="#fff" opacity=".2" d="m4 4c-1.108 0-2 0.892-2 2v1c0-1.108 0.892-2 2-2h24c1.108 0 2 0.892 2 2v-1c0-1.108-0.892-2-2-2h-24z"/>
 <circle style="opacity:0.2" cx="17.5" cy="13.5" r="4.5"/>
 <circle style="opacity:0.2;fill:#041218" cx="17.5" cy="13.5" r="2.5"/>
 <path style="opacity:0.2" d="M 17.479,14 C 15.978,14 15.977,15 15.974,16 15.964,16.618 15.966,17.908 15.978,19.811 15.997,22.853 15.991,23.807 15.955,23.938 14.918,23.829 13.349,23.41 12.648,22.854 12.189,22.491 11.734,22.157 11.638,22.114 11.235,21.935 10.664,22.048 10.336,22.372 10.11,22.596 10.026,22.796 10.006,23.155 9.9908,23.43 10,23.495 10.084,23.677 10.137,23.791 10.233,23.945 10.297,24.019 10.361,24.092 11.234,25.224 12.238,26.536 14.096,28.966 15.945,29.867 16.263,29.957 16.458,30.013 26.502,30.015 26.703,29.959 26.795,29.934 26.927,29.85 27.022,29.756 27.155,29.625 27.204,29.529 27.307,29.211 27.602,28.302 27.896,26.919 27.979,26.151 28.016,25.258 27.996,25.224 27.979,24.5 27.979,24.487 27.976,24.475 27.976,24.461 27.977,23.818 27.981,23.275 27.976,23 27.979,22 27.981,21 26.483,21 25.131,21 25.005,21.82 24.99,22.713 24.988,22.737 24.98,22.761 24.98,22.786 24.981,22.544 24.983,22.148 24.98,22 24.983,21 24.983,20 23.485,20 22.142,20 22.009,20.809 21.992,21.696 21.988,21.698 21.985,21.699 21.981,21.702 21.981,21.696 21.979,21.648 21.979,21.637 21.979,21.457 21.981,21.12 21.979,21 21.982,20 21.982,19 20.484,19 19.345,19 19.072,19.579 19.005,20.295 19.003,20.296 18.979,20.301 18.979,20.301 18.958,20.309 18.975,19.086 18.975,17.77 18.975,16.868 18.982,16.333 18.975,16.001 18.978,15 18.979,14.001 17.479,14.001 Z"/>
 <path style="fill:#ebebeb" d="M 17.479,13 C 15.978,13 15.977,14 15.974,15 15.964,15.618 15.966,16.908 15.978,18.811 15.997,21.852 15.991,22.807 15.955,22.937 14.918,22.828 13.349,22.409 12.648,21.854 12.189,21.49 11.734,21.157 11.638,21.114 11.235,20.935 10.664,21.048 10.336,21.372 10.11,21.596 10.026,21.795 10.006,22.155 9.9908,22.429 10,22.494 10.084,22.676 10.137,22.791 10.233,22.945 10.297,23.018 10.361,23.091 11.234,24.224 12.238,25.536 14.096,27.965 15.945,28.866 16.263,28.957 16.458,29.013 26.502,29.014 26.703,28.959 26.795,28.934 26.927,28.85 27.022,28.756 27.155,28.625 27.204,28.529 27.307,28.211 27.602,27.302 27.896,25.919 27.979,25.15 28.016,24.258 27.996,24.224 27.979,23.5 27.979,23.486 27.976,23.474 27.976,23.461 27.977,22.818 27.981,22.274 27.976,22 27.979,21 27.981,20 26.483,20 25.131,20 25.005,20.819 24.99,21.713 24.988,21.737 24.98,21.761 24.98,21.785 24.981,21.543 24.983,21.147 24.98,21 24.983,20 24.983,19 23.485,19 22.142,19 22.009,19.809 21.992,20.695 21.988,20.697 21.985,20.699 21.981,20.701 21.981,20.696 21.979,20.648 21.979,20.637 21.979,20.457 21.981,20.12 21.979,20 21.982,19 21.982,18 20.484,18 19.345,18 19.072,18.579 19.005,19.295 19.003,19.295 18.979,19.301 18.979,19.301 18.958,19.309 18.975,18.086 18.975,16.77 18.975,15.868 18.982,15.332 18.975,15 18.978,14 18.979,13 17.479,13 Z"/>
</svg>
