<?xml version="1.0" encoding="UTF-8" standalone="no"?>
<svg
   xmlns:dc="http://purl.org/dc/elements/1.1/"
   xmlns:cc="http://creativecommons.org/ns#"
   xmlns:rdf="http://www.w3.org/1999/02/22-rdf-syntax-ns#"
   xmlns:svg="http://www.w3.org/2000/svg"
   xmlns="http://www.w3.org/2000/svg"
   xmlns:sodipodi="http://sodipodi.sourceforge.net/DTD/sodipodi-0.dtd"
   xmlns:inkscape="http://www.inkscape.org/namespaces/inkscape"
   width="32"
   height="32"
   version="1"
   id="svg2"
   inkscape:version="0.91 r13725"
   sodipodi:docname="toc.svg">
  <metadata
     id="metadata58">
    <rdf:RDF>
      <cc:Work
         rdf:about="">
        <dc:format>image/svg+xml</dc:format>
        <dc:type
           rdf:resource="http://purl.org/dc/dcmitype/StillImage" />
      </cc:Work>
    </rdf:RDF>
  </metadata>
  <defs
     id="defs56" />
  <sodipodi:namedview
     pagecolor="#ffffff"
     bordercolor="#666666"
     borderopacity="1"
     objecttolerance="10"
     gridtolerance="10"
     guidetolerance="10"
     inkscape:pageopacity="0"
     inkscape:pageshadow="2"
     inkscape:window-width="1920"
     inkscape:window-height="1022"
     id="namedview54"
     showgrid="true"
     inkscape:zoom="11.98"
     inkscape:cx="-21.225375"
     inkscape:cy="16"
     inkscape:window-x="0"
     inkscape:window-y="28"
     inkscape:window-maximized="1"
     inkscape:current-layer="svg2">
    <inkscape:grid
       type="xygrid"
       id="grid4150" />
  </sodipodi:namedview>
  <rect
     style="opacity:0.2"
     width="28"
     height="24"
     x="2"
     y="5"
     rx="2"
     ry="2"
     id="rect4" />
  <rect
     style="fill:#4ab3e4"
     width="28"
     height="24"
     x="2"
     y="4"
     rx="2"
     ry="2"
     id="rect6" />
  <path
     style="fill:#000000;fill-opacity:1;opacity:0.5"
     d="M 8 8 A 1 1 0 0 0 7 9 A 1 1 0 0 0 8 10 A 1 1 0 0 0 9 9 A 1 1 0 0 0 8 8 z M 13 8 C 12.446 8 12 8.446 12 9 C 12 9.554 12.446 10 13 10 L 24 10 C 24.554 10 25 9.554 25 9 C 25 8.446 24.554 8 24 8 L 13 8 z M 8 13 A 1 1 0 0 0 7 14 A 1 1 0 0 0 8 15 A 1 1 0 0 0 9 14 A 1 1 0 0 0 8 13 z M 13 13 C 12.446 13 12 13.446 12 14 C 12 14.554 12.446 15 13 15 L 24 15 C 24.554 15 25 14.554 25 14 C 25 13.446 24.554 13 24 13 L 13 13 z M 8 18 A 1 1 0 0 0 7 19 A 1 1 0 0 0 8 20 A 1 1 0 0 0 9 19 A 1 1 0 0 0 8 18 z M 13 18 C 12.446 18 12 18.446 12 19 C 12 19.554 12.446 20 13 20 L 24 20 C 24.554 20 25 19.554 25 19 C 25 18.446 24.554 18 24 18 L 13 18 z M 8 23 A 1 1 0 0 0 7 24 A 1 1 0 0 0 8 25 A 1 1 0 0 0 9 24 A 1 1 0 0 0 8 23 z M 13 23 C 12.446 23 12 23.446 12 24 C 12 24.554 12.446 25 13 25 L 24 25 C 24.554 25 25 24.554 25 24 C 25 23.446 24.554 23 24 23 L 13 23 z "
     id="circle30" />
  <path
     style="opacity:0.2;fill:#ffffff"
     inkscape:connector-curvature="0"
     d="M 4,4 C 2.892,4 2,4.892 2,6 L 2,7 C 2,5.892 2.892,5 4,5 l 24,0 c 1.108,0 2,0.892 2,2 L 30,6 C 30,4.892 29.108,4 28,4 L 4,4 Z"
     id="path44" />
  <g
     id="g4144"
     transform="translate(0,-1.0000004)">
    <path
       id="path50"
       d="m 8.479038,14.999987 c -1.501,0 -1.502,1 -1.505,2 -0.01,0.618 -0.008,1.908 0.004,3.811 0.019,3.042 0.013,3.996 -0.023,4.127 -1.037,-0.109 -2.606,-0.528 -3.307,-1.084 -0.459,-0.363 -0.914,-0.697 -1.01,-0.74 -0.403,-0.179 -0.974,-0.066 -1.302,0.258 -0.226,0.224 -0.31,0.424 -0.33,0.783 -0.0152,0.275 -0.006,0.34 0.078,0.522 0.053,0.114 0.149,0.268 0.213,0.342 0.064,0.073 0.937,1.205 1.941,2.517 1.858,2.43 3.707,3.331 4.025,3.421 0.195,0.056 10.239,0.058 10.44,0.002 0.092,-0.025 0.224,-0.109 0.319,-0.203 0.133,-0.131 0.182,-0.227 0.285,-0.545 0.295,-0.909 0.589,-2.292 0.672,-3.06 0.037,-0.893 0.017,-0.927 0,-1.651 0,-0.013 -0.003,-0.025 -0.003,-0.039 0.001,-0.643 0.005,-1.186 0,-1.461 0.003,-1 0.005,-2 -1.493,-2 -1.352,0 -1.478,0.82 -1.493,1.713 -0.002,0.024 -0.01,0.048 -0.01,0.073 10e-4,-0.242 0.003,-0.638 0,-0.786 0.003,-1 0.003,-2 -1.495,-2 -1.343,0 -1.476,0.809 -1.493,1.696 -0.004,0.002 -0.007,0.003 -0.011,0.006 0,-0.006 -0.002,-0.054 -0.002,-0.065 0,-0.18 0.002,-0.517 0,-0.637 0.003,-1 0.003,-2 -1.495,-2 -1.139,0 -1.412,0.579 -1.479,1.295 -0.002,0.001 -0.026,0.006 -0.026,0.006 -0.021,0.008 -0.004,-1.215 -0.004,-2.531 0,-0.902 0.007,-1.437 0,-1.769 0.003,-1.001 0.004,-2 -1.496,-2 z"
       style="opacity:0.2"
       inkscape:connector-curvature="0" />
    <path
       id="path52"
       d="m 8.479038,13.999987 c -1.501,0 -1.502,1 -1.505,2 -0.01,0.618 -0.008,1.908 0.004,3.811 0.019,3.041 0.013,3.996 -0.023,4.126 -1.037,-0.109 -2.606,-0.528 -3.307,-1.083 -0.459,-0.364 -0.914,-0.697 -1.01,-0.74 -0.403,-0.179 -0.974,-0.066 -1.302,0.258 -0.226,0.224 -0.31,0.423 -0.33,0.783 -0.0152,0.274 -0.006,0.339 0.078,0.521 0.053,0.115 0.149,0.269 0.213,0.342 0.064,0.073 0.937,1.206 1.941,2.518 1.858,2.429 3.707,3.33 4.025,3.421 0.195,0.056 10.239,0.057 10.44,0.002 0.092,-0.025 0.224,-0.109 0.319,-0.203 0.133,-0.131 0.182,-0.227 0.285,-0.545 0.295,-0.909 0.589,-2.292 0.672,-3.061 0.037,-0.892 0.017,-0.926 0,-1.65 0,-0.014 -0.003,-0.026 -0.003,-0.039 0.001,-0.643 0.005,-1.187 0,-1.461 0.003,-1 0.005,-2 -1.493,-2 -1.352,0 -1.478,0.819 -1.493,1.713 -0.002,0.024 -0.01,0.048 -0.01,0.072 10e-4,-0.242 0.003,-0.638 0,-0.785 0.003,-1 0.003,-2 -1.495,-2 -1.343,0 -1.476,0.809 -1.493,1.695 -0.004,0.002 -0.007,0.004 -0.011,0.006 0,-0.005 -0.002,-0.053 -0.002,-0.064 0,-0.18 0.002,-0.517 0,-0.637 0.003,-1 0.003,-2 -1.495,-2 -1.139,0 -1.412,0.579 -1.479,1.295 -0.002,0 -0.026,0.006 -0.026,0.006 -0.021,0.008 -0.004,-1.215 -0.004,-2.531 0,-0.902 0.007,-1.438 0,-1.77 0.003,-1 0.004,-2 -1.496,-2 z"
       style="fill:#ffffff;fill-opacity:1"
       inkscape:connector-curvature="0" />
  </g>
</svg>
