<?xml version="1.0" encoding="UTF-8" standalone="no"?>
<!-- Created with Inkscape (http://www.inkscape.org/) -->

<svg
   xmlns:dc="http://purl.org/dc/elements/1.1/"
   xmlns:cc="http://creativecommons.org/ns#"
   xmlns:rdf="http://www.w3.org/1999/02/22-rdf-syntax-ns#"
   xmlns:svg="http://www.w3.org/2000/svg"
   xmlns="http://www.w3.org/2000/svg"
   xmlns:sodipodi="http://sodipodi.sourceforge.net/DTD/sodipodi-0.dtd"
   xmlns:inkscape="http://www.inkscape.org/namespaces/inkscape"
   width="128"
   height="128"
   viewBox="0 0 128 128"
   id="svg2"
   version="1.1"
   inkscape:version="0.92.2 5c3e80d, 2017-08-06"
   sodipodi:docname="toc.svg">
  <defs
     id="defs4">
    <linearGradient
       id="linearGradient4561"
       x1="24"
       x2="44"
       y1="24"
       y2="24"
       gradientTransform="matrix(2.6,0,0,2.66668,1.6,922.36212)"
       gradientUnits="userSpaceOnUse">
      <stop
         offset="0"
         id="stop2" />
      <stop
         offset="1"
         stop-opacity="0"
         id="stop4" />
    </linearGradient>
  </defs>
  <sodipodi:namedview
     id="base"
     pagecolor="#ffffff"
     bordercolor="#666666"
     borderopacity="1.0"
     inkscape:pageopacity="0.0"
     inkscape:pageshadow="2"
     inkscape:zoom="3.5664062"
     inkscape:cx="55.439259"
     inkscape:cy="62.936918"
     inkscape:document-units="px"
     inkscape:current-layer="g40"
     showgrid="true"
     units="px"
     showguides="true"
     inkscape:guide-bbox="true"
     inkscape:window-width="1366"
     inkscape:window-height="694"
     inkscape:window-x="0"
     inkscape:window-y="48"
     inkscape:window-maximized="1">
    <inkscape:grid
       type="xygrid"
       id="grid4136"
       empspacing="4" />
    <sodipodi:guide
       position="8,140"
       orientation="1,0"
       id="guide4138"
       inkscape:label="Margin Left"
       inkscape:color="rgb(0,0,255)"
       inkscape:locked="false" />
    <sodipodi:guide
       position="120,140"
       orientation="1,0"
       id="guide4140"
       inkscape:label="Margin Right"
       inkscape:color="rgb(0,0,255)"
       inkscape:locked="false" />
    <sodipodi:guide
       position="-20,120"
       orientation="0,1"
       id="guide4142"
       inkscape:label="Margin Top"
       inkscape:color="rgb(0,0,255)"
       inkscape:locked="false" />
    <sodipodi:guide
       position="-16,8"
       orientation="0,1"
       id="guide4144"
       inkscape:label="Margin Bottom"
       inkscape:color="rgb(0,0,255)"
       inkscape:locked="false" />
    <sodipodi:guide
       position="8,8"
       orientation="-0.70710678,0.70710678"
       id="guide4146"
       inkscape:locked="false" />
    <sodipodi:guide
       position="72,56"
       orientation="0.70710678,0.70710678"
       id="guide4148"
       inkscape:locked="false" />
    <sodipodi:guide
       position="20,140"
       orientation="1,0"
       id="guide4150"
       inkscape:label="Rectangle Left"
       inkscape:color="rgb(0,0,255)"
       inkscape:locked="false" />
    <sodipodi:guide
       position="108,140"
       orientation="1,0"
       id="guide4152"
       inkscape:label="Rectangle Right"
       inkscape:color="rgb(0,0,255)"
       inkscape:locked="false" />
    <sodipodi:guide
       position="-20,116"
       orientation="0,1"
       id="guide4154"
       inkscape:label="Shadow Top"
       inkscape:color="rgb(0,0,255)"
       inkscape:locked="false" />
    <sodipodi:guide
       position="-16,12"
       orientation="0,1"
       id="guide4156"
       inkscape:label="Shadow Bottom"
       inkscape:color="rgb(0,0,255)"
       inkscape:locked="false" />
    <sodipodi:guide
       position="-20,104"
       orientation="0,1"
       id="guide4158"
       inkscape:label="Rectangle Top"
       inkscape:color="rgb(0,0,255)"
       inkscape:locked="false" />
    <sodipodi:guide
       position="-16,24"
       orientation="0,1"
       id="guide4160"
       inkscape:label="Rectangle Bottom"
       inkscape:color="rgb(0,0,255)"
       inkscape:locked="false" />
  </sodipodi:namedview>
  <metadata
     id="metadata7">
    <rdf:RDF>
      <cc:Work
         rdf:about="">
        <dc:format>image/svg+xml</dc:format>
        <dc:type
           rdf:resource="http://purl.org/dc/dcmitype/StillImage" />
        <dc:title></dc:title>
      </cc:Work>
    </rdf:RDF>
  </metadata>
  <g
     inkscape:label="Layer 1"
     inkscape:groupmode="layer"
     id="layer1"
     transform="translate(0,-924.36216)">
    <rect
       width="112"
       height="96"
       x="8"
       y="942.36218"
       rx="8"
       ry="8"
       id="rect2"
       style="opacity:0.2;stroke-width:4" />
    <rect
       width="112"
       height="96"
       x="8"
       y="938.36218"
       rx="8"
       ry="8"
       id="rect4"
       style="fill:#4ab3e4;stroke-width:4;fill-opacity:1" />
    <g
       transform="matrix(4,0,0,4,0,926.36215)"
       id="g22"
       style="opacity:0.2">
      <path
         d="m 6.5929,13.231 1.2714,2.18 c 0.81026,-1.2023 1.7427,-2.7904 2.5428,-3.8158"
         id="path6"
         inkscape:connector-curvature="0"
         style="fill:none;stroke:#000000;stroke-width:1.17700005;stroke-linecap:round;stroke-linejoin:round" />
      <circle
         cx="8"
         cy="9"
         r="1"
         id="circle8" />
      <rect
         width="13"
         height="2"
         x="12"
         y="8"
         rx="1"
         ry="1"
         id="rect10" />
      <rect
         width="13"
         height="2"
         x="12"
         y="13"
         rx="1"
         ry="1"
         id="rect12" />
      <rect
         width="13"
         height="2"
         x="12"
         y="18"
         rx="1"
         ry="1"
         id="rect14" />
      <rect
         width="13"
         height="2"
         x="12"
         y="23"
         rx="1"
         ry="1"
         id="rect16" />
      <circle
         cx="8"
         cy="19"
         r="1"
         id="circle18" />
      <circle
         cx="8"
         cy="24"
         r="1"
         id="circle20" />
    </g>
    <g
       id="g40"
       transform="matrix(4,0,0,4,0,922.36215)">
      <path
         d="m 6.5929,13.231 1.2714,2.18 c 0.81026,-1.2023 1.7427,-2.7904 2.5428,-3.8158"
         id="path24"
         inkscape:connector-curvature="0"
         style="fill:none;stroke:#ffffff;stroke-width:1.17700005;stroke-linecap:round;stroke-linejoin:round" />
      <circle
         cx="8"
         cy="9"
         r="1"
         id="circle26"
         style="fill:#ffffff" />
      <rect
         width="13"
         height="2"
         x="12"
         y="8"
         rx="1"
         ry="1"
         id="rect28"
         style="fill:#ffffff" />
      <rect
         width="13"
         height="2"
         x="12"
         y="13"
         rx="1"
         ry="1"
         id="rect30"
         style="fill:#ffffff" />
      <rect
         width="13"
         height="2"
         x="12"
         y="18"
         rx="1"
         ry="1"
         id="rect32"
         style="fill:#ffffff" />
      <rect
         width="13"
         height="2"
         x="12"
         y="23"
         rx="1"
         ry="1"
         id="rect34"
         style="fill:#ffffff" />
      <circle
         cx="8"
         cy="19"
         r="1"
         id="circle36"
         style="fill:#ffffff" />
      <circle
         cx="8"
         cy="24"
         r="1"
         id="circle38"
         style="fill:#ffffff" />
      <g
         id="g895"
         transform="translate(39.4,10.000396)">
        <circle
           id="circle6"
           r="4.5"
           cy="3.9996073"
           cx="-19.9"
           style="opacity:0.2;stroke-width:1" />
        <circle
           id="circle8-3"
           r="2.5"
           cy="3.9996073"
           cx="-19.9"
           style="opacity:0.2;fill:#041218;stroke-width:1" />
        <g
           id="g83">
          <path
             style="opacity:0.2;stroke-width:1"
             d="m -19.921358,4.500003 c -1.500683,0 -1.501233,0.9999025 -1.504577,1.9999995 -0.01045,0.617929 -0.0077,1.907833 0.0039,3.8105465 0.01861,3.041575 0.01289,3.99615 -0.02345,4.126953 -1.036814,-0.109281 -2.605018,-0.528244 -3.30666,-1.083455 -0.458589,-0.363804 -0.913641,-0.69731 -1.010217,-0.740234 -0.402588,-0.178945 -0.9738,-0.06626 -1.301361,0.257812 -0.226497,0.224083 -0.31028,0.423849 -0.330225,0.783203 -0.01524,0.274612 -0.006,0.339564 0.07817,0.521485 0.05303,0.114607 0.149173,0.268452 0.212986,0.341797 0.06381,0.07335 0.936868,1.205649 1.940318,2.517578 1.858351,2.42964 3.707241,3.330672 4.02573,3.421345 0.19472,0.05553 10.238546,0.0573 10.440202,0.002 0.09156,-0.02514 0.223909,-0.109415 0.318502,-0.203125 0.132552,-0.131317 0.182315,-0.227341 0.285282,-0.544921 0.2948,-0.909259 0.588835,-2.292162 0.672175,-3.060547 0.03625,-0.892812 0.01702,-0.926771 0,-1.650391 -2.5e-4,-0.01364 -0.0034,-0.02555 -0.0039,-0.03906 0.0015,-0.64306 0.0054,-1.186604 0,-1.460938 0.003,-1.000095 0.0053,-2 -1.492852,-2 -1.351711,0 -1.477401,0.819191 -1.492854,1.712891 -0.0022,0.02404 -0.0094,0.04812 -0.0098,0.07227 5.25e-4,-0.24172 0.0029,-0.63772 0,-0.785156 0.003,-1.000095 0.0033,-2 -1.494808,-2 -1.342756,0 -1.475914,0.808614 -1.492852,1.695312 -0.0039,0.0021 -0.0078,0.0036 -0.01173,0.0059 -2.3e-5,-0.0052 -0.0017,-0.05373 -0.002,-0.06445 1.19e-4,-0.179803 0.0023,-0.517156 0,-0.636719 0.003,-1.000095 0.0033,-1.9999995 -1.494808,-1.9999995 -1.138559,0 -1.411967,0.5787025 -1.479174,1.2949215 -0.0017,3.75e-4 -0.0252,0.0058 -0.0254,0.0059 -0.02135,0.0077 -0.0039,-1.2150745 -0.0039,-2.5312495 0,-0.901566 0.0065,-1.437249 0,-1.769531 0.003,-1.000095 0.0039,-1.9999995 -1.496762,-1.9999995 z"
             id="path10"
             inkscape:connector-curvature="0" />
          <path
             style="fill:#ebebeb;stroke-width:1"
             d="m -19.921358,3.499607 c -1.500683,0 -1.501233,0.999903 -1.504577,1.9999995 -0.01045,0.617929 -0.0077,1.907833 0.0039,3.810547 0.01861,3.0415745 0.01289,3.9961495 -0.02345,4.1269525 -1.036814,-0.109281 -2.605018,-0.528244 -3.30666,-1.083455 -0.458589,-0.363804 -0.913641,-0.69731 -1.010217,-0.740234 -0.402588,-0.178945 -0.9738,-0.06626 -1.301361,0.257812 -0.226497,0.224083 -0.31028,0.423849 -0.330225,0.783203 -0.01524,0.274612 -0.006,0.339564 0.07817,0.521485 0.05303,0.114607 0.149173,0.268452 0.212986,0.341797 0.06381,0.07335 0.936868,1.205649 1.940318,2.517578 1.858351,2.42964 3.707241,3.330672 4.02573,3.421345 0.19472,0.05553 10.238546,0.0573 10.440202,0.002 0.09156,-0.02514 0.223909,-0.109415 0.318502,-0.203125 0.132552,-0.131317 0.182315,-0.227341 0.285282,-0.544921 0.2948,-0.909259 0.588835,-2.292162 0.672175,-3.060547 0.03625,-0.892812 0.01702,-0.926771 0,-1.650391 -2.5e-4,-0.01364 -0.0034,-0.02555 -0.0039,-0.03906 0.0015,-0.64306 0.0054,-1.186604 0,-1.460938 0.003,-1.000095 0.0053,-2 -1.492852,-2 -1.351711,0 -1.477401,0.819191 -1.492854,1.712891 -0.0022,0.02404 -0.0094,0.04812 -0.0098,0.07227 5.25e-4,-0.24172 0.0029,-0.63772 0,-0.785156 0.003,-1.000095 0.0033,-1.9999995 -1.494808,-1.9999995 -1.342756,0 -1.475914,0.8086135 -1.492852,1.6953115 -0.0039,0.0021 -0.0078,0.0036 -0.01173,0.0059 -2.3e-5,-0.0052 -0.0017,-0.05373 -0.002,-0.06445 1.19e-4,-0.179803 0.0023,-0.517156 0,-0.636719 0.003,-1.0000945 0.0033,-1.9999995 -1.494808,-1.9999995 -1.138559,0 -1.411967,0.578703 -1.479174,1.294922 -0.0017,3.75e-4 -0.0252,0.0058 -0.0254,0.0059 -0.02135,0.0077 -0.0039,-1.215075 -0.0039,-2.53125 0,-0.901566 0.0065,-1.437249 0,-1.769531 0.003,-1.0000945 0.0039,-1.9999995 -1.496762,-1.9999995 z"
             id="path12"
             inkscape:connector-curvature="0" />
        </g>
      </g>
    </g>
    <path
       d="m 16,938.36215 c -4.432,0 -8,3.568 -8,8 v 4 c 0,-4.432 3.568,-8 8,-8 h 96 c 4.432,0 8,3.568 8,8 v -4 c 0,-4.432 -3.568,-8 -8,-8 z"
       id="path42"
       inkscape:connector-curvature="0"
       style="opacity:0.2;fill:#ffffff;stroke-width:4" />
  </g>
</svg>
