<?xml version="1.0" encoding="UTF-8" standalone="no"?>
<!-- Created with Inkscape (http://www.inkscape.org/) -->

<svg
   xmlns:dc="http://purl.org/dc/elements/1.1/"
   xmlns:cc="http://creativecommons.org/ns#"
   xmlns:rdf="http://www.w3.org/1999/02/22-rdf-syntax-ns#"
   xmlns:svg="http://www.w3.org/2000/svg"
   xmlns="http://www.w3.org/2000/svg"
   xmlns:sodipodi="http://sodipodi.sourceforge.net/DTD/sodipodi-0.dtd"
   xmlns:inkscape="http://www.inkscape.org/namespaces/inkscape"
   width="128"
   height="128"
   viewBox="0 0 128 128"
   id="svg2"
   version="1.1"
   inkscape:version="0.92.2 5c3e80d, 2017-08-06"
   sodipodi:docname="view.svg">
  <defs
     id="defs4">
    <linearGradient
       id="linearGradient4561"
       x1="24"
       x2="44"
       y1="24"
       y2="24"
       gradientTransform="matrix(2.6,0,0,2.66668,1.6,922.36212)"
       gradientUnits="userSpaceOnUse">
      <stop
         offset="0"
         id="stop2" />
      <stop
         offset="1"
         stop-opacity="0"
         id="stop4" />
    </linearGradient>
  </defs>
  <sodipodi:namedview
     id="base"
     pagecolor="#ffffff"
     bordercolor="#666666"
     borderopacity="1.0"
     inkscape:pageopacity="0.0"
     inkscape:pageshadow="2"
     inkscape:zoom="2.52183"
     inkscape:cx="48.736151"
     inkscape:cy="48.423222"
     inkscape:document-units="px"
     inkscape:current-layer="g847"
     showgrid="true"
     units="px"
     showguides="true"
     inkscape:guide-bbox="true"
     inkscape:window-width="1366"
     inkscape:window-height="694"
     inkscape:window-x="0"
     inkscape:window-y="48"
     inkscape:window-maximized="1">
    <inkscape:grid
       type="xygrid"
       id="grid4136"
       empspacing="4" />
    <sodipodi:guide
       position="8,140"
       orientation="1,0"
       id="guide4138"
       inkscape:label="Margin Left"
       inkscape:color="rgb(0,0,255)"
       inkscape:locked="false" />
    <sodipodi:guide
       position="120,140"
       orientation="1,0"
       id="guide4140"
       inkscape:label="Margin Right"
       inkscape:color="rgb(0,0,255)"
       inkscape:locked="false" />
    <sodipodi:guide
       position="-20,120"
       orientation="0,1"
       id="guide4142"
       inkscape:label="Margin Top"
       inkscape:color="rgb(0,0,255)"
       inkscape:locked="false" />
    <sodipodi:guide
       position="-16,8"
       orientation="0,1"
       id="guide4144"
       inkscape:label="Margin Bottom"
       inkscape:color="rgb(0,0,255)"
       inkscape:locked="false" />
    <sodipodi:guide
       position="8,8"
       orientation="-0.70710678,0.70710678"
       id="guide4146"
       inkscape:locked="false" />
    <sodipodi:guide
       position="72,56"
       orientation="0.70710678,0.70710678"
       id="guide4148"
       inkscape:locked="false" />
    <sodipodi:guide
       position="20,140"
       orientation="1,0"
       id="guide4150"
       inkscape:label="Rectangle Left"
       inkscape:color="rgb(0,0,255)"
       inkscape:locked="false" />
    <sodipodi:guide
       position="108,140"
       orientation="1,0"
       id="guide4152"
       inkscape:label="Rectangle Right"
       inkscape:color="rgb(0,0,255)"
       inkscape:locked="false" />
    <sodipodi:guide
       position="-20,116"
       orientation="0,1"
       id="guide4154"
       inkscape:label="Shadow Top"
       inkscape:color="rgb(0,0,255)"
       inkscape:locked="false" />
    <sodipodi:guide
       position="-16,12"
       orientation="0,1"
       id="guide4156"
       inkscape:label="Shadow Bottom"
       inkscape:color="rgb(0,0,255)"
       inkscape:locked="false" />
    <sodipodi:guide
       position="-20,104"
       orientation="0,1"
       id="guide4158"
       inkscape:label="Rectangle Top"
       inkscape:color="rgb(0,0,255)"
       inkscape:locked="false" />
    <sodipodi:guide
       position="-16,24"
       orientation="0,1"
       id="guide4160"
       inkscape:label="Rectangle Bottom"
       inkscape:color="rgb(0,0,255)"
       inkscape:locked="false" />
  </sodipodi:namedview>
  <metadata
     id="metadata7">
    <rdf:RDF>
      <cc:Work
         rdf:about="">
        <dc:format>image/svg+xml</dc:format>
        <dc:type
           rdf:resource="http://purl.org/dc/dcmitype/StillImage" />
        <dc:title></dc:title>
      </cc:Work>
    </rdf:RDF>
  </metadata>
  <g
     inkscape:label="Layer 1"
     inkscape:groupmode="layer"
     id="layer1"
     transform="translate(0,-924.36216)">
    <g
       id="g847"
       transform="matrix(1.75,0,0,1.75,-1.21683,-753.68621)">
      <g
         transform="translate(-56.73324,-22.90598)"
         id="g1545">
        <circle
           cx="94"
           cy="1016.3622"
           r="32"
           id="circle14"
           style="fill:#64db2d;fill-rule:evenodd;stroke-width:4;fill-opacity:1" />
        <path
           d="m 125.916,1018.0582 a 32,32 0 0 1 -31.916,30.304 32,32 0 0 1 -31.916,-29.696 32,32 0 0 0 -0.084,1.696 32,32 0 0 0 32,32 32,32 0 0 0 32,-32 32,32 0 0 0 -0.084,-2.304 z"
           id="path18"
           inkscape:connector-curvature="0"
           style="opacity:0.2;fill-rule:evenodd;stroke-width:4" />
      </g>
      <path
         d="m 37.1232,982.74108 c -3.87708,0.038 -7.78,0.9236 -11.1572,2.8375 -1.34604,0.8768 -2.96188,2.0092 -4.1796,3.1501 -1.916,1.876 -3.556,4.064 -4.664,6.516 3.03736,6.70042 9.7148,11.61132 17.0604,12.33692 4.8184,0.5454 9.8612,-0.2872 14.0968,-2.6714 1.346,-0.8768 2.96188,-2.0092 4.1796,-3.1502 1.916,-1.88002 3.556,-4.06802 4.664,-6.51602 -3.036,-6.7 -9.716,-11.612 -17.06,-12.336 -0.976,-0.116 -1.96,-0.168 -2.94,-0.168 z m 0,5.0012 c 4.0176,-0.089 7.5756,3.5053 7.5,7.5016 0.12876,4.4168 -4.2724,8.22892 -8.6232,7.40412 -4.394,-0.5161 -7.4804,-5.44572 -6.0352,-9.62132 0.924,-3.072 3.94,-5.32 7.16,-5.284 z m 0,5.0012 a 2.5,2.50056 0 0 0 -2.5,2.504 2.5,2.50056 0 0 0 2.5,2.5 2.5,2.50056 0 0 0 2.5,-2.5 2.5,2.50056 0 0 0 -2.5,-2.492 z"
         id="path849"
         inkscape:connector-curvature="0"
         style="opacity:0.2;fill-rule:evenodd;stroke-width:4" />
      <path
         style="fill:#ffffff;fill-rule:evenodd;stroke-width:4"
         inkscape:connector-curvature="0"
         id="path10-3-6"
         d="m 37.1232,980.45536 c -3.87708,0.038 -7.78,0.9236 -11.1572,2.8375 -1.34604,0.8768 -2.96188,2.0092 -4.1796,3.1501 -1.916,1.876 -3.556,4.064 -4.664,6.516 3.03736,6.7004 9.7148,11.61124 17.0604,12.33684 4.8184,0.5454 9.8612,-0.2872 14.0968,-2.6714 1.346,-0.8768 2.96188,-2.0092 4.1796,-3.15014 1.916,-1.88 3.556,-4.068 4.664,-6.516 -3.036,-6.7 -9.716,-11.612 -17.06,-12.336 -0.976,-0.116 -1.96,-0.168 -2.94,-0.168 z m 0,5.0012 c 4.0176,-0.089 7.5756,3.5053 7.5,7.5016 0.12876,4.4168 -4.2724,8.22884 -8.6232,7.40404 -4.394,-0.51604 -7.4804,-5.44564 -6.0352,-9.62124 0.924,-3.072 3.94,-5.32 7.16,-5.284 z m 0,5.0012 a 2.5,2.50056 0 0 0 -2.5,2.504 2.5,2.50056 0 0 0 2.5,2.5 2.5,2.50056 0 0 0 2.5,-2.5 2.5,2.50056 0 0 0 -2.5,-2.492 z" />
    </g>
  </g>
</svg>
