<?xml version="1.0" encoding="UTF-8" standalone="no"?>
<!-- Created with Inkscape (http://www.inkscape.org/) -->

<svg
   xmlns:dc="http://purl.org/dc/elements/1.1/"
   xmlns:cc="http://creativecommons.org/ns#"
   xmlns:rdf="http://www.w3.org/1999/02/22-rdf-syntax-ns#"
   xmlns:svg="http://www.w3.org/2000/svg"
   xmlns="http://www.w3.org/2000/svg"
   xmlns:sodipodi="http://sodipodi.sourceforge.net/DTD/sodipodi-0.dtd"
   xmlns:inkscape="http://www.inkscape.org/namespaces/inkscape"
   width="128"
   height="128"
   viewBox="0 0 128 128"
   id="svg2"
   version="1.1"
   inkscape:version="0.92.2 5c3e80d, 2017-08-06"
   sodipodi:docname="view.svg">
  <defs
     id="defs4">
    <linearGradient
       id="linearGradient4561"
       x1="24"
       x2="44"
       y1="24"
       y2="24"
       gradientTransform="matrix(2.6,0,0,2.66668,1.6,922.36212)"
       gradientUnits="userSpaceOnUse">
      <stop
         offset="0"
         id="stop2" />
      <stop
         offset="1"
         stop-opacity="0"
         id="stop4" />
    </linearGradient>
  </defs>
  <sodipodi:namedview
     id="base"
     pagecolor="#ffffff"
     bordercolor="#666666"
     borderopacity="1.0"
     inkscape:pageopacity="0.0"
     inkscape:pageshadow="2"
     inkscape:zoom="3.5664062"
     inkscape:cx="36.652197"
     inkscape:cy="58.957946"
     inkscape:document-units="px"
     inkscape:current-layer="g847"
     showgrid="true"
     units="px"
     showguides="true"
     inkscape:guide-bbox="true"
     inkscape:window-width="1366"
     inkscape:window-height="694"
     inkscape:window-x="0"
     inkscape:window-y="48"
     inkscape:window-maximized="1">
    <inkscape:grid
       type="xygrid"
       id="grid4136"
       empspacing="4" />
    <sodipodi:guide
       position="8,140"
       orientation="1,0"
       id="guide4138"
       inkscape:label="Margin Left"
       inkscape:color="rgb(0,0,255)"
       inkscape:locked="false" />
    <sodipodi:guide
       position="120,140"
       orientation="1,0"
       id="guide4140"
       inkscape:label="Margin Right"
       inkscape:color="rgb(0,0,255)"
       inkscape:locked="false" />
    <sodipodi:guide
       position="-20,120"
       orientation="0,1"
       id="guide4142"
       inkscape:label="Margin Top"
       inkscape:color="rgb(0,0,255)"
       inkscape:locked="false" />
    <sodipodi:guide
       position="-16,8"
       orientation="0,1"
       id="guide4144"
       inkscape:label="Margin Bottom"
       inkscape:color="rgb(0,0,255)"
       inkscape:locked="false" />
    <sodipodi:guide
       position="8,8"
       orientation="-0.70710678,0.70710678"
       id="guide4146"
       inkscape:locked="false" />
    <sodipodi:guide
       position="72,56"
       orientation="0.70710678,0.70710678"
       id="guide4148"
       inkscape:locked="false" />
    <sodipodi:guide
       position="20,140"
       orientation="1,0"
       id="guide4150"
       inkscape:label="Rectangle Left"
       inkscape:color="rgb(0,0,255)"
       inkscape:locked="false" />
    <sodipodi:guide
       position="108,140"
       orientation="1,0"
       id="guide4152"
       inkscape:label="Rectangle Right"
       inkscape:color="rgb(0,0,255)"
       inkscape:locked="false" />
    <sodipodi:guide
       position="-20,116"
       orientation="0,1"
       id="guide4154"
       inkscape:label="Shadow Top"
       inkscape:color="rgb(0,0,255)"
       inkscape:locked="false" />
    <sodipodi:guide
       position="-16,12"
       orientation="0,1"
       id="guide4156"
       inkscape:label="Shadow Bottom"
       inkscape:color="rgb(0,0,255)"
       inkscape:locked="false" />
    <sodipodi:guide
       position="-20,104"
       orientation="0,1"
       id="guide4158"
       inkscape:label="Rectangle Top"
       inkscape:color="rgb(0,0,255)"
       inkscape:locked="false" />
    <sodipodi:guide
       position="-16,24"
       orientation="0,1"
       id="guide4160"
       inkscape:label="Rectangle Bottom"
       inkscape:color="rgb(0,0,255)"
       inkscape:locked="false" />
  </sodipodi:namedview>
  <metadata
     id="metadata7">
    <rdf:RDF>
      <cc:Work
         rdf:about="">
        <dc:format>image/svg+xml</dc:format>
        <dc:type
           rdf:resource="http://purl.org/dc/dcmitype/StillImage" />
        <dc:title />
      </cc:Work>
    </rdf:RDF>
  </metadata>
  <g
     inkscape:label="Layer 1"
     inkscape:groupmode="layer"
     id="layer1"
     transform="translate(0,-924.36216)">
    <g
       id="g845"
       transform="matrix(1,0,0,0.96551725,0,34.081443)">
      <path
         style="fill:#009587;stroke-width:4"
         inkscape:connector-curvature="0"
         id="path2"
         d="m 26,930.36216 c -3.324,0 -6,2.67601 -6,6 v 100.00004 c 0,3.324 2.676,6 6,6 h 76 c 3.324,0 6,-2.676 6,-6 V 936.36216 c 0,-3.32399 -2.676,-6 -6,-6 z" />
      <path
         style="opacity:0.2;stroke-width:4"
         inkscape:connector-curvature="0"
         id="path4"
         d="m 26,930.36216 c -3.324,0 -6,2.67601 -6,6 v 100.00004 c 0,3.324 2.676,6 6,6 H 36 V 930.36216 Z" />
      <path
         style="opacity:0.2;stroke-width:4"
         inkscape:connector-curvature="0"
         id="path6"
         d="m 76,934.36216 v 56 l 8,-8 8,8 v -56 z" />
      <path
         style="fill:#d8d8d8;stroke-width:4"
         inkscape:connector-curvature="0"
         id="path8"
         d="m 76,930.36216 v 56 l 8,-8 8,8 v -56 z" />
      <path
         style="opacity:0.2;fill:#ffffff;stroke-width:4"
         inkscape:connector-curvature="0"
         id="path10"
         d="m 26,930.36216 c -3.324,0 -6,2.67601 -6,6 v 4 c 0,-3.32399 2.676,-6 6,-6 h 76 c 3.324,0 6,2.67601 6,6 v -4 c 0,-3.32399 -2.676,-6 -6,-6 z" />
      <path
         style="opacity:0.2;stroke-width:4"
         inkscape:connector-curvature="0"
         id="path12"
         d="m 20,1036.3622 v 4 c 0,3.324 2.676,6 6,6 h 76 c 3.324,0 6,-2.676 6,-6 v -4 c 0,3.324 -2.676,6 -6,6 H 26 c -3.324,0 -6,-2.676 -6,-6 z" />
    </g>
    <g
       id="g847"
       transform="translate(-101.1232,-0.0921)">
      <g
         id="g854"
         transform="translate(159.85644,22.99804)">
        <g
           id="g1545"
           transform="translate(-56.73324,-22.90598)">
          <circle
             style="fill:#8561c5;fill-rule:evenodd;stroke-width:4"
             id="circle14"
             r="32"
             cy="1016.3622"
             cx="94" />
          <path
             style="opacity:0.2;fill-rule:evenodd;stroke-width:4"
             inkscape:connector-curvature="0"
             id="path18"
             d="m 125.916,1018.0582 a 32,32 0 0 1 -31.916,30.304 32,32 0 0 1 -31.916,-29.696 32,32 0 0 0 -0.084,1.696 32,32 0 0 0 32,32 32,32 0 0 0 32,-32 32,32 0 0 0 -0.084,-2.304 z" />
        </g>
        <path
           style="opacity:0.2;fill-rule:evenodd;stroke-width:4"
           inkscape:connector-curvature="0"
           id="path847"
           d="m 37.26716,984.95624 c -3.87708,0.038 -7.78,0.9236 -11.1572,2.8375 -1.34604,0.8768 -2.96188,2.0092 -4.1796,3.1501 -1.916,1.876 -3.556,4.064 -4.664,6.516 3.03736,6.70036 9.7148,11.61126 17.0604,12.33686 4.8184,0.5454 9.8612,-0.2872 14.0968,-2.6714 1.346,-0.8768 2.96188,-2.0092 4.1796,-3.1502 1.916,-1.88 3.556,-4.06796 4.664,-6.51596 -3.036,-6.7 -9.716,-11.612 -17.06,-12.336 -0.976,-0.116 -1.96,-0.168 -2.94,-0.168 z m 0,5.0012 c 4.0176,-0.089 7.5756,3.5053 7.5,7.5016 0.12876,4.41676 -4.2724,8.22886 -8.6232,7.40406 -4.394,-0.5161 -7.4804,-5.44566 -6.0352,-9.62126 0.924,-3.072 3.94,-5.32 7.16,-5.284 z m 0,5.0012 a 2.5,2.50056 0 0 0 -2.5,2.504 2.5,2.50056 0 0 0 2.5,2.5 2.5,2.50056 0 0 0 2.5,-2.5 2.5,2.50056 0 0 0 -2.5,-2.492 z" />
        <path
           d="m 37.26716,980.95624 c -3.87708,0.038 -7.78,0.9236 -11.1572,2.8375 -1.34604,0.8768 -2.96188,2.0092 -4.1796,3.1501 -1.916,1.876 -3.556,4.064 -4.664,6.516 3.03736,6.70036 9.7148,11.61126 17.0604,12.33686 4.8184,0.5454 9.8612,-0.2872 14.0968,-2.6714 1.346,-0.8768 2.96188,-2.0092 4.1796,-3.15016 1.916,-1.88 3.556,-4.068 4.664,-6.516 -3.036,-6.7 -9.716,-11.612 -17.06,-12.336 -0.976,-0.116 -1.96,-0.168 -2.94,-0.168 z m 0,5.0012 c 4.0176,-0.089 7.5756,3.5053 7.5,7.5016 0.12876,4.4168 -4.2724,8.22886 -8.6232,7.40406 -4.394,-0.5161 -7.4804,-5.44566 -6.0352,-9.62126 0.924,-3.072 3.94,-5.32 7.16,-5.284 z m 0,5.0012 a 2.5,2.50056 0 0 0 -2.5,2.504 2.5,2.50056 0 0 0 2.5,2.5 2.5,2.50056 0 0 0 2.5,-2.5 2.5,2.50056 0 0 0 -2.5,-2.492 z"
           id="path10-3-6"
           inkscape:connector-curvature="0"
           style="fill:#ffffff;fill-rule:evenodd;stroke-width:4" />
      </g>
    </g>
  </g>
</svg>
