<?xml version="1.0" encoding="UTF-8" standalone="no"?>
<svg
   xmlns:dc="http://purl.org/dc/elements/1.1/"
   xmlns:cc="http://creativecommons.org/ns#"
   xmlns:rdf="http://www.w3.org/1999/02/22-rdf-syntax-ns#"
   xmlns:svg="http://www.w3.org/2000/svg"
   xmlns="http://www.w3.org/2000/svg"
   xmlns:sodipodi="http://sodipodi.sourceforge.net/DTD/sodipodi-0.dtd"
   xmlns:inkscape="http://www.inkscape.org/namespaces/inkscape"
   width="32"
   height="32"
   version="1"
   id="svg2"
   inkscape:version="0.91 r13725"
   sodipodi:docname="view.svg">
  <metadata
     id="metadata36">
    <rdf:RDF>
      <cc:Work
         rdf:about="">
        <dc:format>image/svg+xml</dc:format>
        <dc:type
           rdf:resource="http://purl.org/dc/dcmitype/StillImage" />
        <dc:title></dc:title>
      </cc:Work>
    </rdf:RDF>
  </metadata>
  <defs
     id="defs34" />
  <sodipodi:namedview
     pagecolor="#ffffff"
     bordercolor="#666666"
     borderopacity="1"
     objecttolerance="10"
     gridtolerance="10"
     guidetolerance="10"
     inkscape:pageopacity="0"
     inkscape:pageshadow="2"
     inkscape:window-width="1920"
     inkscape:window-height="1022"
     id="namedview32"
     showgrid="false"
     inkscape:zoom="14.06"
     inkscape:cx="24"
     inkscape:cy="15.861931"
     inkscape:window-x="0"
     inkscape:window-y="28"
     inkscape:window-maximized="1"
     inkscape:current-layer="svg2">
    <inkscape:grid
       type="xygrid"
       id="grid4180" />
  </sodipodi:namedview>
  <path
     id="path4220"
     d="M 16,3 C 8.244,3 2,9.244 2,17 2,24.756 8.244,31 16,31 23.756,31 30,24.756 30,17 30,9.244 23.756,3 16,3 Z"
     style="opacity:0.2;fill:#000000"
     inkscape:connector-curvature="0" />
  <path
     inkscape:connector-curvature="0"
     style="fill:#fecd38"
     d="M 16,2 C 8.244,2 2,8.244 2,16 2,23.756 8.244,30 16,30 23.756,30 30,23.756 30,16 30,8.244 23.756,2 16,2 Z"
     id="path4" />
  <path
     style="fill:#ffffff;opacity:0.2"
     d="M 16 2 C 8.244 2 2 8.244 2 16 C 2 16.168842 2.0195214 16.33264 2.0253906 16.5 C 2.2891326 8.9794325 8.4128418 3 16 3 C 23.587158 3 29.710867 8.9794325 29.974609 16.5 C 29.980479 16.33264 30 16.168842 30 16 C 30 8.244 23.756 2 16 2 z "
     id="path4215" />
  <rect
     style="fill:#212121"
     width="2"
     height="3"
     x="2"
     y="9"
     rx="0.66666669"
     ry="0.75"
     id="rect22" />
  <rect
     id="rect4193"
     ry="0.75"
     rx="0.66666669"
     y="9"
     x="-30"
     height="3"
     width="2"
     style="fill:#212121"
     transform="scale(-1,1)" />
  <path
     style="fill:#212121"
     d="m 16,9.999781 c -1.4,0 -2.800781,0.699219 -2.800781,0.699219 l 0,1 c 0,0 1.400781,-0.699219 2.800781,-0.699219 1.4,0 2.800781,0.699219 2.800781,0.699219 l 0,-1 C 18.800781,10.699 17.4,9.999781 16,9.999781 Z"
     id="path28"
     inkscape:connector-curvature="0" />
  <circle
     r="2.5"
     cy="12.5"
     cx="23.5"
     id="circle4207"
     style="opacity:1;fill:#ffffff;fill-opacity:1;stroke:none;stroke-width:4;stroke-linecap:round;stroke-linejoin:round;stroke-miterlimit:4;stroke-dasharray:none;stroke-opacity:1" />
  <circle
     style="opacity:1;fill:#ffffff;fill-opacity:1;stroke:none;stroke-width:4;stroke-linecap:round;stroke-linejoin:round;stroke-miterlimit:4;stroke-dasharray:none;stroke-opacity:1"
     id="path4205"
     cx="8.5"
     cy="12.5"
     r="2.5" />
  <path
     id="path4222"
     d="M 4.375,9 C 3.61325,9 3,9.5953177 3,10.333984 l 0,5.332032 C 3,16.404682 3.61325,17 4.375,17 l 8.25,0 C 13.38675,17 14,16.404682 14,15.666016 l 0,-5.332032 C 14,9.5953177 13.38675,9 12.625,9 l -8.25,0 z m 15,0 C 18.61325,9 18,9.5953177 18,10.333984 l 0,5.332032 C 18,16.404682 18.61325,17 19.375,17 l 8.25,0 C 28.38675,17 29,16.404682 29,15.666016 l 0,-5.332032 C 29,9.5953177 28.38675,9 27.625,9 l -8.25,0 z M 5,11 l 7,0 0,4 -7,0 0,-4 z m 15,0 7,0 0,4 -7,0 0,-4 z"
     style="color:#000000;font-style:normal;font-variant:normal;font-weight:normal;font-stretch:normal;font-size:medium;line-height:normal;font-family:sans-serif;text-indent:0;text-align:start;text-decoration:none;text-decoration-line:none;text-decoration-style:solid;text-decoration-color:#000000;letter-spacing:normal;word-spacing:normal;text-transform:none;direction:ltr;block-progression:tb;writing-mode:lr-tb;baseline-shift:baseline;text-anchor:start;white-space:normal;clip-rule:nonzero;display:inline;overflow:visible;visibility:visible;opacity:0.2;isolation:auto;mix-blend-mode:normal;color-interpolation:sRGB;color-interpolation-filters:linearRGB;solid-color:#000000;solid-opacity:1;fill:#000000;fill-opacity:1;fill-rule:nonzero;stroke:none;stroke-width:4;stroke-linecap:round;stroke-linejoin:round;stroke-miterlimit:4;stroke-dasharray:none;stroke-dashoffset:0;stroke-opacity:1;color-rendering:auto;image-rendering:auto;shape-rendering:auto;text-rendering:auto;enable-background:accumulate"
     inkscape:connector-curvature="0" />
  <path
     style="color:#000000;font-style:normal;font-variant:normal;font-weight:normal;font-stretch:normal;font-size:medium;line-height:normal;font-family:sans-serif;text-indent:0;text-align:start;text-decoration:none;text-decoration-line:none;text-decoration-style:solid;text-decoration-color:#000000;letter-spacing:normal;word-spacing:normal;text-transform:none;direction:ltr;block-progression:tb;writing-mode:lr-tb;baseline-shift:baseline;text-anchor:start;white-space:normal;clip-rule:nonzero;display:inline;overflow:visible;visibility:visible;opacity:1;isolation:auto;mix-blend-mode:normal;color-interpolation:sRGB;color-interpolation-filters:linearRGB;solid-color:#000000;solid-opacity:1;fill:#3f3f3f;fill-opacity:1;fill-rule:nonzero;stroke:none;stroke-width:4;stroke-linecap:round;stroke-linejoin:round;stroke-miterlimit:4;stroke-dasharray:none;stroke-dashoffset:0;stroke-opacity:1;color-rendering:auto;image-rendering:auto;shape-rendering:auto;text-rendering:auto;enable-background:accumulate"
     d="M 4.375 8 C 3.61325 8 3 8.5953177 3 9.3339844 L 3 14.666016 C 3 15.404682 3.61325 16 4.375 16 L 12.625 16 C 13.38675 16 14 15.404682 14 14.666016 L 14 9.3339844 C 14 8.5953177 13.38675 8 12.625 8 L 4.375 8 z M 19.375 8 C 18.61325 8 18 8.5953177 18 9.3339844 L 18 14.666016 C 18 15.404682 18.61325 16 19.375 16 L 27.625 16 C 28.38675 16 29 15.404682 29 14.666016 L 29 9.3339844 C 29 8.5953177 28.38675 8 27.625 8 L 19.375 8 z M 5 10 L 12 10 L 12 14 L 5 14 L 5 10 z M 20 10 L 27 10 L 27 14 L 20 14 L 20 10 z "
     id="path4200" />
  <circle
     style="opacity:1;fill:#333333;fill-opacity:1;stroke:none;stroke-width:4;stroke-linecap:round;stroke-linejoin:round;stroke-miterlimit:4;stroke-dasharray:none;stroke-opacity:1"
     id="path4209"
     cx="9"
     cy="13"
     r="1" />
  <circle
     r="1"
     cy="13"
     cx="24"
     id="circle4211"
     style="opacity:1;fill:#333333;fill-opacity:1;stroke:none;stroke-width:4;stroke-linecap:round;stroke-linejoin:round;stroke-miterlimit:4;stroke-dasharray:none;stroke-opacity:1" />
  <path
     style="fill:none;fill-rule:evenodd;stroke:#3f3f3f;stroke-width:2;stroke-linecap:round;stroke-linejoin:round;stroke-miterlimit:4;stroke-dasharray:none;stroke-opacity:1"
     d="m 11,21 c 0,0 1,3 5,3 4,0 5,-3 5,-3"
     id="path4213"
     inkscape:connector-curvature="0"
     sodipodi:nodetypes="czc" />
</svg>
