<svg xmlns="http://www.w3.org/2000/svg" width="32" height="32" version="1">
 <path fill="#ccc" d="m27 28.5v-25c0-0.831-0.669-1.5-1.5-1.5h-19c-0.831 0-1.5 0.669-1.5 1.5v25c0 0.831 0.669 1.5 1.5 1.5h19c0.831 0 1.5-0.669 1.5-1.5z"/>
 <circle style="fill-rule:evenodd;opacity:0.2" cx="24" cy="24" r="8"/>
 <path fill="#fff" opacity=".1" d="m6.5 2c-0.831 0-1.5 0.669-1.5 1.5v1c0-0.831 0.669-1.5 1.5-1.5h19c0.831 0 1.5 0.669 1.5 1.5v-1c0-0.831-0.669-1.5-1.5-1.5z"/>
 <g fill="#4c4c4c">
  <path d="m9 8h14v1h-14z"/>
  <path d="m9 11h14v1h-14z"/>
  <path d="m9 14h14v1h-14z"/>
  <path d="m9 17h14v1h-14z"/>
  <path d="m9 20h14v1h-14z"/>
  <path d="m9 23h14v1h-14z"/>
 </g>
 <path opacity=".2" d="m5 28.5v1c0 0.831 0.669 1.5 1.5 1.5h19c0.831 0 1.5-0.669 1.5-1.5v-1c0 0.831-0.669 1.5-1.5 1.5h-19c-0.831 0-1.5-0.669-1.5-1.5z"/>
 <circle style="fill:#c03630;fill-rule:evenodd" cx="24" cy="23" r="8"/>
 <path style="fill:#ffffff;fill-rule:evenodd" d="M 24,19.75 C 23.031,19.759 22.055,19.981 21.211,20.459 20.874,20.679 20.47,20.962 20.166,21.247 19.687,21.716 19.277,22.263 19,22.876 19.759,24.551 21.428,25.779 23.265,25.96 24.469,26.096 25.73,25.888 26.789,25.292 27.126,25.073 27.53,24.79 27.834,24.505 28.313,24.035 28.723,23.488 29,22.876 28.241,21.201 26.571,19.973 24.735,19.792 24.491,19.763 24.245,19.75 24,19.75 Z M 24,21 C 25.004,20.978 25.894,21.877 25.875,22.876 25.907,23.98 24.807,24.933 23.719,24.727 22.621,24.598 21.849,23.365 22.21,22.321 22.441,21.553 23.195,20.991 24,21 Z M 24,22.251 A 0.625,0.62514 0 0 0 23.375,22.877 0.625,0.62514 0 0 0 24,23.502 0.625,0.62514 0 0 0 24.625,22.877 0.625,0.62514 0 0 0 24,22.253 Z"/>
</svg>
