<svg xmlns="http://www.w3.org/2000/svg" id="svg2" width="32" height="32" version="1">
 <path id="path4220" d="M 16,3 C 8.244,3 2,9.244 2,17 2,24.756 8.244,31 16,31 23.756,31 30,24.756 30,17 30,9.244 23.756,3 16,3 Z" style="opacity:0.2;fill:#000000"/>
 <path style="fill:#fecd38" id="path4" d="M 16,2 C 8.244,2 2,8.244 2,16 2,23.756 8.244,30 16,30 23.756,30 30,23.756 30,16 30,8.244 23.756,2 16,2 Z"/>
 <path style="fill:#ffffff;opacity:0.2" id="path4215" d="M 16 2 C 8.244 2 2 8.244 2 16 C 2 16.168842 2.0195214 16.33264 2.0253906 16.5 C 2.2891326 8.9794325 8.4128418 3 16 3 C 23.587158 3 29.710867 8.9794325 29.974609 16.5 C 29.980479 16.33264 30 16.168842 30 16 C 30 8.244 23.756 2 16 2 z"/>
 <rect style="fill:#212121" id="rect22" width="2" height="3" x="2" y="9" rx=".667" ry=".75"/>
 <rect id="rect4193" width="2" height="3" x="-30" y="9" rx=".667" ry=".75" transform="scale(-1,1)" style="fill:#212121"/>
 <path style="fill:#212121" id="path28" d="m 16,9.999781 c -1.4,0 -2.800781,0.699219 -2.800781,0.699219 l 0,1 c 0,0 1.400781,-0.699219 2.800781,-0.699219 1.4,0 2.800781,0.699219 2.800781,0.699219 l 0,-1 C 18.800781,10.699 17.4,9.999781 16,9.999781 Z"/>
 <circle id="circle4207" cx="23.5" cy="12.5" r="2.5" style="opacity:1;fill:#ffffff;fill-opacity:1;stroke:none;stroke-width:4;stroke-linecap:round;stroke-linejoin:round;stroke-miterlimit:4;stroke-dasharray:none;stroke-opacity:1"/>
 <circle style="opacity:1;fill:#ffffff;fill-opacity:1;stroke:none;stroke-width:4;stroke-linecap:round;stroke-linejoin:round;stroke-miterlimit:4;stroke-dasharray:none;stroke-opacity:1" id="path4205" cx="8.5" cy="12.5" r="2.5"/>
 <path id="path4222" d="M 4.375,9 C 3.61325,9 3,9.5953177 3,10.333984 l 0,5.332032 C 3,16.404682 3.61325,17 4.375,17 l 8.25,0 C 13.38675,17 14,16.404682 14,15.666016 l 0,-5.332032 C 14,9.5953177 13.38675,9 12.625,9 l -8.25,0 z m 15,0 C 18.61325,9 18,9.5953177 18,10.333984 l 0,5.332032 C 18,16.404682 18.61325,17 19.375,17 l 8.25,0 C 28.38675,17 29,16.404682 29,15.666016 l 0,-5.332032 C 29,9.5953177 28.38675,9 27.625,9 l -8.25,0 z M 5,11 l 7,0 0,4 -7,0 0,-4 z m 15,0 7,0 0,4 -7,0 0,-4 z" style="color:#000000;font-style:normal;font-variant:normal;font-weight:normal;font-stretch:normal;font-size:medium;line-height:normal;font-family:sans-serif;text-indent:0;text-align:start;text-decoration:none;text-decoration-line:none;text-decoration-style:solid;text-decoration-color:#000000;letter-spacing:normal;word-spacing:normal;text-transform:none;direction:ltr;block-progression:tb;writing-mode:lr-tb;baseline-shift:baseline;text-anchor:start;white-space:normal;clip-rule:nonzero;display:inline;overflow:visible;visibility:visible;opacity:0.2;isolation:auto;mix-blend-mode:normal;color-interpolation:sRGB;color-interpolation-filters:linearRGB;solid-color:#000000;solid-opacity:1;fill:#000000;fill-opacity:1;fill-rule:nonzero;stroke:none;stroke-width:4;stroke-linecap:round;stroke-linejoin:round;stroke-miterlimit:4;stroke-dasharray:none;stroke-dashoffset:0;stroke-opacity:1;color-rendering:auto;image-rendering:auto;shape-rendering:auto;text-rendering:auto;enable-background:accumulate"/>
 <path style="color:#000000;font-style:normal;font-variant:normal;font-weight:normal;font-stretch:normal;font-size:medium;line-height:normal;font-family:sans-serif;text-indent:0;text-align:start;text-decoration:none;text-decoration-line:none;text-decoration-style:solid;text-decoration-color:#000000;letter-spacing:normal;word-spacing:normal;text-transform:none;direction:ltr;block-progression:tb;writing-mode:lr-tb;baseline-shift:baseline;text-anchor:start;white-space:normal;clip-rule:nonzero;display:inline;overflow:visible;visibility:visible;opacity:1;isolation:auto;mix-blend-mode:normal;color-interpolation:sRGB;color-interpolation-filters:linearRGB;solid-color:#000000;solid-opacity:1;fill:#3f3f3f;fill-opacity:1;fill-rule:nonzero;stroke:none;stroke-width:4;stroke-linecap:round;stroke-linejoin:round;stroke-miterlimit:4;stroke-dasharray:none;stroke-dashoffset:0;stroke-opacity:1;color-rendering:auto;image-rendering:auto;shape-rendering:auto;text-rendering:auto;enable-background:accumulate" id="path4200" d="M 4.375 8 C 3.61325 8 3 8.5953177 3 9.3339844 L 3 14.666016 C 3 15.404682 3.61325 16 4.375 16 L 12.625 16 C 13.38675 16 14 15.404682 14 14.666016 L 14 9.3339844 C 14 8.5953177 13.38675 8 12.625 8 L 4.375 8 z M 19.375 8 C 18.61325 8 18 8.5953177 18 9.3339844 L 18 14.666016 C 18 15.404682 18.61325 16 19.375 16 L 27.625 16 C 28.38675 16 29 15.404682 29 14.666016 L 29 9.3339844 C 29 8.5953177 28.38675 8 27.625 8 L 19.375 8 z M 5 10 L 12 10 L 12 14 L 5 14 L 5 10 z M 20 10 L 27 10 L 27 14 L 20 14 L 20 10 z"/>
 <circle style="opacity:1;fill:#333333;fill-opacity:1;stroke:none;stroke-width:4;stroke-linecap:round;stroke-linejoin:round;stroke-miterlimit:4;stroke-dasharray:none;stroke-opacity:1" id="path4209" cx="9" cy="13" r="1"/>
 <circle id="circle4211" cx="24" cy="13" r="1" style="opacity:1;fill:#333333;fill-opacity:1;stroke:none;stroke-width:4;stroke-linecap:round;stroke-linejoin:round;stroke-miterlimit:4;stroke-dasharray:none;stroke-opacity:1"/>
 <path style="fill:none;fill-rule:evenodd;stroke:#3f3f3f;stroke-width:2;stroke-linecap:round;stroke-linejoin:round;stroke-miterlimit:4;stroke-dasharray:none;stroke-opacity:1" id="path4213" d="m 11,21 c 0,0 1,3 5,3 4,0 5,-3 5,-3"/>
</svg>
