<svg xmlns="http://www.w3.org/2000/svg" id="svg2" width="32" height="32" version="1.1" viewBox="0 0 32 32">
 <circle style="opacity:0.2" id="circle4" cx="16" cy="17" r="14"/>
 <circle style="fill:#416da9;fill-opacity:1" id="circle6" cx="16" cy="16" r="14"/>
 <path style="opacity:0.2" id="path8" d="M 26,17 H 22 A 6,6 0 0 1 16,23 6,6 0 0 1 10,17 6,6 0 0 1 16,11 V 13 L 22,9 16,5 V 7 A 10,10 0 0 0 6,17 10,10 0 0 0 16,27 10,10 0 0 0 26,17 Z"/>
 <path style="fill:#ffffff" id="path10" d="M 26,16 H 22 A 6,6 0 0 1 16,22 6,6 0 0 1 10,16 6,6 0 0 1 16,10 V 12 L 22,8 16,4 V 6 A 10,10 0 0 0 6,16 10,10 0 0 0 16,26 10,10 0 0 0 26,16 Z"/>
 <path style="fill:#ffffff;opacity:0.2" id="path12" d="M 16 2 A 14 14 0 0 0 2 16 A 14 14 0 0 0 2.0215 16.586 A 14 14 0 0 1 16 3 A 14 14 0 0 1 29.979 16.414 A 14 14 0 0 0 30 16 A 14 14 0 0 0 16 2 z"/>
</svg>
