<svg xmlns="http://www.w3.org/2000/svg" width="32" height="32" version="1.1" viewBox="0 0 32 32">
 <circle style="opacity:0.2" cx="16" cy="17" r="14"/>
 <circle style="fill:#f44336" cx="16" cy="16" r="14"/>
 <g style="opacity:0.2" transform="translate(0,0.99996)">
  <rect width="4" height="20" x="-1.96" y="-32.58" transform="rotate(135)"/>
  <rect width="4" height="20" x="-24.58" y="-10.02" transform="rotate(-135)"/>
 </g>
 <g>
  <rect style="fill:#ffffff" width="4" height="20" x="-1.96" y="-32.58" transform="rotate(135)"/>
  <rect style="fill:#ffffff" width="4" height="20" x="-24.58" y="-10.02" transform="rotate(-135)"/>
 </g>
 <path style="fill:#ffffff;opacity:0.2" d="M 16 2 A 14 14 0 0 0 2 16 A 14 14 0 0 0 2.0215 16.586 A 14 14 0 0 1 16 3 A 14 14 0 0 1 29.979 16.414 A 14 14 0 0 0 30 16 A 14 14 0 0 0 16 2 z"/>
</svg>
