<?xml version="1.0" encoding="UTF-8" standalone="no"?>
<!-- Created with Inkscape (http://www.inkscape.org/) -->

<svg
   xmlns:dc="http://purl.org/dc/elements/1.1/"
   xmlns:cc="http://creativecommons.org/ns#"
   xmlns:rdf="http://www.w3.org/1999/02/22-rdf-syntax-ns#"
   xmlns:svg="http://www.w3.org/2000/svg"
   xmlns="http://www.w3.org/2000/svg"
   xmlns:sodipodi="http://sodipodi.sourceforge.net/DTD/sodipodi-0.dtd"
   xmlns:inkscape="http://www.inkscape.org/namespaces/inkscape"
   width="128"
   height="128"
   viewBox="0 0 128 128"
   id="svg2"
   version="1.1"
   inkscape:version="0.92.2 5c3e80d, 2017-08-06"
   sodipodi:docname="wizard.svg">
  <defs
     id="defs4" />
  <sodipodi:namedview
     id="base"
     pagecolor="#ffffff"
     bordercolor="#666666"
     borderopacity="1.0"
     inkscape:pageopacity="0.0"
     inkscape:pageshadow="2"
     inkscape:zoom="2.52183"
     inkscape:cx="62.820239"
     inkscape:cy="64.179354"
     inkscape:document-units="px"
     inkscape:current-layer="g836"
     showgrid="false"
     units="px"
     showguides="true"
     inkscape:guide-bbox="true"
     inkscape:window-width="1366"
     inkscape:window-height="694"
     inkscape:window-x="0"
     inkscape:window-y="48"
     inkscape:window-maximized="1"
     inkscape:snap-bbox="true">
    <inkscape:grid
       type="xygrid"
       id="grid4136"
       empspacing="4" />
    <sodipodi:guide
       position="8,140"
       orientation="1,0"
       id="guide4138"
       inkscape:label="Margin Left"
       inkscape:color="rgb(0,0,255)"
       inkscape:locked="false" />
    <sodipodi:guide
       position="120,140"
       orientation="1,0"
       id="guide4140"
       inkscape:label="Margin Right"
       inkscape:color="rgb(0,0,255)"
       inkscape:locked="false" />
    <sodipodi:guide
       position="-20,120"
       orientation="0,1"
       id="guide4142"
       inkscape:label="Margin Top"
       inkscape:color="rgb(0,0,255)"
       inkscape:locked="false" />
    <sodipodi:guide
       position="-16,8"
       orientation="0,1"
       id="guide4144"
       inkscape:label="Margin Bottom"
       inkscape:color="rgb(0,0,255)"
       inkscape:locked="false" />
    <sodipodi:guide
       position="8,8"
       orientation="-0.70710678,0.70710678"
       id="guide4146"
       inkscape:locked="false" />
    <sodipodi:guide
       position="72,56"
       orientation="0.70710678,0.70710678"
       id="guide4148"
       inkscape:locked="false" />
    <sodipodi:guide
       position="20,140"
       orientation="1,0"
       id="guide4150"
       inkscape:label="Rectangle Left"
       inkscape:color="rgb(0,0,255)"
       inkscape:locked="false" />
    <sodipodi:guide
       position="108,140"
       orientation="1,0"
       id="guide4152"
       inkscape:label="Rectangle Right"
       inkscape:color="rgb(0,0,255)"
       inkscape:locked="false" />
    <sodipodi:guide
       position="-20,116"
       orientation="0,1"
       id="guide4154"
       inkscape:label="Shadow Top"
       inkscape:color="rgb(0,0,255)"
       inkscape:locked="false" />
    <sodipodi:guide
       position="-16,12"
       orientation="0,1"
       id="guide4156"
       inkscape:label="Shadow Bottom"
       inkscape:color="rgb(0,0,255)"
       inkscape:locked="false" />
    <sodipodi:guide
       position="-20,104"
       orientation="0,1"
       id="guide4158"
       inkscape:label="Rectangle Top"
       inkscape:color="rgb(0,0,255)"
       inkscape:locked="false" />
    <sodipodi:guide
       position="-16,24"
       orientation="0,1"
       id="guide4160"
       inkscape:label="Rectangle Bottom"
       inkscape:color="rgb(0,0,255)"
       inkscape:locked="false" />
  </sodipodi:namedview>
  <metadata
     id="metadata7">
    <rdf:RDF>
      <cc:Work
         rdf:about="">
        <dc:format>image/svg+xml</dc:format>
        <dc:type
           rdf:resource="http://purl.org/dc/dcmitype/StillImage" />
        <dc:title></dc:title>
      </cc:Work>
    </rdf:RDF>
  </metadata>
  <g
     inkscape:label="Layer 1"
     inkscape:groupmode="layer"
     id="layer1"
     transform="translate(0,-924.36216)">
    <g
       id="g836"
       transform="matrix(4,0,0,4,-8e-4,922.36216)">
      <g
         id="g851"
         transform="translate(-1.5905605e-4,8.8947993e-4)">
        <path
           id="path2"
           d="m 18.723,1.1904 c -2.8616,0.39886 -5.9367,1.9033 -8.4383,6.3543 -5.7198,10.171 -5.3136,13.711 -6.2252,14.855 -0.91502,1.1392 -3.3809,1.7575 -3.0243,3.0525 0.60616,1.2149 0.8164,1.3498 0.8164,1.3498 0,0 3.5014,5.4084 13.945,3.9476 10.443,-1.4608 11.891,-3.8415 11.796,-5.0231 -0.09462,-1.1829 -2.2985,-2.0454 -2.2985,-2.0454 0,0 -1.6316,-6.2122 -1.2127,-8.7625 0.41886,-2.5515 2.0101,-6.2696 3.5828,-7.0698 1.5681,-0.80769 2.3528,2.7023 3.1639,1.836 0.808,-0.868 -1.343,-5.9783 -3.97,-7.5012 -2.102,-1.4284 -4.419,-1.291 -8.135,-0.9876"
           inkscape:connector-curvature="0"
           style="fill:#3e50b4" />
        <g
           id="g10"
           transform="matrix(0.75784,0,0,0.70957,-2.1426,0.34421)"
           style="opacity:0.2">
          <path
             id="path4"
             d="m 22.089,17.167 3.882,-0.22261 2.055,-3.336 1.4104,3.805 3.7402,1.443 -2.8837,2.4851 -0.06285,4.0339 -3.0605,-2.1156 -4.0939,1.4241 1.1473,-3.9107 m -2.1354,-3.6076"
             inkscape:connector-curvature="0" />
          <path
             id="path6"
             d="m 21.507,29.297 3.6481,-1.4494 1.045,-3.8492 2.3868,3.1734 3.9682,0.18472 -2.0667,3.2934 1.045,3.8728 -3.5005,-1.0357 -3.5166,2.6698 0.02339,-4.1018 m -3.0313,-2.7566"
             inkscape:connector-curvature="0" />
          <path
             id="path8"
             d="m 12.064,24.197 3.8761,0.31418 2.4262,-3.0345 0.95295,3.966 3.5399,1.9483 -3.1512,2.0667 -0.5364,3.9897 -2.7799,-2.5103 -4.2313,0.85098 1.5931,-3.7181 m -1.6896,-3.8728"
             inkscape:connector-curvature="0" />
        </g>
        <g
           id="g18"
           transform="matrix(0.75784,0,0,0.70957,-2.1426,-0.65589)"
           style="fill:#ffbe4b">
          <path
             id="path12"
             d="m 22.089,17.167 3.882,-0.22261 2.055,-3.336 1.4104,3.805 3.7402,1.443 -2.8837,2.4851 -0.06285,4.0339 -3.0605,-2.1156 -4.0939,1.4241 1.1473,-3.9107 m -2.1354,-3.6076"
             inkscape:connector-curvature="0" />
          <path
             id="path14"
             d="m 21.507,29.297 3.6481,-1.4494 1.045,-3.8492 2.3868,3.1734 3.9682,0.18472 -2.0667,3.2934 1.045,3.8728 -3.5005,-1.0357 -3.5166,2.6698 0.02339,-4.1018 m -3.0313,-2.7566"
             inkscape:connector-curvature="0" />
          <path
             id="path16"
             d="m 12.064,24.197 3.8761,0.31418 2.4262,-3.0345 0.95295,3.966 3.5399,1.9483 -3.1512,2.0667 -0.5364,3.9897 -2.7799,-2.5103 -4.2313,0.85098 1.5931,-3.7181 m -1.6896,-3.8728"
             inkscape:connector-curvature="0" />
        </g>
        <path
           id="path20"
           d="M 8.2199,15.201"
           inkscape:connector-curvature="0"
           style="fill:#2d2d2d" />
        <path
           id="path22"
           d="M 22.375,1 C 21.312,0.99327 20.114,1.0835 18.721,1.1973 l 0.002,-0.0078 c -2.862,0.3988 -5.936,1.9044 -8.438,6.3554 -5.7196,10.171 -5.3148,13.711 -6.2264,14.855 -0.915,1.14 -3.38,1.758 -3.0234,3.053 0.0532,0.107 0.0874,0.163 0.1347,0.254 0.5117,-0.833 2.1694,-1.411 2.8887,-2.307 0.9116,-1.144 0.5068,-4.684 6.2264,-14.855 2.502,-4.4511 5.576,-5.9567 8.438,-6.3555 l -0.002,0.0078 c 3.716,-0.3035 6.034,-0.4401 8.136,0.9882 2.018,1.1697 3.749,4.4489 4.081,6.3028 C 31.38,8.2308 29.331,3.6194 26.857,2.1854 25.544,1.2927 24.146,1.0111 22.375,0.9999 Z m 1.67,15.535 c -0.141,2.802 1.25,8.147 1.25,8.147 0,0 1.751,0.691 2.191,1.683 0.09,-0.236 0.121,-0.453 0.106,-0.638 -0.095,-1.183 -2.297,-2.045 -2.297,-2.045 0,0 -1.102,-4.234 -1.25,-7.147 z"
           inkscape:connector-curvature="0"
           style="opacity:0.1;fill:#ffefef" />
        <path
           id="path24"
           d="m 28.217,7.7306 c -0.173,-0.017 -0.357,0.0181 -0.553,0.1191 -1.573,0.8002 -3.163,4.5174 -3.582,7.0684 -0.072,0.44 -0.068,1.01 -0.037,1.617 0.01,-0.209 0.008,-0.44 0.037,-0.617 0.419,-2.551 2.009,-6.2682 3.582,-7.0684 1.568,-0.8077 2.353,2.7024 3.164,1.8359 0.187,-0.2009 0.21,-0.6374 0.11,-1.1972 -0.028,0.078 -0.063,0.1466 -0.11,0.1972 -0.71,0.758 -1.399,-1.8361 -2.611,-1.955 z M 1.17,25.7066 c -0.1392,0.227 -0.21102,0.469 -0.1347,0.746 0.6061,1.215 0.8164,1.35 0.8164,1.35 0,0 3.5015,5.408 13.945,3.947 10.442,-1.461 11.889,-3.842 11.795,-5.023 -0.01,-0.125 -0.054,-0.245 -0.106,-0.362 -0.483,1.27 -2.885,3.153 -11.689,4.385 -10.444,1.461 -13.945,-3.947 -13.945,-3.947 -4e-4,0 -0.1913,-0.154 -0.6821,-1.096 z"
           inkscape:connector-curvature="0"
           style="opacity:0.2" />
      </g>
    </g>
  </g>
</svg>
